<svg width="696" height="401" viewBox="0 0 696 401" fill="none" xmlns="http://www.w3.org/2000/svg">
<g filter="url(#filter0_f_28_100)">
<mask id="mask0_28_100" style="mask-type:alpha" maskUnits="userSpaceOnUse" x="4" y="7" width="685" height="386">
<rect width="685" height="386" transform="matrix(-1 0 0 1 689 7)" fill="black" fill-opacity="0.5"/>
</mask>
<g mask="url(#mask0_28_100)">
<path d="M102.038 207.563C116.176 207.563 129.507 210.905 141.449 216.688C140.437 211.869 139.887 206.876 139.887 201.748C139.887 161.953 171.931 129.687 211.452 129.687C227.646 129.687 242.53 135.17 254.527 144.295C277.712 85.5076 334.667 43.9271 401.311 43.9271C431.652 43.9271 459.985 52.5624 484.049 67.4944C492.412 32.7952 523.381 7 560.415 7C600.163 7 632.936 36.7139 638.24 75.2685C647.114 73.4751 656.294 72.5112 665.693 72.5112C742.46 72.5112 804.687 135.17 804.687 212.469C804.687 219.2 804.052 225.766 803.141 232.236C807.527 229.961 812.423 228.547 817.696 228.547C835.208 228.547 849.394 242.744 849.598 260.331C853.09 259.746 856.66 259.375 860.316 259.375C896.408 259.375 925.666 288.836 925.666 325.178C925.666 361.521 896.408 390.99 860.316 390.99H102.046C54.2075 401.391 7.97745 381.647 7.97745 300.696C7.97745 251.284 51.7364 207.563 102.038 207.563Z" fill="black" fill-opacity="0.5"/>
</g>
</g>
<mask id="mask1_28_100" style="mask-type:alpha" maskUnits="userSpaceOnUse" x="12" y="9" width="685" height="392">
<rect width="684" height="392" transform="matrix(-1 0 0 1 696 9)" fill="#A6A6A6"/>
</mask>
<g mask="url(#mask1_28_100)">
<path d="M103.878 213.72C118.141 213.72 131.589 217.131 143.635 223.034C142.614 218.115 142.06 213.018 142.06 207.784C142.06 167.165 174.385 134.23 214.254 134.23C230.59 134.23 245.605 139.827 257.707 149.141C281.096 89.1347 338.552 46.6924 405.782 46.6924C436.39 46.6924 464.971 55.5067 489.246 70.7481C497.684 35.3298 528.925 9 566.284 9C606.381 9 639.443 39.3297 644.793 78.6834C653.745 76.8528 663.006 75.869 672.488 75.869C749.929 75.869 812.703 139.827 812.703 218.728C812.703 225.598 812.062 232.3 811.144 238.904C815.568 236.582 820.507 235.138 825.826 235.138C843.493 235.138 857.803 249.63 858.009 267.581C861.531 266.984 865.132 266.605 868.821 266.605C905.23 266.605 934.745 296.677 934.745 333.772C934.745 370.868 905.23 400.948 868.821 400.948H103.886C53.1427 400.948 12.0001 359.038 12.0001 307.33C12.0001 255.63 53.1347 213.72 103.878 213.72Z" fill="white"/>
</g>
<defs>
<filter id="filter0_f_28_100" x="0.977539" y="0" width="695.022" height="400" filterUnits="userSpaceOnUse" color-interpolation-filters="sRGB">
<feFlood flood-opacity="0" result="BackgroundImageFix"/>
<feBlend mode="normal" in="SourceGraphic" in2="BackgroundImageFix" result="shape"/>
<feGaussianBlur stdDeviation="3.5" result="effect1_foregroundBlur_28_100"/>
</filter>
</defs>
</svg>
