<svg width="696" height="401" viewBox="0 0 696 401" fill="none" xmlns="http://www.w3.org/2000/svg">
<g filter="url(#filter0_f_28_69)">
<mask id="mask0_28_69" style="mask-type:alpha" maskUnits="userSpaceOnUse" x="7" y="7" width="685" height="386">
<rect x="7" y="7" width="685" height="386" fill="black" fill-opacity="0.5"/>
</mask>
<g mask="url(#mask0_28_69)">
<path d="M593.963 207.563C579.824 207.563 566.494 210.905 554.552 216.688C555.564 211.869 556.113 206.876 556.113 201.748C556.113 161.953 524.07 129.687 484.549 129.687C468.355 129.687 453.471 135.17 441.474 144.295C418.289 85.5076 361.334 43.9271 294.689 43.9271C264.348 43.9271 236.016 52.5624 211.952 67.4944C203.588 32.7952 172.62 7 135.586 7C95.8376 7 63.0645 36.7139 57.7605 75.2685C48.8866 73.4751 39.7067 72.5112 30.3071 72.5112C-46.4592 72.5112 -108.687 135.17 -108.687 212.469C-108.687 219.2 -108.051 225.766 -107.141 232.236C-111.527 229.961 -116.423 228.547 -121.695 228.547C-139.208 228.547 -153.394 242.744 -153.598 260.331C-157.089 259.746 -160.659 259.375 -164.315 259.375C-200.407 259.375 -229.666 288.836 -229.666 325.178C-229.666 361.521 -200.407 390.99 -164.315 390.99H593.955C641.793 401.391 688.023 381.647 688.023 300.696C688.023 251.284 644.264 207.563 593.963 207.563Z" fill="black" fill-opacity="0.5"/>
</g>
</g>
<mask id="mask1_28_69" style="mask-type:alpha" maskUnits="userSpaceOnUse" x="0" y="9" width="684" height="392">
<rect y="9" width="684" height="392" fill="#A6A6A6"/>
</mask>
<g mask="url(#mask1_28_69)">
<path d="M592.122 213.72C577.859 213.72 564.411 217.131 552.365 223.034C553.386 218.115 553.94 213.018 553.94 207.784C553.94 167.165 521.615 134.23 481.747 134.23C465.41 134.23 450.395 139.827 438.293 149.141C414.904 89.1347 357.449 46.6924 290.218 46.6924C259.611 46.6924 231.029 55.5067 206.754 70.7481C198.316 35.3298 167.076 9 129.717 9C89.6189 9 56.5577 39.3297 51.2072 78.6834C42.2552 76.8528 32.9946 75.869 23.5124 75.869C-53.9285 75.869 -116.703 139.827 -116.703 218.728C-116.703 225.598 -116.062 232.3 -115.144 238.904C-119.568 236.582 -124.507 235.138 -129.826 235.138C-147.492 235.138 -161.803 249.63 -162.009 267.581C-165.531 266.984 -169.132 266.605 -172.821 266.605C-209.23 266.605 -238.745 296.677 -238.745 333.772C-238.745 370.868 -209.23 400.948 -172.821 400.948H592.114C642.858 400.948 684 359.038 684 307.33C684 255.63 642.866 213.72 592.122 213.72Z" fill="white"/>
</g>
<defs>
<filter id="filter0_f_28_69" x="0" y="0" width="695.023" height="400" filterUnits="userSpaceOnUse" color-interpolation-filters="sRGB">
<feFlood flood-opacity="0" result="BackgroundImageFix"/>
<feBlend mode="normal" in="SourceGraphic" in2="BackgroundImageFix" result="shape"/>
<feGaussianBlur stdDeviation="3.5" result="effect1_foregroundBlur_28_69"/>
</filter>
</defs>
</svg>
