<svg width="1996" height="314" viewBox="0 0 1996 314" fill="none" xmlns="http://www.w3.org/2000/svg">
<g filter="url(#filter0_d_15_371)">
<path d="M1978.86 23.6534C1957.88 23.6534 1940.71 31.5948 1932.53 44.9807C1913.75 28.5347 1885.09 18.5869 1854.2 18.0626C1853.34 18.0496 1852.47 18.041 1851.61 18.041C1796.31 18.041 1752.37 47.4049 1751.59 84.891C1751.51 89.0144 1751.98 93.1967 1753.01 97.3374C1752.94 98.2276 1752.9 99.1066 1752.87 99.977C1750.24 99.656 1747.58 99.4925 1744.9 99.4925C1714.71 99.4925 1686.03 119.434 1678.18 145.879C1674.72 157.539 1675.27 169.962 1679.09 181.717C1671.71 178.42 1663.67 175.854 1655.19 174.188C1646.61 172.497 1637.96 171.778 1629.46 172.045C1596.08 173.092 1569.94 189.097 1564.41 211.867C1563.64 215.027 1563.29 218.311 1563.36 221.642C1563.28 221.918 1563.2 222.193 1563.12 222.468C1557.91 220.98 1552.39 220.32 1546.62 220.501C1538.65 220.751 1530.81 222.627 1523.7 225.772C1523.66 225.742 1523.62 225.711 1523.58 225.681C1519.51 221.873 1514.87 219.169 1509.79 217.637C1502.47 214.184 1494.61 211.634 1486.36 210.034C1488.5 188.987 1471.32 165.819 1443.72 153.507C1431.59 148.098 1418.55 145.238 1406.01 145.238C1385.03 145.238 1367.85 153.179 1359.68 166.565C1340.9 150.119 1312.24 140.171 1281.35 139.647C1280.48 139.634 1279.62 139.625 1278.76 139.625C1271.37 139.625 1264.18 140.156 1257.26 141.155C1251.96 131.756 1244.28 123.289 1234.59 116.411C1230.51 112.602 1225.88 109.898 1220.79 108.366C1213.48 104.913 1205.62 102.363 1197.37 100.762C1199.51 79.7147 1182.32 56.5472 1154.73 44.2349C1142.6 38.825 1129.56 35.9656 1117.02 35.9656C1096.04 35.9656 1078.86 43.907 1070.69 57.2929C1051.91 40.8469 1023.25 30.8992 992.359 30.3749C991.492 30.3619 990.63 30.3532 989.77 30.3532C989.457 30.3532 989.146 30.3627 988.833 30.3645C988.52 30.3627 988.21 30.3532 987.896 30.3532C987.036 30.3532 986.174 30.3619 985.307 30.3749C954.418 30.8983 925.757 40.8469 906.979 57.2929C898.805 43.907 881.63 35.9656 860.644 35.9656C848.104 35.9656 835.068 38.825 822.94 44.2349C795.342 56.5463 778.154 79.7138 780.295 100.761C772.043 102.362 764.185 104.912 756.871 108.365C751.788 109.897 747.152 112.602 743.079 116.41C733.386 123.288 725.705 131.755 720.403 141.154C713.489 140.155 706.3 139.624 698.905 139.624C698.045 139.624 697.183 139.633 696.316 139.646C665.427 140.169 636.766 150.118 617.988 166.564C609.813 153.178 592.639 145.237 571.653 145.237C559.816 145.237 547.539 147.787 536 152.623V312H960.996H1016.67L1987 312V24.054C1984.27 23.7927 1981.56 23.6534 1978.86 23.6534Z" fill="white"/>
<path d="M14.8831 20.6704C35.2181 20.6704 51.8589 28.694 59.7802 42.2184C77.9756 25.6022 105.748 15.5515 135.679 15.0218C136.519 15.0087 137.354 15 138.187 15C191.777 15 234.352 44.6677 235.11 82.5416C235.191 86.7076 234.729 90.9331 233.736 95.1167C233.799 96.0161 233.843 96.9042 233.873 97.7836C236.418 97.4593 238.998 97.2941 241.595 97.2941C270.847 97.2941 298.639 117.442 306.243 144.161C309.594 155.941 309.064 168.493 305.357 180.369C312.511 177.038 320.305 174.446 328.515 172.762C336.83 171.054 345.219 170.328 353.451 170.597C385.794 171.655 411.125 187.826 416.484 210.831C417.229 214.023 417.57 217.341 417.501 220.708C417.58 220.986 417.656 221.264 417.73 221.542C422.778 220.038 428.134 219.372 433.721 219.555C441.442 219.807 449.037 221.702 455.928 224.88C455.969 224.849 456.008 224.819 456.049 224.788C459.996 220.94 464.489 218.209 469.414 216.66C476.501 213.172 484.116 210.596 492.112 208.979C490.037 187.714 506.692 164.307 533.434 151.867C545.186 146.402 557.818 143.512 569.969 143.512C590.304 143.512 606.945 151.536 614.866 165.06C633.061 148.444 660.833 138.394 690.765 137.864C691.605 137.851 692.44 137.842 693.273 137.842C700.44 137.842 707.406 138.378 714.105 139.387C719.243 129.891 726.686 121.337 736.078 114.388C740.025 110.54 744.517 107.807 749.443 106.259C756.53 102.77 764.144 100.194 772.14 98.5764C770.066 77.3117 786.721 53.9045 813.462 41.4649C825.215 35.999 837.845 33.11 849.997 33.11C870.332 33.11 886.973 41.1336 894.896 54.6579C913.091 38.0418 940.863 27.9912 970.794 27.4614C971.634 27.4483 972.47 27.4396 973.303 27.4396C973.606 27.4396 973.907 27.4492 974.211 27.4509C974.514 27.4492 974.814 27.4396 975.119 27.4396C975.952 27.4396 976.787 27.4483 977.627 27.4614C1007.56 27.9903 1035.33 38.0418 1053.53 54.6579C1061.45 41.1336 1078.09 33.11 1098.42 33.11C1110.57 33.11 1123.21 35.999 1134.96 41.4649C1161.7 53.9036 1178.36 77.3108 1176.28 98.5755C1184.28 100.194 1191.89 102.77 1198.98 106.258C1203.9 107.806 1208.4 110.539 1212.34 114.387C1221.74 121.336 1229.18 129.89 1234.32 139.387C1241.02 138.377 1247.98 137.841 1255.15 137.841C1255.98 137.841 1256.82 137.85 1257.66 137.863C1287.59 138.392 1315.36 148.443 1333.55 165.059C1341.48 151.535 1358.12 143.511 1378.45 143.511C1389.92 143.511 1401.82 146.088 1413 150.974V312H1001.18H947.236L6.99995 312V21.0751C9.64068 20.8112 12.2731 20.6704 14.8831 20.6704Z" fill="white"/>
</g>
<path d="M1987.8 23.6534C1967 22 1949.33 33.5948 1941.09 46.9807C1922.16 30.5347 1893.27 20.5869 1862.13 20.0626C1861.26 20.0496 1860.39 20.041 1859.52 20.041C1803.77 20.041 1759.48 49.4049 1758.69 86.891C1758.6 91.0144 1759.08 95.1967 1760.12 99.3374C1760.05 100.228 1760 101.107 1759.97 101.977C1757.33 101.656 1754.64 101.492 1751.94 101.492C1721.51 101.492 1692.59 121.434 1684.68 147.879C1681.2 159.539 1681.75 171.962 1685.61 183.717C1678.16 180.42 1670.05 177.854 1661.51 176.188C1652.86 174.497 1644.14 173.778 1635.57 174.045C1601.92 175.092 1575.57 191.097 1570 213.867C1569.22 217.027 1568.87 220.311 1568.94 223.642C1568.86 223.918 1568.78 224.193 1568.7 224.468C1563.45 222.98 1557.88 222.32 1552.06 222.501C1544.03 222.751 1536.13 224.627 1528.96 227.772C1528.92 227.742 1528.88 227.711 1528.83 227.681C1524.73 223.873 1520.05 221.169 1514.93 219.637C1507.56 216.184 1499.63 213.634 1491.32 212.034C1493.47 190.987 1476.15 167.819 1448.33 155.507C1436.1 150.098 1422.96 147.238 1410.32 147.238C1389.16 147.238 1371.85 155.179 1363.61 168.565C1344.68 152.119 1315.79 142.171 1284.65 141.647C1283.77 141.634 1282.91 141.625 1282.04 141.625C1274.58 141.625 1267.34 142.156 1260.37 143.155C1255.02 133.756 1247.28 125.289 1237.51 118.411C1233.4 114.602 1228.73 111.898 1223.6 110.366C1216.23 106.913 1208.31 104.363 1199.99 102.762C1202.15 81.7147 1184.82 58.5472 1157 46.2349C1144.77 40.825 1131.63 37.9656 1118.99 37.9656C1097.84 37.9656 1080.52 45.907 1072.28 59.2929C1053.35 42.8469 1024.46 32.8992 993.321 32.3749C992.447 32.3619 991.578 32.3532 990.711 32.3532C990.395 32.3532 990.082 32.3627 989.767 32.3645C989.451 32.3627 989.139 32.3532 988.822 32.3532C987.955 32.3532 987.086 32.3619 986.212 32.3749C955.073 32.8983 926.181 42.8469 907.251 59.2929C899.011 45.907 881.697 37.9656 860.542 37.9656C847.901 37.9656 834.759 40.825 822.533 46.2349C794.712 58.5463 777.385 81.7138 779.543 102.761C771.225 104.362 763.303 106.912 755.93 110.365C750.806 111.897 746.132 114.602 742.026 118.41C732.255 125.288 724.512 133.755 719.167 143.154C712.198 142.155 704.95 141.624 697.495 141.624C696.629 141.624 695.76 141.633 694.885 141.646C663.747 142.169 634.854 152.118 615.925 168.564C607.683 155.178 590.371 147.237 569.215 147.237C557.282 147.237 544.906 149.787 533.274 154.623V314H961.705H1017.83L1996 314V24.054C1993.25 23.7927 1990.51 23.6534 1987.8 23.6534Z" fill="white"/>
<path d="M7.94687 20.6704C28.4463 20.6704 45.2215 30.694 53.2068 44.2184C71.5493 27.6022 99.5457 17.5515 129.719 17.0218C130.566 17.0087 131.408 17 132.247 17C186.27 17 229.189 46.6677 229.954 84.5416C230.035 88.7076 229.57 92.9331 228.569 97.1167C228.632 98.0161 228.677 98.9042 228.707 99.7836C231.272 99.4593 233.873 99.2941 236.491 99.2941C265.979 99.2941 293.996 119.442 301.661 146.161C305.039 157.941 304.505 170.493 300.769 182.369C307.98 179.038 315.838 176.446 324.114 174.762C332.495 173.054 340.952 172.328 349.251 172.597C381.855 173.655 407.391 189.826 412.793 212.831C413.545 216.023 413.888 219.341 413.819 222.708C413.898 222.987 413.975 223.264 414.05 223.542C419.138 222.038 424.538 221.372 430.17 221.555C437.953 221.807 445.61 223.702 452.556 226.88C452.598 226.849 452.637 226.819 452.679 226.788C456.657 222.94 461.186 220.209 466.151 218.66C473.295 215.172 480.972 212.596 489.032 210.979C486.941 189.714 503.73 166.307 530.688 153.867C542.536 148.402 555.269 145.512 567.519 145.512C588.018 145.512 604.793 153.536 612.779 167.06C631.121 150.444 659.117 140.394 689.29 139.864C690.137 139.851 690.98 139.842 691.819 139.842C699.044 139.842 706.067 140.378 712.82 141.387C717.999 131.891 725.502 123.337 734.97 116.388C738.949 112.54 743.477 109.807 748.443 108.259C755.587 104.77 763.263 102.194 771.324 100.576C769.232 79.3117 786.023 55.9045 812.98 43.4649C824.827 37.999 837.56 35.11 849.81 35.11C870.31 35.11 887.085 43.1336 895.071 56.6579C913.414 40.0418 941.41 29.9912 971.583 29.4614C972.43 29.4483 973.272 29.4396 974.112 29.4396C974.418 29.4396 974.721 29.4492 975.027 29.4509C975.333 29.4492 975.636 29.4396 975.943 29.4396C976.782 29.4396 977.624 29.4483 978.471 29.4614C1008.64 29.9903 1036.64 40.0418 1054.98 56.6579C1062.97 43.1336 1079.74 35.11 1100.24 35.11C1112.49 35.11 1125.23 37.999 1137.07 43.4649C1164.03 55.9036 1180.82 79.3108 1178.73 100.576C1186.79 102.194 1194.47 104.77 1201.61 108.258C1206.58 109.806 1211.11 112.539 1215.08 116.387C1224.55 123.336 1232.05 131.89 1237.23 141.387C1243.99 140.377 1251.01 139.841 1258.23 139.841C1259.07 139.841 1259.92 139.85 1260.76 139.863C1290.94 140.392 1318.93 150.443 1337.27 167.059C1345.26 153.535 1362.04 145.511 1382.54 145.511C1394.1 145.511 1406.09 148.088 1417.36 152.974V314H1002.22H947.835L0.000114137 314V21.0751C2.66219 20.8112 5.31579 20.6704 7.94687 20.6704Z" fill="white"/>
<defs>
<filter id="filter0_d_15_371" x="0" y="0" width="1994" height="312" filterUnits="userSpaceOnUse" color-interpolation-filters="sRGB">
<feFlood flood-opacity="0" result="BackgroundImageFix"/>
<feColorMatrix in="SourceAlpha" type="matrix" values="0 0 0 0 0 0 0 0 0 0 0 0 0 0 0 0 0 0 127 0" result="hardAlpha"/>
<feOffset dy="-8"/>
<feGaussianBlur stdDeviation="3.5"/>
<feComposite in2="hardAlpha" operator="out"/>
<feColorMatrix type="matrix" values="0 0 0 0 0 0 0 0 0 0 0 0 0 0 0 0 0 0 0.25 0"/>
<feBlend mode="normal" in2="BackgroundImageFix" result="effect1_dropShadow_15_371"/>
<feBlend mode="normal" in="SourceGraphic" in2="effect1_dropShadow_15_371" result="shape"/>
</filter>
</defs>
</svg>
