<svg width="48" height="48" viewBox="0 0 48 48" fill="none" xmlns="http://www.w3.org/2000/svg">
<circle cx="24" cy="24" r="23.5" stroke="white"/>
<path d="M23.9794 0.958984C21.2059 0.958984 18.4595 1.4831 15.8971 2.5014C13.3347 3.5197 11.0065 5.01224 9.04528 6.89382C5.08451 10.6938 2.85938 15.8478 2.85938 21.2218C2.85938 30.1779 8.92082 37.7765 17.3055 40.4714C18.3615 40.6335 18.6994 40.0054 18.6994 39.4583V36.0339C12.8491 37.2496 11.6031 33.3187 11.6031 33.3187C10.6315 30.9682 9.25874 30.34 9.25874 30.34C7.33682 29.0837 9.40658 29.1243 9.40658 29.1243C11.5186 29.2661 12.6379 31.2113 12.6379 31.2113C14.4754 34.2913 17.58 33.3795 18.7839 32.8931C18.9739 31.5761 19.5231 30.6845 20.1144 30.1779C15.4258 29.6714 10.5048 27.9288 10.5048 20.2086C10.5048 17.9595 11.3074 16.1561 12.6802 14.7174C12.469 14.2109 11.7298 12.1035 12.8914 9.36804C12.8914 9.36804 14.6655 8.82095 18.6994 11.4348C20.3679 10.9891 22.1842 10.7662 23.9794 10.7662C25.7746 10.7662 27.5909 10.9891 29.2594 11.4348C33.2933 8.82095 35.0674 9.36804 35.0674 9.36804C36.229 12.1035 35.4898 14.2109 35.2786 14.7174C36.6514 16.1561 37.4539 17.9595 37.4539 20.2086C37.4539 27.949 32.5119 29.6511 27.8021 30.1577C28.5624 30.7858 29.2594 32.0218 29.2594 33.9063V39.4583C29.2594 40.0054 29.5973 40.6538 30.6744 40.4714C39.0591 37.7562 45.0994 30.1779 45.0994 21.2218C45.0994 18.5608 44.5531 15.9259 43.4917 13.4675C42.4303 11.0091 40.8746 8.77539 38.9135 6.89382C36.9523 5.01224 34.624 3.5197 32.0617 2.5014C29.4993 1.4831 26.7529 0.958984 23.9794 0.958984Z" fill="white"/>
<path d="M24.3752 42.8921C33.7187 42.8921 34.4761 40.1959 36.3126 38.3984L30.803 40.1959H24.3752H18.2395L11.5195 38.3984C11.5195 40.1959 16.7787 42.8921 24.3752 42.8921Z" fill="white"/>
<path d="M17.2792 46.0796C-4.50002 39.5 -4.50001 8.5 17.2794 2L9.49999 13.5L7.67918 31.7961L16.5005 39.1281L20.6087 41.572H28.8252L39.5065 31.7961L39 13L29 1.5C49 5.5 47.78 26 46.5 30C42.5 42.5 30 50.5 17.2792 46.0796Z" fill="white"/>
</svg>
