<svg width="957" height="222" viewBox="0 0 957 222" fill="none" xmlns="http://www.w3.org/2000/svg">
<path d="M0 222C118.616 -72.5432 854.314 -75.4533 956.384 222H0Z" fill="#DC6BAF"/>
<path d="M305.751 84.3577C311.244 99.2443 295.575 118.737 270.753 127.897C245.931 137.056 221.356 132.413 215.863 117.527C210.37 102.64 227.324 88.1452 252.146 78.9858C276.968 69.8265 300.258 69.471 305.751 84.3577Z" fill="#8A2662"/>
<path d="M484.102 41.586C484.885 51.4715 471.294 60.6126 453.746 62.0033C436.197 63.394 421.336 56.5075 420.552 46.6221C419.769 36.7366 433.266 30.8216 450.814 29.4309C468.363 28.0403 483.318 31.7005 484.102 41.586Z" fill="#8A2662"/>
<path d="M522.564 176.699C523.296 189.483 510.018 195.702 488.702 196.922C467.386 198.143 449.513 188.769 448.781 175.985C448.049 163.201 464.55 156.009 485.866 154.788C503.535 156.026 521.832 163.915 522.564 176.699Z" fill="#8A2662"/>
<path d="M728.801 189.788C727.064 198.287 713.28 199.239 692.819 195.059C672.357 190.878 657.177 180.599 658.914 172.099C660.65 163.6 677.678 162.766 698.14 166.947C714.673 171.878 730.538 181.288 728.801 189.788Z" fill="#8A2662"/>
<path d="M676.09 105.106C671.486 117.85 648.376 121.986 624.474 114.344C600.571 106.702 584.927 90.1751 589.531 77.4309C594.135 64.6867 615.281 64.5227 639.184 72.165C663.086 79.8072 680.694 92.3616 676.09 105.106Z" fill="#8A2662"/>
<path d="M306.677 88.5412C310.624 99.2377 294.647 118.299 270.406 127.244C246.166 136.188 221.837 131.863 217.89 121.166C221.852 115.34 232.101 102.613 256.341 93.668C280.581 84.7233 299.453 84.1135 306.677 88.5412Z" fill="#54153A"/>
<path d="M472.915 56.679C471.777 57.3437 462.796 61.3393 455.949 62.0027C449.101 62.666 440.816 61.5779 438.787 61.0449C440.243 60.2431 448.05 56.2225 454.898 55.5592C461.746 54.8958 471.422 55.7496 472.915 56.679Z" fill="#54153A"/>
<path d="M512.848 191.763C507.766 194.841 502.627 196.175 485.978 197.128C469.329 198.081 454.415 190.744 453.707 185.159C457.239 182.108 461.808 176.181 482.764 176.974C508.536 178.751 510.129 186.304 512.848 191.763Z" fill="#54153A"/>
<path d="M706.693 194.662C702.053 196.026 697.732 196.005 684.432 193.288C671.132 190.571 660.924 181.691 661.53 177.148C664.945 175.483 669.775 171.771 686.1 176.759C706.01 183.525 705.691 189.8 706.693 194.662Z" fill="#54153A"/>
<path d="M674.335 108.348C671.026 117.505 647.94 121.189 624.597 113.726C601.255 106.263 590.643 93.6745 589.284 85.681C593.873 81.5643 609.588 77.2624 635.253 85.4681C658.595 92.9312 671.527 101.488 674.335 108.348Z" fill="#54153A"/>
<ellipse cx="306.182" cy="43.335" rx="9.58234" ry="4.74484" transform="rotate(-27.4289 306.182 43.335)" fill="#C35A99"/>
<ellipse cx="433.86" cy="78.1769" rx="15.6815" ry="7.76494" transform="rotate(2.76306 433.86 78.1769)" fill="#C35A99"/>
<ellipse cx="15.1947" cy="6.27299" rx="15.1947" ry="6.27299" transform="matrix(0.878583 0.47759 0.305698 -0.952129 715.425 118.43)" fill="#C35A99"/>
<ellipse cx="204.391" cy="82.4323" rx="15.6815" ry="7.76494" transform="rotate(-25.1833 204.391 82.4323)" fill="#C35A99"/>
<ellipse cx="398.407" cy="120.524" rx="8.28744" ry="4.10366" transform="rotate(-23.3174 398.407 120.524)" fill="#C35A99"/>
<ellipse cx="629.125" cy="49.8727" rx="8.28744" ry="4.10366" transform="rotate(3.00113 629.125 49.8727)" fill="#C35A99"/>
<ellipse cx="5.41151" cy="2.67959" rx="5.41151" ry="2.67959" transform="matrix(0.997527 0.070288 0.070288 -0.997527 409.883 62.7026)" fill="#C35A99"/>
<ellipse cx="266.306" cy="155.085" rx="17.2192" ry="8.52634" transform="rotate(-25.1833 266.306 155.085)" fill="#C35A99"/>
<ellipse cx="16.6846" cy="6.88809" rx="16.6846" ry="6.88809" transform="matrix(0.940734 0.339144 0.158102 -0.987423 574.473 121.021)" fill="#C35A99"/>
<ellipse cx="16.6846" cy="6.88809" rx="16.6846" ry="6.88809" transform="matrix(0.999879 -0.0155393 -0.201392 -0.979511 578.49 47.1841)" fill="#C35A99"/>
<ellipse cx="294.469" cy="133.992" rx="9.23427" ry="4.57249" transform="rotate(-20.2085 294.469 133.992)" fill="#C35A99"/>
<ellipse cx="335.565" cy="94.3902" rx="9.23427" ry="4.57249" transform="rotate(-20.2085 335.565 94.3902)" fill="#C35A99"/>
<ellipse cx="8.81642" cy="3.77048" rx="8.81642" ry="3.77048" transform="matrix(0.997278 0.0737352 -0.141093 -0.989996 660.093 137.254)" fill="#C35A99"/>
<ellipse cx="504.421" cy="209.076" rx="7.69565" ry="3.81062" transform="rotate(1.86924 504.421 209.076)" fill="#C35A99"/>
<ellipse cx="7.45675" cy="3.07845" rx="7.45675" ry="3.07845" transform="matrix(0.965235 0.261382 0.0771387 -0.99702 712.868 96.457)" fill="#C35A99"/>
<ellipse cx="7.45675" cy="3.07845" rx="7.45675" ry="3.07845" transform="matrix(0.910428 0.413668 0.236966 -0.971518 642.582 202.113)" fill="#C35A99"/>
<ellipse cx="523.502" cy="198.953" rx="4.99646" ry="2.47407" transform="rotate(-5.99729 523.502 198.953)" fill="#C35A99"/>
</svg>
