<svg width="321" height="293" viewBox="0 0 321 293" fill="none" xmlns="http://www.w3.org/2000/svg">
<path d="M44.3669 30.1644C52.6555 30.1644 59.3748 23.4543 59.3748 15.1769C59.3748 6.89957 52.6555 0.189453 44.3669 0.189453C36.0782 0.189453 29.3589 6.89957 29.3589 15.1769C29.3589 23.4543 36.0782 30.1644 44.3669 30.1644Z" fill="#CC4B99"/>
<path d="M45.2464 19.6068C44.8896 19.4378 44.393 19.3132 44.1582 19.6303C44.0383 19.7923 44.0423 20.0133 44.0751 20.212C44.2876 21.4946 45.4386 22.4638 45.6793 23.7416C45.7093 23.9017 45.724 24.071 45.6686 24.2244C45.5196 24.6383 44.9659 24.7268 44.5328 24.6472C42.7741 24.3239 41.7273 22.5548 40.9118 20.9657C40.0924 19.3692 39.2629 17.743 38.9469 15.977C38.8028 15.1722 38.7682 14.3487 38.5827 13.5521C37.8844 10.5505 35.2361 8.46488 32.7577 6.62903C32.6072 6.5176 32.4566 6.40617 32.3061 6.29443C31.0456 7.98733 30.1355 9.95512 29.6799 12.0913C31.1869 12.7308 32.5094 13.9452 33.7126 15.1103C34.6359 16.0045 35.6279 17.0582 35.5899 18.3421C35.5681 19.0808 35.1981 19.7647 35.0792 20.4942C34.7472 22.5358 36.4212 24.3719 38.2121 25.4106C40.0029 26.4496 42.0743 27.0892 43.542 28.5488C44.0331 29.037 44.4338 29.5988 44.7599 30.2055C47.746 30.1266 50.5148 29.1797 52.8206 27.6038C51.3863 24.1378 48.6433 21.2158 45.2464 19.6068Z" fill="#F7C548"/>
<path d="M51.4058 12.6795C50.9858 12.2886 50.5683 11.8576 50.3973 11.3102C50.2262 10.7628 50.3816 10.0725 50.888 9.80282C51.2933 9.5867 51.7942 9.68771 52.2369 9.56434C53.2101 9.29281 53.5602 7.99176 53.1847 7.05501C52.8092 6.11825 51.9536 5.47446 51.1373 4.87996C49.2925 3.53636 47.448 2.19276 45.6032 0.849161C45.3601 0.671912 45.1056 0.449358 44.9088 0.204149C44.7151 0.196801 44.5213 0.189453 44.3258 0.189453C42.9745 0.189453 41.6662 0.370679 40.4207 0.704971C40.5304 0.970079 40.673 1.22478 40.8302 1.46387C41.931 3.13655 43.6854 4.27444 45.5029 5.11844C46.2478 5.46436 47.1193 5.90273 47.2325 6.7152C47.3523 7.57634 46.5295 8.26023 45.7564 8.66065C44.9836 9.06107 44.0805 9.46209 43.8065 10.2874C43.5536 11.0485 43.953 11.8683 44.4266 12.5157C46.1175 14.8273 48.786 16.1908 50.9199 18.1023C52.3199 19.3562 53.4869 20.8446 54.6065 22.3535C55.1205 23.0463 55.6322 23.7626 56.0598 24.5151C57.1867 23.1047 58.0649 21.4884 58.6259 19.7297C58.5566 19.602 58.4871 19.4743 58.4116 19.3501C56.7287 16.5823 53.7776 14.8864 51.4058 12.6795Z" fill="#F7C548"/>
<path d="M35.4132 8.21201C36.552 9.13529 37.4561 10.2563 38.1142 11.5657C38.3113 11.9578 38.9005 11.6131 38.7037 11.2216C38.0219 9.86541 37.0756 8.68652 35.8957 7.72986C35.5579 7.45557 35.0717 7.93527 35.4132 8.21201Z" fill="#F7C548"/>
<path d="M40.9556 20.097C41.5591 21.4326 42.2434 22.9749 43.5195 23.8005C43.8895 24.0399 44.2319 23.4497 43.8641 23.2118C42.7078 22.4637 42.0913 20.9612 41.545 19.7529C41.3648 19.3534 40.7759 19.6999 40.9556 20.097Z" fill="#F7C548"/>
<path d="M41.2782 18.4476C41.6296 19.1976 42.0054 19.9345 42.4066 20.6591C42.6194 21.0433 43.2092 20.6998 42.9961 20.315C42.5949 19.5904 42.219 18.8535 41.8677 18.1035C41.682 17.7065 41.0931 18.0521 41.2782 18.4476Z" fill="#F7C548"/>
<path d="M30.8011 14.2043C32.1937 15.2209 33.7136 16.4932 34.483 18.075C34.6749 18.4696 35.2641 18.1243 35.0725 17.7309C34.2494 16.0389 32.6336 14.702 31.1456 13.6156C30.7906 13.3563 30.4495 13.9477 30.8011 14.2043Z" fill="#F7C548"/>
<path d="M31.693 16.2269C32.2144 16.7982 32.6733 17.4138 33.0746 18.0747C33.3021 18.4494 33.8928 18.1072 33.6641 17.7306C33.2334 17.021 32.7353 16.3582 32.1758 15.7451C31.8794 15.42 31.3975 15.903 31.693 16.2269Z" fill="#F7C548"/>
<path d="M54.0991 14.4641C55.3541 15.4122 56.5101 16.4727 57.5726 17.631C57.8699 17.9552 58.3518 17.4722 58.0554 17.1489C56.9521 15.9458 55.7462 14.859 54.4436 13.8751C54.0933 13.6106 53.7524 14.2024 54.0991 14.4641Z" fill="#F7C548"/>
<path d="M56.2705 15.1121C56.9765 15.7657 57.6242 16.4729 58.2128 17.2336C58.481 17.5805 58.961 17.0946 58.6956 16.7515C58.107 15.9907 57.4596 15.2836 56.7533 14.63C56.4314 14.3318 55.9474 14.8131 56.2705 15.1121Z" fill="#F7C548"/>
<path d="M49.2184 18.0112C50.4712 19.0692 51.7127 20.1388 52.7207 21.4404C52.9892 21.787 53.4689 21.3015 53.2035 20.9583C52.1955 19.6566 50.954 18.5867 49.7012 17.529C49.3673 17.2471 48.8821 17.7274 49.2184 18.0112Z" fill="#F7C548"/>
<path d="M40.0461 2.33266C41.2996 4.34423 43.1612 5.7962 45.4168 6.52723C45.8359 6.66315 46.0152 6.00467 45.5983 5.86967C43.5128 5.19373 41.7937 3.84708 40.6356 1.98857C40.4038 1.61662 39.8131 1.95857 40.0461 2.33266Z" fill="#F7C548"/>
<path d="M53.0187 5.96709C53.7293 6.52945 54.0794 7.3958 53.889 8.29153C53.798 8.7195 54.4561 8.90257 54.5475 8.47276C54.7848 7.35601 54.4053 6.20006 53.5016 5.48494C53.1607 5.21524 52.6745 5.69464 53.0187 5.96709Z" fill="#F7C548"/>
<path d="M39.387 3.41772C39.9737 4.221 40.6077 4.9851 41.2943 5.70511C41.5981 6.02348 42.0803 5.54072 41.7772 5.22295C41.131 4.54488 40.5289 3.83007 39.9765 3.07362C39.7202 2.72219 39.1277 3.0623 39.387 3.41772Z" fill="#F7C548"/>
<path d="M38.2056 26.7575C39.5563 27.2265 40.8147 27.8596 42.0016 28.6546C42.3676 28.8998 42.7098 28.3093 42.3462 28.0659C41.112 27.2397 39.7899 26.5873 38.3871 26.1003C37.9711 25.9555 37.7924 26.6139 38.2056 26.7575Z" fill="#F7C548"/>
<path d="M41.1015 28.4743C40.5877 28.1767 40.0697 27.8862 39.5479 27.6031C39.1617 27.3934 38.8168 27.982 39.2034 28.1917C39.7251 28.4752 40.2432 28.7654 40.7569 29.063C41.138 29.2837 41.4819 28.6944 41.1015 28.4743Z" fill="#F7C548"/>
<path opacity="0.1" d="M33.9475 10.1152C33.9475 7.46807 34.6372 4.98322 35.8432 2.82471C31.9365 5.53058 29.3762 10.0386 29.3762 15.1461C29.3762 23.4232 36.0954 30.1332 44.3839 30.1332C50.0219 30.1332 54.931 27.0269 57.4959 22.4362C55.0711 24.1157 52.1291 25.1023 48.9551 25.1023C40.6667 25.1026 33.9475 18.3926 33.9475 10.1152Z" fill="black"/>
<path opacity="0.2" d="M57.7306 13.1577C56.6877 14.3675 55.1924 10.4852 51.4991 7.31003C47.8058 4.13486 43.3134 2.86963 44.3559 1.65981C45.3988 0.449984 50.115 1.33868 53.8086 4.51384C57.5019 7.68871 58.7735 11.9479 57.7306 13.1577Z" fill="white"/>
<path d="M34.0428 292.152C47.1244 292.152 57.7292 281.547 57.7292 268.465C57.7292 255.384 47.1244 244.779 34.0428 244.779C20.9612 244.779 10.3564 255.384 10.3564 268.465C10.3564 281.547 20.9612 292.152 34.0428 292.152Z" fill="#26AEED"/>
<path d="M10.8198 272.779C12.6107 282.549 20.3904 290.221 30.2178 291.846C28.6334 287.598 26.4352 283.591 23.3864 280.256C20.0479 276.604 15.6163 273.83 10.8198 272.779Z" fill="#FFA6DB"/>
<path d="M52.3265 253.347C51.2486 252.051 50.0322 250.877 48.7055 249.836C47.9149 251.406 46.7698 252.822 45.4254 253.962C42.9992 256.021 40.012 257.304 36.9936 258.315C28.8658 261.035 20.1482 261.94 11.6276 261.033C11.1682 262.419 10.8345 263.861 10.6377 265.347C33.6679 268.299 46.5625 259.696 52.3265 253.347Z" fill="#0C7ECF"/>
<path d="M36.9934 258.314C40.011 257.304 42.9982 256.021 45.4253 253.961C46.7689 252.821 47.914 251.405 48.7054 249.835C45.6806 247.465 42.0676 245.815 38.1185 245.142C37.2847 247.749 34.72 249.74 32.1921 251.068C26.7899 253.905 20.6531 255.261 14.5554 255.119C13.3183 256.925 12.3292 258.912 11.6274 261.031C20.1481 261.939 28.8657 261.035 36.9934 258.314Z" fill="#FFA6DB"/>
<path d="M57.5973 271.509C55.2639 271.593 52.9369 271.869 50.6515 272.35C47.9379 272.922 45.1812 273.829 43.1782 275.747C41.1753 277.665 40.1366 280.813 41.3514 283.306C42.5877 285.843 45.5413 286.865 48.3804 287.387C53.3402 283.637 56.7715 277.981 57.5973 271.509Z" fill="#FFA6DB"/>
<path d="M21.4789 272.397C18.7141 270.523 15.3668 269.757 12.1068 269.029C11.5522 268.905 10.9921 268.784 10.4287 268.672C10.4399 270.074 10.5751 271.446 10.82 272.779C15.6173 273.829 20.0481 276.604 23.3858 280.256C26.4346 283.592 28.6328 287.597 30.2172 291.846C31.4839 292.055 32.7835 292.17 34.1103 292.17C34.2751 292.17 34.4383 292.161 34.6024 292.157C32.9924 286.864 29.9659 281.929 26.5426 277.52C25.0638 275.616 23.4746 273.751 21.4789 272.397Z" fill="#0C7ECF"/>
<path d="M41.3514 283.306C40.1366 280.813 41.1753 277.665 43.1782 275.747C45.1812 273.829 47.9379 272.921 50.6515 272.349C52.9369 271.867 55.2631 271.593 57.5973 271.509C57.7238 270.517 57.7966 269.509 57.7966 268.484C57.7966 268.338 57.7886 268.195 57.7854 268.051C54.1372 268.003 50.4874 268.309 47.0249 269.413C42.4228 270.882 38.1481 273.927 36.106 278.305C35.6242 279.337 35.2681 280.451 35.2785 281.59C35.3025 284.327 37.4191 286.627 39.7717 288.025C41.1697 288.855 42.6645 289.456 44.2137 289.91C45.6933 289.211 47.0881 288.365 48.3804 287.388C45.5413 286.864 42.5877 285.843 41.3514 283.306Z" fill="#0C7ECF"/>
<path d="M22.516 271.113C23.483 271.113 24.2669 270.329 24.2669 269.362C24.2669 268.395 23.483 267.611 22.516 267.611C21.549 267.611 20.7651 268.395 20.7651 269.362C20.7651 270.329 21.549 271.113 22.516 271.113Z" fill="#FFA6DB"/>
<path d="M21.4422 282.932C21.4422 283.898 20.658 284.682 19.6913 284.682C18.7246 284.682 17.9404 283.899 17.9404 282.932C17.9404 281.965 18.7246 281.181 19.6913 281.181C20.658 281.181 21.4422 281.965 21.4422 282.932Z" fill="#26AEED"/>
<path d="M26.4218 251.587C27.3887 251.587 28.1726 250.803 28.1726 249.836C28.1726 248.869 27.3887 248.085 26.4218 248.085C25.4548 248.085 24.6709 248.869 24.6709 249.836C24.6709 250.803 25.4548 251.587 26.4218 251.587Z" fill="#FFA6DB"/>
<path d="M37.0287 270.423C37.9957 270.423 38.7796 269.639 38.7796 268.672C38.7796 267.705 37.9957 266.921 37.0287 266.921C36.0617 266.921 35.2778 267.705 35.2778 268.672C35.2778 269.639 36.0617 270.423 37.0287 270.423Z" fill="#FFA6DB"/>
<path d="M51.7046 266.692C53.8467 266.692 55.5832 264.955 55.5832 262.813C55.5832 260.671 53.8467 258.935 51.7046 258.935C49.5625 258.935 47.8259 260.671 47.8259 262.813C47.8259 264.955 49.5625 266.692 51.7046 266.692Z" fill="#FFA6DB"/>
<path d="M31.0037 280.421C32.5669 280.421 33.8341 279.154 33.8341 277.591C33.8341 276.027 32.5669 274.76 31.0037 274.76C29.4405 274.76 28.1733 276.027 28.1733 277.591C28.1733 279.154 29.4405 280.421 31.0037 280.421Z" fill="#FFA6DB"/>
<path d="M51.5357 280.101C51.5357 281.664 50.2682 282.931 48.7053 282.931C47.1425 282.931 45.875 281.664 45.875 280.101C45.875 278.537 47.1425 277.271 48.7053 277.271C50.2682 277.271 51.5357 278.537 51.5357 280.101Z" fill="#26AEED"/>
<path opacity="0.1" d="M17.833 261.579C17.833 256.576 19.3878 251.939 22.0341 248.116C15.0683 252.24 10.395 259.826 10.395 268.508C10.395 281.589 20.9995 292.195 34.0814 292.195C42.1603 292.195 49.291 288.146 53.5658 281.971C50.036 284.061 45.9189 285.265 41.5194 285.265C28.4375 285.265 17.833 274.66 17.833 261.579Z" fill="black"/>
<path d="M54.2612 256.123C54.2612 256.123 54.6405 256.069 55.3519 255.969C56.0665 255.901 57.1244 255.755 58.4831 255.759C59.8443 255.767 61.52 255.775 63.4981 256.396C63.7454 256.479 63.999 256.559 64.2535 256.682C64.5096 256.788 64.768 256.919 65.0281 257.083C65.5475 257.386 66.086 257.818 66.5277 258.432C66.759 258.732 66.9302 259.093 67.0799 259.472L67.2207 259.993L67.2471 260.09L67.2687 260.266L67.3007 260.626C67.3079 260.745 67.3159 260.876 67.3135 260.986L67.2903 261.282C67.2695 261.479 67.2607 261.691 67.2111 261.871L67.0775 262.437L66.891 262.962C66.3469 264.344 65.4898 265.42 64.5848 266.443C63.6669 267.455 62.6355 268.355 61.552 269.219C59.3698 270.927 56.9363 272.455 54.3372 273.831C53.0425 274.532 51.7005 275.185 50.3282 275.804C48.959 276.432 47.5578 277.029 46.1262 277.575C43.2671 278.705 40.3343 279.65 37.3135 280.52C35.8787 280.909 34.3207 281.313 32.8219 281.657C31.3151 282.013 29.8003 282.307 28.2911 282.575C26.7843 282.85 25.2775 283.075 23.7803 283.245C22.2847 283.425 20.8002 283.572 19.3287 283.642C16.3911 283.813 13.5175 283.773 10.7632 283.442C9.38679 283.264 8.03763 283.026 6.72528 282.634C5.41933 282.219 4.12698 281.75 2.94347 280.82C2.36091 280.375 1.80156 279.775 1.42706 279.036C1.32863 278.855 1.24221 278.671 1.1846 278.468L1.09177 278.173L1.04856 278.025C0.985344 277.757 1.02935 277.937 1.01495 277.87L1.01254 277.845L1.00774 277.796L0.968534 277.4C0.962133 277.179 0.965328 276.948 0.978132 276.727C1.06776 275.929 1.29902 275.321 1.5975 274.791C1.88078 274.252 2.21927 273.815 2.56016 273.423C3.93813 271.879 5.36572 271.003 6.52763 270.294C7.68954 269.586 8.6666 269.165 9.31397 268.853C9.97575 268.57 10.3286 268.419 10.3286 268.419C10.3286 268.419 10.0366 268.666 9.49002 269.13C8.94587 269.592 8.16007 270.288 7.21741 271.196C6.29077 272.102 5.18007 273.283 4.34785 274.712C4.15259 275.069 3.96774 275.438 3.86291 275.801C3.73248 276.153 3.71087 276.543 3.73808 276.775C3.75328 276.813 3.75648 276.843 3.75408 276.883L3.85891 277.267L3.87172 277.315L3.87812 277.339C3.86691 277.288 3.91252 277.485 3.8549 277.232L3.88291 277.272L3.93252 277.353C3.95413 277.409 3.99975 277.46 4.04777 277.51C4.21501 277.713 4.46627 277.921 4.82957 278.103C5.51455 278.487 6.52922 278.748 7.59271 278.91C8.669 279.071 9.84131 279.153 11.0624 279.156C13.5079 279.176 16.1438 278.959 18.8637 278.603C21.5853 278.252 24.394 277.738 27.2348 277.141C28.6568 276.847 30.0795 276.493 31.5111 276.154C32.9523 275.807 34.3239 275.43 35.8123 275.017C38.625 274.238 41.4738 273.341 44.2089 272.391C46.9497 271.431 49.6136 270.403 52.1254 269.296C54.6357 268.188 57.0011 267.005 59.0865 265.721C60.1308 265.085 61.0918 264.406 61.9329 263.711C62.7667 263.021 63.4893 262.272 63.9022 261.583L64.0519 261.33L64.1559 261.09C64.2031 261.008 64.2055 260.94 64.2327 260.866L64.2695 260.756C64.2767 260.73 64.2751 260.724 64.2831 260.706C64.2895 260.691 64.2983 260.677 64.3095 260.66L64.3287 260.633L64.3183 260.533L64.2975 260.332L64.2871 260.232L64.2823 260.182L64.2799 260.157C64.3367 260.395 64.2935 260.217 64.3055 260.267C64.2719 260.148 64.2671 260.013 64.1983 259.885C63.9998 259.34 63.3189 258.807 62.6275 258.405C61.1847 257.609 59.6211 257.172 58.3591 256.876C57.0812 256.589 56.0521 256.402 55.3471 256.29C54.6397 256.183 54.2612 256.123 54.2612 256.123Z" fill="#F7C548"/>
<path opacity="0.2" d="M53.3146 262.704C51.7182 265.06 49.0662 259.513 43.7824 255.932C38.4994 252.352 32.5858 252.093 34.1822 249.737C35.7787 247.381 42.0428 246.903 47.3258 250.483C52.6096 254.065 54.911 260.349 53.3146 262.704Z" fill="white"/>
<path d="M278.816 170.956C302.114 147.658 302.114 109.884 278.816 86.5864C255.518 63.2885 217.744 63.2885 194.447 86.5864C171.149 109.884 171.149 147.658 194.447 170.956C217.744 194.253 255.518 194.253 278.816 170.956Z" fill="#F7C548"/>
<path d="M211.048 114.068C216.52 117.882 222.257 121.804 228.857 122.757C230.956 123.061 233.559 122.786 234.485 120.879C234.991 119.837 234.819 118.597 234.512 117.481C233.032 112.1 228.771 107.899 224.101 104.843C219.431 101.788 214.231 99.6223 209.502 96.6592C204.481 93.513 200.045 89.4548 196.415 84.7744C193.17 87.7483 190.263 91.0805 187.739 94.701C194.274 102.221 202.788 108.309 211.048 114.068Z" fill="#806BDC"/>
<path d="M294.058 145.182C295.208 141.157 295.948 136.96 296.225 132.635C283.947 135.353 270.958 134.894 258.939 131.177C256.247 130.345 253.537 129.317 251.427 127.45C250.823 126.915 250.251 126.277 250.079 125.489C249.569 123.182 252.589 121.67 254.947 121.82C257.304 121.969 259.86 122.816 261.899 121.621C264.472 120.113 264.408 116.098 262.552 113.763C260.696 111.429 257.721 110.351 254.913 109.348C250.6 107.807 246.315 106.192 242.058 104.504C233.748 101.207 225.449 97.5683 218.394 92.0735C213.365 88.1572 208.992 83.1748 206.27 77.4604C202.735 79.562 199.432 82.0127 196.417 84.7761C200.046 89.4581 204.481 93.5162 209.503 96.6609C214.232 99.6241 219.433 101.788 224.102 104.844C228.772 107.899 233.033 112.101 234.514 117.482C234.82 118.599 234.993 119.839 234.486 120.88C233.561 122.788 230.958 123.063 228.859 122.759C222.259 121.806 216.52 117.882 211.049 114.069C202.79 108.312 194.275 102.223 187.741 94.7042C185.517 97.8931 183.599 101.306 182.025 104.907C216.942 144.435 265.103 148.289 294.058 145.182Z" fill="#B7A6FF"/>
<path d="M257.489 96.7218C264.471 98.7166 271.655 100.268 278.916 100.204C282.106 100.175 285.313 99.7933 288.42 99.046C278.118 81.1617 258.823 69.1138 236.702 69.1138C230.7 69.1138 224.908 70.0105 219.443 71.6591C220.175 73.0301 221.019 74.3493 221.941 75.5861C230.337 86.8364 243.991 92.865 257.489 96.7218Z" fill="#806BDC"/>
<path d="M210.651 164.452C204.939 154.945 192.519 152.235 183.885 145.272C181.721 143.527 179.816 141.503 178.006 139.39C181.456 158.581 194.069 174.585 211.168 182.697C213.866 176.965 213.933 169.915 210.651 164.452Z" fill="#806BDC"/>
<path d="M289.722 156.114C278.307 156.478 266.789 154.721 255.328 154.034C250.888 153.767 246.124 153.747 242.4 156.176C241.261 156.919 240.228 157.924 239.784 159.21C239.225 160.834 239.704 162.679 240.663 164.105C242.973 167.542 247.451 168.65 251.529 169.371C260.107 170.885 268.78 171.852 277.481 172.298C282.428 167.661 286.581 162.194 289.722 156.114Z" fill="#806BDC"/>
<path d="M226.417 170.864C225.296 169.445 224.383 167.631 224.834 165.88C225.568 163.036 229.236 162.159 231.008 159.816C232.812 157.431 232.246 153.876 230.474 151.468C228.702 149.058 225.99 147.547 223.334 146.175C213.149 140.915 202.466 136.605 192.604 130.764C187.287 127.616 182.171 123.945 177.738 119.651C177.282 122.625 177.044 125.669 177.044 128.769C177.044 132.396 177.385 135.94 178.004 139.388C179.815 141.502 181.721 143.526 183.884 145.27C192.518 152.234 204.937 154.944 210.65 164.451C213.932 169.912 213.865 176.964 211.165 182.694C218.906 186.366 227.563 188.428 236.701 188.428C245.512 188.428 253.868 186.502 261.396 183.073C256.551 182.12 251.706 181.168 246.862 180.215C239.344 178.739 231.171 176.875 226.417 170.864Z" fill="#B7A6FF"/>
<path opacity="0.1" d="M190.22 118.143C190.22 102.415 196.316 88.119 206.261 77.4604C188.732 87.8522 176.974 106.952 176.974 128.806C176.974 161.755 203.683 188.466 236.632 188.466C253.853 188.466 269.361 181.159 280.25 169.488C271.352 174.763 260.972 177.801 249.877 177.801C216.932 177.803 190.22 151.092 190.22 118.143Z" fill="black"/>
<path opacity="0.2" d="M279.889 95.6829C291.215 109.869 295.348 125.402 289.118 130.375C282.888 135.348 278.217 118.874 266.891 104.687C255.564 90.5008 241.872 83.972 248.102 78.9988C254.33 74.0271 268.562 81.4953 279.889 95.6829Z" fill="white"/>
</svg>
