<svg width="322" height="282" viewBox="0 0 322 282" fill="none" xmlns="http://www.w3.org/2000/svg">
<path d="M135.788 135.787C160.654 110.921 160.654 70.6053 135.788 45.7393C110.922 20.8733 70.6058 20.8732 45.7397 45.7393C20.8737 70.6053 20.8737 110.921 45.7397 135.787C70.6058 160.653 110.922 160.653 135.788 135.787Z" fill="#FFA6DB"/>
<path d="M114.029 31.5052C107.678 29.0064 100.835 27.4889 93.6783 27.1626C83.7579 37.9183 64.82 53.8531 31.2097 68.1423C28.8379 74.3809 27.4165 81.0859 27.127 88.0863C75.94 72.1954 101.579 47.7924 114.029 31.5052Z" fill="#806BDC"/>
<path d="M93.6785 27.1641C92.702 27.1202 91.7219 27.0894 90.7336 27.0894C63.5364 27.0894 40.3342 44.1478 31.21 68.1438C64.8202 53.8547 83.7569 37.9186 93.6785 27.1641Z" fill="#DC6BAF"/>
<path d="M132.468 42.6952C129.141 39.8036 125.516 37.2491 121.637 35.0908C108.256 52.9134 79.8426 81.6649 27.5674 98.6759C28.0586 102.638 28.9046 106.487 30.0887 110.187C82.1065 98.1657 117.656 60.9828 132.468 42.6952Z" fill="#DC6BAF"/>
<path d="M63.1807 148.183C67.8175 150.413 72.7665 152.096 77.9432 153.152C119.038 138.758 143.835 107.116 154.407 90.7123C154.403 86.4776 153.979 82.3426 153.187 78.3394C141.902 97.6391 115.709 130.998 63.1807 148.183Z" fill="#DC6BAF"/>
<path d="M77.9429 153.152C82.0755 153.994 86.3517 154.438 90.7334 154.438C125.9 154.438 154.407 125.93 154.407 90.7629C154.407 90.7463 154.406 90.7285 154.406 90.7119C143.834 107.115 119.039 138.757 77.9429 153.152Z" fill="#806BDC"/>
<path d="M146.312 59.698C142.702 53.2541 138.004 47.5078 132.468 42.6953C117.656 60.983 82.1073 98.1646 30.0884 110.189C33.4201 120.599 39.3598 129.837 47.1361 137.149C107.961 107.931 136.599 73.5291 146.312 59.698Z" fill="#806BDC"/>
<path opacity="0.1" d="M41.0271 78.3393C41.0271 62.8162 46.5883 48.5947 55.8194 37.5459C38.52 48.9293 27.0928 68.5079 27.0928 90.7644C27.0928 125.931 55.601 154.438 90.7668 154.438C110.409 154.438 127.969 145.538 139.65 131.558C129.615 138.161 117.612 142.013 104.702 142.013C69.5354 142.013 41.0271 113.505 41.0271 78.3393Z" fill="black"/>
<path opacity="0.2" d="M123.286 41.1458C142.342 53.361 151.567 75.0112 148.534 79.7418C145.502 84.4736 133.15 66.7721 114.094 54.5581C95.0371 42.343 76.4919 40.2405 79.5247 35.5087C82.5574 30.7769 104.229 28.9307 123.286 41.1458Z" fill="white"/>
<path d="M299.455 259.299C311.888 246.866 311.888 226.708 299.455 214.275C287.022 201.842 266.864 201.842 254.431 214.275C241.998 226.708 241.998 246.866 254.431 259.299C266.864 271.732 287.022 271.732 299.455 259.299Z" fill="#806BDC"/>
<path d="M276.945 268.573C287.994 268.573 297.725 262.943 303.434 254.397C295.377 259.689 284.367 265.121 270.514 267.923C272.591 268.349 274.742 268.573 276.945 268.573Z" fill="#F7C548"/>
<path d="M300.101 214.898C293.539 220.768 285.874 225.407 277.606 228.438C275.436 229.234 273.017 229.92 270.856 229.098C269.554 228.604 268.379 227.247 268.802 225.921C269.026 225.219 269.633 224.718 270.223 224.278C274.251 221.273 278.871 219.149 282.975 216.248C286.056 214.07 288.919 211.289 290.551 207.949C288.529 206.992 286.389 206.246 284.161 205.73C279.499 211.905 269.571 219.82 248.859 221.74C246.468 226.21 245.109 231.314 245.109 236.737C245.109 238.336 245.23 239.906 245.458 241.442C274.217 240.477 293.806 227.618 303.564 219.276C302.537 217.715 301.378 216.252 300.101 214.898Z" fill="#F7C548"/>
<path d="M284.16 205.73C282.619 205.372 281.035 205.128 279.417 205.003C274.43 209.831 266.034 214.833 252.033 216.924C250.837 218.425 249.771 220.034 248.858 221.74C269.569 219.819 279.498 211.904 284.16 205.73Z" fill="#7BC9ED"/>
<path d="M308.782 236.736C308.782 233.831 308.386 231.02 307.657 228.347C298.251 236.634 278.34 250.317 248.649 251.323C249.439 252.852 250.343 254.312 251.362 255.685C259.166 255.82 267.033 253.758 274.475 251.174C279.501 249.429 284.508 247.431 289.792 246.812C291.304 246.636 293.385 247.042 293.432 248.563C293.449 249.126 293.141 249.645 292.804 250.095C291.288 252.118 289.029 253.441 286.765 254.563C277.853 258.98 268.061 261.065 258.159 262.435C259.539 263.446 261.004 264.345 262.54 265.126C283.111 262.324 298.114 253.568 307.248 246.511C308.24 243.43 308.782 240.147 308.782 236.736Z" fill="#7BC9ED"/>
<path d="M303.563 219.276C293.804 227.618 274.216 240.477 245.456 241.441C245.698 243.072 246.06 244.664 246.54 246.205C276.307 245.33 296.314 231.702 305.835 223.359C305.176 221.938 304.416 220.574 303.563 219.276Z" fill="#7BC9ED"/>
<path d="M292.803 250.095C293.141 249.645 293.449 249.126 293.431 248.563C293.384 247.042 291.304 246.635 289.792 246.812C284.507 247.43 279.501 249.428 274.475 251.173C267.033 253.757 259.165 255.819 251.361 255.684C253.274 258.262 255.568 260.538 258.159 262.435C268.061 261.065 277.853 258.98 286.765 254.563C289.03 253.44 291.288 252.117 292.803 250.095Z" fill="#F7C548"/>
<path opacity="0.1" d="M254.358 229.766C254.358 221.518 257.495 214.003 262.64 208.348C252.243 213.588 245.107 224.351 245.107 236.788C245.107 254.371 259.362 268.625 276.944 268.625C286.279 268.625 294.676 264.607 300.5 258.206C296.197 260.375 291.341 261.603 286.195 261.603C268.612 261.603 254.358 247.35 254.358 229.766Z" fill="black"/>
<path opacity="0.2" d="M304.278 235.977C300.495 239.759 296.289 231.414 289.154 224.278C282.018 217.143 274.654 213.918 278.437 210.136C282.219 206.354 291.069 209.072 298.205 216.209C305.34 223.344 308.059 232.195 304.278 235.977Z" fill="white"/>
<path d="M299.105 214.137C299.105 214.137 299.629 214.064 300.612 213.925C301.602 213.839 303.065 213.65 304.948 213.7C305.889 213.735 306.939 213.779 308.086 213.959C309.234 214.117 310.478 214.409 311.779 214.943C312.43 215.207 313.089 215.548 313.739 215.979C314.065 216.19 314.371 216.458 314.695 216.707C314.985 217.003 315.309 217.277 315.577 217.62C315.849 217.96 316.13 218.306 316.341 218.709L316.513 219.005L316.555 219.079L316.577 219.116C316.6 219.169 316.555 219.051 316.634 219.244L316.689 219.373C316.763 219.544 316.838 219.718 316.913 219.891L316.97 220.022L317.026 220.205L317.133 220.576C317.195 220.819 317.287 221.095 317.309 221.317C317.383 221.784 317.457 222.262 317.453 222.736C317.517 224.66 316.995 226.525 316.262 228.263C315.521 230.009 314.518 231.641 313.389 233.207C311.107 236.325 308.272 239.163 305.136 241.795C303.568 243.111 301.91 244.361 300.195 245.566C298.486 246.78 296.703 247.924 294.87 249.013C291.212 251.215 287.36 253.151 283.382 254.893L281.929 255.51L280.406 256.121C279.39 256.526 278.389 256.899 277.375 257.27C275.355 258.017 273.299 258.646 271.252 259.241C269.206 259.841 267.141 260.334 265.086 260.753C263.031 261.175 260.981 261.526 258.94 261.745C254.864 262.205 250.837 262.297 246.982 261.714C245.06 261.407 243.173 260.941 241.401 260.161C239.641 259.398 237.963 258.248 236.775 256.676C236.623 256.487 236.503 256.266 236.37 256.064C236.241 255.857 236.109 255.655 236.015 255.43C235.915 255.211 235.815 254.993 235.716 254.776L235.698 254.735C235.7 254.742 235.611 254.518 235.644 254.597L235.624 254.528L235.584 254.391L235.504 254.118C235.394 253.815 235.297 253.241 235.221 252.772C235.171 252.519 235.188 252.319 235.175 252.094C235.171 251.876 235.16 251.658 235.166 251.446C235.258 249.741 235.755 248.28 236.344 247.03C237.563 244.542 239.098 242.796 240.385 241.43C241.669 240.056 242.818 239.139 243.573 238.494C244.356 237.881 244.774 237.554 244.774 237.554C244.774 237.554 244.439 237.963 243.811 238.73C243.502 239.116 243.129 239.597 242.697 240.164C242.282 240.745 241.793 241.398 241.291 242.156C240.29 243.661 239.169 245.585 238.441 247.86C238.105 248.994 237.88 250.219 237.989 251.402C238.007 251.548 238.038 251.692 238.061 251.836C238.091 251.972 238.091 252.145 238.141 252.25C238.231 252.498 238.231 252.671 238.422 253.067C238.637 253.642 238.999 254.082 239.392 254.535C240.236 255.391 241.407 256.084 242.827 256.519C244.232 256.97 245.815 257.241 247.484 257.349C250.828 257.578 254.482 257.246 258.216 256.62C261.957 255.99 265.792 255.003 269.634 253.817C271.553 253.214 273.471 252.547 275.384 251.838C276.336 251.481 277.302 251.113 278.235 250.731L279.637 250.156L281.086 249.53C282.946 248.729 284.831 247.873 286.649 246.959C288.473 246.044 290.286 245.124 292.033 244.124C293.781 243.128 295.503 242.117 297.155 241.049C298.807 239.982 300.401 238.876 301.932 237.748C304.966 235.466 307.737 233.053 309.953 230.495C311.064 229.223 312.015 227.902 312.751 226.579C313.49 225.259 313.981 223.913 314.087 222.667C314.135 222.35 314.117 222.052 314.113 221.75C314.121 221.584 314.084 221.492 314.076 221.36L314.058 221.174L314.051 221.079L314.011 220.943C313.957 220.761 313.904 220.582 313.85 220.402L313.81 220.268C313.88 220.439 313.823 220.302 313.836 220.333L313.825 220.309L313.803 220.26L313.718 220.064C313.621 219.793 313.471 219.549 313.328 219.302C312.739 218.311 311.772 217.558 310.784 216.951C309.785 216.341 308.714 215.926 307.701 215.592C306.688 215.246 305.711 215.032 304.825 214.844C303.041 214.507 301.602 214.353 300.621 214.255C299.633 214.18 299.105 214.137 299.105 214.137Z" fill="#CC4B99"/>
</svg>
