<svg width="372" height="366" viewBox="0 0 372 366" fill="none" xmlns="http://www.w3.org/2000/svg">
<ellipse cx="186" cy="186" rx="186" ry="179" fill="#FEBC44"/>
<mask id="mask0_20_1166" style="mask-type:alpha" maskUnits="userSpaceOnUse" x="3" y="0" width="366" height="366">
<circle cx="186" cy="183" r="183" fill="#FEBC44"/>
</mask>
<g mask="url(#mask0_20_1166)">
<path d="M184.694 253.862C174.781 253.592 161.562 251.271 156.192 250.145C158.783 257.918 166.669 268.507 185.37 269.296C200.331 269.927 211.243 255.928 213.759 248.793C208.202 250.595 194.608 254.133 184.694 253.862Z" fill="#FFEDD5" stroke="black"/>
<path d="M118.34 153.937L183.793 109.776C212.632 123.745 269.884 154.726 273.579 164.189C277.274 173.652 272.039 186.607 268.96 191.902L244.739 217.249C249.095 209.251 254.901 198.053 243.275 217.249C228.742 241.245 206.549 251.159 185.933 253.299C169.44 255.011 146.917 241.62 137.717 234.711C130.732 226.487 114.329 208.012 104.596 199.9C92.4291 189.761 92.5418 177.82 94.0063 165.991C95.1779 156.528 100.202 151.459 102.568 150.107L118.34 153.937Z" fill="#FFEDD5" stroke="black"/>
<path d="M125.775 266.48C135.779 267.381 147.743 256.904 150.897 252.398C158.333 259.157 174.172 268.845 185.257 268.845C196.343 268.845 213.459 256.979 219.617 251.158L235.276 266.48C241.848 266.48 257.965 267.719 269.861 272.676C281.758 277.632 277.071 337.377 273.241 366.63H243.725H134.9H92.6545C92.2039 357.468 91.1675 336.889 90.6267 327.877C90.086 318.864 94.3819 285.969 96.5974 270.648C102.155 268.883 115.771 265.578 125.775 266.48Z" fill="#F176AD"/>
<path d="M176.77 35.8742C176.289 35.9944 174.937 36.2647 173.766 36.4449C167.517 37.4964 159.917 40.6207 154.96 44.1656C150.423 47.4401 145.917 52.6373 143.965 56.9032C142.853 59.2764 142.162 61.7699 141.772 64.774C141.411 67.2675 141.441 68.0786 141.832 70.7823C142.493 75.0782 142.613 75.4387 144.265 79.1338C144.475 79.5544 144.926 80.3956 145.316 80.9964C146.097 82.1981 146.037 83.0392 145.196 83.0392C144.265 83.0392 135.403 87.5455 132.068 89.7685C115.365 100.674 105.692 116.836 102.567 139.036C102.327 140.839 102.117 142.822 102.117 143.392C102.117 144.264 101.786 144.895 100.615 146.337C92.9241 155.83 89.199 165.473 89.199 175.837C89.199 180.524 89.7097 183.918 91.0315 187.944C93.9756 196.926 98.4518 202.244 107.074 206.96C110.498 208.823 111.61 209.964 113.232 213.269C116.987 220.899 129.364 234.178 139.669 241.628C143.183 244.181 143.274 244.302 142.913 245.233C142.733 245.654 142.493 246.284 142.372 246.615C140.87 250.58 138.076 255.928 136.574 257.73C136.094 258.331 135.343 258.962 134.952 259.112C134.562 259.262 129.875 259.503 124.558 259.683C115.425 259.953 113.022 260.133 107.975 260.915C94.306 262.987 88.8685 270.348 86.5253 290.025C85.5339 298.286 84.7529 328.388 85.2636 338.452C85.8043 349.056 86.5253 358.88 87.1261 363.085C87.2763 364.197 87.3965 365.579 87.3965 366.15V367.231H92.9842C98.1814 367.231 98.5719 367.201 98.3616 366.69C98.1514 366.21 98.0312 365.098 97.3402 356.867C97.16 354.884 96.8596 352.541 96.6793 351.67C96.4991 350.738 96.439 349.176 96.5592 348.065C96.6493 346.953 96.5892 345.121 96.4089 343.979C95.8982 340.855 95.718 321.148 96.1085 313.427C96.3188 309.732 96.5892 303.784 96.7394 300.239C97.0699 292.398 97.6406 286.9 98.5118 282.965C98.6921 282.124 98.9024 281.102 99.0226 280.622C99.1127 280.171 99.2929 279.72 99.4431 279.63C99.5933 279.54 99.7135 279.21 99.7135 278.909C99.7135 278.158 101.065 275.695 102.087 274.613C102.898 273.712 106.263 271.94 106.683 272.18C106.803 272.27 107.224 272.15 107.584 271.94C108.906 271.219 115.515 270.678 128.253 270.227C136.274 269.957 138.347 269.747 138.647 269.266C138.737 269.116 139.008 268.996 139.248 268.996C139.849 268.996 142.553 266.953 144.055 265.361C145.557 263.768 147.269 261.215 148.831 258.271C149.883 256.288 150.484 255.597 150.484 256.378C150.484 256.889 154.359 260.554 156.852 262.417C158.925 263.949 164.062 267.193 164.423 267.193C164.483 267.193 165.715 267.734 167.126 268.395C168.538 269.056 169.89 269.597 170.131 269.597C170.371 269.597 170.671 269.717 170.761 269.897C170.852 270.047 171.212 270.197 171.543 270.197C171.843 270.197 172.354 270.318 172.654 270.498C173.375 270.888 177.821 271.91 180.795 272.33C185.632 273.021 192.512 272.33 197.498 270.678C202.425 269.026 208.403 265.601 212.339 262.146C214.682 260.103 217.115 257.52 217.866 256.348C218.197 255.868 218.527 255.477 218.618 255.477C218.738 255.477 219.158 256.198 219.579 257.069C222.222 262.627 226.488 267.644 229.913 269.116C231.956 269.987 233.578 270.167 242.11 270.468C256.65 271.008 263.169 271.91 265.933 273.802C268.697 275.695 270.649 281.102 271.671 289.814C272.542 296.994 272.782 303.934 272.812 323.521C272.872 345.211 272.662 350.017 271.01 365.038L270.769 367.231H276.267C280.473 367.231 281.765 367.141 281.765 366.841C281.765 366.66 281.945 364.738 282.185 362.575C283.657 349.387 283.958 343.018 283.928 325.624C283.868 292.728 282.576 280.832 278.16 272C275.276 266.292 271.04 263.078 264.341 261.545C263.59 261.365 262.658 261.155 262.238 261.035C259.744 260.464 252.715 259.923 244.213 259.683C236.342 259.412 234.329 259.292 233.758 258.902C232.316 257.94 229.072 252.142 226.819 246.375C226.308 245.083 225.888 243.851 225.888 243.641C225.888 243.4 227.209 242.169 228.832 240.877C232.587 237.873 241.93 228.53 244.994 224.685C246.316 223.032 248.389 220.299 249.62 218.586C251.633 215.762 252.054 215.342 254.817 213.539C267.825 205.007 275.336 194.974 277.709 182.927C278.28 180.073 278.37 172.082 277.859 169.228C276.357 160.726 272.842 152.135 268.036 145.165C267.014 143.723 266.744 142.702 266.143 138.165C265.272 131.646 263.349 124.346 260.826 117.887C255.448 104.188 246.616 93.4336 234.87 86.4039C232.106 84.7216 225.287 81.3869 223.995 81.0565C222.643 80.726 222.493 80.2454 223.304 78.6532C228.231 68.7996 225.888 56.9633 217.326 48.3414C212.609 43.5648 205.67 39.5692 198.85 37.6766C198.099 37.4663 197.168 37.196 196.747 37.0758C196.327 36.9256 195.065 36.6552 193.893 36.475C192.752 36.2647 191.22 35.9943 190.529 35.8441C189.027 35.5137 178.062 35.5437 176.77 35.8742ZM190.318 126.78C196.837 133.178 205.82 141.29 211.618 146.006C223.634 155.77 232.497 161.778 242.02 166.524C250.041 170.52 256.049 172.262 261.937 172.262C266.173 172.262 266.263 172.202 266.684 169.348C266.864 168.056 267.104 165.593 267.225 163.881C267.435 160.816 267.435 160.786 267.946 161.447C268.516 162.198 269.448 164.962 270.109 167.756C270.349 168.747 270.499 171.271 270.499 174.065C270.469 177.94 270.379 179.112 269.808 181.064C268.486 185.661 266.383 189.176 262.839 192.69C258.963 196.506 253.916 199.54 247.968 201.643C245.865 202.364 245.505 202.604 245.054 203.505C241.599 210.745 239.586 214.531 237.544 217.655C227.6 232.766 214.832 242.83 200.412 246.855C194.975 248.387 191.13 248.868 184.551 248.868C178.062 248.868 174.427 248.387 168.538 246.705C151.926 241.988 136.695 229.611 124.768 211.166C122.515 207.681 120.142 203.596 118.76 200.772L117.949 199.059L115.065 197.918C99.1728 191.639 93.0443 180.704 97.0398 165.713C98.0011 162.138 100.825 155.439 101.426 155.439C101.636 155.439 101.816 156.611 101.967 158.954C102.147 162.529 102.387 164.662 103.198 169.859C104.009 174.876 104.19 175.327 105.361 174.666C105.632 174.515 108.305 173.434 111.279 172.232C114.254 171.061 117.288 169.829 118.039 169.498C134.291 162.349 146.368 155.619 154.84 148.98C157.543 146.877 167.847 138.436 168.208 138.015C168.298 137.925 169.98 136.423 171.963 134.71C173.946 132.998 177.341 129.994 179.474 128.071C184.641 123.415 185.782 122.424 185.812 122.393C185.842 122.393 187.855 124.376 190.318 126.78ZM164.092 254.696C167.817 255.928 170.581 256.589 176.169 257.61C178.993 258.121 189.537 258.121 192.842 257.61C196.777 257.009 201.103 255.928 204.558 254.726C206.301 254.095 208.133 253.554 208.614 253.464C209.485 253.344 209.425 253.434 207.712 255.026C204.318 258.241 199.121 261.335 194.795 262.747C186.443 265.451 177.13 264.309 167.817 259.443C163.251 257.039 158.384 253.374 159.766 253.374C159.947 253.374 161.869 253.975 164.092 254.696Z" fill="black"/>
<path d="M152.287 170.88C150.634 171.391 149.102 172.472 147.81 174.004L146.609 175.386L144.296 173.824C143.004 172.983 141.892 172.352 141.802 172.442C141.742 172.502 141.952 172.983 142.313 173.464C143.334 174.845 143.094 174.996 141.412 174.034C140.54 173.554 139.639 173.163 139.429 173.163C138.828 173.163 139.669 174.275 140.931 175.176C142.043 175.927 142.193 176.618 141.231 176.347C140.931 176.287 140.18 176.137 139.519 176.017C138.347 175.807 138.347 175.837 138.858 176.408C139.639 177.249 142.463 178.06 144.115 177.91L145.527 177.759V181.094C145.527 184.098 145.617 184.579 146.338 186.081C148.201 189.866 150.995 191.849 154.48 191.849C159.737 191.849 163.672 187.253 163.702 181.184C163.702 174.365 157.844 169.047 152.287 170.88Z" fill="black"/>
<path d="M207.743 170.94C205.851 171.631 204.679 172.472 203.417 174.154C198.07 181.124 202.216 191.849 210.237 191.849C212.67 191.819 213.932 191.338 215.854 189.596C218.528 187.192 219.85 183.107 219.219 179.322C219.039 178.33 218.768 177.339 218.588 177.129C218.107 176.528 218.558 176.378 220.571 176.438C221.652 176.468 222.974 176.317 223.755 176.017C226.249 175.146 226.579 174.215 224.206 174.725C223.455 174.906 222.764 174.936 222.674 174.845C222.584 174.755 223.154 174.094 223.966 173.343C224.777 172.622 225.347 171.931 225.257 171.811C225.137 171.721 224.266 172.022 223.305 172.532C222.343 173.013 221.502 173.373 221.442 173.313C221.382 173.253 221.682 172.712 222.133 172.142C222.584 171.541 222.794 171.06 222.614 171.06C222.403 171.06 221.262 171.721 220.03 172.562C218.798 173.373 217.627 174.064 217.386 174.064C217.176 174.064 216.605 173.644 216.095 173.133C213.932 170.85 210.447 169.949 207.743 170.94Z" fill="black"/>
<path d="M163.913 206.719C163.582 207.05 163.672 208.942 164.153 211.015C166.466 220.989 174.607 227.508 184.731 227.538C191.851 227.538 198.4 223.933 202.276 217.835C204.108 214.981 205.46 210.715 205.46 207.831V206.509H184.791C173.406 206.509 164.003 206.599 163.913 206.719Z" fill="black"/>
<path d="M129.696 295.042C129.125 295.192 128.704 296.153 129.005 296.634C129.095 296.784 128.975 297.325 128.704 297.805C128.464 298.316 128.254 299.187 128.254 299.758C128.254 300.329 128.134 300.9 127.953 300.99C127.803 301.08 127.653 301.711 127.653 302.342C127.653 302.973 127.533 303.603 127.353 303.694C127.202 303.784 127.052 304.445 127.052 305.166C127.052 305.857 126.932 306.547 126.782 306.698C126.632 306.878 126.451 307.539 126.361 308.2C126.031 310.573 125.64 312.406 125.28 313.277C125.099 313.757 124.979 314.328 125.069 314.569C125.16 314.779 125.069 315.35 124.889 315.8C124.709 316.251 124.439 317.362 124.288 318.264C124.138 319.165 123.898 320.697 123.748 321.628C123.567 322.59 123.297 324.212 123.117 325.233C122.967 326.285 122.756 327.877 122.666 328.778C122.576 329.679 122.396 330.701 122.246 331.031C121.555 332.533 121.314 345.121 121.885 349.507C122.336 352.841 123.207 358.579 123.748 361.674C123.898 362.665 124.138 364.137 124.228 364.978C124.348 365.789 124.559 366.66 124.709 366.841C124.949 367.141 126.451 367.231 130.417 367.231H135.824L135.644 366.09C135.524 365.489 135.314 364.227 135.133 363.326C134.983 362.425 134.743 360.922 134.593 360.021C134.472 359.12 134.202 358.008 134.022 357.558C133.842 357.107 133.751 356.536 133.842 356.326C133.902 356.116 133.781 355.155 133.541 354.193C133.301 353.262 133.151 352.301 133.241 352.09C133.331 351.85 133.181 350.919 132.91 349.957C132.64 349.026 132.46 347.915 132.55 347.494C132.61 347.073 132.49 345.782 132.249 344.58C131.949 343.198 131.859 341.816 132.009 340.645C132.099 339.653 132.309 337.61 132.46 336.138C132.58 334.636 132.88 332.984 133.06 332.443C133.271 331.902 133.361 331.272 133.241 331.031C133.151 330.791 133.301 329.92 133.541 329.049C133.812 328.207 133.932 327.336 133.842 327.126C133.751 326.886 133.842 326.255 134.022 325.714C134.382 324.572 134.833 322.139 135.043 319.916C135.133 319.075 135.344 318.294 135.494 318.143C135.644 317.963 135.764 317.272 135.764 316.581C135.764 315.86 135.914 315.199 136.065 315.109C136.245 315.019 136.365 314.358 136.365 313.637C136.365 312.946 136.485 312.255 136.635 312.075C136.786 311.925 136.996 311.204 137.086 310.453C137.477 307.329 137.657 306.367 137.897 306.067C138.047 305.887 138.228 305.166 138.288 304.475C138.348 303.784 138.558 303.063 138.708 302.852C139.039 302.462 139.369 300.479 139.459 298.436C139.519 297.145 139.489 297.084 138.618 296.994C138.137 296.934 137.597 296.754 137.416 296.604C137.266 296.454 136.665 296.333 136.065 296.333C135.494 296.303 134.683 296.123 134.292 295.913C133.872 295.673 133.391 295.552 133.181 295.642C132.97 295.703 132.4 295.552 131.889 295.312C130.988 294.831 130.627 294.801 129.696 295.042Z" fill="black"/>
<path d="M234.9 295.612C231.205 296.543 229.703 296.994 229.403 297.264C229.253 297.385 229.403 298.586 229.733 299.968C230.064 301.35 230.484 303.303 230.695 304.294C230.905 305.285 231.175 306.487 231.295 306.998C231.416 307.479 231.686 308.65 231.866 309.551C232.046 310.453 232.527 312.886 232.948 314.959C233.939 319.795 234.27 321.388 234.6 323.22C234.75 324.031 234.991 325.473 235.171 326.375C235.321 327.276 235.621 329.048 235.802 330.28C235.982 331.512 236.252 333.344 236.402 334.336C237.334 340.374 236.913 347.103 234.93 358.218C234.75 359.12 234.51 360.622 234.33 361.523C233.849 364.317 233.458 366.149 233.248 366.72C233.038 367.201 233.368 367.231 238.836 367.171L244.664 367.081L244.844 366.029C244.934 365.458 245.265 363.776 245.535 362.274C247.368 352.511 247.938 347.584 247.938 341.696C247.938 336.799 247.758 333.975 247.217 331.031C247.067 330.19 246.797 328.508 246.617 327.276C246.226 324.662 244.814 316.942 244.063 313.307C243.192 309.071 242.231 304.625 241.119 299.487L240.128 294.981L238.926 294.951C238.295 294.921 236.463 295.222 234.9 295.612Z" fill="black"/>
<g filter="url(#filter0_f_20_1166)">
<path d="M220.302 197.298C219.552 198.044 218.662 199.301 218.334 200.14C217.069 203.215 219.552 207.268 223.113 207.92C226.439 208.526 230 205.591 230 202.19C230 200.093 228.454 197.298 226.955 196.599C224.706 195.574 221.801 195.901 220.302 197.298Z" fill="#EF3236"/>
</g>
<path d="M220.302 197.298C219.552 198.044 218.662 199.301 218.334 200.14C217.069 203.215 219.552 207.268 223.113 207.92C226.439 208.526 230 205.591 230 202.19C230 200.093 228.454 197.298 226.955 196.599C224.706 195.574 221.801 195.901 220.302 197.298Z" fill="#EF3236"/>
<g filter="url(#filter1_f_20_1166)">
<path d="M137.302 197.298C136.552 198.044 135.662 199.301 135.334 200.14C134.069 203.215 136.552 207.268 140.113 207.92C143.439 208.526 147 205.591 147 202.19C147 200.093 145.454 197.298 143.955 196.599C141.706 195.574 138.801 195.901 137.302 197.298Z" fill="#EF3236"/>
</g>
<path d="M137.302 197.298C136.552 198.044 135.662 199.301 135.334 200.14C134.069 203.215 136.552 207.268 140.113 207.92C143.439 208.526 147 205.591 147 202.19C147 200.093 145.454 197.298 143.955 196.599C141.706 195.574 138.801 195.901 137.302 197.298Z" fill="#EF3236"/>
</g>
<defs>
<filter id="filter0_f_20_1166" x="214" y="192" width="20" height="20" filterUnits="userSpaceOnUse" color-interpolation-filters="sRGB">
<feFlood flood-opacity="0" result="BackgroundImageFix"/>
<feBlend mode="normal" in="SourceGraphic" in2="BackgroundImageFix" result="shape"/>
<feGaussianBlur stdDeviation="2" result="effect1_foregroundBlur_20_1166"/>
</filter>
<filter id="filter1_f_20_1166" x="131" y="192" width="20" height="20" filterUnits="userSpaceOnUse" color-interpolation-filters="sRGB">
<feFlood flood-opacity="0" result="BackgroundImageFix"/>
<feBlend mode="normal" in="SourceGraphic" in2="BackgroundImageFix" result="shape"/>
<feGaussianBlur stdDeviation="2" result="effect1_foregroundBlur_20_1166"/>
</filter>
</defs>
</svg>
