<svg width="291" height="289" viewBox="0 0 291 289" fill="none" xmlns="http://www.w3.org/2000/svg">
<path d="M179.97 188.057C186.823 187.776 192.412 182.45 193.002 175.614L194.681 156.102L196.36 136.59C196.949 129.754 192.352 123.552 185.646 122.105C72.9566 97.7845 23.1639 122.235 6.91965 133.924C2.99675 136.746 2.50721 142.423 5.89166 145.877C19.9004 160.171 64.7836 192.768 179.97 188.057Z" fill="#DC6BAF"/>
<path d="M5.86979 146.119C11.7941 152.162 23.2356 161.477 43.1744 169.858C37.6659 149.214 40.8465 131.261 46.2861 117.484C26.0566 122.33 13.6123 129.335 6.89977 134.163C2.97491 136.988 2.48751 142.666 5.86979 146.119Z" fill="#634BCC"/>
<path d="M221.036 183.784C225.053 184.129 229.28 173.114 230.477 159.183C231.677 145.25 229.392 133.676 225.376 133.33C224.057 133.215 195.643 144.884 195.643 144.884L193.801 166.289C193.801 166.289 219.647 183.664 221.036 183.784Z" fill="#F7C548"/>
<path d="M67.8359 145.66C68.9975 132.159 80.8857 122.155 94.3868 123.316C107.888 124.478 117.892 136.366 116.731 149.867C115.569 163.368 103.681 173.373 90.1797 172.211C76.6786 171.049 66.6765 159.163 67.8359 145.66Z" fill="#F7C548"/>
<path d="M75.0246 146.279C75.8455 136.747 84.2383 129.682 93.7701 130.503C103.302 131.324 110.367 139.717 109.546 149.249C108.725 158.781 100.332 165.846 90.8003 165.025C81.2665 164.206 74.2037 155.811 75.0246 146.279Z" fill="#7BC9ED"/>
<path d="M122.123 187.121C122.123 187.121 116.72 249.897 219.913 225.211C219.913 225.211 166.082 215.3 168.816 188.403L122.123 187.121Z" fill="#7BC9ED"/>
<path d="M125.495 112.886C125.495 112.886 130.898 50.1103 228.356 92.0615C228.356 92.0615 173.621 92.6314 171.721 119.6L125.495 112.886Z" fill="#7BC9ED"/>
<path d="M77.036 162.017C77.6544 161.339 78.7073 161.291 79.3854 161.909C80.0635 162.528 80.112 163.58 79.4936 164.259C78.8752 164.937 77.8224 164.985 77.1443 164.367C76.4661 163.748 76.4177 162.695 77.036 162.017Z" fill="#634BCC"/>
<path d="M95.5651 167.55C94.8865 166.931 93.8346 166.98 93.2157 167.658C92.5969 168.337 92.6453 169.389 93.3239 170.008C94.0026 170.627 95.0544 170.578 95.6733 169.9C96.2922 169.221 96.2438 168.169 95.5651 167.55Z" fill="#634BCC"/>
<path d="M114.717 146.548C114.039 145.929 112.987 145.978 112.368 146.656C111.749 147.335 111.798 148.387 112.476 149.006C113.155 149.625 114.207 149.576 114.826 148.898C115.445 148.219 115.396 147.167 114.717 146.548Z" fill="#634BCC"/>
<path d="M72.4299 146.452C71.7512 145.833 70.6994 145.882 70.0805 146.56C69.4616 147.239 69.51 148.291 70.1887 148.91C70.8673 149.529 71.9192 149.48 72.5381 148.801C73.157 148.123 73.1085 147.071 72.4299 146.452Z" fill="#634BCC"/>
<path d="M91.5822 125.451C90.9036 124.832 89.8517 124.88 89.2328 125.559C88.6139 126.237 88.6624 127.289 89.341 127.908C90.0197 128.527 91.0715 128.479 91.6904 127.8C92.3093 127.121 92.2609 126.07 91.5822 125.451Z" fill="#634BCC"/>
<path d="M105.262 131.066C105.88 130.388 106.933 130.34 107.611 130.958C108.289 131.576 108.338 132.629 107.719 133.307C107.101 133.985 106.048 134.034 105.37 133.416C104.692 132.797 104.643 131.744 105.262 131.066Z" fill="#634BCC"/>
<path d="M75.6933 132.633C76.3117 131.955 77.3646 131.906 78.0427 132.525C78.7208 133.143 78.7693 134.196 78.1509 134.874C77.5325 135.552 76.4796 135.601 75.8015 134.982C75.1214 134.366 75.0729 133.313 75.6933 132.633Z" fill="#634BCC"/>
<path d="M106.489 160.717C107.107 160.038 108.16 159.99 108.838 160.608C109.516 161.227 109.565 162.28 108.946 162.958C108.328 163.636 107.275 163.684 106.597 163.066C105.917 162.45 105.868 161.397 106.489 160.717Z" fill="#634BCC"/>
<path d="M219.913 225.211C219.913 225.211 166.917 216.029 168.816 188.403L151.68 187.934C151.68 187.934 165.14 237.067 219.913 225.211Z" fill="#26AEED"/>
<path d="M171.721 119.604C171.721 119.604 169.194 95.465 228.356 92.0658C228.356 92.0658 173.032 65.1449 158.231 117.645L171.721 119.604Z" fill="#26AEED"/>
<path d="M215.724 180.704C218.584 182.509 220.669 183.754 221.038 183.786C225.053 184.133 229.28 173.118 230.479 159.185C231.679 145.252 229.394 133.678 225.378 133.332C224.961 133.295 221.815 134.445 217.724 136.03C223.543 152.456 219.534 169.942 215.724 180.704Z" fill="#F7A520"/>
<path d="M174.567 140.83C188.326 161.565 176.924 179.889 169.626 188.391C173.009 188.316 176.453 188.209 179.966 188.065C186.822 187.787 192.408 182.459 192.998 175.623L194.677 156.111L196.356 136.599C196.945 129.763 192.348 123.561 185.642 122.114C137.127 111.643 100.294 110.224 72.7537 112.924C107.219 115.123 161.822 121.624 174.567 140.83Z" fill="#CC4B99"/>
<path opacity="0.2" d="M9.85285 143.755C11.3028 140.694 25.2119 144.245 40.9201 151.688C56.6283 159.13 68.1881 167.643 66.7361 170.705C65.2861 173.766 51.3771 170.215 35.6689 162.772C19.9607 155.33 8.40285 146.815 9.85285 143.755Z" fill="white"/>
<path opacity="0.2" d="M86.1465 154.495C82.9048 151.539 79.2814 150.234 78.0534 151.58C76.8254 152.927 78.4579 156.415 81.6996 159.371C84.9414 162.328 88.5648 163.633 89.7928 162.286C91.0208 160.939 89.3883 157.451 86.1465 154.495Z" fill="white"/>
<path opacity="0.2" d="M197.322 161.335C198.254 159.926 202.499 161.092 206.801 163.943C211.105 166.793 213.838 170.246 212.906 171.654C211.973 173.063 207.73 171.895 203.426 169.046C199.122 166.196 196.389 162.743 197.322 161.335Z" fill="white"/>
</svg>
