<svg width="258" height="197" viewBox="0 0 258 197" fill="none" xmlns="http://www.w3.org/2000/svg">
<path d="M195.819 77.4639C201.693 82.1436 203.18 90.4477 199.274 96.8554L188.126 115.14L176.978 133.425C173.071 139.833 164.997 142.331 158.137 139.272C42.857 87.876 14.7041 34.1415 7.92312 13.3353C6.28593 8.31209 9.52791 2.98883 14.7511 2.13427C36.3767 -1.40937 97.1226 -1.13662 195.819 77.4639Z" fill="#F7C548"/>
<path d="M14.7448 2.13706C23.888 0.637689 40.0276 -0.17596 63.0644 5.31987C44.8349 19.9608 36.0205 37.8401 31.9045 53.4995C17.1717 36.1526 10.715 21.9315 7.91354 13.3379C6.27955 8.31488 9.52461 2.99495 14.7448 2.13706Z" fill="#DC6BAF"/>
<path d="M229.326 107.777C233.095 110.067 229.699 122.509 221.738 135.567C213.777 148.622 204.267 157.352 200.498 155.062C199.258 154.308 181.715 125.659 181.715 125.659L193.944 105.601C193.944 105.601 228.02 106.982 229.326 107.777Z" fill="#DC6BAF"/>
<path d="M69.3247 42.3643C61.6113 55.0176 65.6351 71.5202 78.313 79.2246C90.991 86.9257 107.524 82.912 115.24 70.2588C122.954 57.6054 118.93 41.1028 106.252 33.3984C93.5706 25.6972 77.0413 29.7111 69.3247 42.3643Z" fill="#806BDC"/>
<path d="M76.0728 46.4642C70.6262 55.3995 73.4669 67.0486 82.4195 72.4866C91.3722 77.9245 103.042 75.0909 108.489 66.1588C113.936 57.2236 111.095 45.5744 102.145 40.1366C93.1927 34.6987 81.5193 37.5321 76.0728 46.4642Z" fill="#7BC9ED"/>
<path d="M144.116 40.9026C144.116 40.9026 179.985 -17.929 255.152 70.5294C255.152 70.5294 201.187 44.4751 186.189 69.9536L144.116 40.9026Z" fill="#7BC9ED"/>
<path d="M99.0358 108.525C99.0358 108.525 63.1666 167.356 176.411 193.365C176.411 193.365 128.434 157.487 144.216 132.483L99.0358 108.525Z" fill="#7BC9ED"/>
<path d="M88.0404 33.8935C88.1483 34.8926 89.0464 35.6153 90.0473 35.5077C91.0483 35.4002 91.7722 34.5037 91.6643 33.5046C91.5564 32.5055 90.6582 31.7829 89.6573 31.8904C88.6563 31.998 87.9325 32.8944 88.0404 33.8935Z" fill="#F7C548"/>
<path d="M105.981 39.3763C106.089 40.3754 106.987 41.0981 107.988 40.9906C108.989 40.883 109.712 39.9866 109.604 38.9875C109.497 37.9884 108.598 37.2657 107.597 37.3733C106.6 37.481 105.876 38.3774 105.981 39.3763Z" fill="#F7C548"/>
<path d="M109.303 70.2707C109.411 71.2698 110.309 71.9924 111.31 71.8849C112.311 71.7773 113.035 70.8809 112.927 69.8818C112.819 68.8827 111.921 68.1601 110.92 68.2676C109.919 68.3752 109.195 69.2716 109.303 70.2707Z" fill="#F7C548"/>
<path d="M71.8885 43.0208C71.9964 44.0199 72.8947 44.7426 73.8956 44.635C74.8965 44.5275 75.6204 43.6311 75.5125 42.632C75.4046 41.6329 74.5063 40.9102 73.5054 41.0177C72.5045 41.1253 71.7806 42.0217 71.8885 43.0208Z" fill="#F7C548"/>
<path d="M75.2111 73.9151C75.319 74.9142 76.2173 75.6368 77.2182 75.5293C78.2192 75.4218 78.943 74.5253 78.8351 73.5262C78.7272 72.5271 77.829 71.8045 76.828 71.912C75.8271 72.0196 75.1032 72.916 75.2111 73.9151Z" fill="#F7C548"/>
<path d="M92.9327 79.4204C93.0406 80.4195 93.9387 81.1422 94.9397 81.0347C95.9406 80.9271 96.6645 80.0307 96.5566 79.0316C96.4487 78.0325 95.5505 77.3098 94.5496 77.4174C93.5485 77.5281 92.8247 78.4245 92.9327 79.4204Z" fill="#F7C548"/>
<path d="M67.8326 58.9256C67.9405 59.9247 68.8386 60.6473 69.8396 60.5398C70.8405 60.4322 71.5645 59.5358 71.4566 58.5367C71.3487 57.5376 70.4504 56.815 69.4495 56.9225C68.4486 57.0301 67.7247 57.9265 67.8326 58.9256Z" fill="#F7C548"/>
<path d="M113.212 54.075C113.319 55.0741 114.218 55.7967 115.218 55.6892C116.219 55.5817 116.943 54.6852 116.835 53.6861C116.727 52.687 115.829 51.9644 114.828 52.0719C113.827 52.1795 113.104 53.0759 113.212 54.075Z" fill="#F7C548"/>
<path d="M255.152 70.5294C255.152 70.5294 202.396 44.3701 186.189 69.9536L170.751 59.2919C170.751 59.2919 214.447 24.6752 255.152 70.5294Z" fill="#26AEED"/>
<path d="M144.216 132.48C144.216 132.48 126.356 152.125 176.411 193.362C176.411 193.362 110.115 181.337 131.03 125.49L144.216 132.48Z" fill="#26AEED"/>
<path d="M222.638 107.059C226.334 107.316 228.982 107.567 229.326 107.777C233.095 110.067 229.699 122.509 221.738 135.567C213.777 148.622 204.267 157.352 200.498 155.061C200.104 154.824 198.072 151.776 195.483 147.736C211.255 137.012 219.036 119.009 222.638 107.059Z" fill="#B5389A"/>
<path d="M160.471 115.606C186.046 106.223 187.839 82.6967 186.897 70.4859C189.837 72.738 192.807 75.0584 195.819 77.4574C201.693 82.134 203.181 90.4412 199.274 96.8489L188.126 115.134L176.978 133.419C173.072 139.826 164.997 142.324 158.138 139.265C108.506 117.138 75.0557 94.5849 52.4762 74.4054C84.343 94.7385 136.78 124.299 160.471 115.606Z" fill="#F7A520"/>
<path opacity="0.2" d="M16.8749 6.56743C16.1751 10.2021 30.7609 16.0629 49.4514 19.656C68.1452 23.2491 83.8639 23.2137 84.567 19.5792C85.2668 15.9445 70.6841 10.0838 51.9904 6.49065C33.2966 2.89747 17.5748 2.93273 16.8749 6.56743Z" fill="white"/>
<path opacity="0.2" d="M82.1797 43.748C82.393 45.7301 86.4395 46.923 91.2156 46.4107C95.9917 45.8984 99.6949 43.8789 99.4816 41.8968C99.2683 39.9147 95.2218 38.7218 90.4457 39.2341C85.6695 39.7464 81.9695 41.7692 82.1797 43.748Z" fill="white"/>
<path opacity="0.2" d="M193.843 112.238C193.755 114.082 198.26 115.797 203.906 116.067C209.552 116.337 214.201 115.061 214.289 113.217C214.377 111.372 209.873 109.658 204.226 109.388C198.58 109.115 193.932 110.393 193.843 112.238Z" fill="white"/>
</svg>
