<svg width="48" height="48" viewBox="0 0 48 48" fill="none" xmlns="http://www.w3.org/2000/svg">
<path fill-rule="evenodd" clip-rule="evenodd" d="M48 24C48 37.2548 37.2548 48 24 48C10.7452 48 0 37.2548 0 24C0 10.7452 10.7452 0 24 0C37.2548 0 48 10.7452 48 24ZM12.6586 13.7982C12.4737 13.8455 12.3079 13.9062 12.2887 13.9264C12.2888 13.9394 12.2871 13.9496 12.2855 13.9588C12.2845 13.965 12.2836 13.9708 12.2833 13.9765C12.2803 14.042 12.3653 14.1114 13.4137 14.9681C14.2822 15.6778 15.8119 16.9278 18.5005 19.1634C21.4596 21.6199 23.9724 23.6918 24.0808 23.7592C24.3551 23.9415 24.7951 23.9347 25.0757 23.7525C25.3181 23.5973 36.5043 14.3179 36.7402 14.0749L36.8933 13.9264L36.6765 13.832C36.3703 13.697 13.1752 13.67 12.6586 13.7982ZM10.5054 16.8771C10.5275 16.8263 10.5518 16.7765 10.5786 16.7217L10.6742 16.5328L11.548 17.2616C17.8426 22.5121 22.8745 26.6693 23.1041 26.8043C23.9268 27.3104 25.1002 27.3307 25.9867 26.8515C26.1143 26.784 28.9778 24.4355 32.3451 21.6348L38.4739 16.5395L38.5696 16.7352C38.8502 17.3089 38.8566 17.4169 38.8566 24.5367C38.8566 28.8559 38.8311 31.4271 38.7928 31.6565C38.5696 32.8983 37.5428 33.9848 36.3757 34.2143C35.8974 34.3088 13.2316 34.3088 12.7661 34.2143C11.9306 34.0456 11.0696 33.3775 10.6742 32.6014C10.6175 32.4879 10.569 32.3966 10.5276 32.3021C10.2758 31.7279 10.2852 31.0391 10.2852 24.5772C10.2852 17.9843 10.2852 17.3828 10.5054 16.8771Z" fill="white"/>
</svg>
