<svg width="390" height="800" viewBox="0 0 390 800" fill="none" xmlns="http://www.w3.org/2000/svg">
<rect width="390" height="800" fill="white"/>
<rect width="390" height="68" fill="#7ED287"/>
<rect x="20" y="24" width="24" height="3.15789" rx="1.57895" fill="white"/>
<rect x="20" y="32.4209" width="24" height="3.15789" rx="1.57895" fill="white"/>
<rect x="20" y="40.8418" width="24" height="3.15789" rx="1.57895" fill="white"/>
<path d="M157.276 44.252C156.716 44.252 156.268 44.1027 155.932 43.804C155.596 43.5053 155.428 43.0947 155.428 42.572V32.772C155.428 30.0653 156.203 27.9467 157.752 26.416C159.301 24.8853 161.457 24.12 164.22 24.12C166.031 24.12 167.599 24.4653 168.924 25.156C170.249 25.8467 171.257 26.8453 171.948 28.152C172.657 29.4587 173.012 30.9987 173.012 32.772V42.572C173.012 43.0947 172.844 43.5053 172.508 43.804C172.172 44.1027 171.724 44.252 171.164 44.252C170.604 44.252 170.147 44.1027 169.792 43.804C169.456 43.4867 169.288 43.076 169.288 42.572V38.008H159.152V42.572C159.152 43.076 158.975 43.4867 158.62 43.804C158.284 44.1027 157.836 44.252 157.276 44.252ZM169.288 35.124V32.688C169.288 30.8213 168.859 29.4213 168 28.488C167.16 27.536 165.9 27.06 164.22 27.06C160.841 27.06 159.152 28.936 159.152 32.688V35.124H169.288ZM177.729 44.28C177.169 44.28 176.721 44.1307 176.385 43.832C176.049 43.5333 175.881 43.1227 175.881 42.6V32.044C175.881 29.5613 176.656 27.62 178.205 26.22C179.754 24.82 181.901 24.12 184.645 24.12C187.389 24.12 189.536 24.82 191.085 26.22C192.634 27.62 193.409 29.5613 193.409 32.044V42.6C193.409 43.1227 193.241 43.5333 192.905 43.832C192.569 44.1307 192.121 44.28 191.561 44.28C191.001 44.28 190.544 44.1307 190.189 43.832C189.853 43.5147 189.685 43.104 189.685 42.6V31.96C189.685 30.3733 189.256 29.16 188.397 28.32C187.538 27.48 186.288 27.06 184.645 27.06C183.002 27.06 181.752 27.48 180.893 28.32C180.034 29.16 179.605 30.3733 179.605 31.96V42.6C179.605 43.104 179.428 43.5147 179.073 43.832C178.737 44.1307 178.289 44.28 177.729 44.28ZM206.115 44.28C204.005 44.28 202.176 43.8787 200.627 43.076C199.077 42.2733 197.892 41.116 197.071 39.604C196.249 38.092 195.839 36.3 195.839 34.228C195.839 32.156 196.249 30.364 197.071 28.852C197.892 27.3213 199.068 26.1547 200.599 25.352C202.148 24.5307 203.968 24.12 206.059 24.12C207.795 24.12 209.4 24.4187 210.875 25.016C212.349 25.6133 213.441 26.4067 214.151 27.396C214.375 27.6947 214.487 28.0027 214.487 28.32C214.487 28.7867 214.235 29.2067 213.731 29.58C213.507 29.748 213.227 29.832 212.891 29.832C212.611 29.832 212.331 29.776 212.051 29.664C211.771 29.5333 211.537 29.356 211.351 29.132C210.716 28.404 209.979 27.8813 209.139 27.564C208.299 27.228 207.272 27.06 206.059 27.06C204.024 27.06 202.437 27.6947 201.299 28.964C200.16 30.2147 199.591 31.9693 199.591 34.228C199.591 36.468 200.16 38.2133 201.299 39.464C202.456 40.7147 204.061 41.34 206.115 41.34C207.813 41.34 209.139 41.0133 210.091 40.36C211.061 39.7067 211.547 38.8013 211.547 37.644V37.028C211.547 36.636 211.453 36.3653 211.267 36.216C211.099 36.0667 210.8 35.992 210.371 35.992H206.703C206.18 35.992 205.769 35.8707 205.471 35.628C205.172 35.3667 205.023 35.012 205.023 34.564C205.023 34.0973 205.163 33.7427 205.443 33.5C205.741 33.2387 206.161 33.108 206.703 33.108H212.135C213.217 33.108 214.011 33.3413 214.515 33.808C215.019 34.256 215.271 34.9747 215.271 35.964V37.056C215.271 38.4747 214.888 39.7347 214.123 40.836C213.357 41.9187 212.275 42.768 210.875 43.384C209.493 43.9813 207.907 44.28 206.115 44.28ZM228.323 44.28C226.139 44.28 224.253 43.86 222.667 43.02C221.099 42.1613 219.904 40.976 219.083 39.464C218.261 37.9333 217.851 36.1787 217.851 34.2C217.851 32.2213 218.261 30.476 219.083 28.964C219.904 27.4333 221.099 26.248 222.667 25.408C224.253 24.5493 226.139 24.12 228.323 24.12C230.507 24.12 232.383 24.5493 233.951 25.408C235.537 26.248 236.741 27.4333 237.563 28.964C238.384 30.476 238.795 32.2213 238.795 34.2C238.795 36.1787 238.384 37.9333 237.563 39.464C236.741 40.976 235.537 42.1613 233.951 43.02C232.383 43.86 230.507 44.28 228.323 44.28ZM228.323 41.34C230.451 41.34 232.103 40.7053 233.279 39.436C234.455 38.148 235.043 36.4027 235.043 34.2C235.043 31.9787 234.427 30.2333 233.195 28.964C231.981 27.6947 230.264 27.06 228.043 27.06C226.008 27.06 224.421 27.7133 223.283 29.02C222.163 30.308 221.603 32.0347 221.603 34.2C221.603 36.4027 222.191 38.148 223.367 39.436C224.543 40.7053 226.195 41.34 228.323 41.34Z" fill="white"/>
<rect x="20.5" y="87.5" width="349" height="47" rx="9.5" fill="#F4FBF4" stroke="#7ED287"/>
<path d="M45.8 109.704V104.216H47.048V117.464H45.8V110.76H42.856C41.992 112.424 40.616 113.912 38.632 115.096L37.864 114.152C40.936 112.312 42.472 109.736 42.712 106.728H38.472V105.656H44.008C44.008 107.064 43.8 108.424 43.32 109.704H45.8ZM48.792 103.832H50.04V118.184H48.792V103.832ZM57.6548 105.08V107.656C57.6548 110.28 59.3668 112.92 61.4948 113.88L60.7108 114.936C59.0788 114.136 57.7028 112.44 57.0148 110.392C56.3588 112.552 54.9828 114.344 53.3028 115.208L52.5028 114.136C54.6148 113.128 56.3588 110.376 56.3588 107.656V105.08H57.6548ZM62.9988 103.832H64.3108V118.216H62.9988V103.832ZM70.1655 115.288V116.968H79.0295V118.008H68.8695V114.296H77.3655V112.712H68.8215V111.672H78.6775V115.288H70.1655ZM78.3095 109.176H80.3095V110.232H67.2855V109.176H76.9975C77.3175 107.592 77.3335 106.44 77.3335 105.496H68.9495V104.44H78.6295V105.352C78.6295 106.328 78.6295 107.56 78.3095 109.176ZM90.4466 106.584V107.88C90.4466 110.376 91.5186 112.872 93.5026 113.992L92.7026 114.952C91.3106 114.12 90.3186 112.584 89.8226 110.76C89.3266 112.728 88.2866 114.408 86.8626 115.304L86.0626 114.328C88.0626 113.128 89.1826 110.52 89.1826 107.88V106.584H86.4626V105.512H93.0066V106.584H90.4466ZM94.2866 108.984V104.152H95.5346V117.432H94.2866V110.056H91.9186V108.984H94.2866ZM97.1666 103.816H98.4306V118.168H97.1666V103.816ZM102.397 114.712V113.656H112.333V118.2H111.021V114.712H102.397ZM103.901 105.464V108.248H110.973V105.464H103.901ZM108.109 111.112H113.933V112.168H100.941V111.112H106.797V109.288H102.621V104.424H112.269V109.288H108.109V111.112ZM120.791 104.744H127.271C127.271 108.376 124.727 110.952 120.615 112.12L120.071 111.096C123.479 110.12 125.607 108.248 125.879 105.816H120.791V104.744ZM123.751 113.672V116.92H130.439V113.672H123.751ZM122.455 117.976V112.632H131.735V117.976H122.455ZM130.407 103.832H131.735V112.024H130.407V108.6H127.286V107.528H130.407V103.832ZM141.813 110.632L141.109 111.624C139.781 111.08 138.789 110.024 138.277 108.792C137.765 110.152 136.741 111.368 135.349 111.992L134.645 110.984C136.517 110.136 137.637 108.248 137.637 106.616V104.68H138.901V106.616C138.901 108.232 139.957 109.896 141.813 110.632ZM137.093 114.36V113.304H146.741V118.184H145.429V114.36H137.093ZM145.477 103.848H146.741V112.52H145.477V108.648H143.653V112.424H142.405V104.088H143.653V107.576H145.477V103.848Z" fill="#7ED287"/>
<path d="M28.088 180.968H29.672V192.056H28.088V180.968ZM21.056 181.856H22.628V184.532H24.932V181.856H26.504V189.476H21.056V181.856ZM22.628 185.768V188.216H24.932V185.768H22.628ZM38.9591 186.332L38.1071 187.448C37.3751 187.004 36.9071 186.308 36.6311 185.48C36.3671 186.332 35.9111 187.088 35.1551 187.568C34.3991 187.076 33.9431 186.32 33.6791 185.456C33.4031 186.284 32.9351 186.992 32.2031 187.448L31.3391 186.332C32.6231 185.516 32.9351 184.04 32.9351 182.696V181.724H34.4231V182.696C34.4231 183.668 34.5551 184.784 35.1671 185.66C35.7551 184.784 35.8871 183.68 35.8871 182.696V181.724H37.3631V182.696C37.3631 184.088 37.6751 185.54 38.9591 186.332ZM34.6271 188.252V190.58H40.9751V191.84H33.0311V188.252H34.6271ZM40.5911 184.136H41.6951V185.432H40.5911V189.044H39.0071V180.98H40.5911V184.136ZM46.9048 182.024V188C48.2968 187.964 49.7968 187.844 51.3448 187.544L51.5008 188.84C49.6648 189.224 47.8888 189.32 46.2808 189.32H45.3208V182.024H46.9048ZM55.1848 185.144V186.452H53.6368V192.008H52.0528V180.968H53.6368V185.144H55.1848ZM63.2838 184.736V182.768H58.7358V184.736H63.2838ZM64.8318 181.52V185.984H57.1758V181.52H64.8318ZM66.0318 187.16V188.42H61.7838V192.032H60.1998V188.42H56.0238V187.16H66.0318ZM78.3095 183.2V184.448H70.6895V181.088H72.2735V183.2H78.3095ZM72.1895 190.016V190.712H78.5975V191.9H70.5935V188.9H76.6895V188.276H70.5815V187.088H78.2855V190.016H72.1895ZM69.4535 185.156H79.4615V186.404H69.4535V185.156ZM83.1206 184.628V186.176H87.8486V184.628H83.1206ZM86.2766 189.464H90.5006V190.748H80.4926V189.464H84.6926V187.436H81.5486V181.664H83.1206V183.38H87.8486V181.664H89.4086V187.436H86.2766V189.464Z" fill="#7ED287"/>
<path d="M22.954 208.166C22.954 208.88 23.542 209.3 24.438 209.3C25.334 209.3 25.95 208.88 25.95 208.166C25.95 207.438 25.334 207.032 24.438 207.032C23.542 207.032 22.954 207.438 22.954 208.166ZM28.316 211.106L28.442 212.366C25.838 212.842 22.926 212.884 20.77 212.898L20.56 211.47C21.442 211.47 22.464 211.47 23.528 211.442V210.546C22.156 210.28 21.232 209.384 21.232 208.166C21.232 206.71 22.562 205.702 24.438 205.702C26.328 205.702 27.658 206.71 27.658 208.166C27.658 209.37 26.748 210.266 25.376 210.532V211.372C26.384 211.316 27.378 211.246 28.316 211.106ZM26.51 216.818C28.162 216.818 29.058 216.524 29.058 215.894C29.058 215.264 28.162 214.97 26.51 214.97C24.844 214.97 23.962 215.264 23.962 215.894C23.962 216.524 24.844 216.818 26.51 216.818ZM26.51 213.584C29.212 213.584 30.906 214.452 30.906 215.894C30.906 217.336 29.212 218.204 26.51 218.204C23.794 218.204 22.114 217.336 22.114 215.894C22.114 214.452 23.794 213.584 26.51 213.584ZM30.822 208.6H32.446V210.126H30.822V213.416H28.974V205.31H30.822V208.6ZM41.3909 210.504L40.5089 211.946C39.0389 211.512 38.0449 210.63 37.4709 209.51C36.8829 210.728 35.8329 211.708 34.3069 212.17L33.4109 210.714C35.5669 210.07 36.5049 208.446 36.5049 206.878V205.688H38.3809V206.878C38.3809 208.404 39.3049 209.902 41.3909 210.504ZM42.3569 216.58V215.418H37.4569V216.58H42.3569ZM42.3569 214.004V212.8H44.1909V218.05H35.6229V212.8H37.4569V214.004H42.3569ZM42.3289 205.31H44.1909V212.24H42.3289V205.31ZM48.9358 211.386V213.71C50.8958 213.696 52.5198 213.598 54.3398 213.29L54.5358 214.788C52.4358 215.152 50.5458 215.236 48.2078 215.236H47.0458V209.93H51.2318V207.872H47.0318V206.402H53.1218V211.386H48.9358ZM55.2358 205.296H57.0838V218.232H55.2358V205.296ZM61.2407 214.984V213.528H70.0187V218.218H68.1707V214.984H61.2407ZM66.1267 209.846H68.1707V208.516H66.1267C66.1687 208.726 66.1967 208.936 66.1967 209.174C66.1967 209.398 66.1687 209.622 66.1267 209.846ZM62.7947 210.798C63.7467 210.798 64.4467 210.196 64.4467 209.174C64.4467 208.166 63.7467 207.564 62.7947 207.564C61.8567 207.564 61.1567 208.166 61.1567 209.174C61.1567 210.196 61.8567 210.798 62.7947 210.798ZM68.1707 205.31H70.0187V212.94H68.1707V211.316H65.3707C64.7547 211.974 63.8307 212.38 62.7947 212.38C60.8907 212.38 59.4067 211.036 59.4067 209.174C59.4067 207.326 60.8907 205.982 62.7947 205.982C63.8447 205.982 64.7687 206.388 65.3847 207.046H68.1707V205.31ZM75.5811 217V215.449L79.2054 212.093C79.5137 211.795 79.7722 211.526 79.981 211.288C80.1931 211.049 80.3539 210.815 80.4632 210.587C80.5726 210.355 80.6273 210.104 80.6273 209.836C80.6273 209.538 80.5594 209.281 80.4235 209.065C80.2876 208.847 80.102 208.679 79.8667 208.563C79.6313 208.444 79.3645 208.384 79.0662 208.384C78.7547 208.384 78.4829 208.447 78.2509 208.573C78.0189 208.699 77.8399 208.88 77.714 209.115C77.588 209.35 77.525 209.63 77.525 209.955H75.4817C75.4817 209.289 75.6325 208.711 75.9341 208.22C76.2357 207.73 76.6583 207.35 77.2019 207.082C77.7454 206.813 78.3719 206.679 79.0811 206.679C79.8103 206.679 80.445 206.808 80.9853 207.067C81.5288 207.322 81.9514 207.677 82.253 208.131C82.5546 208.585 82.7054 209.105 82.7054 209.692C82.7054 210.076 82.6292 210.456 82.4767 210.83C82.3276 211.205 82.0608 211.621 81.6763 212.078C81.2918 212.532 80.7499 213.077 80.0506 213.714L78.5641 215.17V215.24H82.8397V217H75.5811ZM89.0062 211.358V209.538H86.5562V211.358H89.0062ZM90.8122 210.224V212.828H84.7222V206.164H86.5562V208.124H89.0062V206.178H90.8122V208.74H93.1082V205.324H94.9562V214.83H93.1082V210.224H90.8122ZM88.2922 216.51H95.2362V217.98H86.4442V213.906H88.2922V216.51ZM101.275 210.462L100.771 209.104C103.361 208.992 104.621 208.376 104.971 207.648H101.415V206.318H105.181V205.296H107.029V206.318H110.823V207.648H107.239C107.603 208.376 108.863 208.992 111.453 209.104L110.935 210.462C108.541 210.336 106.917 209.748 106.105 208.796C105.307 209.748 103.683 210.336 101.275 210.462ZM111.929 212.142H107.043V212.912H110.529V216.104H103.473V216.776H110.865V218.106H101.639V214.858H108.709V214.242H101.625V212.912H105.195V212.142H100.323V210.784H111.929V212.142ZM124.836 211.54V213.024H119.88V218.204H118.004V213.024H113.188V211.54H121.308C121.63 209.902 121.658 208.642 121.658 207.536H114.518V206.052H123.464V207.214C123.464 208.418 123.464 209.734 123.142 211.54H124.836ZM139.191 210.392L137.371 210.21C137.665 209.062 137.707 208.194 137.707 207.34H130.623V205.884H139.555V206.948C139.555 207.97 139.555 209.062 139.191 210.392ZM135.047 216.818C136.797 216.818 137.791 216.468 137.791 215.782C137.791 215.082 136.797 214.732 135.047 214.732C133.311 214.732 132.317 215.082 132.317 215.782C132.317 216.468 133.311 216.818 135.047 216.818ZM135.047 213.346C137.833 213.346 139.625 214.27 139.625 215.782C139.625 217.28 137.833 218.204 135.047 218.204C132.275 218.204 130.483 217.28 130.483 215.782C130.483 214.27 132.275 213.346 135.047 213.346ZM135.467 211.078H140.927V212.534H129.321V211.078H133.619V208.824H135.467V211.078ZM146.918 206.304V208.18C146.918 210.504 147.828 212.842 149.9 213.864L148.78 215.32C147.436 214.634 146.526 213.388 145.994 211.848C145.434 213.486 144.468 214.844 143.012 215.558L141.906 214.06C144.076 213.038 145.056 210.574 145.056 208.18V206.304H146.918ZM154.142 210.266V211.806H152.266V218.204H150.418V205.31H152.266V210.266H154.142ZM156.171 210.658L155.555 209.23C157.949 209.02 159.209 208.18 159.531 207.312H156.115V205.842H165.649V207.312H162.219C162.541 208.18 163.801 209.02 166.209 209.23L165.565 210.658C163.143 210.448 161.561 209.538 160.875 208.32C160.189 209.538 158.607 210.448 156.171 210.658ZM163.451 215.88C163.451 215.222 162.569 214.942 160.847 214.942C159.125 214.942 158.243 215.222 158.243 215.88C158.243 216.524 159.125 216.804 160.847 216.804C162.569 216.804 163.451 216.524 163.451 215.88ZM166.699 212.632H161.799V213.584C164.011 213.766 165.327 214.564 165.327 215.88C165.327 217.364 163.633 218.204 160.847 218.204C158.061 218.204 156.381 217.364 156.381 215.88C156.381 214.55 157.711 213.752 159.951 213.57V212.632H155.051V211.162H166.699V212.632Z" fill="black"/>
<path d="M22.52 229.25C22.52 230.132 23.346 230.706 24.55 230.706C25.74 230.706 26.566 230.132 26.566 229.25C26.566 228.382 25.74 227.808 24.55 227.808C23.346 227.808 22.52 228.382 22.52 229.25ZM28.554 232.33L28.638 233.142C26.006 233.618 23.038 233.66 20.882 233.66L20.728 232.736C21.694 232.736 22.814 232.736 23.99 232.694V231.532C22.464 231.364 21.456 230.496 21.456 229.25C21.456 227.878 22.702 226.954 24.55 226.954C26.384 226.954 27.644 227.878 27.644 229.25C27.644 230.482 26.65 231.336 25.138 231.518V232.638C26.3 232.582 27.476 232.498 28.554 232.33ZM26.454 238.126C28.316 238.126 29.422 237.65 29.422 236.824C29.422 236.012 28.316 235.522 26.454 235.522C24.592 235.522 23.472 236.012 23.472 236.824C23.472 237.65 24.592 238.126 26.454 238.126ZM26.454 234.64C29.002 234.64 30.57 235.438 30.57 236.824C30.57 238.21 29.002 239.022 26.454 239.022C23.892 239.022 22.338 238.21 22.338 236.824C22.338 235.438 23.892 234.64 26.454 234.64ZM30.472 229.992H32.306V230.944H30.472V234.5H29.324V226.492H30.472V229.992ZM41.2229 231.966L40.6629 232.862C39.2209 232.372 38.0589 231.336 37.4849 229.992C36.9389 231.434 35.7769 232.568 34.2789 233.114L33.6909 232.204C35.5949 231.532 36.8969 229.88 36.8969 228.074V226.898H38.0449V228.074C38.0449 229.796 39.3609 231.364 41.2229 231.966ZM42.7909 237.944V236.278H36.9669V237.944H42.7909ZM42.7909 235.382V233.842H43.9249V238.868H35.8329V233.842H36.9669V235.382H42.7909ZM42.7769 226.492H43.9249V233.226H42.7769V226.492ZM48.3758 232.12V235.06C50.4338 235.06 52.2818 234.962 54.4798 234.612L54.5918 235.55C52.3238 235.928 50.4198 236.012 48.2638 236.012H47.2278V231.196H51.8478V228.578H47.1858V227.64H53.0098V232.12H48.3758ZM55.6558 226.464H56.8038V239.05H55.6558V226.464ZM61.3247 235.508V234.57H69.7247V239.05H68.5627V235.508H61.3247ZM65.8887 231.14H68.5627V229.25H65.8887C65.9727 229.544 66.0287 229.852 66.0287 230.188C66.0287 230.538 65.9727 230.846 65.8887 231.14ZM62.7947 232.246C64.0267 232.246 64.9367 231.392 64.9367 230.188C64.9367 229.012 64.0267 228.158 62.7947 228.158C61.5767 228.158 60.6667 229.012 60.6667 230.188C60.6667 231.392 61.5767 232.246 62.7947 232.246ZM68.5627 226.492L69.7247 226.478V233.884H68.5627V232.078H65.3847C64.7967 232.792 63.8867 233.226 62.7947 233.226C60.9467 233.226 59.5747 231.966 59.5747 230.188C59.5747 228.424 60.9467 227.178 62.7947 227.178C63.8867 227.178 64.8107 227.612 65.3987 228.326H68.5627V226.492ZM76.2001 238V236.886L79.6454 233.317C80.0133 232.929 80.3166 232.589 80.5552 232.298C80.7972 232.003 80.9778 231.723 81.0971 231.457C81.2164 231.192 81.2761 230.911 81.2761 230.612C81.2761 230.274 81.1966 229.982 81.0375 229.737C80.8784 229.489 80.6613 229.298 80.3862 229.165C80.1111 229.03 79.8012 228.962 79.4565 228.962C79.0919 228.962 78.7737 229.036 78.502 229.185C78.2302 229.335 78.0214 229.545 77.8755 229.817C77.7297 230.089 77.6568 230.407 77.6568 230.771H76.1902C76.1902 230.152 76.3327 229.61 76.6177 229.146C76.9028 228.682 77.2939 228.322 77.791 228.067C78.2882 227.808 78.8533 227.679 79.4863 227.679C80.126 227.679 80.6895 227.807 81.1767 228.062C81.6672 228.314 82.05 228.658 82.3251 229.096C82.6002 229.53 82.7377 230.021 82.7377 230.567C82.7377 230.945 82.6665 231.315 82.524 231.676C82.3848 232.037 82.1412 232.44 81.7931 232.884C81.4451 233.325 80.9612 233.86 80.3414 234.49L78.318 236.608V236.683H82.9018V238H76.2001ZM89.7006 232.708V230.44H86.3126V232.708H89.7006ZM90.8346 230.958V233.632H85.1786V227.318H86.3126V229.53H89.7006V227.318H90.8346V230.02H93.7326V226.478H94.8946V235.774H93.7326V230.958H90.8346ZM87.9646 237.818H95.1886V238.756H86.8166V234.864H87.9646V237.818ZM102.071 231.49L101.735 230.622C104.059 230.468 105.977 229.698 106.173 228.452H102.295V227.584H106.243V226.394H107.391V227.584H111.325V228.452H107.461C107.657 229.698 109.547 230.468 111.885 230.622L111.535 231.49C109.435 231.322 107.587 230.678 106.817 229.516C106.047 230.678 104.185 231.322 102.071 231.49ZM112.473 232.932H107.391V234.094H111.031V236.838H103.653V238.028H111.409V238.896H102.533V236.012H109.897V234.948H102.491V234.094H106.229V232.932H101.147V232.05H112.473V232.932ZM125.38 232.694V233.632H120.256V239.05H119.094V233.632H114.026V232.694H122.356C122.748 230.888 122.748 229.558 122.748 228.382V228.214H115.44V227.29H123.868V228.382C123.868 229.558 123.868 230.888 123.518 232.694H125.38ZM139.374 228.186V228.046H131.954V227.122H140.508V228.186C140.508 229.194 140.508 230.216 140.158 231.504L139.038 231.378C139.374 230.09 139.374 229.166 139.374 228.186ZM136.224 238.126C138.198 238.126 139.458 237.594 139.458 236.726C139.458 235.83 138.198 235.298 136.224 235.298C134.264 235.298 133.004 235.83 133.004 236.726C133.004 237.594 134.264 238.126 136.224 238.126ZM136.224 234.416C138.898 234.416 140.606 235.27 140.606 236.726C140.606 238.154 138.898 239.022 136.224 239.022C133.55 239.022 131.856 238.154 131.856 236.726C131.856 235.27 133.55 234.416 136.224 234.416ZM136.406 232.33H141.922V233.254H130.624V232.33H135.258V229.922H136.406V232.33ZM147.688 227.57V229.824C147.688 232.036 149.116 234.318 150.88 235.2L150.166 236.11C148.836 235.396 147.702 233.926 147.128 232.204C146.582 234.038 145.42 235.606 144.006 236.362L143.32 235.438C145.126 234.514 146.554 232.106 146.554 229.824V227.57H147.688ZM155.206 231.574V232.526H153.134V239.036H151.986V226.492H153.134V231.574H155.206ZM157.403 231.602L156.997 230.692C159.195 230.44 161.197 229.362 161.295 227.976H157.403V227.052H166.685V227.976H162.779C162.877 229.362 164.879 230.44 167.077 230.692L166.671 231.602C164.613 231.35 162.737 230.426 162.037 229.04C161.351 230.426 159.461 231.35 157.403 231.602ZM165.159 236.81C165.159 235.97 163.983 235.494 162.023 235.494C160.049 235.494 158.887 235.97 158.887 236.81C158.887 237.65 160.049 238.14 162.023 238.14C163.983 238.14 165.159 237.65 165.159 236.81ZM167.707 233.282H162.611V234.626C164.949 234.738 166.321 235.508 166.321 236.81C166.321 238.238 164.711 239.022 162.037 239.022C159.349 239.022 157.725 238.238 157.725 236.81C157.725 235.508 159.111 234.738 161.449 234.626V233.282H156.353V232.358H167.707V233.282ZM178.36 226.478H179.508V239.064H178.36V226.478ZM172.886 227.444C174.748 227.444 176.078 229.152 176.078 231.826C176.078 234.5 174.748 236.208 172.886 236.208C171.024 236.208 169.694 234.5 169.694 231.826C169.694 229.152 171.024 227.444 172.886 227.444ZM172.886 228.48C171.654 228.48 170.786 229.796 170.786 231.826C170.786 233.87 171.654 235.186 172.886 235.186C174.104 235.186 174.972 233.87 174.972 231.826C174.972 229.796 174.104 228.48 172.886 228.48ZM183.749 232.148V235.06C186.031 235.06 187.655 234.976 189.531 234.612L189.657 235.564C187.697 235.914 186.017 236.012 183.623 236.012H182.629V231.21H187.137V228.578H182.587V227.64H188.271V232.148H183.749ZM193.843 231.462V232.428H191.785V239.05H190.637V226.464H191.785V231.462H193.843ZM203.861 232.05V228.326H200.333V232.05H203.861ZM204.981 227.416V232.974H199.213V227.416H204.981ZM200.277 235.522V234.584H208.439V239.05H207.291V235.522H200.277ZM210.301 229.74V230.692H208.439V233.926H207.291V226.492H208.439V229.74H210.301ZM220.772 231.924V230.44H218.644V229.502H220.772V226.492H221.92V234.43H220.772V232.848H218.63V231.924H220.772ZM218.63 227.794V228.718H211.602V227.794H214.598V226.352H215.746V227.794H218.63ZM216.922 231.658C216.922 230.776 216.208 230.202 215.158 230.202C214.108 230.202 213.394 230.776 213.394 231.658C213.394 232.512 214.108 233.086 215.158 233.086C216.208 233.086 216.922 232.512 216.922 231.658ZM212.316 231.658C212.316 230.258 213.478 229.334 215.158 229.334C216.824 229.334 218 230.258 218 231.658C218 233.044 216.824 233.954 215.158 233.954C213.478 233.954 212.316 233.044 212.316 231.658ZM220.548 234.696V235.088C220.548 236.32 221.472 237.538 223.068 238.042L222.522 238.882C221.29 238.462 220.394 237.622 219.974 236.614C219.596 237.594 218.84 238.518 217.678 238.994C216.474 238.546 215.732 237.664 215.354 236.656C214.906 237.622 214.038 238.448 212.848 238.882L212.302 238.042C213.856 237.51 214.822 236.236 214.822 235.088V234.71H215.928V235.088C215.928 236.138 216.502 237.272 217.65 237.888C218.826 237.188 219.428 235.998 219.428 235.088V234.696H220.548ZM226.203 227.822V234.864C227.547 234.85 228.807 234.766 230.263 234.472L230.417 235.438C228.779 235.774 227.379 235.858 225.867 235.858H225.069V227.822H226.203ZM231.355 230.692V226.786H232.447V238.406H231.355V231.644H228.555V230.692H231.355ZM234.029 226.464H235.121V239.036H234.029V226.464ZM241.266 233.52V236.474H244.766V233.52C244.234 233.646 243.632 233.716 243.002 233.716C242.386 233.716 241.784 233.646 241.266 233.52ZM243.002 228.172C240.986 228.172 239.544 229.096 239.544 230.496C239.544 231.896 240.986 232.82 243.002 232.82C245.018 232.82 246.474 231.896 246.474 230.496C246.474 229.096 245.018 228.172 243.002 228.172ZM245.914 236.474H248.728V237.426H237.318V236.474H240.118V233.086C239.068 232.54 238.438 231.63 238.438 230.496C238.438 228.536 240.342 227.276 243.002 227.276C245.676 227.276 247.566 228.536 247.566 230.496C247.566 231.63 246.95 232.526 245.914 233.072V236.474Z" fill="#B5B5B5"/>
<line x1="18" y1="271.5" x2="368" y2="271.5" stroke="#7ED287"/>
<path d="M27.776 302.036V300.896H23.228V302.036H27.776ZM29.336 298.4V303.296H21.656V298.4H23.228V299.66H27.776V298.4H29.336ZM30.524 304.34V305.6H26.276V309.044H24.692V305.6H20.516V304.34H30.524ZM35.8271 300.344V300.956C35.8271 302.756 36.7151 304.664 38.5631 305.432L37.6991 306.68C36.4151 306.128 35.5391 305.048 35.0471 303.716C34.5551 305.156 33.6671 306.368 32.3711 306.956L31.4711 305.696C33.3191 304.868 34.2191 302.84 34.2191 300.956V300.344H31.9151V299.036H38.1071V300.344H35.8271ZM39.1271 297.98H40.7111V309.032H39.1271V297.98ZM50.2501 306.116V301.964H48.5341V300.632H50.2501V297.98H51.8341V306.116H50.2501ZM48.7381 303.164L48.8581 304.424C47.3581 304.664 46.0141 304.7 43.9261 304.7H43.0141V301.064H46.4221V299.972H43.0021V298.712H47.9821V302.252H44.5861V303.428C46.2781 303.416 47.4181 303.368 48.7381 303.164ZM46.0741 307.58H52.1101V308.84H44.4901V305.468H46.0741V307.58ZM60.1492 299.144L60.1372 300.38H53.6332V299.144H56.0812V297.968H57.6772V299.144H60.1492ZM55.6852 302.9C55.6852 303.512 56.1772 303.836 56.8852 303.836C57.5812 303.836 58.0852 303.512 58.0852 302.9C58.0852 302.3 57.5812 301.976 56.8852 301.976C56.1772 301.976 55.6852 302.3 55.6852 302.9ZM59.5972 302.9C59.5972 304.172 58.4692 305.036 56.8852 305.036C55.3012 305.036 54.1732 304.172 54.1732 302.9C54.1732 301.652 55.3012 300.776 56.8852 300.776C58.4692 300.776 59.5972 301.652 59.5972 302.9ZM56.7892 305.636V307.58H62.7292V308.84H55.2052V305.636H56.7892ZM62.3332 301.352H63.7972V302.66H62.3332V306.248H60.7492V297.98H62.3332V301.352ZM73.6749 302.972L72.9549 304.196C71.7069 303.872 70.8549 303.188 70.3509 302.3C69.8709 303.272 68.9949 304.028 67.7109 304.388L66.9789 303.164C68.7069 302.684 69.4989 301.52 69.5349 300.32H67.3749V299.072H69.5349V297.944H71.1189V299.072H73.3029V300.32H71.1189C71.1669 301.412 71.9349 302.516 73.6749 302.972ZM70.1349 306.152V307.664H74.2149V306.152H70.1349ZM68.5749 308.9V304.916H75.7629V308.9H68.5749ZM77.2269 300.572V301.868H75.7629V304.448H74.1789V297.98H75.7629V300.572H77.2269ZM86.0819 297.968H87.5819V309.02H86.0819V303.548H85.1939V308.528H83.7179V305.264L82.8059 306.488C81.8699 305.96 81.2579 305.072 80.8979 303.992C80.5139 305.204 79.8659 306.212 78.8819 306.812L77.8979 305.648C79.5539 304.664 80.1419 302.672 80.1419 300.8V298.94H81.6779V300.68C81.6779 302.588 82.1939 304.388 83.7179 305.24V298.16H85.1939V302.276H86.0819V297.968Z" fill="#7ED287"/>
<path d="M29.436 322.296H31.284V335.232H29.436V322.296ZM24.354 323.206C26.3 323.206 27.742 324.97 27.742 327.798C27.742 330.64 26.3 332.418 24.354 332.418C22.408 332.418 20.966 330.64 20.966 327.798C20.966 324.97 22.408 323.206 24.354 323.206ZM24.354 324.872C23.402 324.872 22.744 325.894 22.744 327.798C22.744 329.716 23.402 330.738 24.354 330.738C25.306 330.738 25.964 329.716 25.964 327.798C25.964 325.894 25.306 324.872 24.354 324.872ZM41.1949 328.428L40.2429 329.87C38.8429 329.408 37.8909 328.484 37.3309 327.322C36.7569 328.61 35.7349 329.618 34.2649 330.108L33.2849 328.666C35.4549 327.966 36.3649 326.244 36.3649 324.48V323.094H38.2409V324.494C38.2409 326.132 39.1089 327.756 41.1949 328.428ZM37.1769 330.85V333.51H44.0789V334.98H35.3289V330.85H37.1769ZM43.6309 326.048H45.3389V327.574H43.6309V331.746H41.7829V322.31H43.6309V326.048ZM54.0458 323.724V325.18H46.4578V323.724H49.3418V322.366H51.1898V323.724H54.0458ZM48.8658 328.106C48.8658 328.792 49.4258 329.156 50.2658 329.156C51.1058 329.156 51.6658 328.792 51.6658 328.106C51.6658 327.448 51.1058 327.084 50.2658 327.084C49.4258 327.084 48.8658 327.448 48.8658 328.106ZM51.1898 330.444V331.466C52.1838 331.41 53.1778 331.34 54.1018 331.2L54.2418 332.53C51.5258 333.062 48.6278 333.062 46.4438 333.062L46.2198 331.564C47.1438 331.564 48.2078 331.564 49.3418 331.536V330.444C47.9978 330.164 47.1158 329.296 47.1158 328.106C47.1158 326.664 48.4178 325.684 50.2658 325.684C52.1138 325.684 53.4158 326.664 53.4158 328.106C53.4158 329.296 52.5338 330.164 51.1898 330.444ZM58.2178 327.56V329.086H56.6078V335.204H54.7598V322.31H56.6078V327.56H58.2178ZM66.4487 328.344L66.6447 329.772C64.9367 330.094 63.3687 330.136 60.7927 330.136H59.7147V323.29H65.7627V324.76H61.5487V325.978H65.4967V327.406H61.5487V328.68C63.6207 328.666 64.9647 328.61 66.4487 328.344ZM62.9207 330.99V333.51H69.8507V334.98H61.0727V330.99H62.9207ZM69.3887 326.132H71.0967V327.644H69.3887V331.872H67.5407V322.31H69.3887V326.132ZM83.4016 328.19L82.6456 329.716C80.3776 329.31 78.7256 328.106 77.8856 326.51C77.0456 328.092 75.4076 329.31 73.1536 329.716L72.3976 328.19C75.3096 327.714 76.9056 325.74 76.9056 323.948V323.024H78.8796V323.948C78.8796 325.782 80.4616 327.714 83.4016 328.19ZM78.8236 332.194H83.7936V333.678H72.1176V332.194H76.9756V329.31H78.8236V332.194ZM98.6948 326.328V327.798H89.6928V322.884H91.5408V326.328H98.6948ZM99.9128 329.254V330.752H94.9428V335.218H93.0948V330.752H88.2368V329.254H99.9128ZM102.096 327.462L101.592 326.104C104.182 325.992 105.442 325.376 105.792 324.648H102.236V323.318H106.002V322.296H107.85V323.318H111.644V324.648H108.06C108.424 325.376 109.684 325.992 112.274 326.104L111.756 327.462C109.362 327.336 107.738 326.748 106.926 325.796C106.128 326.748 104.504 327.336 102.096 327.462ZM112.75 329.142H107.864V329.912H111.35V333.104H104.294V333.776H111.686V335.106H102.46V331.858H109.53V331.242H102.446V329.912H106.016V329.142H101.144V327.784H112.75V329.142ZM121.981 323.304V325.18C121.981 327.504 122.891 329.842 124.963 330.864L123.843 332.32C122.499 331.634 121.589 330.388 121.057 328.848C120.497 330.486 119.531 331.844 118.075 332.558L116.969 331.06C119.139 330.038 120.119 327.574 120.119 325.18V323.304H121.981ZM129.205 327.266V328.806H127.329V335.204H125.481V322.31H127.329V327.266H129.205ZM140.152 330.822L138.304 330.612C138.794 328.176 138.822 326.384 138.822 324.886H131.304V323.416H140.67V324.648C140.67 326.258 140.67 328.078 140.152 330.822ZM136.092 332.166H141.79V333.65H130.128V332.166H134.244V327.728H136.092V332.166ZM144.474 334.129C144.146 334.129 143.864 334.013 143.629 333.781C143.397 333.546 143.281 333.264 143.281 332.936C143.281 332.611 143.397 332.333 143.629 332.101C143.864 331.869 144.146 331.753 144.474 331.753C144.792 331.753 145.07 331.869 145.309 332.101C145.548 332.333 145.667 332.611 145.667 332.936C145.667 333.155 145.611 333.355 145.498 333.538C145.388 333.717 145.244 333.861 145.065 333.97C144.886 334.076 144.689 334.129 144.474 334.129ZM148.644 334.129C148.316 334.129 148.034 334.013 147.798 333.781C147.566 333.546 147.45 333.264 147.45 332.936C147.45 332.611 147.566 332.333 147.798 332.101C148.034 331.869 148.316 331.753 148.644 331.753C148.962 331.753 149.24 331.869 149.479 332.101C149.718 332.333 149.837 332.611 149.837 332.936C149.837 333.155 149.78 333.355 149.668 333.538C149.558 333.717 149.414 333.861 149.235 333.97C149.056 334.076 148.859 334.129 148.644 334.129ZM152.814 334.129C152.485 334.129 152.204 334.013 151.968 333.781C151.736 333.546 151.62 333.264 151.62 332.936C151.62 332.611 151.736 332.333 151.968 332.101C152.204 331.869 152.485 331.753 152.814 331.753C153.132 331.753 153.41 331.869 153.649 332.101C153.887 332.333 154.007 332.611 154.007 332.936C154.007 333.155 153.95 333.355 153.838 333.538C153.728 333.717 153.584 333.861 153.405 333.97C153.226 334.076 153.029 334.129 152.814 334.129ZM156.089 330.947V330.778C156.092 330.198 156.143 329.736 156.243 329.391C156.345 329.047 156.495 328.768 156.69 328.556C156.886 328.344 157.121 328.152 157.396 327.979C157.602 327.847 157.786 327.709 157.948 327.567C158.11 327.424 158.24 327.267 158.336 327.094C158.432 326.919 158.48 326.723 158.48 326.508C158.48 326.279 158.425 326.079 158.316 325.906C158.206 325.734 158.059 325.601 157.873 325.509C157.691 325.416 157.489 325.369 157.267 325.369C157.051 325.369 156.848 325.417 156.655 325.513C156.463 325.606 156.306 325.746 156.183 325.931C156.06 326.113 155.994 326.34 155.984 326.612H153.956C153.972 325.949 154.131 325.402 154.433 324.972C154.735 324.537 155.134 324.214 155.631 324.002C156.128 323.787 156.677 323.679 157.277 323.679C157.936 323.679 158.52 323.788 159.027 324.007C159.534 324.223 159.932 324.536 160.22 324.947C160.508 325.358 160.653 325.853 160.653 326.433C160.653 326.821 160.588 327.166 160.459 327.467C160.333 327.766 160.155 328.031 159.927 328.263C159.698 328.491 159.428 328.699 159.116 328.884C158.854 329.04 158.639 329.202 158.47 329.371C158.304 329.54 158.18 329.736 158.097 329.958C158.018 330.18 157.976 330.454 157.973 330.778V330.947H156.089ZM157.073 334.129C156.742 334.129 156.458 334.013 156.223 333.781C155.991 333.546 155.876 333.264 155.88 332.936C155.876 332.611 155.991 332.333 156.223 332.101C156.458 331.869 156.742 331.753 157.073 331.753C157.388 331.753 157.665 331.869 157.903 332.101C158.142 332.333 158.263 332.611 158.266 332.936C158.263 333.155 158.205 333.355 158.092 333.538C157.983 333.717 157.839 333.861 157.66 333.97C157.481 334.076 157.285 334.129 157.073 334.129ZM163.964 330.947V330.778C163.967 330.198 164.018 329.736 164.118 329.391C164.22 329.047 164.37 328.768 164.565 328.556C164.761 328.344 164.996 328.152 165.271 327.979C165.477 327.847 165.661 327.709 165.823 327.567C165.985 327.424 166.115 327.267 166.211 327.094C166.307 326.919 166.355 326.723 166.355 326.508C166.355 326.279 166.3 326.079 166.191 325.906C166.081 325.734 165.934 325.601 165.748 325.509C165.566 325.416 165.364 325.369 165.142 325.369C164.926 325.369 164.723 325.417 164.53 325.513C164.338 325.606 164.181 325.746 164.058 325.931C163.935 326.113 163.869 326.34 163.859 326.612H161.831C161.847 325.949 162.006 325.402 162.308 324.972C162.61 324.537 163.009 324.214 163.506 324.002C164.003 323.787 164.552 323.679 165.152 323.679C165.811 323.679 166.395 323.788 166.902 324.007C167.409 324.223 167.807 324.536 168.095 324.947C168.383 325.358 168.528 325.853 168.528 326.433C168.528 326.821 168.463 327.166 168.334 327.467C168.208 327.766 168.03 328.031 167.802 328.263C167.573 328.491 167.303 328.699 166.991 328.884C166.729 329.04 166.514 329.202 166.345 329.371C166.179 329.54 166.055 329.736 165.972 329.958C165.893 330.18 165.851 330.454 165.848 330.778V330.947H163.964ZM164.948 334.129C164.617 334.129 164.333 334.013 164.098 333.781C163.866 333.546 163.751 333.264 163.755 332.936C163.751 332.611 163.866 332.333 164.098 332.101C164.333 331.869 164.617 331.753 164.948 331.753C165.263 331.753 165.54 331.869 165.778 332.101C166.017 332.333 166.138 332.611 166.141 332.936C166.138 333.155 166.08 333.355 165.967 333.538C165.858 333.717 165.714 333.861 165.535 333.97C165.356 334.076 165.16 334.129 164.948 334.129Z" fill="black"/>
<path d="M24.466 344.668V347.02C24.466 349.036 25.404 351.164 27.056 352.172L26.398 353.068C25.208 352.34 24.368 351.01 23.92 349.484C23.472 351.15 22.562 352.564 21.316 353.334L20.602 352.48C22.324 351.472 23.36 349.218 23.36 347.062V344.668H24.466ZM27.77 347.986V343.758H28.848V355.42H27.77V348.938H25.698V347.986H27.77ZM30.318 343.478H31.41V356.036H30.318V343.478ZM40.8729 349.386L40.2709 350.282C38.9129 349.778 37.8349 348.742 37.2749 347.454C36.7569 348.924 35.6369 350.072 34.1669 350.632L33.5649 349.722C35.4689 349.036 36.6869 347.328 36.6869 345.41V344.122H37.8349V345.508C37.8349 347.202 39.0669 348.77 40.8729 349.386ZM39.3749 355.126C41.2229 355.126 42.3569 354.608 42.3569 353.74C42.3569 352.858 41.2229 352.34 39.3749 352.34C37.5129 352.34 36.3789 352.858 36.3789 353.74C36.3789 354.608 37.5129 355.126 39.3749 355.126ZM39.3749 351.444C41.9229 351.444 43.5049 352.27 43.5049 353.74C43.5049 355.196 41.9229 356.022 39.3749 356.022C36.8129 356.022 35.2309 355.196 35.2309 353.74C35.2309 352.27 36.8129 351.444 39.3749 351.444ZM43.3649 346.726H45.2269V347.678H43.3649V351.094H42.2169V343.492H43.3649V346.726ZM49.3418 352.214C50.3218 352.214 50.9658 350.94 50.9658 348.882C50.9658 346.866 50.3218 345.592 49.3418 345.592C48.3338 345.592 47.7038 346.866 47.7038 348.882C47.7038 350.94 48.3338 352.214 49.3418 352.214ZM53.5838 348.364V343.758H54.6758V355.42H53.5838V349.302H52.0018C51.9038 351.766 50.8818 353.278 49.3418 353.278C47.7038 353.278 46.6538 351.598 46.6538 348.882C46.6538 346.208 47.7038 344.528 49.3418 344.528C50.8538 344.528 51.8618 345.998 52.0018 348.364H53.5838ZM56.0758 343.478H57.1678V356.036H56.0758V343.478ZM61.0167 344.696V351.892C62.8227 351.892 64.6847 351.738 66.7147 351.332L66.8547 352.284C64.7127 352.718 62.7947 352.858 60.8767 352.858H59.8827V344.696H61.0167ZM71.0547 348.49V349.442H69.0387V356.036H67.8907V343.478H69.0387V348.49H71.0547ZM77.5867 345.662V351.92H81.1007V345.662H77.5867ZM76.4667 352.844V344.738H82.2207V352.844H76.4667ZM87.6947 348.49V349.456H85.6227V356.036H84.4747V343.492H85.6227V348.49H87.6947ZM96.0936 349.386L95.4916 350.282C94.1336 349.778 93.0556 348.742 92.4956 347.454C91.9776 348.924 90.8576 350.072 89.3876 350.632L88.7856 349.722C90.6896 349.036 91.9076 347.328 91.9076 345.41V344.122H93.0556V345.508C93.0556 347.202 94.2876 348.77 96.0936 349.386ZM94.5956 355.126C96.4436 355.126 97.5776 354.608 97.5776 353.74C97.5776 352.858 96.4436 352.34 94.5956 352.34C92.7336 352.34 91.5996 352.858 91.5996 353.74C91.5996 354.608 92.7336 355.126 94.5956 355.126ZM94.5956 351.444C97.1436 351.444 98.7256 352.27 98.7256 353.74C98.7256 355.196 97.1436 356.022 94.5956 356.022C92.0336 356.022 90.4516 355.196 90.4516 353.74C90.4516 352.27 92.0336 351.444 94.5956 351.444ZM98.5856 346.726H100.448V347.678H98.5856V351.094H97.4376V343.492H98.5856V346.726ZM104.563 352.214C105.543 352.214 106.187 350.94 106.187 348.882C106.187 346.866 105.543 345.592 104.563 345.592C103.555 345.592 102.925 346.866 102.925 348.882C102.925 350.94 103.555 352.214 104.563 352.214ZM108.805 348.364V343.758H109.897V355.42H108.805V349.302H107.223C107.125 351.766 106.103 353.278 104.563 353.278C102.925 353.278 101.875 351.598 101.875 348.882C101.875 346.208 102.925 344.528 104.563 344.528C106.075 344.528 107.083 345.998 107.223 348.364H108.805ZM111.297 343.478H112.389V356.036H111.297V343.478ZM116.237 344.696V351.892C118.043 351.892 119.905 351.738 121.935 351.332L122.075 352.284C119.933 352.718 118.015 352.858 116.097 352.858H115.103V344.696H116.237ZM126.275 348.49V349.442H124.259V356.036H123.111V343.478H124.259V348.49H126.275Z" fill="#B5B5B5"/>
<line x1="18" y1="388.5" x2="368" y2="388.5" stroke="#7ED287"/>
<path d="M21.584 423.752V422.492H29.24V426.068H27.656V423.752H21.584ZM26.324 420.32H30.512V421.58H20.504V420.32H24.74V419.132C23.912 419.252 23.108 419.264 22.088 419.264H21.416V415.4H25.208V416.648H23V418.004C23.816 417.992 24.524 417.932 25.292 417.788L25.4 418.76H25.832V415.4H29.588V416.648H27.404V418.004H29.624V419.264H26.324V420.32ZM32.6231 423.752V422.492H40.2791V426.068H38.6951V423.752H32.6231ZM37.3631 420.32H41.5511V421.58H31.5431V420.32H35.7791V419.132C34.9511 419.252 34.1471 419.264 33.1271 419.264H32.4551V415.4H36.2471V416.648H34.0391V418.004C34.8551 417.992 35.5631 417.932 36.3311 417.788L36.4391 418.76H36.8711V415.4H40.6271V416.648H38.4431V418.004H40.6631V419.264H37.3631V420.32ZM49.1101 416.144L49.0981 417.38H42.5941V416.144H45.0421V414.968H46.6381V416.144H49.1101ZM44.6461 419.9C44.6461 420.512 45.1381 420.836 45.8461 420.836C46.5421 420.836 47.0461 420.512 47.0461 419.9C47.0461 419.3 46.5421 418.976 45.8461 418.976C45.1381 418.976 44.6461 419.3 44.6461 419.9ZM48.5581 419.9C48.5581 421.172 47.4301 422.036 45.8461 422.036C44.2621 422.036 43.1341 421.172 43.1341 419.9C43.1341 418.652 44.2621 417.776 45.8461 417.776C47.4301 417.776 48.5581 418.652 48.5581 419.9ZM45.7501 422.636V424.58H51.6901V425.84H44.1661V422.636H45.7501ZM51.2941 418.352H52.7581V419.66H51.2941V423.248H49.7101V414.98H51.2941V418.352ZM63.0798 418.892V421.28H61.6038V415.184H63.0798V417.608H63.9438V414.98H65.4438V421.628H63.9438V418.892H63.0798ZM57.4878 418.436C57.4878 419.288 57.9438 419.792 58.5918 419.792C59.2398 419.792 59.6958 419.288 59.6958 418.436C59.6958 417.572 59.2398 417.08 58.5918 417.08C57.9438 417.08 57.4878 417.572 57.4878 418.436ZM61.1118 418.436C61.1118 420.008 60.0558 421.1 58.5918 421.1C57.1278 421.1 56.0598 420.008 56.0598 418.436C56.0598 416.864 57.1278 415.772 58.5918 415.772C60.0558 415.772 61.1118 416.864 61.1118 418.436ZM61.6998 424.832C63.1398 424.832 63.9078 424.544 63.9078 423.932C63.9078 423.32 63.1398 423.032 61.6998 423.032C60.2358 423.032 59.4678 423.32 59.4678 423.932C59.4678 424.544 60.2358 424.832 61.6998 424.832ZM61.6998 421.82C64.0398 421.82 65.4918 422.588 65.4918 423.932C65.4918 425.276 64.0398 426.044 61.6998 426.044C59.3358 426.044 57.8838 425.276 57.8838 423.932C57.8838 422.588 59.3358 421.82 61.6998 421.82ZM74.3229 418.736V416.768H69.7749V418.736H74.3229ZM75.8709 415.52V419.984H68.2149V415.52H75.8709ZM77.0709 421.16V422.42H72.8229V426.032H71.2389V422.42H67.0629V421.16H77.0709ZM86.0819 414.968H87.5819V426.02H86.0819V420.548H85.1939V425.528H83.7179V422.264L82.8059 423.488C81.8699 422.96 81.2579 422.072 80.8979 420.992C80.5139 422.204 79.8659 423.212 78.8819 423.812L77.8979 422.648C79.5539 421.664 80.1419 419.672 80.1419 417.8V415.94H81.6779V417.68C81.6779 419.588 82.1939 421.388 83.7179 422.24V415.16H85.1939V419.276H86.0819V414.968Z" fill="#7ED287"/>
<path d="M31.662 440.206V441.592H21.148V440.206H25.502V439.184H27.35V440.206H31.662ZM28.764 443.762C28.764 443.342 28.036 443.174 26.426 443.174C24.83 443.174 24.102 443.342 24.102 443.762C24.102 444.168 24.83 444.35 26.426 444.35C28.036 444.35 28.764 444.168 28.764 443.762ZM22.114 443.762C22.114 442.544 23.668 441.928 26.426 441.928C29.198 441.928 30.752 442.544 30.752 443.762C30.752 444.966 29.198 445.582 26.426 445.582C23.668 445.582 22.114 444.966 22.114 443.762ZM27.798 448.284V447.514H25.04V448.284C25.46 448.242 25.908 448.214 26.398 448.214C26.902 448.214 27.378 448.242 27.798 448.284ZM26.398 450.902C28.19 450.902 28.988 450.692 28.988 450.216C28.988 449.74 28.19 449.53 26.398 449.53C24.606 449.53 23.808 449.74 23.808 450.216C23.808 450.692 24.606 450.902 26.398 450.902ZM32.25 447.514H29.646V448.676C30.444 449.026 30.878 449.544 30.878 450.216C30.878 451.532 29.24 452.218 26.398 452.218C23.57 452.218 21.932 451.532 21.932 450.216C21.932 449.53 22.366 449.012 23.192 448.676V447.514H20.602V446.072H32.25V447.514ZM34.1949 440.64H40.3829C40.3829 444.588 39.0529 447.808 34.4749 450.02L33.5089 448.564C36.7989 446.982 38.2269 444.966 38.4929 442.11H34.1949V440.64ZM42.3569 439.296H44.2189V452.19H42.3569V439.296ZM56.908 444.448L57.132 445.932C55.018 446.366 53.044 446.492 51.224 446.492H50.118V440.164H51.966V444.952C53.506 444.924 55.172 444.798 56.908 444.448ZM53.296 447.724V450.51H60.17V451.98H51.448V447.724H53.296ZM59.75 442.922H61.458V444.476H59.75V448.578H57.902V439.31H59.75V442.922ZM68.275 450.818C69.997 450.818 70.879 450.524 70.879 449.852C70.879 449.18 69.997 448.872 68.275 448.872C66.553 448.872 65.671 449.18 65.671 449.852C65.671 450.524 66.553 450.818 68.275 450.818ZM68.275 447.472C71.061 447.472 72.755 448.326 72.755 449.852C72.755 451.364 71.061 452.218 68.275 452.218C65.489 452.218 63.809 451.364 63.809 449.852C63.809 448.326 65.489 447.472 68.275 447.472ZM69.241 445.372H74.155V446.842H62.493V445.372H67.393V444.308H63.907V439.856H72.755V441.326H65.741V442.838H72.825V444.308H69.241V445.372Z" fill="black"/>
<path d="M31.046 460.492V469.676H29.898V460.492H31.046ZM28.414 466.974L27.854 467.884C26.412 467.38 25.264 466.344 24.69 465.028C24.158 466.456 22.996 467.59 21.512 468.122L20.91 467.226C22.814 466.568 24.088 464.93 24.088 463.138V462.452H21.218V461.528H28.106V462.452H25.264V463.138C25.264 464.832 26.566 466.358 28.414 466.974ZM24.116 471.818H31.424V472.756H22.968V468.808H24.116V471.818ZM39.9769 462.69V464.216C39.9769 466.078 40.3969 468.43 41.9229 469.578L41.1949 470.404C40.2709 469.69 39.7389 468.528 39.4309 467.24C39.1509 468.542 38.6329 469.774 37.6809 470.516C36.7289 469.76 36.2109 468.528 35.9309 467.226C35.6089 468.5 35.0769 469.676 34.1809 470.404L33.4529 469.578C34.9649 468.402 35.3849 465.994 35.3849 464.216V462.69H33.8449V461.752H37.4009V462.69H36.4769V464.216C36.4769 465.602 36.6589 467.618 37.6809 468.976C38.6889 467.646 38.8849 465.658 38.8849 464.216V462.69H37.9469V461.752H41.4189V462.69H39.9769ZM45.3109 465.462V466.428H43.5749V473.036H42.4269V460.492H43.5749V465.462H45.3109ZM58.9969 465.154V462.102H52.7669V465.154H58.9969ZM60.1309 461.178V466.064H51.6469V461.178H60.1309ZM61.5869 467.772V468.696H56.4349V473.022H55.2869V468.696H50.1909V467.772H61.5869ZM67.4798 461.556V463.81C67.4798 466.092 68.9078 468.374 70.7278 469.242L70.0558 470.152C68.6278 469.438 67.4798 467.94 66.9058 466.176C66.3598 468.038 65.1978 469.62 63.7838 470.376L63.0838 469.466C64.9038 468.556 66.3318 466.134 66.3318 463.81V461.556H67.4798ZM72.2818 460.478H73.4298V473.05H72.2818V465.672H69.3698V464.734H72.2818V460.478ZM82.5567 466.834H85.0907V460.492H86.2387V468.444H85.0907V467.674H82.5567V466.834ZM79.9807 461.626C78.7627 461.626 77.9647 462.046 77.9647 462.746C77.9647 463.446 78.7627 463.88 79.9807 463.88C81.2127 463.88 81.9967 463.446 81.9967 462.746C81.9967 462.046 81.2127 461.626 79.9807 461.626ZM79.9807 464.706C78.1187 464.706 76.8867 463.964 76.8867 462.746C76.8867 461.542 78.1187 460.786 79.9807 460.786C81.8427 460.786 83.0747 461.542 83.0747 462.746C83.0747 463.964 81.8427 464.706 79.9807 464.706ZM79.3367 468.374V466.358C78.1467 466.414 77.0267 466.428 76.0327 466.428L75.8927 465.504C78.1887 465.49 81.3247 465.462 83.9847 465.084L84.0687 465.896C82.8927 466.092 81.6747 466.218 80.4847 466.288V468.374H79.3367ZM84.8527 468.878V469.116C84.8527 470.348 85.7907 471.566 87.3867 472.042L86.8407 472.896C85.6087 472.49 84.7267 471.664 84.2927 470.67C83.9147 471.664 83.1447 472.546 81.9547 472.994C80.7647 472.56 80.0087 471.678 79.6307 470.684C79.1827 471.678 78.3147 472.49 77.0827 472.896L76.5647 472.042C78.1327 471.552 79.0847 470.32 79.0847 469.116V468.878H80.1907V469.116C80.1907 470.138 80.7787 471.272 81.9407 471.916C83.1307 471.258 83.7327 470.124 83.7327 469.116V468.878H84.8527ZM90.5216 462.634V468.948C92.7476 468.948 94.3576 468.85 96.1776 468.528L96.3036 469.48C94.3856 469.844 92.7336 469.928 90.3676 469.928H89.3736V461.682H95.2116V462.634H90.5216ZM100.574 465.434V466.386H98.5016V473.064H97.3536V460.478H98.5016V465.434H100.574ZM102.957 472.094C102.685 472.094 102.452 471.998 102.256 471.806C102.061 471.611 101.963 471.375 101.963 471.1C101.963 470.828 102.061 470.596 102.256 470.404C102.452 470.209 102.685 470.111 102.957 470.111C103.229 470.111 103.463 470.209 103.658 470.404C103.854 470.596 103.952 470.828 103.952 471.1C103.952 471.282 103.905 471.45 103.812 471.602C103.723 471.751 103.604 471.871 103.454 471.96C103.305 472.05 103.14 472.094 102.957 472.094ZM106.922 472.094C106.65 472.094 106.417 471.998 106.221 471.806C106.026 471.611 105.928 471.375 105.928 471.1C105.928 470.828 106.026 470.596 106.221 470.404C106.417 470.209 106.65 470.111 106.922 470.111C107.194 470.111 107.427 470.209 107.623 470.404C107.819 470.596 107.916 470.828 107.916 471.1C107.916 471.282 107.87 471.45 107.777 471.602C107.688 471.751 107.568 471.871 107.419 471.96C107.27 472.05 107.104 472.094 106.922 472.094ZM110.887 472.094C110.615 472.094 110.381 471.998 110.186 471.806C109.99 471.611 109.893 471.375 109.893 471.1C109.893 470.828 109.99 470.596 110.186 470.404C110.381 470.209 110.615 470.111 110.887 470.111C111.159 470.111 111.392 470.209 111.588 470.404C111.783 470.596 111.881 470.828 111.881 471.1C111.881 471.282 111.835 471.45 111.742 471.602C111.653 471.751 111.533 471.871 111.384 471.96C111.235 472.05 111.069 472.094 110.887 472.094ZM124.492 465.784L124.618 466.736C122.518 467.156 120.628 467.296 118.752 467.296H117.772V461.402H118.906V466.33C120.684 466.316 122.49 466.19 124.492 465.784ZM120.278 468.682V471.818H127.348V472.756H119.13V468.682H120.278ZM126.9 464.216H128.748V465.182H126.9V469.564H125.752V460.492H126.9V464.216ZM131.911 466.12V469.06C133.969 469.06 135.817 468.962 138.015 468.612L138.127 469.55C135.859 469.928 133.955 470.012 131.799 470.012H130.763V465.196H135.383V462.578H130.721V461.64H136.545V466.12H131.911ZM139.191 460.464H140.339V473.05H139.191V460.464ZM149.172 470.502H154.31V471.454H142.9V470.502H148.01V467.282H144.356V461.486H152.868V462.424H145.504V466.358H152.994V467.282H149.172V470.502ZM162.844 469.186C164.048 469.186 164.902 467.87 164.902 465.826C164.902 463.796 164.048 462.48 162.844 462.48C161.626 462.48 160.772 463.796 160.772 465.826C160.772 467.87 161.626 469.186 162.844 469.186ZM162.844 461.444C164.692 461.444 165.994 463.152 165.994 465.826C165.994 468.5 164.692 470.208 162.844 470.208C160.996 470.208 159.68 468.5 159.68 465.826C159.68 463.152 160.996 461.444 162.844 461.444ZM171.23 465.49V466.456H169.158V473.036H168.01V460.492H169.158V465.49H171.23ZM174.309 461.696V468.808C176.199 468.808 178.145 468.64 180.231 468.22L180.357 469.2C178.173 469.648 176.199 469.788 174.197 469.788H173.161V461.696H174.309ZM181.519 460.478H182.667V473.022H181.519V460.478ZM188.672 462.144C187.468 462.144 186.572 462.97 186.572 464.118C186.572 465.28 187.468 466.12 188.672 466.12C189.904 466.12 190.8 465.28 190.8 464.118C190.8 462.97 189.904 462.144 188.672 462.144ZM194.44 464.566H191.864C191.654 466.064 190.38 467.072 188.672 467.072C186.824 467.072 185.466 465.868 185.466 464.118C185.466 462.396 186.824 461.192 188.672 461.192C190.352 461.192 191.626 462.172 191.85 463.628H194.44V460.492H195.602V467.632H194.44V464.566ZM194.23 468.122V468.864C194.23 470.166 195.154 471.482 196.764 472.028L196.19 472.882C194.972 472.42 194.076 471.566 193.656 470.502C193.264 471.524 192.508 472.49 191.346 472.994C190.142 472.518 189.386 471.594 189.008 470.544C188.56 471.552 187.706 472.42 186.53 472.882L185.956 472.028C187.538 471.44 188.476 470.082 188.476 468.864V468.122H189.582V468.864C189.582 469.984 190.156 471.188 191.332 471.874C192.522 471.118 193.11 469.844 193.11 468.864V468.122H194.23ZM203.805 460.758C206.521 460.758 208.215 461.64 208.215 463.138C208.215 464.622 206.521 465.504 203.805 465.504C201.089 465.504 199.395 464.622 199.395 463.138C199.395 461.64 201.089 460.758 203.805 460.758ZM203.805 461.668C201.817 461.668 200.571 462.214 200.571 463.138C200.571 464.062 201.817 464.608 203.805 464.608C205.793 464.608 207.039 464.062 207.039 463.138C207.039 462.214 205.793 461.668 203.805 461.668ZM199.535 468.738H208.103V472.868H199.535V468.738ZM206.983 469.648H200.655V471.944H206.983V469.648ZM198.135 466.582H209.489V467.506H198.135V466.582ZM212.25 472.094C211.978 472.094 211.745 471.998 211.549 471.806C211.354 471.611 211.256 471.375 211.256 471.1C211.256 470.828 211.354 470.596 211.549 470.404C211.745 470.209 211.978 470.111 212.25 470.111C212.522 470.111 212.756 470.209 212.951 470.404C213.147 470.596 213.244 470.828 213.244 471.1C213.244 471.282 213.198 471.45 213.105 471.602C213.016 471.751 212.896 471.871 212.747 471.96C212.598 472.05 212.432 472.094 212.25 472.094Z" fill="#B5B5B5"/>
<line x1="18" y1="505.5" x2="368" y2="505.5" stroke="#7ED287"/>
<path d="M25.496 533.612C24.044 533.612 23.12 534.044 23.12 534.824C23.12 535.616 24.044 536.036 25.496 536.036C26.936 536.036 27.86 535.616 27.86 534.824C27.86 534.044 26.936 533.612 25.496 533.612ZM25.496 537.296C23.132 537.296 21.5 536.336 21.5 534.824C21.5 533.324 23.132 532.352 25.496 532.352C27.848 532.352 29.492 533.324 29.492 534.824C29.492 536.336 27.848 537.296 25.496 537.296ZM30.524 538.124V539.408H28.208V543.02H26.6V539.408H24.38V543.02H22.784V539.408H20.516V538.124H30.524ZM35.6711 536.612V534.032H33.5711V536.612H35.6711ZM39.2111 534.836H37.2191V535.784H39.2111V534.836ZM37.2191 537.044V537.86H32.0111V532.772H37.2191V533.576H39.2111V531.98H40.7951V538.46H39.2111V537.044H37.2191ZM37.0511 541.82C38.5031 541.82 39.2591 541.52 39.2591 540.884C39.2591 540.248 38.5031 539.948 37.0511 539.948C35.6111 539.948 34.8551 540.248 34.8551 540.884C34.8551 541.52 35.6111 541.82 37.0511 541.82ZM37.0511 538.736C39.4031 538.736 40.8431 539.528 40.8431 540.884C40.8431 542.24 39.4031 543.032 37.0511 543.032C34.7111 543.032 33.2711 542.24 33.2711 540.884C33.2711 539.528 34.7111 538.736 37.0511 538.736ZM49.1101 533.144L49.0981 534.38H42.5941V533.144H45.0421V531.968H46.6381V533.144H49.1101ZM44.6461 536.9C44.6461 537.512 45.1381 537.836 45.8461 537.836C46.5421 537.836 47.0461 537.512 47.0461 536.9C47.0461 536.3 46.5421 535.976 45.8461 535.976C45.1381 535.976 44.6461 536.3 44.6461 536.9ZM48.5581 536.9C48.5581 538.172 47.4301 539.036 45.8461 539.036C44.2621 539.036 43.1341 538.172 43.1341 536.9C43.1341 535.652 44.2621 534.776 45.8461 534.776C47.4301 534.776 48.5581 535.652 48.5581 536.9ZM45.7501 539.636V541.58H51.6901V542.84H44.1661V539.636H45.7501ZM51.2941 535.352H52.7581V536.66H51.2941V540.248H49.7101V531.98H51.2941V535.352ZM63.5958 531.968H65.1798V543.056H63.5958V531.968ZM56.5638 532.856H58.1358V535.532H60.4398V532.856H62.0118V540.476H56.5638V532.856ZM58.1358 536.768V539.216H60.4398V536.768H58.1358ZM71.2149 539.192V536.744H69.0429V539.192H71.2149ZM74.7549 531.968H76.3389V543.056H74.7549V537.128H72.7749V540.452H67.4709V532.844H69.0429V535.508H71.2149V532.844H72.7749V535.856H74.7549V531.968Z" fill="#7ED287"/>
<path d="M21.316 557.64H27.504C27.504 561.588 26.174 564.808 21.596 567.02L20.63 565.564C23.92 563.982 25.348 561.966 25.614 559.11H21.316V557.64ZM29.478 556.296H31.34V569.19H29.478V556.296ZM44.5269 557.654V559.096H34.0409V557.654H38.3809V556.296H40.2289V557.654H44.5269ZM41.8109 561.826C41.8109 561.224 40.9849 560.972 39.3049 560.972C37.6249 560.972 36.8129 561.224 36.8129 561.826C36.8129 562.4 37.6249 562.666 39.3049 562.666C40.9849 562.666 41.8109 562.4 41.8109 561.826ZM34.8949 561.826C34.8949 560.398 36.5469 559.6 39.3049 559.6C42.0629 559.6 43.7289 560.398 43.7289 561.826C43.7289 563.24 42.0629 564.038 39.3049 564.038C36.5469 564.038 34.8949 563.24 34.8949 561.826ZM45.1569 564.654V566.138H40.2289V569.218H38.3809V566.138H33.4809V564.654H45.1569ZM52.1558 567.818C53.8778 567.818 54.7598 567.524 54.7598 566.852C54.7598 566.18 53.8778 565.872 52.1558 565.872C50.4338 565.872 49.5518 566.18 49.5518 566.852C49.5518 567.524 50.4338 567.818 52.1558 567.818ZM52.1558 564.472C54.9418 564.472 56.6358 565.326 56.6358 566.852C56.6358 568.364 54.9418 569.218 52.1558 569.218C49.3698 569.218 47.6898 568.364 47.6898 566.852C47.6898 565.326 49.3698 564.472 52.1558 564.472ZM53.1218 562.372H58.0358V563.842H46.3738V562.372H51.2738V561.308H47.7878V556.856H56.6358V558.326H49.6218V559.838H56.7058V561.308H53.1218V562.372ZM67.5267 560.986V563.968H65.8047V556.548H67.5267V559.488H68.4787V556.31H70.2287V564.374H68.4787V560.986H67.5267ZM65.4407 557.626V559.054H59.1687V557.626H61.3947V556.45H63.2147V557.626H65.4407ZM61.1847 561.714C61.1847 562.316 61.6467 562.652 62.3327 562.652C63.0187 562.652 63.4667 562.316 63.4667 561.714C63.4667 561.112 63.0187 560.79 62.3327 560.79C61.6467 560.79 61.1847 561.112 61.1847 561.714ZM65.1047 561.714C65.1047 563.044 63.9567 563.968 62.3327 563.968C60.6947 563.968 59.5467 563.044 59.5467 561.714C59.5467 560.384 60.6947 559.474 62.3327 559.474C63.9567 559.474 65.1047 560.384 65.1047 561.714ZM65.8607 567.832C67.5827 567.832 68.4507 567.538 68.4507 566.866C68.4507 566.194 67.5827 565.9 65.8607 565.9C64.1387 565.9 63.2707 566.194 63.2707 566.866C63.2707 567.538 64.1387 567.832 65.8607 567.832ZM65.8607 564.514C68.6327 564.514 70.2987 565.368 70.2987 566.866C70.2987 568.364 68.6327 569.204 65.8607 569.204C63.0887 569.204 61.4227 568.364 61.4227 566.866C61.4227 565.368 63.0887 564.514 65.8607 564.514ZM72.8596 557.542H78.7816C78.7816 561.518 77.8436 564.836 73.0416 567.286L72.0616 565.858C74.1756 564.808 75.4216 563.604 76.1496 562.19L72.4116 562.554L72.1736 560.986L76.6816 560.72C76.8076 560.188 76.9056 559.628 76.9476 559.012H72.8596V557.542ZM84.0176 561.224V562.75H82.2116V569.176H80.3636V556.296H82.2116V561.224H84.0176ZM95.4265 562.26V563.73H86.3545V557.374H95.3285V558.872H88.2025V562.26H95.4265ZM84.9965 566.152H96.6725V567.664H84.9965V566.152ZM112.848 562.582L111.896 563.94C110.706 563.436 109.95 562.54 109.502 561.434C109.054 562.61 108.242 563.618 106.94 564.136C105.638 563.618 104.826 562.61 104.378 561.42C103.93 562.526 103.174 563.436 101.998 563.94L101.046 562.582C102.782 561.812 103.468 560.202 103.468 558.69V557.234H105.302V558.69C105.302 559.95 105.75 561.336 106.94 562.232C108.13 561.336 108.564 559.964 108.564 558.69V557.234H110.426V558.69C110.426 560.258 111.098 561.826 112.848 562.582ZM101.116 567.622V566.124H112.778V567.622H101.116ZM118.993 557.304V559.18C118.993 561.574 120.015 563.926 122.199 564.864L121.149 566.362C119.665 565.69 118.671 564.416 118.097 562.834C117.523 564.556 116.473 565.942 114.933 566.67L113.827 565.144C116.081 564.178 117.145 561.686 117.145 559.18V557.304H118.993ZM122.829 556.296H124.677V569.232H122.829V556.296ZM137.261 559.796V561.266H128.315V556.772H130.163V559.796H137.261ZM130.051 565.088V567.454H137.331V568.924H128.189V565.088H130.051ZM126.873 562.582H138.549V564.066H126.873V562.582ZM151.337 560.58V559.418H146.311V560.58H151.337ZM153.171 556.716V562.022H144.477V556.716H146.311V558.032H151.337V556.716H153.171ZM146.185 565.438V567.51H153.381V568.98H144.337V565.438H146.185ZM142.979 562.918H154.669V564.374H149.909V566.404H148.061V564.374H142.979V562.918ZM169.822 556.31V563.604H167.96V556.31H169.822ZM162.794 558.508C161.814 558.508 161.1 559.096 161.1 560.062C161.1 561.028 161.814 561.616 162.794 561.616C163.774 561.616 164.502 561.028 164.502 560.062C164.502 559.096 163.774 558.508 162.794 558.508ZM162.794 563.156C160.806 563.156 159.294 561.868 159.294 560.062C159.294 558.256 160.806 556.968 162.794 556.968C164.81 556.968 166.308 558.256 166.308 560.062C166.308 561.868 164.81 563.156 162.794 563.156ZM168.52 564.136V564.57C168.52 565.9 169.22 567.146 170.928 567.664L170.032 569.008C168.814 568.602 168.016 567.832 167.582 566.852C167.162 567.832 166.42 568.686 165.244 569.148C164.068 568.714 163.326 567.874 162.906 566.894C162.458 567.832 161.674 568.588 160.512 569.008L159.602 567.664C161.31 567.09 162.01 565.816 162.01 564.57V564.136H163.802V564.57C163.802 565.592 164.208 566.656 165.23 567.37C166.266 566.6 166.7 565.522 166.7 564.57V564.136H168.52ZM174.231 557.528V564.5C175.855 564.458 177.605 564.318 179.411 563.968L179.593 565.48C177.451 565.928 175.379 566.04 173.503 566.04H172.383V557.528H174.231ZM183.891 561.168V562.694H182.085V569.176H180.237V556.296H182.085V561.168H183.891ZM189.28 563.744V566.208H192.122V563.744C191.674 563.828 191.198 563.87 190.694 563.87C190.19 563.87 189.728 563.828 189.28 563.744ZM190.694 558.396C188.902 558.396 187.712 559.124 187.712 560.412C187.712 561.686 188.902 562.428 190.694 562.428C192.486 562.428 193.69 561.686 193.69 560.412C193.69 559.124 192.486 558.396 190.694 558.396ZM193.956 566.208H196.546V567.706H184.87V566.208H187.446V563.058C186.466 562.456 185.878 561.532 185.892 560.412C185.892 558.298 187.922 556.94 190.694 556.94C193.48 556.94 195.51 558.298 195.51 560.412C195.51 561.532 194.922 562.456 193.956 563.058V566.208ZM199.811 564.947V564.778C199.815 564.198 199.866 563.736 199.965 563.391C200.068 563.047 200.217 562.768 200.413 562.556C200.608 562.344 200.844 562.152 201.119 561.979C201.324 561.847 201.508 561.709 201.671 561.567C201.833 561.424 201.962 561.267 202.058 561.094C202.155 560.919 202.203 560.723 202.203 560.508C202.203 560.279 202.148 560.079 202.039 559.906C201.929 559.734 201.782 559.601 201.596 559.509C201.414 559.416 201.212 559.369 200.99 559.369C200.774 559.369 200.57 559.417 200.378 559.513C200.186 559.606 200.028 559.746 199.906 559.931C199.783 560.113 199.717 560.34 199.707 560.612H197.678C197.695 559.949 197.854 559.402 198.156 558.972C198.457 558.537 198.857 558.214 199.354 558.002C199.851 557.787 200.4 557.679 200.999 557.679C201.659 557.679 202.242 557.788 202.749 558.007C203.257 558.223 203.654 558.536 203.943 558.947C204.231 559.358 204.375 559.853 204.375 560.433C204.375 560.821 204.311 561.166 204.181 561.467C204.055 561.766 203.878 562.031 203.649 562.263C203.421 562.491 203.151 562.699 202.839 562.884C202.577 563.04 202.362 563.202 202.193 563.371C202.027 563.54 201.903 563.736 201.82 563.958C201.74 564.18 201.699 564.454 201.695 564.778V564.947H199.811ZM200.796 568.129C200.464 568.129 200.181 568.013 199.945 567.781C199.713 567.546 199.599 567.264 199.602 566.936C199.599 566.611 199.713 566.333 199.945 566.101C200.181 565.869 200.464 565.753 200.796 565.753C201.11 565.753 201.387 565.869 201.626 566.101C201.865 566.333 201.985 566.611 201.989 566.936C201.985 567.155 201.927 567.355 201.815 567.538C201.705 567.717 201.561 567.861 201.382 567.97C201.203 568.076 201.008 568.129 200.796 568.129Z" fill="black"/>
<path d="M23.346 586.144V588.818H30.906V589.756H22.198V586.144H23.346ZM27 584.086H32.11V585.01H20.742V584.086H25.852V582.448H22.17V578.122H30.696V579.046H23.318V581.51H30.808V582.448H27V584.086ZM34.2089 578.234H39.9629C39.9629 581.398 37.7649 583.526 34.0829 584.436L33.6489 583.498C36.7289 582.742 38.5209 581.174 38.7169 579.172H34.2089V578.234ZM38.2269 588.972V587.334H36.0709V588.972H38.2269ZM38.2269 586.452V584.94H39.2909V589.854H34.9929V584.94H36.0709V586.452H38.2269ZM42.6509 584.814V585.836C42.6509 587.068 43.3509 588.482 44.8069 589.126L44.1909 589.98C43.1549 589.504 42.4689 588.664 42.0909 587.67C41.7269 588.65 41.0269 589.504 39.9909 589.98L39.3749 589.126C40.8169 588.468 41.5449 587.068 41.5449 585.864V584.814H42.6509ZM43.3649 580.376H45.2269V581.328H43.3649V584.31H42.2169V577.478H43.3649V580.376ZM53.8869 586.284C55.0349 586.284 55.8609 585.472 55.8609 584.352C55.8609 583.218 55.0349 582.406 53.8869 582.406C52.7529 582.406 51.9269 583.218 51.9269 584.352C51.9269 585.472 52.7529 586.284 53.8869 586.284ZM53.8869 581.454C55.6789 581.454 56.9529 582.658 56.9529 584.352C56.9529 586.06 55.6789 587.236 53.8869 587.236C52.1229 587.236 50.8489 586.06 50.8489 584.352C50.8489 582.658 52.1229 581.454 53.8869 581.454ZM54.4469 577.632V579.494H57.5409V580.418H50.1349V579.494H53.2989V577.632H54.4469ZM61.9369 582.644V583.61H59.8789V590.036H58.7309V577.492H59.8789V582.644H61.9369ZM64.7218 578.696V585.892C66.5278 585.892 68.3898 585.738 70.4198 585.332L70.5598 586.284C68.4178 586.718 66.4998 586.858 64.5818 586.858H63.5878V578.696H64.7218ZM74.7598 582.49V583.442H72.7438V590.036H71.5958V577.478H72.7438V582.49H74.7598ZM79.8967 584.52V587.474H83.3967V584.52C82.8647 584.646 82.2627 584.716 81.6327 584.716C81.0167 584.716 80.4147 584.646 79.8967 584.52ZM81.6327 579.172C79.6167 579.172 78.1747 580.096 78.1747 581.496C78.1747 582.896 79.6167 583.82 81.6327 583.82C83.6487 583.82 85.1047 582.896 85.1047 581.496C85.1047 580.096 83.6487 579.172 81.6327 579.172ZM84.5447 587.474H87.3587V588.426H75.9487V587.474H78.7487V584.086C77.6987 583.54 77.0687 582.63 77.0687 581.496C77.0687 579.536 78.9727 578.276 81.6327 578.276C84.3067 578.276 86.1967 579.536 86.1967 581.496C86.1967 582.63 85.5807 583.526 84.5447 584.072V587.474ZM90.7246 586.072V585.977C90.7312 585.361 90.7926 584.87 90.9086 584.506C91.0279 584.141 91.1969 583.846 91.4157 583.621C91.6344 583.395 91.8979 583.19 92.2061 583.004C92.405 582.878 92.584 582.737 92.7431 582.582C92.9022 582.426 93.0281 582.247 93.1209 582.045C93.2137 581.843 93.2601 581.619 93.2601 581.374C93.2601 581.079 93.1905 580.823 93.0513 580.608C92.9121 580.393 92.7265 580.227 92.4945 580.111C92.2658 579.991 92.0106 579.932 91.7289 579.932C91.4737 579.932 91.2301 579.985 90.998 580.091C90.766 580.197 90.5738 580.363 90.4213 580.588C90.2689 580.81 90.181 581.097 90.1578 581.448H88.6465C88.6697 580.852 88.8205 580.348 89.0989 579.937C89.3773 579.522 89.7452 579.209 90.2026 578.997C90.6633 578.785 91.1721 578.679 91.7289 578.679C92.3387 578.679 92.8723 578.793 93.3297 579.022C93.7871 579.247 94.1417 579.564 94.3936 579.972C94.6489 580.376 94.7765 580.848 94.7765 581.388C94.7765 581.76 94.7185 582.094 94.6025 582.393C94.4864 582.688 94.3207 582.951 94.1053 583.183C93.8932 583.415 93.638 583.621 93.3397 583.8C93.0579 583.975 92.8292 584.158 92.6536 584.347C92.4812 584.536 92.3553 584.759 92.2757 585.018C92.1962 585.276 92.1531 585.596 92.1465 585.977V586.072H90.7246ZM91.4753 589.094C91.2035 589.094 90.9699 588.998 90.7743 588.806C90.5788 588.611 90.481 588.375 90.481 588.1C90.481 587.828 90.5788 587.596 90.7743 587.404C90.9699 587.209 91.2035 587.111 91.4753 587.111C91.7438 587.111 91.9758 587.209 92.1713 587.404C92.3702 587.596 92.4696 587.828 92.4696 588.1C92.4696 588.282 92.4232 588.45 92.3304 588.602C92.2409 588.751 92.1216 588.871 91.9725 588.96C91.8233 589.05 91.6576 589.094 91.4753 589.094ZM107.182 582.63L106.594 583.526C105.208 583.05 104.13 582.07 103.57 580.824C103.052 582.266 101.904 583.372 100.392 583.904L99.8322 582.994C101.722 582.35 102.968 580.754 102.968 578.892V577.912H104.116V578.878C104.116 580.572 105.348 582.042 107.182 582.63ZM102.828 587.614V588.986H110.108V589.896H101.708V586.76H108.512V585.514H101.666V584.604H109.646V587.614H102.828ZM109.646 580.222H111.508V581.174H109.646V584.044H108.498V577.492H109.646V580.222ZM113.145 578.836H116.547C116.547 581.86 115.917 584.8 113.635 587.208L112.739 586.564C114.601 584.632 115.329 582.308 115.455 579.788H113.145V578.836ZM116.967 578.836H119.977C119.977 581.86 119.543 585.318 117.233 588.048L116.309 587.418C118.241 585.192 118.801 582.448 118.899 579.788H116.967V578.836ZM124.513 582.658V583.61H122.651V590.036H121.503V577.478H122.651V582.658H124.513ZM134.531 582.308V579.102H131.003V582.308H134.531ZM135.651 578.192V583.218H129.883V578.192H135.651ZM132.291 587.544V588.944H139.571V589.868H131.171V586.69H137.975V585.374H131.129V584.464H139.109V587.544H132.291ZM139.109 580.18H140.971V581.132H139.109V583.876H137.961V577.492H139.109V580.18ZM142.608 578.836H146.01C146.01 581.86 145.38 584.8 143.098 587.208L142.202 586.564C144.064 584.632 144.792 582.308 144.918 579.788H142.608V578.836ZM146.43 578.836H149.44C149.44 581.86 149.006 585.318 146.696 588.048L145.772 587.418C147.704 585.192 148.264 582.448 148.362 579.788H146.43V578.836ZM153.976 582.658V583.61H152.114V590.036H150.966V577.478H152.114V582.658H153.976ZM167.69 579.984V579.676H160.032V578.738H168.838V579.984C168.838 581.538 168.838 583.26 168.362 585.794L167.214 585.668C167.69 583.26 167.69 581.496 167.69 579.984ZM164.4 587.334H170.196V588.272H158.842V587.334H163.252V582.84H164.4V587.334ZM182.011 577.492V586.508H180.863V577.492H182.011ZM177.111 583.484V579.494H173.485V583.484H177.111ZM178.231 578.57V584.408H172.365V578.57H178.231ZM175.081 588.692H182.389V589.616H173.933V585.654H175.081V588.692ZM185.636 582.602L185.23 581.692C187.428 581.44 189.43 580.362 189.528 578.976H185.636V578.052H194.918V578.976H191.012C191.11 580.362 193.112 581.44 195.31 581.692L194.904 582.602C192.846 582.35 190.97 581.426 190.27 580.04C189.584 581.426 187.694 582.35 185.636 582.602ZM193.392 587.81C193.392 586.97 192.216 586.494 190.256 586.494C188.282 586.494 187.12 586.97 187.12 587.81C187.12 588.65 188.282 589.14 190.256 589.14C192.216 589.14 193.392 588.65 193.392 587.81ZM195.94 584.282H190.844V585.626C193.182 585.738 194.554 586.508 194.554 587.81C194.554 589.238 192.944 590.022 190.27 590.022C187.582 590.022 185.958 589.238 185.958 587.81C185.958 586.508 187.344 585.738 189.682 585.626V584.282H184.586V583.358H195.94V584.282ZM207.769 577.492V586.662H206.621V577.492H207.769ZM198.879 581.44C198.879 582.686 199.803 583.554 201.021 583.554C202.267 583.554 203.191 582.686 203.191 581.44C203.191 580.222 202.267 579.354 201.021 579.354C199.803 579.354 198.879 580.222 198.879 581.44ZM204.311 581.44C204.311 583.26 202.897 584.548 201.021 584.548C199.159 584.548 197.759 583.26 197.759 581.44C197.759 579.634 199.159 578.36 201.021 578.36C202.897 578.36 204.311 579.634 204.311 581.44ZM200.839 588.818H208.147V589.756H199.691V585.724H200.839V588.818ZM211.94 579.942V586.06C213.718 586.046 214.838 585.99 216.154 585.71L216.266 586.648C214.838 586.956 213.62 587.012 211.618 587.012H210.806V579.018H215.524V579.942H211.94ZM217.386 582.266V577.786H218.464V589.406H217.386V583.218H214.684V582.266H217.386ZM219.906 577.478H220.998V590.036H219.906V577.478ZM224.459 589.094C224.187 589.094 223.954 588.998 223.758 588.806C223.563 588.611 223.465 588.375 223.465 588.1C223.465 587.828 223.563 587.596 223.758 587.404C223.954 587.209 224.187 587.111 224.459 587.111C224.731 587.111 224.965 587.209 225.16 587.404C225.356 587.596 225.453 587.828 225.453 588.1C225.453 588.282 225.407 588.45 225.314 588.602C225.225 588.751 225.105 588.871 224.956 588.96C224.807 589.05 224.641 589.094 224.459 589.094Z" fill="#B5B5B5"/>
<line x1="18" y1="622.5" x2="368" y2="622.5" stroke="#7ED287"/>
<path d="M348.58 38.5735L351.221 37.8512L367.126 22.5953C367.251 22.4735 367.321 22.3097 367.32 22.1395C367.32 21.9692 367.248 21.8061 367.121 21.6854L366.169 20.7726C366.107 20.7126 366.034 20.6649 365.953 20.6322C365.871 20.5995 365.784 20.5824 365.696 20.582C365.608 20.5816 365.52 20.5979 365.439 20.6299C365.357 20.6618 365.283 20.7089 365.221 20.7683L349.358 35.9844L348.58 38.5735ZM368.054 18.964L369.007 19.8783C370.321 21.1394 370.333 23.174 369.031 24.4223L352.642 40.1446L346.996 41.6858C346.651 41.7773 346.282 41.7354 345.97 41.5693C345.658 41.4033 345.428 41.1266 345.331 40.8001C345.259 40.5653 345.258 40.3159 345.328 40.0806L346.97 34.6209L363.316 18.9399C363.627 18.6432 363.997 18.4082 364.404 18.2485C364.812 18.0888 365.249 18.0077 365.69 18.0098C366.131 18.0119 366.568 18.0973 366.973 18.2609C367.379 18.4244 367.747 18.6644 368.054 18.964ZM350.776 20.6034C351.52 20.6034 352.123 21.182 352.123 21.8958C352.124 22.0645 352.09 22.2318 352.023 22.3881C351.956 22.5444 351.857 22.6866 351.732 22.8066C351.607 22.9267 351.458 23.0222 351.294 23.0876C351.13 23.1531 350.954 23.1873 350.776 23.1882H345.388C343.9 23.1882 342.694 24.3456 342.694 25.7716V41.2778C342.694 42.7053 343.9 43.8626 345.388 43.8626H361.552C363.04 43.8626 364.247 42.7053 364.247 41.2778V36.1095C364.247 35.3958 364.85 34.8171 365.594 34.8171C366.338 34.8171 366.941 35.3958 366.941 36.111V41.2778C366.941 44.1328 364.528 46.4474 361.552 46.4474H345.388C342.412 46.4474 340 44.1328 340 41.2778V25.7716C340 22.9181 342.412 20.6034 345.388 20.6034H350.776Z" fill="white"/>
<path d="M366.634 229.818V240H365.401V231.111H365.341L362.855 232.761V231.509L365.401 229.818H366.634Z" fill="black"/>
<path d="M346.753 227.859C344.816 228.099 343.333 229.695 343.035 231.855C342.988 232.21 342.988 232.999 343.035 233.331C343.255 234.829 344.048 236.167 345.706 237.847C346.367 238.517 346.931 239.036 349.038 240.911C350.875 242.549 350.875 242.549 351.119 242.477C351.21 242.455 351.655 242.075 352.962 240.911C355.069 239.036 355.633 238.517 356.294 237.847C357.952 236.167 358.745 234.829 358.965 233.331C359.012 232.999 359.012 232.21 358.965 231.855C358.742 230.244 357.818 228.866 356.539 228.245C355.937 227.953 355.445 227.842 354.73 227.842C354.028 227.846 353.526 227.976 352.918 228.31C352.282 228.668 351.583 229.396 351.163 230.136C351.088 230.276 351.013 230.39 351 230.39C350.987 230.39 350.912 230.276 350.837 230.136C350.31 229.201 349.495 228.447 348.618 228.089C348.104 227.878 347.345 227.784 346.753 227.859ZM347.825 228.85C348.944 229.087 349.887 230.039 350.448 231.485C350.633 231.966 350.636 231.972 350.781 232.047C350.937 232.128 351.063 232.128 351.219 232.047C351.364 231.972 351.367 231.966 351.552 231.485C352.119 230.026 353.062 229.084 354.2 228.843C354.542 228.772 355.235 228.795 355.561 228.889C356.175 229.067 356.564 229.301 357.006 229.756C357.698 230.468 358.084 231.485 358.084 232.603C358.084 233.753 357.658 234.79 356.661 236.044C356.351 236.437 355.188 237.633 354.542 238.227C353.777 238.929 351.025 241.373 351 241.373C350.975 241.373 348.223 238.929 347.458 238.227C346.812 237.633 345.649 236.437 345.339 236.044C344.342 234.79 343.916 233.753 343.916 232.603C343.916 230.942 344.797 229.496 346.116 228.996C346.298 228.924 346.602 228.843 346.753 228.821C347 228.785 347.602 228.801 347.825 228.85Z" fill="#B2B2B2" stroke="#B2B2B2"/>
<path d="M366.634 349.818V360H365.401V351.111H365.341L362.855 352.761V351.509L365.401 349.818H366.634Z" fill="black"/>
<path d="M346.753 347.859C344.816 348.099 343.333 349.695 343.035 351.855C342.988 352.21 342.988 352.999 343.035 353.331C343.255 354.829 344.048 356.167 345.706 357.847C346.367 358.517 346.931 359.036 349.038 360.911C350.875 362.549 350.875 362.549 351.119 362.477C351.21 362.455 351.655 362.075 352.962 360.911C355.069 359.036 355.633 358.517 356.294 357.847C357.952 356.167 358.745 354.829 358.965 353.331C359.012 352.999 359.012 352.21 358.965 351.855C358.742 350.244 357.818 348.866 356.539 348.245C355.937 347.953 355.445 347.842 354.73 347.842C354.028 347.846 353.526 347.976 352.918 348.31C352.282 348.668 351.583 349.396 351.163 350.136C351.088 350.276 351.013 350.39 351 350.39C350.987 350.39 350.912 350.276 350.837 350.136C350.31 349.201 349.495 348.447 348.618 348.089C348.104 347.878 347.345 347.784 346.753 347.859ZM347.825 348.85C348.944 349.087 349.887 350.039 350.448 351.485C350.633 351.966 350.636 351.972 350.781 352.047C350.937 352.128 351.063 352.128 351.219 352.047C351.364 351.972 351.367 351.966 351.552 351.485C352.119 350.026 353.062 349.084 354.2 348.843C354.542 348.772 355.235 348.795 355.561 348.889C356.175 349.067 356.564 349.301 357.006 349.756C357.698 350.468 358.084 351.485 358.084 352.603C358.084 353.753 357.658 354.79 356.661 356.044C356.351 356.437 355.188 357.633 354.542 358.227C353.777 358.929 351.025 361.373 351 361.373C350.975 361.373 348.223 358.929 347.458 358.227C346.812 357.633 345.649 356.437 345.339 356.044C344.342 354.79 343.916 353.753 343.916 352.603C343.916 350.942 344.797 349.496 346.116 348.996C346.298 348.924 346.602 348.843 346.753 348.821C347 348.785 347.602 348.801 347.825 348.85Z" fill="#B2B2B2" stroke="#B2B2B2"/>
<path d="M366.634 466.818V477H365.401V468.111H365.341L362.855 469.761V468.509L365.401 466.818H366.634Z" fill="black"/>
<path d="M346.753 464.859C344.816 465.099 343.333 466.695 343.035 468.855C342.988 469.21 342.988 469.999 343.035 470.331C343.255 471.829 344.048 473.167 345.706 474.847C346.367 475.517 346.931 476.036 349.038 477.911C350.875 479.549 350.875 479.549 351.119 479.477C351.21 479.455 351.655 479.075 352.962 477.911C355.069 476.036 355.633 475.517 356.294 474.847C357.952 473.167 358.745 471.829 358.965 470.331C359.012 469.999 359.012 469.21 358.965 468.855C358.742 467.244 357.818 465.866 356.539 465.245C355.937 464.953 355.445 464.842 354.73 464.842C354.028 464.846 353.526 464.976 352.918 465.31C352.282 465.668 351.583 466.396 351.163 467.136C351.088 467.276 351.013 467.39 351 467.39C350.987 467.39 350.912 467.276 350.837 467.136C350.31 466.201 349.495 465.447 348.618 465.089C348.104 464.878 347.345 464.784 346.753 464.859ZM347.825 465.85C348.944 466.087 349.887 467.039 350.448 468.485C350.633 468.966 350.636 468.972 350.781 469.047C350.937 469.128 351.063 469.128 351.219 469.047C351.364 468.972 351.367 468.966 351.552 468.485C352.119 467.026 353.062 466.084 354.2 465.843C354.542 465.772 355.235 465.795 355.561 465.889C356.175 466.067 356.564 466.301 357.006 466.756C357.698 467.468 358.084 468.485 358.084 469.603C358.084 470.753 357.658 471.79 356.661 473.044C356.351 473.437 355.188 474.633 354.542 475.227C353.777 475.929 351.025 478.373 351 478.373C350.975 478.373 348.223 475.929 347.458 475.227C346.812 474.633 345.649 473.437 345.339 473.044C344.342 471.79 343.916 470.753 343.916 469.603C343.916 467.942 344.797 466.496 346.116 465.996C346.298 465.924 346.602 465.843 346.753 465.821C347 465.785 347.602 465.801 347.825 465.85Z" fill="#B2B2B2" stroke="#B2B2B2"/>
<path d="M366.634 581.818V592H365.401V583.111H365.341L362.855 584.761V583.509L365.401 581.818H366.634Z" fill="black"/>
<path d="M346.753 579.859C344.816 580.099 343.333 581.695 343.035 583.855C342.988 584.21 342.988 584.999 343.035 585.331C343.255 586.829 344.048 588.167 345.706 589.847C346.367 590.517 346.931 591.036 349.038 592.911C350.875 594.549 350.875 594.549 351.119 594.477C351.21 594.455 351.655 594.075 352.962 592.911C355.069 591.036 355.633 590.517 356.294 589.847C357.952 588.167 358.745 586.829 358.965 585.331C359.012 584.999 359.012 584.21 358.965 583.855C358.742 582.244 357.818 580.866 356.539 580.245C355.937 579.953 355.445 579.842 354.73 579.842C354.028 579.846 353.526 579.976 352.918 580.31C352.282 580.668 351.583 581.396 351.163 582.136C351.088 582.276 351.013 582.39 351 582.39C350.987 582.39 350.912 582.276 350.837 582.136C350.31 581.201 349.495 580.447 348.618 580.089C348.104 579.878 347.345 579.784 346.753 579.859ZM347.825 580.85C348.944 581.087 349.887 582.039 350.448 583.485C350.633 583.966 350.636 583.972 350.781 584.047C350.937 584.128 351.063 584.128 351.219 584.047C351.364 583.972 351.367 583.966 351.552 583.485C352.119 582.026 353.062 581.084 354.2 580.843C354.542 580.772 355.235 580.795 355.561 580.889C356.175 581.067 356.564 581.301 357.006 581.756C357.698 582.468 358.084 583.485 358.084 584.603C358.084 585.753 357.658 586.79 356.661 588.044C356.351 588.437 355.188 589.633 354.542 590.227C353.777 590.929 351.025 593.373 351 593.373C350.975 593.373 348.223 590.929 347.458 590.227C346.812 589.633 345.649 588.437 345.339 588.044C344.342 586.79 343.916 585.753 343.916 584.603C343.916 582.942 344.797 581.496 346.116 580.996C346.298 580.924 346.602 580.843 346.753 580.821C347 580.785 347.602 580.801 347.825 580.85Z" fill="#B2B2B2" stroke="#B2B2B2"/>
</svg>
