<svg width="390" height="800" viewBox="0 0 390 800" fill="none" xmlns="http://www.w3.org/2000/svg">
<rect width="390" height="800" fill="#F1FAF2"/>
<rect width="390" height="68" fill="#7ED287"/>
<rect x="20" y="24" width="24" height="3.15789" rx="1.57895" fill="white"/>
<rect x="20" y="32.4209" width="24" height="3.15789" rx="1.57895" fill="white"/>
<rect x="20" y="40.8418" width="24" height="3.15789" rx="1.57895" fill="white"/>
<path d="M157.276 44.252C156.716 44.252 156.268 44.1027 155.932 43.804C155.596 43.5053 155.428 43.0947 155.428 42.572V32.772C155.428 30.0653 156.203 27.9467 157.752 26.416C159.301 24.8853 161.457 24.12 164.22 24.12C166.031 24.12 167.599 24.4653 168.924 25.156C170.249 25.8467 171.257 26.8453 171.948 28.152C172.657 29.4587 173.012 30.9987 173.012 32.772V42.572C173.012 43.0947 172.844 43.5053 172.508 43.804C172.172 44.1027 171.724 44.252 171.164 44.252C170.604 44.252 170.147 44.1027 169.792 43.804C169.456 43.4867 169.288 43.076 169.288 42.572V38.008H159.152V42.572C159.152 43.076 158.975 43.4867 158.62 43.804C158.284 44.1027 157.836 44.252 157.276 44.252ZM169.288 35.124V32.688C169.288 30.8213 168.859 29.4213 168 28.488C167.16 27.536 165.9 27.06 164.22 27.06C160.841 27.06 159.152 28.936 159.152 32.688V35.124H169.288ZM177.729 44.28C177.169 44.28 176.721 44.1307 176.385 43.832C176.049 43.5333 175.881 43.1227 175.881 42.6V32.044C175.881 29.5613 176.656 27.62 178.205 26.22C179.754 24.82 181.901 24.12 184.645 24.12C187.389 24.12 189.536 24.82 191.085 26.22C192.634 27.62 193.409 29.5613 193.409 32.044V42.6C193.409 43.1227 193.241 43.5333 192.905 43.832C192.569 44.1307 192.121 44.28 191.561 44.28C191.001 44.28 190.544 44.1307 190.189 43.832C189.853 43.5147 189.685 43.104 189.685 42.6V31.96C189.685 30.3733 189.256 29.16 188.397 28.32C187.538 27.48 186.288 27.06 184.645 27.06C183.002 27.06 181.752 27.48 180.893 28.32C180.034 29.16 179.605 30.3733 179.605 31.96V42.6C179.605 43.104 179.428 43.5147 179.073 43.832C178.737 44.1307 178.289 44.28 177.729 44.28ZM206.115 44.28C204.005 44.28 202.176 43.8787 200.627 43.076C199.077 42.2733 197.892 41.116 197.071 39.604C196.249 38.092 195.839 36.3 195.839 34.228C195.839 32.156 196.249 30.364 197.071 28.852C197.892 27.3213 199.068 26.1547 200.599 25.352C202.148 24.5307 203.968 24.12 206.059 24.12C207.795 24.12 209.4 24.4187 210.875 25.016C212.349 25.6133 213.441 26.4067 214.151 27.396C214.375 27.6947 214.487 28.0027 214.487 28.32C214.487 28.7867 214.235 29.2067 213.731 29.58C213.507 29.748 213.227 29.832 212.891 29.832C212.611 29.832 212.331 29.776 212.051 29.664C211.771 29.5333 211.537 29.356 211.351 29.132C210.716 28.404 209.979 27.8813 209.139 27.564C208.299 27.228 207.272 27.06 206.059 27.06C204.024 27.06 202.437 27.6947 201.299 28.964C200.16 30.2147 199.591 31.9693 199.591 34.228C199.591 36.468 200.16 38.2133 201.299 39.464C202.456 40.7147 204.061 41.34 206.115 41.34C207.813 41.34 209.139 41.0133 210.091 40.36C211.061 39.7067 211.547 38.8013 211.547 37.644V37.028C211.547 36.636 211.453 36.3653 211.267 36.216C211.099 36.0667 210.8 35.992 210.371 35.992H206.703C206.18 35.992 205.769 35.8707 205.471 35.628C205.172 35.3667 205.023 35.012 205.023 34.564C205.023 34.0973 205.163 33.7427 205.443 33.5C205.741 33.2387 206.161 33.108 206.703 33.108H212.135C213.217 33.108 214.011 33.3413 214.515 33.808C215.019 34.256 215.271 34.9747 215.271 35.964V37.056C215.271 38.4747 214.888 39.7347 214.123 40.836C213.357 41.9187 212.275 42.768 210.875 43.384C209.493 43.9813 207.907 44.28 206.115 44.28ZM228.323 44.28C226.139 44.28 224.253 43.86 222.667 43.02C221.099 42.1613 219.904 40.976 219.083 39.464C218.261 37.9333 217.851 36.1787 217.851 34.2C217.851 32.2213 218.261 30.476 219.083 28.964C219.904 27.4333 221.099 26.248 222.667 25.408C224.253 24.5493 226.139 24.12 228.323 24.12C230.507 24.12 232.383 24.5493 233.951 25.408C235.537 26.248 236.741 27.4333 237.563 28.964C238.384 30.476 238.795 32.2213 238.795 34.2C238.795 36.1787 238.384 37.9333 237.563 39.464C236.741 40.976 235.537 42.1613 233.951 43.02C232.383 43.86 230.507 44.28 228.323 44.28ZM228.323 41.34C230.451 41.34 232.103 40.7053 233.279 39.436C234.455 38.148 235.043 36.4027 235.043 34.2C235.043 31.9787 234.427 30.2333 233.195 28.964C231.981 27.6947 230.264 27.06 228.043 27.06C226.008 27.06 224.421 27.7133 223.283 29.02C222.163 30.308 221.603 32.0347 221.603 34.2C221.603 36.4027 222.191 38.148 223.367 39.436C224.543 40.7053 226.195 41.34 228.323 41.34Z" fill="white"/>
<path d="M113.428 97.324V98.56H106.804V97.324H109.312V96.112H110.896V97.324H113.428ZM111.34 101.092C111.34 100.504 110.848 100.192 110.128 100.192C109.396 100.192 108.904 100.504 108.904 101.092C108.904 101.668 109.396 101.98 110.128 101.98C110.848 101.98 111.34 101.668 111.34 101.092ZM107.404 101.092C107.404 99.832 108.532 98.992 110.128 98.992C111.712 98.992 112.84 99.832 112.84 101.092C112.84 102.328 111.712 103.18 110.128 103.18C108.532 103.18 107.404 102.328 107.404 101.092ZM106.768 105.136L106.576 103.852C108.592 103.852 111.256 103.864 113.584 103.552L113.692 104.704C111.244 105.16 108.724 105.148 106.768 105.136ZM114.148 95.98H115.732V107.032H114.148V95.98ZM121.587 100.48V98.02H119.427V100.48H121.587ZM123.147 96.772V101.728H117.879V96.772H123.147ZM122.643 105.808C124.047 105.808 124.803 105.508 124.803 104.86C124.803 104.224 124.047 103.912 122.643 103.912C121.239 103.912 120.471 104.224 120.471 104.86C120.471 105.508 121.239 105.808 122.643 105.808ZM122.643 102.676C124.923 102.676 126.375 103.492 126.375 104.86C126.375 106.24 124.923 107.044 122.643 107.044C120.351 107.044 118.899 106.24 118.899 104.86C118.899 103.492 120.351 102.676 122.643 102.676ZM126.255 98.452H127.719V99.76H126.255V102.388H124.671V95.98H126.255V98.452ZM135.194 101.536L134.438 102.772C133.226 102.412 132.386 101.68 131.882 100.744C131.402 101.764 130.538 102.58 129.29 102.976L128.51 101.728C130.286 101.164 131.054 99.856 131.066 98.536H128.906V97.288H131.066V96.064H132.65V97.288H134.834V98.536H132.65C132.662 99.748 133.418 101.008 135.194 101.536ZM131.75 103.456V105.58H137.69V106.84H130.166V103.456H131.75ZM137.294 99.256H138.758V100.552H137.294V104.188H135.71V95.98H137.294V99.256ZM144.415 98.284V103.084C145.987 103.06 147.295 102.976 148.723 102.736L148.879 104.044C147.211 104.344 145.699 104.404 143.779 104.404H142.843V97H147.991V98.284H144.415ZM152.671 100.06V101.368H151.063V107.056H149.479V95.98H151.063V100.06H152.671ZM159.81 100.552L159.942 101.824C158.406 102.112 157.002 102.16 154.794 102.16H153.846V98.716H157.314V97.792H153.834V96.532H158.874V99.892H155.418V100.888C157.218 100.876 158.43 100.804 159.81 100.552ZM156.51 104.26V105.664H160.602V104.26H156.51ZM154.95 106.9V103.012H162.15V106.9H154.95ZM163.614 98.584V99.88H162.15V102.556H160.566V95.98H162.15V98.584H163.614ZM165.365 101.296L164.753 100.036C166.457 99.712 167.225 98.86 167.261 97.984H165.113V96.736H171.137V97.984H168.965C169.001 98.86 169.757 99.628 171.425 99.88L170.813 101.128C169.493 100.9 168.629 100.348 168.137 99.592C167.645 100.42 166.745 101.044 165.365 101.296ZM171.533 101.536L171.629 102.688C170.741 102.844 169.817 102.94 168.917 103.012V106.696H167.333V103.108C166.397 103.144 165.509 103.144 164.717 103.144L164.525 101.86C166.541 101.86 169.217 101.848 171.533 101.536ZM172.157 95.98H173.741V107.02H172.157V95.98ZM184.989 99.88L185.181 101.164C183.489 101.524 181.869 101.644 179.889 101.644H178.929V96.616H180.501V100.336C182.145 100.312 183.537 100.204 184.989 99.88ZM181.689 103.876V105.664H185.925V103.876H181.689ZM180.129 106.9V102.628H187.473V106.9H180.129ZM185.889 95.968H187.473V102.16H185.889V95.968ZM196.916 95.968H198.5V107.056H196.916V95.968ZM192.56 96.748C194.228 96.748 195.464 98.26 195.464 100.684C195.464 103.12 194.228 104.644 192.56 104.644C190.892 104.644 189.656 103.12 189.656 100.684C189.656 98.26 190.892 96.748 192.56 96.748ZM192.56 98.176C191.744 98.176 191.18 99.052 191.18 100.684C191.18 102.328 191.744 103.204 192.56 103.204C193.376 103.204 193.94 102.328 193.94 100.684C193.94 99.052 193.376 98.176 192.56 98.176ZM210.745 95.98H212.341V101.92H210.745V95.98ZM204.997 102.4H206.569V103.432H210.769V102.4H212.341V106.9H204.997V102.4ZM206.569 104.644V105.64H210.769V104.644H206.569ZM206.329 96.436C208.045 96.436 209.329 97.528 209.329 99.04C209.329 100.564 208.045 101.656 206.329 101.656C204.613 101.656 203.317 100.564 203.317 99.04C203.317 97.528 204.613 96.436 206.329 96.436ZM206.329 97.744C205.489 97.744 204.865 98.236 204.865 99.04C204.865 99.868 205.489 100.348 206.329 100.348C207.169 100.348 207.781 99.868 207.781 99.04C207.781 98.236 207.169 97.744 206.329 97.744ZM220.788 100.996L220.032 102.22C218.82 101.86 217.98 101.128 217.5 100.216C217.008 101.308 216.132 102.184 214.836 102.604L214.044 101.368C215.832 100.768 216.624 99.364 216.648 97.984H214.452V96.712H220.428V97.984H218.268C218.292 99.244 219.048 100.48 220.788 100.996ZM219.288 105.82C220.692 105.82 221.448 105.52 221.448 104.896C221.448 104.26 220.692 103.96 219.288 103.96C217.872 103.96 217.116 104.26 217.116 104.896C217.116 105.52 217.872 105.82 219.288 105.82ZM219.288 102.736C221.58 102.736 223.02 103.54 223.02 104.896C223.02 106.24 221.58 107.032 219.288 107.032C216.984 107.032 215.544 106.24 215.544 104.896C215.544 103.54 216.984 102.736 219.288 102.736ZM222.9 98.524H224.364V99.82H222.9V102.544H221.316V95.98H222.9V98.524ZM228.431 103.48C229.175 103.48 229.715 102.976 229.715 102.124C229.715 101.296 229.175 100.78 228.431 100.78C227.687 100.78 227.135 101.296 227.135 102.136C227.135 102.976 227.687 103.48 228.431 103.48ZM228.431 99.496C230.027 99.496 231.215 100.588 231.215 102.124C231.215 103.684 230.027 104.776 228.431 104.776C226.823 104.776 225.623 103.684 225.623 102.124C225.623 100.588 226.823 99.496 228.431 99.496ZM229.211 96.172V97.612H231.611V98.872H225.179V97.612H227.627V96.172H229.211ZM235.499 100.3V101.608H233.915V107.032H232.331V95.98H233.915V100.3H235.499ZM243.934 102.328V100.396H242.158V99.136H243.934V98.344H242.158V97.084H243.934V95.98H245.518V102.328H243.934ZM242.866 101.044L241.99 102.292C240.85 101.836 240.07 101.008 239.614 99.964C239.134 101.068 238.294 101.956 237.058 102.424L236.206 101.176C238.042 100.516 238.798 98.956 238.798 97.384V96.376H240.394V97.384C240.394 98.896 241.126 100.396 242.866 101.044ZM244.486 102.748V103C244.486 104.176 245.074 105.28 246.55 105.736L245.758 106.876C244.714 106.528 244.054 105.856 243.67 104.992C243.31 105.856 242.674 106.6 241.678 106.996C240.658 106.612 240.022 105.88 239.662 105.016C239.278 105.844 238.618 106.516 237.61 106.876L236.842 105.736C238.294 105.232 238.894 104.104 238.894 103V102.748H240.43V103C240.43 103.912 240.79 104.848 241.666 105.46C242.566 104.812 242.926 103.828 242.926 103V102.748H244.486ZM256.809 99.076L256.245 100.3C254.361 100.072 253.017 99.292 252.309 98.236C251.613 99.292 250.245 100.06 248.361 100.3L247.809 99.076C250.293 98.788 251.493 97.564 251.493 96.436V96.1H253.125V96.436C253.125 97.552 254.325 98.8 256.809 99.076ZM254.481 105.676V104.716H250.053V105.676H254.481ZM254.481 103.528V102.604H256.041V106.9H248.481V102.604H250.053V103.528H254.481ZM247.317 100.804H257.301V102.052H247.317V100.804ZM260.504 97.024V102.952C261.956 102.916 263.528 102.796 265.148 102.472L265.316 103.792C263.432 104.188 261.596 104.308 259.916 104.308H258.932V97.024H260.504ZM266 95.968H267.584V107.02H266V95.968ZM271.399 98.284V103.084C272.971 103.06 274.279 102.976 275.707 102.736L275.863 104.044C274.195 104.344 272.683 104.404 270.763 104.404H269.827V97H274.975V98.284H271.399ZM279.655 100.06V101.368H278.047V107.056H276.463V95.98H278.047V100.06H279.655ZM281.703 106.111C281.422 106.111 281.181 106.011 280.979 105.812C280.78 105.611 280.681 105.369 280.681 105.088C280.681 104.81 280.78 104.571 280.979 104.372C281.181 104.173 281.422 104.074 281.703 104.074C281.976 104.074 282.215 104.173 282.419 104.372C282.624 104.571 282.726 104.81 282.726 105.088C282.726 105.276 282.678 105.447 282.581 105.604C282.488 105.757 282.364 105.881 282.211 105.974C282.057 106.065 281.888 106.111 281.703 106.111Z" fill="#D8D8D8"/>
<path d="M108.088 220.968H109.672V232.056H108.088V220.968ZM103.732 221.748C105.4 221.748 106.636 223.26 106.636 225.684C106.636 228.12 105.4 229.644 103.732 229.644C102.064 229.644 100.828 228.12 100.828 225.684C100.828 223.26 102.064 221.748 103.732 221.748ZM103.732 223.176C102.916 223.176 102.352 224.052 102.352 225.684C102.352 227.328 102.916 228.204 103.732 228.204C104.548 228.204 105.112 227.328 105.112 225.684C105.112 224.052 104.548 223.176 103.732 223.176ZM115.827 223.344V223.956C115.827 225.756 116.715 227.664 118.563 228.432L117.699 229.68C116.415 229.128 115.539 228.048 115.047 226.716C114.555 228.156 113.667 229.368 112.371 229.956L111.471 228.696C113.319 227.868 114.219 225.84 114.219 223.956V223.344H111.915V222.036H118.107V223.344H115.827ZM119.127 220.98H120.711V232.032H119.127V220.98ZM129.254 226.02L128.486 227.256C127.274 226.86 126.446 226.068 125.978 225.084C125.486 226.164 124.622 227.052 123.338 227.472L122.534 226.224C124.31 225.624 125.114 224.22 125.138 222.852H122.966V221.592H128.906V222.852H126.758C126.782 224.112 127.55 225.444 129.254 226.02ZM124.298 229.308V228.048H131.834V232.044H130.25V229.308H124.298ZM130.25 220.992H131.834V227.556H130.25V224.892H128.618V223.62H130.25V220.992ZM142.813 220.992V228.924H141.217V220.992H142.813ZM135.337 224.496C135.337 225.384 135.985 225.924 136.801 225.924C137.629 225.924 138.253 225.384 138.253 224.496C138.253 223.584 137.629 223.056 136.801 223.056C135.985 223.056 135.337 223.584 135.337 224.496ZM139.801 224.496C139.801 226.104 138.493 227.292 136.801 227.292C135.109 227.292 133.789 226.104 133.789 224.496C133.789 222.864 135.109 221.688 136.801 221.688C138.493 221.688 139.801 222.864 139.801 224.496ZM137.041 230.58H143.089V231.84H135.457V228.144H137.041V230.58ZM157.002 222.36V223.62H147.882V222.36H151.638V221.088H153.222V222.36H157.002ZM150.306 226.248C150.306 226.884 151.05 227.172 152.418 227.172C153.81 227.172 154.554 226.884 154.554 226.248C154.554 225.624 153.81 225.312 152.418 225.312C151.05 225.312 150.306 225.624 150.306 226.248ZM153.222 229.644H157.47V230.928H147.45V229.644H151.638V228.372C149.802 228.204 148.674 227.436 148.674 226.248C148.674 224.892 150.126 224.088 152.418 224.088C154.734 224.088 156.174 224.892 156.174 226.248C156.174 227.436 155.058 228.192 153.222 228.372V229.644ZM158.885 223.776H162.353V222.9H158.873V221.628H163.913V224.952H160.457V225.912C162.257 225.9 163.469 225.828 164.849 225.576L164.981 226.848C163.445 227.136 162.041 227.184 159.833 227.184H158.885V223.776ZM163.553 230.832C164.993 230.832 165.737 230.556 165.737 229.944C165.737 229.332 164.993 229.056 163.553 229.056C162.113 229.056 161.369 229.332 161.369 229.944C161.369 230.556 162.113 230.832 163.553 230.832ZM163.553 227.844C165.857 227.844 167.297 228.612 167.297 229.944C167.297 231.264 165.857 232.044 163.553 232.044C161.249 232.044 159.809 231.264 159.809 229.944C159.809 228.612 161.249 227.844 163.553 227.844ZM167.189 223.56H168.653V224.856H167.189V227.616H165.605V220.992H167.189V223.56ZM177.1 220.968H178.684V232.056H177.1V220.968ZM172.744 221.748C174.412 221.748 175.648 223.26 175.648 225.684C175.648 228.12 174.412 229.644 172.744 229.644C171.076 229.644 169.84 228.12 169.84 225.684C169.84 223.26 171.076 221.748 172.744 221.748ZM172.744 223.176C171.928 223.176 171.364 224.052 171.364 225.684C171.364 227.328 171.928 228.204 172.744 228.204C173.56 228.204 174.124 227.328 174.124 225.684C174.124 224.052 173.56 223.176 172.744 223.176ZM190.028 224.88L190.22 226.164C188.528 226.524 186.908 226.644 184.928 226.644H183.968V221.616H185.54V225.336C187.184 225.312 188.576 225.204 190.028 224.88ZM186.728 228.876V230.664H190.964V228.876H186.728ZM185.168 231.9V227.628H192.512V231.9H185.168ZM190.928 220.968H192.512V227.16H190.928V220.968ZM201.955 220.968H203.539V232.056H201.955V220.968ZM197.599 221.748C199.267 221.748 200.503 223.26 200.503 225.684C200.503 228.12 199.267 229.644 197.599 229.644C195.931 229.644 194.695 228.12 194.695 225.684C194.695 223.26 195.931 221.748 197.599 221.748ZM197.599 223.176C196.783 223.176 196.219 224.052 196.219 225.684C196.219 227.328 196.783 228.204 197.599 228.204C198.415 228.204 198.979 227.328 198.979 225.684C198.979 224.052 198.415 223.176 197.599 223.176ZM215.784 220.98H217.38V226.92H215.784V220.98ZM210.036 227.4H211.608V228.432H215.808V227.4H217.38V231.9H210.036V227.4ZM211.608 229.644V230.64H215.808V229.644H211.608ZM211.368 221.436C213.084 221.436 214.368 222.528 214.368 224.04C214.368 225.564 213.084 226.656 211.368 226.656C209.652 226.656 208.356 225.564 208.356 224.04C208.356 222.528 209.652 221.436 211.368 221.436ZM211.368 222.744C210.528 222.744 209.904 223.236 209.904 224.04C209.904 224.868 210.528 225.348 211.368 225.348C212.208 225.348 212.82 224.868 212.82 224.04C212.82 223.236 212.208 222.744 211.368 222.744ZM225.827 225.996L225.071 227.22C223.859 226.86 223.019 226.128 222.539 225.216C222.047 226.308 221.171 227.184 219.875 227.604L219.083 226.368C220.871 225.768 221.663 224.364 221.687 222.984H219.491V221.712H225.467V222.984H223.307C223.331 224.244 224.087 225.48 225.827 225.996ZM224.327 230.82C225.731 230.82 226.487 230.52 226.487 229.896C226.487 229.26 225.731 228.96 224.327 228.96C222.911 228.96 222.155 229.26 222.155 229.896C222.155 230.52 222.911 230.82 224.327 230.82ZM224.327 227.736C226.619 227.736 228.059 228.54 228.059 229.896C228.059 231.24 226.619 232.032 224.327 232.032C222.023 232.032 220.583 231.24 220.583 229.896C220.583 228.54 222.023 227.736 224.327 227.736ZM227.939 223.524H229.403V224.82H227.939V227.544H226.355V220.98H227.939V223.524ZM233.47 228.48C234.214 228.48 234.754 227.976 234.754 227.124C234.754 226.296 234.214 225.78 233.47 225.78C232.726 225.78 232.174 226.296 232.174 227.136C232.174 227.976 232.726 228.48 233.47 228.48ZM233.47 224.496C235.066 224.496 236.254 225.588 236.254 227.124C236.254 228.684 235.066 229.776 233.47 229.776C231.862 229.776 230.662 228.684 230.662 227.124C230.662 225.588 231.862 224.496 233.47 224.496ZM234.25 221.172V222.612H236.65V223.872H230.218V222.612H232.666V221.172H234.25ZM240.538 225.3V226.608H238.954V232.032H237.37V220.98H238.954V225.3H240.538ZM248.973 227.328V225.396H247.197V224.136H248.973V223.344H247.197V222.084H248.973V220.98H250.557V227.328H248.973ZM247.905 226.044L247.029 227.292C245.889 226.836 245.109 226.008 244.653 224.964C244.173 226.068 243.333 226.956 242.097 227.424L241.245 226.176C243.081 225.516 243.837 223.956 243.837 222.384V221.376H245.433V222.384C245.433 223.896 246.165 225.396 247.905 226.044ZM249.525 227.748V228C249.525 229.176 250.113 230.28 251.589 230.736L250.797 231.876C249.753 231.528 249.093 230.856 248.709 229.992C248.349 230.856 247.713 231.6 246.717 231.996C245.697 231.612 245.061 230.88 244.701 230.016C244.317 230.844 243.657 231.516 242.649 231.876L241.881 230.736C243.333 230.232 243.933 229.104 243.933 228V227.748H245.469V228C245.469 228.912 245.829 229.848 246.705 230.46C247.605 229.812 247.965 228.828 247.965 228V227.748H249.525ZM261.848 224.076L261.284 225.3C259.4 225.072 258.056 224.292 257.348 223.236C256.652 224.292 255.284 225.06 253.4 225.3L252.848 224.076C255.332 223.788 256.532 222.564 256.532 221.436V221.1H258.164V221.436C258.164 222.552 259.364 223.8 261.848 224.076ZM259.52 230.676V229.716H255.092V230.676H259.52ZM259.52 228.528V227.604H261.08V231.9H253.52V227.604H255.092V228.528H259.52ZM252.356 225.804H262.34V227.052H252.356V225.804ZM265.543 222.024V227.952C266.995 227.916 268.567 227.796 270.187 227.472L270.355 228.792C268.471 229.188 266.635 229.308 264.955 229.308H263.971V222.024H265.543ZM271.039 220.968H272.623V232.02H271.039V220.968ZM276.438 223.284V228.084C278.01 228.06 279.318 227.976 280.746 227.736L280.902 229.044C279.234 229.344 277.722 229.404 275.802 229.404H274.866V222H280.014V223.284H276.438ZM284.694 225.06V226.368H283.086V232.056H281.502V220.98H283.086V225.06H284.694ZM286.743 231.111C286.461 231.111 286.22 231.011 286.018 230.812C285.819 230.611 285.72 230.369 285.72 230.088C285.72 229.81 285.819 229.571 286.018 229.372C286.22 229.173 286.461 229.074 286.743 229.074C287.015 229.074 287.254 229.173 287.458 229.372C287.663 229.571 287.765 229.81 287.765 230.088C287.765 230.276 287.717 230.447 287.62 230.604C287.527 230.757 287.403 230.881 287.25 230.974C287.096 231.065 286.927 231.111 286.743 231.111Z" fill="#D8D8D8"/>
<path d="M108.088 322.968H109.672V334.056H108.088V322.968ZM103.732 323.748C105.4 323.748 106.636 325.26 106.636 327.684C106.636 330.12 105.4 331.644 103.732 331.644C102.064 331.644 100.828 330.12 100.828 327.684C100.828 325.26 102.064 323.748 103.732 323.748ZM103.732 325.176C102.916 325.176 102.352 326.052 102.352 327.684C102.352 329.328 102.916 330.204 103.732 330.204C104.548 330.204 105.112 329.328 105.112 327.684C105.112 326.052 104.548 325.176 103.732 325.176ZM115.827 325.344V325.956C115.827 327.756 116.715 329.664 118.563 330.432L117.699 331.68C116.415 331.128 115.539 330.048 115.047 328.716C114.555 330.156 113.667 331.368 112.371 331.956L111.471 330.696C113.319 329.868 114.219 327.84 114.219 325.956V325.344H111.915V324.036H118.107V325.344H115.827ZM119.127 322.98H120.711V334.032H119.127V322.98ZM129.254 328.02L128.486 329.256C127.274 328.86 126.446 328.068 125.978 327.084C125.486 328.164 124.622 329.052 123.338 329.472L122.534 328.224C124.31 327.624 125.114 326.22 125.138 324.852H122.966V323.592H128.906V324.852H126.758C126.782 326.112 127.55 327.444 129.254 328.02ZM124.298 331.308V330.048H131.834V334.044H130.25V331.308H124.298ZM130.25 322.992H131.834V329.556H130.25V326.892H128.618V325.62H130.25V322.992ZM142.813 322.992V330.924H141.217V322.992H142.813ZM135.337 326.496C135.337 327.384 135.985 327.924 136.801 327.924C137.629 327.924 138.253 327.384 138.253 326.496C138.253 325.584 137.629 325.056 136.801 325.056C135.985 325.056 135.337 325.584 135.337 326.496ZM139.801 326.496C139.801 328.104 138.493 329.292 136.801 329.292C135.109 329.292 133.789 328.104 133.789 326.496C133.789 324.864 135.109 323.688 136.801 323.688C138.493 323.688 139.801 324.864 139.801 326.496ZM137.041 332.58H143.089V333.84H135.457V330.144H137.041V332.58ZM157.002 324.36V325.62H147.882V324.36H151.638V323.088H153.222V324.36H157.002ZM150.306 328.248C150.306 328.884 151.05 329.172 152.418 329.172C153.81 329.172 154.554 328.884 154.554 328.248C154.554 327.624 153.81 327.312 152.418 327.312C151.05 327.312 150.306 327.624 150.306 328.248ZM153.222 331.644H157.47V332.928H147.45V331.644H151.638V330.372C149.802 330.204 148.674 329.436 148.674 328.248C148.674 326.892 150.126 326.088 152.418 326.088C154.734 326.088 156.174 326.892 156.174 328.248C156.174 329.436 155.058 330.192 153.222 330.372V331.644ZM158.885 325.776H162.353V324.9H158.873V323.628H163.913V326.952H160.457V327.912C162.257 327.9 163.469 327.828 164.849 327.576L164.981 328.848C163.445 329.136 162.041 329.184 159.833 329.184H158.885V325.776ZM163.553 332.832C164.993 332.832 165.737 332.556 165.737 331.944C165.737 331.332 164.993 331.056 163.553 331.056C162.113 331.056 161.369 331.332 161.369 331.944C161.369 332.556 162.113 332.832 163.553 332.832ZM163.553 329.844C165.857 329.844 167.297 330.612 167.297 331.944C167.297 333.264 165.857 334.044 163.553 334.044C161.249 334.044 159.809 333.264 159.809 331.944C159.809 330.612 161.249 329.844 163.553 329.844ZM167.189 325.56H168.653V326.856H167.189V329.616H165.605V322.992H167.189V325.56ZM177.1 322.968H178.684V334.056H177.1V322.968ZM172.744 323.748C174.412 323.748 175.648 325.26 175.648 327.684C175.648 330.12 174.412 331.644 172.744 331.644C171.076 331.644 169.84 330.12 169.84 327.684C169.84 325.26 171.076 323.748 172.744 323.748ZM172.744 325.176C171.928 325.176 171.364 326.052 171.364 327.684C171.364 329.328 171.928 330.204 172.744 330.204C173.56 330.204 174.124 329.328 174.124 327.684C174.124 326.052 173.56 325.176 172.744 325.176ZM190.028 326.88L190.22 328.164C188.528 328.524 186.908 328.644 184.928 328.644H183.968V323.616H185.54V327.336C187.184 327.312 188.576 327.204 190.028 326.88ZM186.728 330.876V332.664H190.964V330.876H186.728ZM185.168 333.9V329.628H192.512V333.9H185.168ZM190.928 322.968H192.512V329.16H190.928V322.968ZM201.955 322.968H203.539V334.056H201.955V322.968ZM197.599 323.748C199.267 323.748 200.503 325.26 200.503 327.684C200.503 330.12 199.267 331.644 197.599 331.644C195.931 331.644 194.695 330.12 194.695 327.684C194.695 325.26 195.931 323.748 197.599 323.748ZM197.599 325.176C196.783 325.176 196.219 326.052 196.219 327.684C196.219 329.328 196.783 330.204 197.599 330.204C198.415 330.204 198.979 329.328 198.979 327.684C198.979 326.052 198.415 325.176 197.599 325.176ZM212.616 329.292V330.648C213.504 330.6 214.392 330.528 215.232 330.396L215.328 331.536C212.952 332.016 210.348 332.04 208.44 332.04L208.248 330.756C209.064 330.756 210.012 330.756 211.032 330.72V329.292H209.028V323.892H214.728V325.14H210.6V325.98H214.512V327.204H210.6V328.032H214.752V329.292H212.616ZM215.832 322.968H217.416V334.056H215.832V322.968ZM225.827 327.996L225.071 329.22C223.859 328.86 223.019 328.128 222.539 327.216C222.047 328.308 221.171 329.184 219.875 329.604L219.083 328.368C220.871 327.768 221.663 326.364 221.687 324.984H219.491V323.712H225.467V324.984H223.307C223.331 326.244 224.087 327.48 225.827 327.996ZM224.327 332.82C225.731 332.82 226.487 332.52 226.487 331.896C226.487 331.26 225.731 330.96 224.327 330.96C222.911 330.96 222.155 331.26 222.155 331.896C222.155 332.52 222.911 332.82 224.327 332.82ZM224.327 329.736C226.619 329.736 228.059 330.54 228.059 331.896C228.059 333.24 226.619 334.032 224.327 334.032C222.023 334.032 220.583 333.24 220.583 331.896C220.583 330.54 222.023 329.736 224.327 329.736ZM227.939 325.524H229.403V326.82H227.939V329.544H226.355V322.98H227.939V325.524ZM233.47 330.48C234.214 330.48 234.754 329.976 234.754 329.124C234.754 328.296 234.214 327.78 233.47 327.78C232.726 327.78 232.174 328.296 232.174 329.136C232.174 329.976 232.726 330.48 233.47 330.48ZM233.47 326.496C235.066 326.496 236.254 327.588 236.254 329.124C236.254 330.684 235.066 331.776 233.47 331.776C231.862 331.776 230.662 330.684 230.662 329.124C230.662 327.588 231.862 326.496 233.47 326.496ZM234.25 323.172V324.612H236.65V325.872H230.218V324.612H232.666V323.172H234.25ZM240.538 327.3V328.608H238.954V334.032H237.37V322.98H238.954V327.3H240.538ZM248.973 329.328V327.396H247.197V326.136H248.973V325.344H247.197V324.084H248.973V322.98H250.557V329.328H248.973ZM247.905 328.044L247.029 329.292C245.889 328.836 245.109 328.008 244.653 326.964C244.173 328.068 243.333 328.956 242.097 329.424L241.245 328.176C243.081 327.516 243.837 325.956 243.837 324.384V323.376H245.433V324.384C245.433 325.896 246.165 327.396 247.905 328.044ZM249.525 329.748V330C249.525 331.176 250.113 332.28 251.589 332.736L250.797 333.876C249.753 333.528 249.093 332.856 248.709 331.992C248.349 332.856 247.713 333.6 246.717 333.996C245.697 333.612 245.061 332.88 244.701 332.016C244.317 332.844 243.657 333.516 242.649 333.876L241.881 332.736C243.333 332.232 243.933 331.104 243.933 330V329.748H245.469V330C245.469 330.912 245.829 331.848 246.705 332.46C247.605 331.812 247.965 330.828 247.965 330V329.748H249.525ZM261.848 326.076L261.284 327.3C259.4 327.072 258.056 326.292 257.348 325.236C256.652 326.292 255.284 327.06 253.4 327.3L252.848 326.076C255.332 325.788 256.532 324.564 256.532 323.436V323.1H258.164V323.436C258.164 324.552 259.364 325.8 261.848 326.076ZM259.52 332.676V331.716H255.092V332.676H259.52ZM259.52 330.528V329.604H261.08V333.9H253.52V329.604H255.092V330.528H259.52ZM252.356 327.804H262.34V329.052H252.356V327.804ZM265.543 324.024V329.952C266.995 329.916 268.567 329.796 270.187 329.472L270.355 330.792C268.471 331.188 266.635 331.308 264.955 331.308H263.971V324.024H265.543ZM271.039 322.968H272.623V334.02H271.039V322.968ZM276.438 325.284V330.084C278.01 330.06 279.318 329.976 280.746 329.736L280.902 331.044C279.234 331.344 277.722 331.404 275.802 331.404H274.866V324H280.014V325.284H276.438ZM284.694 327.06V328.368H283.086V334.056H281.502V322.98H283.086V327.06H284.694ZM286.743 333.111C286.461 333.111 286.22 333.011 286.018 332.812C285.819 332.611 285.72 332.369 285.72 332.088C285.72 331.81 285.819 331.571 286.018 331.372C286.22 331.173 286.461 331.074 286.743 331.074C287.015 331.074 287.254 331.173 287.458 331.372C287.663 331.571 287.765 331.81 287.765 332.088C287.765 332.276 287.717 332.447 287.62 332.604C287.527 332.757 287.403 332.881 287.25 332.974C287.096 333.065 286.927 333.111 286.743 333.111Z" fill="#D8D8D8"/>
<path d="M108.088 349.968H109.672V361.056H108.088V349.968ZM103.732 350.748C105.4 350.748 106.636 352.26 106.636 354.684C106.636 357.12 105.4 358.644 103.732 358.644C102.064 358.644 100.828 357.12 100.828 354.684C100.828 352.26 102.064 350.748 103.732 350.748ZM103.732 352.176C102.916 352.176 102.352 353.052 102.352 354.684C102.352 356.328 102.916 357.204 103.732 357.204C104.548 357.204 105.112 356.328 105.112 354.684C105.112 353.052 104.548 352.176 103.732 352.176ZM115.827 352.344V352.956C115.827 354.756 116.715 356.664 118.563 357.432L117.699 358.68C116.415 358.128 115.539 357.048 115.047 355.716C114.555 357.156 113.667 358.368 112.371 358.956L111.471 357.696C113.319 356.868 114.219 354.84 114.219 352.956V352.344H111.915V351.036H118.107V352.344H115.827ZM119.127 349.98H120.711V361.032H119.127V349.98ZM129.254 355.02L128.486 356.256C127.274 355.86 126.446 355.068 125.978 354.084C125.486 355.164 124.622 356.052 123.338 356.472L122.534 355.224C124.31 354.624 125.114 353.22 125.138 351.852H122.966V350.592H128.906V351.852H126.758C126.782 353.112 127.55 354.444 129.254 355.02ZM124.298 358.308V357.048H131.834V361.044H130.25V358.308H124.298ZM130.25 349.992H131.834V356.556H130.25V353.892H128.618V352.62H130.25V349.992ZM142.813 349.992V357.924H141.217V349.992H142.813ZM135.337 353.496C135.337 354.384 135.985 354.924 136.801 354.924C137.629 354.924 138.253 354.384 138.253 353.496C138.253 352.584 137.629 352.056 136.801 352.056C135.985 352.056 135.337 352.584 135.337 353.496ZM139.801 353.496C139.801 355.104 138.493 356.292 136.801 356.292C135.109 356.292 133.789 355.104 133.789 353.496C133.789 351.864 135.109 350.688 136.801 350.688C138.493 350.688 139.801 351.864 139.801 353.496ZM137.041 359.58H143.089V360.84H135.457V357.144H137.041V359.58ZM155.022 349.968H156.606V361.056H155.022V349.968ZM147.99 350.856H149.562V353.532H151.866V350.856H153.438V358.476H147.99V350.856ZM149.562 354.768V357.216H151.866V354.768H149.562ZM167.309 352.524V353.76H159.737V350.352H167.225V351.588H161.309V352.524H167.309ZM168.473 355.572H164.273V356.28H167.261V359.124H161.213V359.76H167.549V360.948H159.641V358.032H165.701V357.444H159.629V356.28H162.689V355.572H158.489V354.336H168.473V355.572ZM170.14 351.12H175.444C175.444 354.504 174.304 357.264 170.38 359.16L169.552 357.912C172.372 356.556 173.596 354.828 173.824 352.38H170.14V351.12ZM177.136 349.968H178.732V361.02H177.136V349.968ZM190.028 353.88L190.22 355.164C188.528 355.524 186.908 355.644 184.928 355.644H183.968V350.616H185.54V354.336C187.184 354.312 188.576 354.204 190.028 353.88ZM186.728 357.876V359.664H190.964V357.876H186.728ZM185.168 360.9V356.628H192.512V360.9H185.168ZM190.928 349.968H192.512V356.16H190.928V349.968ZM201.955 349.968H203.539V361.056H201.955V349.968ZM197.599 350.748C199.267 350.748 200.503 352.26 200.503 354.684C200.503 357.12 199.267 358.644 197.599 358.644C195.931 358.644 194.695 357.12 194.695 354.684C194.695 352.26 195.931 350.748 197.599 350.748ZM197.599 352.176C196.783 352.176 196.219 353.052 196.219 354.684C196.219 356.328 196.783 357.204 197.599 357.204C198.415 357.204 198.979 356.328 198.979 354.684C198.979 353.052 198.415 352.176 197.599 352.176ZM212.616 356.292V357.648C213.504 357.6 214.392 357.528 215.232 357.396L215.328 358.536C212.952 359.016 210.348 359.04 208.44 359.04L208.248 357.756C209.064 357.756 210.012 357.756 211.032 357.72V356.292H209.028V350.892H214.728V352.14H210.6V352.98H214.512V354.204H210.6V355.032H214.752V356.292H212.616ZM215.832 349.968H217.416V361.056H215.832V349.968ZM225.827 354.996L225.071 356.22C223.859 355.86 223.019 355.128 222.539 354.216C222.047 355.308 221.171 356.184 219.875 356.604L219.083 355.368C220.871 354.768 221.663 353.364 221.687 351.984H219.491V350.712H225.467V351.984H223.307C223.331 353.244 224.087 354.48 225.827 354.996ZM224.327 359.82C225.731 359.82 226.487 359.52 226.487 358.896C226.487 358.26 225.731 357.96 224.327 357.96C222.911 357.96 222.155 358.26 222.155 358.896C222.155 359.52 222.911 359.82 224.327 359.82ZM224.327 356.736C226.619 356.736 228.059 357.54 228.059 358.896C228.059 360.24 226.619 361.032 224.327 361.032C222.023 361.032 220.583 360.24 220.583 358.896C220.583 357.54 222.023 356.736 224.327 356.736ZM227.939 352.524H229.403V353.82H227.939V356.544H226.355V349.98H227.939V352.524ZM233.47 357.48C234.214 357.48 234.754 356.976 234.754 356.124C234.754 355.296 234.214 354.78 233.47 354.78C232.726 354.78 232.174 355.296 232.174 356.136C232.174 356.976 232.726 357.48 233.47 357.48ZM233.47 353.496C235.066 353.496 236.254 354.588 236.254 356.124C236.254 357.684 235.066 358.776 233.47 358.776C231.862 358.776 230.662 357.684 230.662 356.124C230.662 354.588 231.862 353.496 233.47 353.496ZM234.25 350.172V351.612H236.65V352.872H230.218V351.612H232.666V350.172H234.25ZM240.538 354.3V355.608H238.954V361.032H237.37V349.98H238.954V354.3H240.538ZM248.973 356.328V354.396H247.197V353.136H248.973V352.344H247.197V351.084H248.973V349.98H250.557V356.328H248.973ZM247.905 355.044L247.029 356.292C245.889 355.836 245.109 355.008 244.653 353.964C244.173 355.068 243.333 355.956 242.097 356.424L241.245 355.176C243.081 354.516 243.837 352.956 243.837 351.384V350.376H245.433V351.384C245.433 352.896 246.165 354.396 247.905 355.044ZM249.525 356.748V357C249.525 358.176 250.113 359.28 251.589 359.736L250.797 360.876C249.753 360.528 249.093 359.856 248.709 358.992C248.349 359.856 247.713 360.6 246.717 360.996C245.697 360.612 245.061 359.88 244.701 359.016C244.317 359.844 243.657 360.516 242.649 360.876L241.881 359.736C243.333 359.232 243.933 358.104 243.933 357V356.748H245.469V357C245.469 357.912 245.829 358.848 246.705 359.46C247.605 358.812 247.965 357.828 247.965 357V356.748H249.525ZM261.848 353.076L261.284 354.3C259.4 354.072 258.056 353.292 257.348 352.236C256.652 353.292 255.284 354.06 253.4 354.3L252.848 353.076C255.332 352.788 256.532 351.564 256.532 350.436V350.1H258.164V350.436C258.164 351.552 259.364 352.8 261.848 353.076ZM259.52 359.676V358.716H255.092V359.676H259.52ZM259.52 357.528V356.604H261.08V360.9H253.52V356.604H255.092V357.528H259.52ZM252.356 354.804H262.34V356.052H252.356V354.804ZM265.543 351.024V356.952C266.995 356.916 268.567 356.796 270.187 356.472L270.355 357.792C268.471 358.188 266.635 358.308 264.955 358.308H263.971V351.024H265.543ZM271.039 349.968H272.623V361.02H271.039V349.968ZM276.438 352.284V357.084C278.01 357.06 279.318 356.976 280.746 356.736L280.902 358.044C279.234 358.344 277.722 358.404 275.802 358.404H274.866V351H280.014V352.284H276.438ZM284.694 354.06V355.368H283.086V361.056H281.502V349.98H283.086V354.06H284.694ZM286.743 360.111C286.461 360.111 286.22 360.011 286.018 359.812C285.819 359.611 285.72 359.369 285.72 359.088C285.72 358.81 285.819 358.571 286.018 358.372C286.22 358.173 286.461 358.074 286.743 358.074C287.015 358.074 287.254 358.173 287.458 358.372C287.663 358.571 287.765 358.81 287.765 359.088C287.765 359.276 287.717 359.447 287.62 359.604C287.527 359.757 287.403 359.881 287.25 359.974C287.096 360.065 286.927 360.111 286.743 360.111Z" fill="#D8D8D8"/>
<path d="M130.008 454.728L129.48 455.928C127.572 455.712 126.204 454.98 125.508 453.96C124.812 454.98 123.432 455.712 121.524 455.928L121.008 454.728C123.492 454.488 124.692 453.348 124.692 452.268V452.064H126.324V452.268C126.324 453.348 127.524 454.488 130.008 454.728ZM123.24 461.112V461.76H129.576V462.948H121.668V460.032H127.728V459.42H121.656V458.244H129.288V461.112H123.24ZM120.516 456.36H130.5V457.608H120.516V456.36ZM137.675 455.556V453.696H135.407V455.556H137.675ZM133.835 455.556V453.696H132.431V452.448H140.651V453.696H139.247V455.556H140.567V456.804H132.503V455.556H133.835ZM134.351 459.672V461.58H140.423V462.84H132.767V459.672H134.351ZM131.555 457.68H141.539V458.94H131.555V457.68ZM149.427 456.804V455.352H147.255V456.804H149.427ZM150.987 452.688V458.052H145.695V452.688H147.255V454.14H149.427V452.688H150.987ZM146.691 460.356V459.096H154.071V463.044H152.487V460.356H146.691ZM155.535 454.668V455.964H154.071V458.604H152.487V451.98H154.071V454.668H155.535ZM157.287 457.296L156.675 456.036C158.379 455.712 159.147 454.86 159.183 453.984H157.035V452.736H163.059V453.984H160.887C160.923 454.86 161.679 455.628 163.347 455.88L162.735 457.128C161.415 456.9 160.551 456.348 160.059 455.592C159.567 456.42 158.667 457.044 157.287 457.296ZM163.455 457.536L163.551 458.688C162.663 458.844 161.739 458.94 160.839 459.012V462.696H159.255V459.108C158.319 459.144 157.431 459.144 156.639 459.144L156.447 457.86C158.463 457.86 161.139 457.848 163.455 457.536ZM164.079 451.98H165.663V463.02H164.079V451.98ZM176.911 455.88L177.103 457.164C175.411 457.524 173.791 457.644 171.811 457.644H170.851V452.616H172.423V456.336C174.067 456.312 175.459 456.204 176.911 455.88ZM173.611 459.876V461.664H177.847V459.876H173.611ZM172.051 462.9V458.628H179.395V462.9H172.051ZM177.811 451.968H179.395V458.16H177.811V451.968ZM188.838 451.968H190.422V463.056H188.838V451.968ZM184.482 452.748C186.15 452.748 187.386 454.26 187.386 456.684C187.386 459.12 186.15 460.644 184.482 460.644C182.814 460.644 181.578 459.12 181.578 456.684C181.578 454.26 182.814 452.748 184.482 452.748ZM184.482 454.176C183.666 454.176 183.102 455.052 183.102 456.684C183.102 458.328 183.666 459.204 184.482 459.204C185.298 459.204 185.862 458.328 185.862 456.684C185.862 455.052 185.298 454.176 184.482 454.176ZM202.666 451.98H204.262V457.92H202.666V451.98ZM196.918 458.4H198.49V459.432H202.69V458.4H204.262V462.9H196.918V458.4ZM198.49 460.644V461.64H202.69V460.644H198.49ZM198.25 452.436C199.966 452.436 201.25 453.528 201.25 455.04C201.25 456.564 199.966 457.656 198.25 457.656C196.534 457.656 195.238 456.564 195.238 455.04C195.238 453.528 196.534 452.436 198.25 452.436ZM198.25 453.744C197.41 453.744 196.786 454.236 196.786 455.04C196.786 455.868 197.41 456.348 198.25 456.348C199.09 456.348 199.702 455.868 199.702 455.04C199.702 454.236 199.09 453.744 198.25 453.744ZM212.709 456.996L211.953 458.22C210.741 457.86 209.901 457.128 209.421 456.216C208.929 457.308 208.053 458.184 206.757 458.604L205.965 457.368C207.753 456.768 208.545 455.364 208.569 453.984H206.373V452.712H212.349V453.984H210.189C210.213 455.244 210.969 456.48 212.709 456.996ZM211.209 461.82C212.613 461.82 213.369 461.52 213.369 460.896C213.369 460.26 212.613 459.96 211.209 459.96C209.793 459.96 209.037 460.26 209.037 460.896C209.037 461.52 209.793 461.82 211.209 461.82ZM211.209 458.736C213.501 458.736 214.941 459.54 214.941 460.896C214.941 462.24 213.501 463.032 211.209 463.032C208.905 463.032 207.465 462.24 207.465 460.896C207.465 459.54 208.905 458.736 211.209 458.736ZM214.821 454.524H216.285V455.82H214.821V458.544H213.237V451.98H214.821V454.524ZM220.353 459.48C221.097 459.48 221.637 458.976 221.637 458.124C221.637 457.296 221.097 456.78 220.353 456.78C219.609 456.78 219.057 457.296 219.057 458.136C219.057 458.976 219.609 459.48 220.353 459.48ZM220.353 455.496C221.949 455.496 223.137 456.588 223.137 458.124C223.137 459.684 221.949 460.776 220.353 460.776C218.745 460.776 217.545 459.684 217.545 458.124C217.545 456.588 218.745 455.496 220.353 455.496ZM221.133 452.172V453.612H223.533V454.872H217.101V453.612H219.549V452.172H221.133ZM227.421 456.3V457.608H225.837V463.032H224.253V451.98H225.837V456.3H227.421ZM235.856 458.328V456.396H234.08V455.136H235.856V454.344H234.08V453.084H235.856V451.98H237.44V458.328H235.856ZM234.788 457.044L233.912 458.292C232.772 457.836 231.992 457.008 231.536 455.964C231.056 457.068 230.216 457.956 228.98 458.424L228.128 457.176C229.964 456.516 230.72 454.956 230.72 453.384V452.376H232.316V453.384C232.316 454.896 233.048 456.396 234.788 457.044ZM236.408 458.748V459C236.408 460.176 236.996 461.28 238.472 461.736L237.68 462.876C236.636 462.528 235.976 461.856 235.592 460.992C235.232 461.856 234.596 462.6 233.6 462.996C232.58 462.612 231.944 461.88 231.584 461.016C231.2 461.844 230.54 462.516 229.532 462.876L228.764 461.736C230.216 461.232 230.816 460.104 230.816 459V458.748H232.352V459C232.352 459.912 232.712 460.848 233.588 461.46C234.488 460.812 234.848 459.828 234.848 459V458.748H236.408ZM248.731 455.076L248.167 456.3C246.283 456.072 244.939 455.292 244.231 454.236C243.535 455.292 242.167 456.06 240.283 456.3L239.731 455.076C242.215 454.788 243.415 453.564 243.415 452.436V452.1H245.047V452.436C245.047 453.552 246.247 454.8 248.731 455.076ZM246.403 461.676V460.716H241.975V461.676H246.403ZM246.403 459.528V458.604H247.963V462.9H240.403V458.604H241.975V459.528H246.403ZM239.239 456.804H249.223V458.052H239.239V456.804ZM252.426 453.024V458.952C253.878 458.916 255.45 458.796 257.07 458.472L257.238 459.792C255.354 460.188 253.518 460.308 251.838 460.308H250.854V453.024H252.426ZM257.922 451.968H259.506V463.02H257.922V451.968ZM263.321 454.284V459.084C264.893 459.06 266.201 458.976 267.629 458.736L267.785 460.044C266.117 460.344 264.605 460.404 262.685 460.404H261.749V453H266.897V454.284H263.321ZM271.577 456.06V457.368H269.969V463.056H268.385V451.98H269.969V456.06H271.577ZM273.625 462.111C273.344 462.111 273.103 462.011 272.901 461.812C272.702 461.611 272.603 461.369 272.603 461.088C272.603 460.81 272.702 460.571 272.901 460.372C273.103 460.173 273.344 460.074 273.625 460.074C273.898 460.074 274.137 460.173 274.341 460.372C274.546 460.571 274.648 460.81 274.648 461.088C274.648 461.276 274.6 461.447 274.503 461.604C274.409 461.757 274.286 461.881 274.132 461.974C273.979 462.065 273.81 462.111 273.625 462.111Z" fill="#D8D8D8"/>
<g filter="url(#filter0_d_105_1191)">
<path d="M108 157C108 148.716 114.716 142 123 142H356C364.284 142 371 148.716 371 157V201H123C114.716 201 108 194.284 108 186V157Z" fill="#B8EB4F"/>
<path d="M123 142.5H356C364.008 142.5 370.5 148.992 370.5 157V200.5H123C114.992 200.5 108.5 194.008 108.5 186V157C108.5 148.992 114.992 142.5 123 142.5Z" stroke="#7ED287"/>
</g>
<path d="M309.428 125.324V126.56H302.804V125.324H305.312V124.112H306.896V125.324H309.428ZM307.34 129.092C307.34 128.504 306.848 128.192 306.128 128.192C305.396 128.192 304.904 128.504 304.904 129.092C304.904 129.668 305.396 129.98 306.128 129.98C306.848 129.98 307.34 129.668 307.34 129.092ZM303.404 129.092C303.404 127.832 304.532 126.992 306.128 126.992C307.712 126.992 308.84 127.832 308.84 129.092C308.84 130.328 307.712 131.18 306.128 131.18C304.532 131.18 303.404 130.328 303.404 129.092ZM302.768 133.136L302.576 131.852C304.592 131.852 307.256 131.864 309.584 131.552L309.692 132.704C307.244 133.16 304.724 133.148 302.768 133.136ZM310.148 123.98H311.732V135.032H310.148V123.98ZM317.587 128.48V126.02H315.427V128.48H317.587ZM319.147 124.772V129.728H313.879V124.772H319.147ZM318.643 133.808C320.047 133.808 320.803 133.508 320.803 132.86C320.803 132.224 320.047 131.912 318.643 131.912C317.239 131.912 316.471 132.224 316.471 132.86C316.471 133.508 317.239 133.808 318.643 133.808ZM318.643 130.676C320.923 130.676 322.375 131.492 322.375 132.86C322.375 134.24 320.923 135.044 318.643 135.044C316.351 135.044 314.899 134.24 314.899 132.86C314.899 131.492 316.351 130.676 318.643 130.676ZM322.255 126.452H323.719V127.76H322.255V130.388H320.671V123.98H322.255V126.452ZM331.194 129.536L330.438 130.772C329.226 130.412 328.386 129.68 327.882 128.744C327.402 129.764 326.538 130.58 325.29 130.976L324.51 129.728C326.286 129.164 327.054 127.856 327.066 126.536H324.906V125.288H327.066V124.064H328.65V125.288H330.834V126.536H328.65C328.662 127.748 329.418 129.008 331.194 129.536ZM327.75 131.456V133.58H333.69V134.84H326.166V131.456H327.75ZM333.294 127.256H334.758V128.552H333.294V132.188H331.71V123.98H333.294V127.256ZM340.028 126.284V131.084C341.6 131.06 342.908 130.976 344.336 130.736L344.492 132.044C342.824 132.344 341.312 132.404 339.392 132.404H338.456V125H343.604V126.284H340.028ZM348.284 128.06V129.368H346.676V135.056H345.092V123.98H346.676V128.06H348.284ZM355.423 128.552L355.555 129.824C354.019 130.112 352.615 130.16 350.407 130.16H349.459V126.716H352.927V125.792H349.447V124.532H354.487V127.892H351.031V128.888C352.831 128.876 354.043 128.804 355.423 128.552ZM352.123 132.26V133.664H356.215V132.26H352.123ZM350.563 134.9V131.012H357.763V134.9H350.563ZM359.227 126.584V127.88H357.763V130.556H356.179V123.98H357.763V126.584H359.227ZM360.978 129.296L360.366 128.036C362.07 127.712 362.838 126.86 362.874 125.984H360.726V124.736H366.75V125.984H364.578C364.614 126.86 365.37 127.628 367.038 127.88L366.426 129.128C365.106 128.9 364.242 128.348 363.75 127.592C363.258 128.42 362.358 129.044 360.978 129.296ZM367.146 129.536L367.242 130.688C366.354 130.844 365.43 130.94 364.53 131.012V134.696H362.946V131.108C362.01 131.144 361.122 131.144 360.33 131.144L360.138 129.86C362.154 129.86 364.83 129.848 367.146 129.536ZM367.77 123.98H369.354V135.02H367.77V123.98Z" fill="#7FD287"/>
<path d="M127.104 161.944H127.088C126.944 162.296 126.656 162.648 126.144 163.208C125.488 163.928 124.688 164.744 123.616 165.736L122.576 164.664C123.536 163.8 124.32 163.016 125.04 162.216C126.096 161.048 126.272 160.44 126.272 159.256V157.208H123.104V155.832H130.928V157.208H127.872V159.256C127.872 160.52 128.048 161 129.184 162.232C129.872 162.984 130.544 163.608 131.488 164.44L130.448 165.512C129.36 164.52 128.688 163.848 128.08 163.192C127.632 162.712 127.232 162.264 127.104 161.944ZM134.848 169.24H133.264V160.808H130.272V159.416H133.264V154.488H134.848V169.24ZM148.595 155.816V157.192H143.395V163.976H144.243C146.323 163.976 148.115 163.832 149.907 163.56L150.115 164.888C148.211 165.224 146.307 165.352 143.907 165.352H141.811V155.816H148.595ZM154.899 159.816V161.192H152.627V169.24H151.043V154.488H152.627V159.816H154.899ZM167.237 164.152V169.224H157.573V164.152H167.237ZM165.669 167.896V165.48H159.141V167.896H165.669ZM155.637 161.48H169.173V162.824H155.637V161.48ZM162.405 154.696C165.205 154.696 167.141 155.704 167.141 157.384V157.832C167.141 159.512 165.205 160.52 162.405 160.52C159.605 160.52 157.669 159.512 157.669 157.832V157.384C157.669 155.704 159.605 154.696 162.405 154.696ZM162.405 159.208C164.261 159.208 165.589 158.632 165.589 157.768V157.448C165.589 156.584 164.261 156.008 162.405 156.008C160.549 156.008 159.221 156.584 159.221 157.448V157.768C159.221 158.632 160.549 159.208 162.405 159.208ZM177.528 166.856V166.216C177.528 164.664 179.224 163.416 182.056 163.416C184.888 163.416 186.584 164.664 186.584 166.216V166.856C186.584 168.408 184.888 169.656 182.056 169.656C179.224 169.656 177.528 168.408 177.528 166.856ZM178.968 159.944H178.952C178.856 160.216 178.391 160.76 177.88 161.192C177.192 161.784 176.328 162.472 175.432 163.096L174.504 161.96C175.528 161.24 176.472 160.52 177.048 159.96C177.832 159.192 178.104 158.584 178.104 157.416V156.76H175V155.4H182.616V156.76H179.704V157.352C179.704 158.376 179.832 158.92 180.536 159.56C181.288 160.248 182.12 160.856 183.064 161.48L182.168 162.632C181.336 162.056 180.648 161.528 179.88 160.888C179.4 160.488 179.08 160.184 178.968 159.944ZM185.032 166.76V166.312C185.032 165.528 183.88 164.712 182.056 164.712C180.232 164.712 179.08 165.528 179.08 166.312V166.76C179.08 167.544 180.232 168.36 182.056 168.36C183.88 168.36 185.032 167.544 185.032 166.76ZM186.52 163.208H184.952V159.464H182.232V158.104H184.952V154.488H186.52V163.208ZM201.034 169.24H199.45V161.032H195.898C195.418 162.44 194.026 163.624 190.09 166.008L189.258 164.744C194.362 161.752 194.602 160.92 194.602 158.648V157.224H189.53V155.864H196.17V158.664C196.17 159.016 196.154 159.336 196.138 159.64H199.45V154.488H201.034V169.24ZM206.141 166.84V166.2C206.141 164.648 207.805 163.384 210.589 163.384C213.373 163.384 215.037 164.648 215.037 166.2V166.84C215.037 168.392 213.373 169.656 210.589 169.656C207.805 169.656 206.141 168.392 206.141 166.84ZM207.901 159.848H207.885C207.789 160.12 207.325 160.664 206.812 161.096C206.125 161.688 205.261 162.376 204.365 163L203.437 161.864C204.461 161.144 205.405 160.424 205.981 159.864C206.765 159.096 207.036 158.488 207.036 157.32V156.76H203.933V155.4H211.565V156.76H208.637V157.256C208.637 158.28 208.765 158.824 209.469 159.464C210.221 160.152 211.053 160.76 211.997 161.384L211.101 162.536C210.269 161.96 209.581 161.432 208.813 160.792C208.333 160.392 208.013 160.088 207.901 159.848ZM213.485 166.744V166.296C213.485 165.512 212.365 164.68 210.589 164.68C208.813 164.68 207.693 165.512 207.693 166.296V166.744C207.693 167.528 208.813 168.36 210.589 168.36C212.365 168.36 213.485 167.528 213.485 166.744ZM214.973 163.192H213.405V154.488H214.973V158.056H217.069V159.432H214.973V163.192ZM221.487 155.592C223.615 155.592 224.735 157.016 224.735 159.832V159.88H226.255V154.792H227.807V168.52H226.255V161.256H224.735V161.4C224.735 164.216 223.615 165.64 221.487 165.64C219.359 165.64 218.239 164.216 218.239 161.4V159.832C218.239 157.016 219.359 155.592 221.487 155.592ZM230.735 154.488V169.24H229.183V154.488H230.735ZM221.487 164.248C222.671 164.248 223.231 163.384 223.231 161.224V160.008C223.231 157.848 222.671 157 221.487 157C220.303 157 219.743 157.848 219.743 160.008V161.224C219.743 163.384 220.303 164.248 221.487 164.248ZM244.786 169.24H243.202V160.44H240.066V159.048H243.202V154.488H244.786V169.24ZM236.914 161.832H236.898C236.754 162.184 236.482 162.504 235.97 163.064C235.314 163.784 234.466 164.632 233.378 165.624L232.338 164.552C233.314 163.688 234.146 162.872 234.866 162.072C235.842 160.968 236.098 160.248 236.098 159.112V155.56H237.698V159.112C237.698 160.376 238.002 161.032 238.978 162.12C239.666 162.872 240.37 163.544 241.33 164.392L240.306 165.48C239.202 164.456 238.482 163.736 237.874 163.08C237.426 162.6 237.042 162.152 236.914 161.832ZM263.78 154.488V169.24H262.228V160.664H260.356V168.52H258.804V154.792H260.356V159.288H262.228V154.488H263.78ZM251.7 155.88H253.284V163.8H253.924C255.14 163.8 256.372 163.736 257.7 163.512L257.876 164.888C256.58 165.128 255.06 165.192 253.236 165.192H251.7V155.88ZM277.783 169.24H276.199V154.488H277.783V169.24ZM273.239 161.176H268.215V164.312H269.719C271.847 164.312 273.127 164.232 274.791 163.992L274.935 165.32C273.447 165.544 271.991 165.672 269.335 165.672H266.647V159.848H271.671V157.016H266.599V155.656H273.239V161.176ZM280.137 161.944H293.673V163.288H280.137V161.944ZM283.673 164.632V167.704H292.009V169.08H282.089V164.632H283.673ZM282.185 155.064H283.753V158.904H291.737V160.248H282.185V155.064ZM300.988 155.896V157.272H296.908V163.912H297.724C299.164 163.912 300.364 163.848 301.868 163.608L302.028 164.936C300.364 165.208 299.052 165.288 297.404 165.288H295.308V155.896H300.988ZM303.02 159.624V154.792H304.572V168.52H303.02V161H300.076V159.624H303.02ZM307.564 154.488V169.24H306.012V154.488H307.564ZM320.99 158.072V158.76C320.99 160.024 319.854 161.896 317.326 161.896C314.798 161.896 313.662 160.024 313.662 158.76V158.072C313.662 156.808 314.798 154.936 317.326 154.936C319.854 154.936 320.99 156.808 320.99 158.072ZM319.806 163.208H325.854V164.472H323.63V164.744C323.63 165.608 323.806 165.96 324.43 166.616C324.958 167.16 325.71 167.736 326.382 168.28L325.39 169.336C324.83 168.84 324.222 168.28 323.806 167.88C323.246 167.336 322.942 167 322.862 166.792H322.846C322.766 167 322.478 167.368 321.902 167.896C321.47 168.296 320.894 168.824 320.302 169.32L319.358 168.28C320.222 167.592 320.894 167.016 321.31 166.568C321.87 165.976 322.062 165.608 322.062 164.744V164.472H319.806V163.208ZM327.006 157.672V159.048H324.91V162.248H323.342V154.488H324.91V157.672H327.006ZM319.47 158.68V158.152C319.47 157.32 318.718 156.312 317.326 156.312C315.934 156.312 315.182 157.32 315.182 158.152V158.68C315.182 159.512 315.934 160.52 317.326 160.52C318.718 160.52 319.47 159.512 319.47 158.68ZM316.654 163.368V167.72H316.75C317.55 167.72 318.238 167.688 319.134 167.576L319.294 168.904C318.286 169.032 317.454 169.08 316.558 169.08H315.102V163.368H316.654ZM327.825 165.928H341.361V167.272H327.825V165.928ZM334.593 163.336C331.889 163.336 329.633 161.96 329.633 159.72V158.952C329.633 156.728 331.889 155.32 334.593 155.32C337.297 155.32 339.553 156.728 339.553 158.952V159.72C339.553 161.96 337.297 163.336 334.593 163.336ZM334.593 156.696C332.753 156.696 331.185 157.608 331.185 159.032V159.64C331.185 161.064 332.753 161.976 334.593 161.976C336.433 161.976 338.001 161.064 338.001 159.64V159.032C338.001 157.608 336.433 156.696 334.593 156.696ZM354.563 161.832H352.995V154.488H354.563V161.832ZM354.979 169.336H345.427V165.304H353.011V163.88H345.347V162.568H354.563V166.584H346.979V168.024H354.979V169.336ZM347.011 158.904H346.995C346.931 159.16 346.515 159.624 345.923 160.152C345.251 160.744 344.259 161.544 343.379 162.168L342.467 161.048C343.491 160.28 344.531 159.464 345.107 158.936C345.891 158.2 346.147 157.608 346.147 156.472V154.856H347.747V156.408C347.747 157.4 347.859 157.912 348.579 158.568C349.331 159.24 350.275 159.912 351.187 160.52L350.275 161.672C349.459 161.08 348.675 160.52 347.923 159.88C347.507 159.528 347.091 159.128 347.011 158.904ZM134.096 172.872V178.744H124.448V172.888H126.016V174.616H132.528V172.872H134.096ZM130.272 184.136H128.672V181.4H122.512V180.056H136.048V181.4H130.272V184.136ZM126.048 182.888V185.704H134.384V187.08H124.464V182.888H126.048ZM126.016 175.896V177.416H132.528V175.896H126.016ZM141.587 184.088L145.891 179.416C147.203 177.976 147.331 177.336 147.331 176.728V176.6C147.331 175.688 146.547 175.128 145.347 175.128C144.499 175.128 143.587 175.464 142.835 176.808L141.618 176.024C142.163 175.032 143.187 173.704 145.315 173.704C147.651 173.704 148.915 174.92 148.915 176.6V176.76C148.915 178.008 148.179 179.096 147.139 180.2L143.539 184.04H149.331V185.416H141.587V184.088ZM158.408 183.928H164.376V185.272H150.84V183.928H156.808V182.152C154.504 181.96 153.112 180.888 153.112 179.48V178.968C153.112 177.4 154.84 176.264 157.608 176.264C160.376 176.264 162.104 177.4 162.104 178.968V179.48C162.104 180.888 160.696 181.96 158.408 182.152V183.928ZM158.424 172.344V174.184H163.112V175.512H152.104V174.184H156.792V172.344H158.424ZM154.664 179.048V179.4C154.664 180.104 155.592 180.904 157.608 180.904C159.624 180.904 160.552 180.104 160.552 179.4V179.048C160.552 178.344 159.624 177.544 157.608 177.544C155.592 177.544 154.664 178.344 154.664 179.048ZM169.851 180.184H169.835C169.691 180.536 169.403 180.888 168.891 181.448C168.235 182.168 167.435 182.984 166.363 183.976L165.323 182.904C166.283 182.04 167.067 181.256 167.787 180.456C168.843 179.288 169.019 178.68 169.019 177.496V176.008H165.723V174.632H169.019V172.552H170.619V174.632H173.787V176.008H170.619V177.496C170.619 178.76 170.795 179.24 171.931 180.472C172.619 181.224 173.291 181.848 174.235 182.68L173.195 183.752C172.107 182.76 171.435 182.088 170.827 181.432C170.379 180.952 169.979 180.504 169.851 180.184ZM179.211 177.976V179.352H176.939V187.24H175.355V172.488H176.939V177.976H179.211ZM185.949 181.528H181.869V176.904H189.965V175H181.805V173.656H191.533V178.248H183.437V180.184H191.885V181.528H187.517V183.928H193.501V185.272H179.965V183.928H185.949V181.528ZM206.08 183.928H212.064V185.272H198.528V183.928H204.496V181.24C202.16 181 200.336 179.688 200.336 177.672V176.904C200.336 174.68 202.592 173.288 205.296 173.288C208 173.288 210.256 174.68 210.256 176.904V177.672C210.256 179.688 208.416 181 206.08 181.24V183.928ZM205.296 174.664C203.456 174.664 201.888 175.56 201.888 176.984V177.592C201.888 179.016 203.456 179.912 205.296 179.912C207.136 179.912 208.704 179.016 208.704 177.592V176.984C208.704 175.56 207.136 174.664 205.296 174.664ZM221.458 177.256V172.792H223.01V186.52H221.458V178.632H219.09V177.256H221.458ZM216.786 179.944H216.77C216.674 180.264 216.402 180.632 216.082 181.016C215.442 181.784 214.61 182.68 213.746 183.544L212.674 182.472C213.634 181.544 214.546 180.584 215.234 179.688C215.89 178.84 215.986 178.056 215.986 176.888V173.688H217.522V176.888C217.522 178.024 217.602 178.744 218.274 179.608C218.962 180.504 219.794 181.384 220.738 182.312L219.65 183.352C218.802 182.504 218.098 181.768 217.458 181C217.138 180.616 216.898 180.264 216.786 179.944ZM225.938 172.488V187.24H224.386V172.488H225.938ZM237.813 183.928H241.189V185.272H227.653V183.928H231.029V180.36C230.069 179.736 229.461 178.824 229.461 177.656V176.888C229.461 174.664 231.717 173.288 234.421 173.288C237.125 173.288 239.381 174.664 239.381 176.888V177.656C239.381 178.824 238.773 179.736 237.813 180.36V183.928ZM234.421 174.664C232.581 174.664 231.013 175.544 231.013 176.968V177.576C231.013 179 232.581 179.88 234.421 179.88C236.261 179.88 237.829 179 237.829 177.576V176.968C237.829 175.544 236.261 174.664 234.421 174.664ZM234.421 181.24C233.781 181.24 233.157 181.16 232.597 181.016V183.928H236.245V181.016C235.669 181.16 235.061 181.24 234.421 181.24ZM243.191 186.072V184.232H245.015V186.072H243.191ZM244.775 182.584H243.431L243.207 173.256H244.999L244.775 182.584Z" fill="black"/>
<g filter="url(#filter1_d_105_1191)">
<path d="M108 513C108 504.716 114.716 498 123 498H356C364.284 498 371 504.716 371 513V557H123C114.716 557 108 550.284 108 542V513Z" fill="#B8EB4F"/>
<path d="M123 498.5H356C364.008 498.5 370.5 504.992 370.5 513V556.5H123C114.992 556.5 108.5 550.008 108.5 542V513C108.5 504.992 114.992 498.5 123 498.5Z" stroke="#7ED287"/>
</g>
<path d="M309.428 481.324V482.56H302.804V481.324H305.312V480.112H306.896V481.324H309.428ZM307.34 485.092C307.34 484.504 306.848 484.192 306.128 484.192C305.396 484.192 304.904 484.504 304.904 485.092C304.904 485.668 305.396 485.98 306.128 485.98C306.848 485.98 307.34 485.668 307.34 485.092ZM303.404 485.092C303.404 483.832 304.532 482.992 306.128 482.992C307.712 482.992 308.84 483.832 308.84 485.092C308.84 486.328 307.712 487.18 306.128 487.18C304.532 487.18 303.404 486.328 303.404 485.092ZM302.768 489.136L302.576 487.852C304.592 487.852 307.256 487.864 309.584 487.552L309.692 488.704C307.244 489.16 304.724 489.148 302.768 489.136ZM310.148 479.98H311.732V491.032H310.148V479.98ZM317.587 484.48V482.02H315.427V484.48H317.587ZM319.147 480.772V485.728H313.879V480.772H319.147ZM318.643 489.808C320.047 489.808 320.803 489.508 320.803 488.86C320.803 488.224 320.047 487.912 318.643 487.912C317.239 487.912 316.471 488.224 316.471 488.86C316.471 489.508 317.239 489.808 318.643 489.808ZM318.643 486.676C320.923 486.676 322.375 487.492 322.375 488.86C322.375 490.24 320.923 491.044 318.643 491.044C316.351 491.044 314.899 490.24 314.899 488.86C314.899 487.492 316.351 486.676 318.643 486.676ZM322.255 482.452H323.719V483.76H322.255V486.388H320.671V479.98H322.255V482.452ZM331.194 485.536L330.438 486.772C329.226 486.412 328.386 485.68 327.882 484.744C327.402 485.764 326.538 486.58 325.29 486.976L324.51 485.728C326.286 485.164 327.054 483.856 327.066 482.536H324.906V481.288H327.066V480.064H328.65V481.288H330.834V482.536H328.65C328.662 483.748 329.418 485.008 331.194 485.536ZM327.75 487.456V489.58H333.69V490.84H326.166V487.456H327.75ZM333.294 483.256H334.758V484.552H333.294V488.188H331.71V479.98H333.294V483.256ZM340.028 482.284V487.084C341.6 487.06 342.908 486.976 344.336 486.736L344.492 488.044C342.824 488.344 341.312 488.404 339.392 488.404H338.456V481H343.604V482.284H340.028ZM348.284 484.06V485.368H346.676V491.056H345.092V479.98H346.676V484.06H348.284ZM355.423 484.552L355.555 485.824C354.019 486.112 352.615 486.16 350.407 486.16H349.459V482.716H352.927V481.792H349.447V480.532H354.487V483.892H351.031V484.888C352.831 484.876 354.043 484.804 355.423 484.552ZM352.123 488.26V489.664H356.215V488.26H352.123ZM350.563 490.9V487.012H357.763V490.9H350.563ZM359.227 482.584V483.88H357.763V486.556H356.179V479.98H357.763V482.584H359.227ZM360.978 485.296L360.366 484.036C362.07 483.712 362.838 482.86 362.874 481.984H360.726V480.736H366.75V481.984H364.578C364.614 482.86 365.37 483.628 367.038 483.88L366.426 485.128C365.106 484.9 364.242 484.348 363.75 483.592C363.258 484.42 362.358 485.044 360.978 485.296ZM367.146 485.536L367.242 486.688C366.354 486.844 365.43 486.94 364.53 487.012V490.696H362.946V487.108C362.01 487.144 361.122 487.144 360.33 487.144L360.138 485.86C362.154 485.86 364.83 485.848 367.146 485.536ZM367.77 479.98H369.354V491.02H367.77V479.98Z" fill="#7FD287"/>
<path d="M130.08 525.24H128.48V520.072H122.512V518.728H136.048V520.072H130.08V525.24ZM124.4 510.984H125.984V515.512H134.272V516.872H124.4V510.984ZM148.115 518.04H150.611V519.384H144.642V525.24H143.043V519.384H137.075V518.04H146.515C146.851 516.472 146.979 515.08 146.979 513.656V512.792H138.771V511.4H148.563V513.288C148.563 514.824 148.419 516.44 148.115 518.04ZM151.637 518.072H165.173V519.416H151.637V518.072ZM155.173 520.712V523.704H163.509V525.08H153.589V520.712H155.173ZM153.637 511.112H163.093V512.456H155.205V515.16H163.189V516.504H153.637V511.112ZM182.52 521.016H180.952V515.528H177.848V518.472H171.112V511.384H177.848V514.168H180.952V510.488H182.52V521.016ZM174.888 520.184V523.704H182.824V525.08H173.304V520.184H174.888ZM172.664 512.728V517.128H176.296V512.728H172.664ZM189.354 517.944H189.338C189.194 518.296 188.906 518.648 188.394 519.208C187.738 519.928 186.938 520.744 185.866 521.736L184.826 520.664C185.786 519.8 186.57 519.016 187.29 518.216C188.346 517.048 188.522 516.44 188.522 515.256V513.208H185.354V511.832H193.178V513.208H190.122V515.256C190.122 516.52 190.298 517 191.434 518.232C192.122 518.984 192.794 519.608 193.738 520.44L192.698 521.512C191.61 520.52 190.938 519.848 190.33 519.192C189.882 518.712 189.482 518.264 189.354 517.944ZM197.098 525.24H195.514V516.808H192.522V515.416H195.514V510.488H197.098V525.24ZM210.877 521.928H216.861V523.272H203.325V521.928H209.293V519.24C206.957 519 205.133 517.688 205.133 515.672V514.904C205.133 512.68 207.389 511.288 210.093 511.288C212.797 511.288 215.053 512.68 215.053 514.904V515.672C215.053 517.688 213.213 519 210.877 519.24V521.928ZM210.093 512.664C208.253 512.664 206.685 513.56 206.685 514.984V515.592C206.685 517.016 208.253 517.912 210.093 517.912C211.933 517.912 213.501 517.016 213.501 515.592V514.984C213.501 513.56 211.933 512.664 210.093 512.664ZM230.111 525.24H228.527V510.488H230.111V525.24ZM222.527 517.864H222.511C222.367 518.216 222.095 518.536 221.583 519.096C220.927 519.816 220.079 520.664 218.991 521.656L217.951 520.584C218.927 519.72 219.759 518.904 220.479 518.104C221.455 517 221.711 516.28 221.711 515.144V511.544H223.311V515.144C223.311 516.408 223.615 517.064 224.591 518.152C225.279 518.904 225.983 519.576 226.943 520.424L225.919 521.512C224.815 520.488 224.095 519.768 223.487 519.112C223.039 518.632 222.655 518.184 222.527 517.864ZM232.45 517.944H245.986V519.288H232.45V517.944ZM235.986 520.632V523.704H244.322V525.08H234.402V520.632H235.986ZM234.498 511.064H236.066V514.904H244.05V516.248H234.498V511.064ZM262.596 510.872V516.744H252.948V510.888H254.516V512.616H261.028V510.872H262.596ZM258.772 522.136H257.172V519.4H251.012V518.056H264.548V519.4H258.772V522.136ZM254.548 520.888V523.704H262.884V525.08H252.964V520.888H254.548ZM254.516 513.896V515.416H261.028V513.896H254.516ZM277.799 525.24H276.215V510.488H277.799V525.24ZM270.039 511.48C272.199 511.48 273.767 512.952 273.767 515.768V517.432C273.767 520.248 272.199 521.704 270.039 521.704C267.879 521.704 266.311 520.248 266.311 517.432V515.768C266.311 512.936 267.879 511.48 270.039 511.48ZM270.039 520.28C271.191 520.28 272.247 519.464 272.247 517.208V515.992C272.247 513.736 271.175 512.92 270.039 512.92C268.887 512.92 267.831 513.736 267.831 515.992V517.208C267.831 519.464 268.887 520.28 270.039 520.28ZM291.865 514.072V514.76C291.865 516.024 290.729 517.896 288.201 517.896C285.673 517.896 284.537 516.024 284.537 514.76V514.072C284.537 512.808 285.673 510.936 288.201 510.936C290.729 510.936 291.865 512.808 291.865 514.072ZM290.681 519.208H296.729V520.472H294.505V520.744C294.505 521.608 294.681 521.96 295.305 522.616C295.833 523.16 296.585 523.736 297.257 524.28L296.265 525.336C295.705 524.84 295.097 524.28 294.681 523.88C294.121 523.336 293.817 523 293.737 522.792H293.721C293.641 523 293.353 523.368 292.777 523.896C292.345 524.296 291.769 524.824 291.177 525.32L290.233 524.28C291.097 523.592 291.769 523.016 292.185 522.568C292.745 521.976 292.937 521.608 292.937 520.744V520.472H290.681V519.208ZM297.881 513.672V515.048H295.785V518.248H294.217V510.488H295.785V513.672H297.881ZM290.345 514.68V514.152C290.345 513.32 289.593 512.312 288.201 512.312C286.809 512.312 286.057 513.32 286.057 514.152V514.68C286.057 515.512 286.809 516.52 288.201 516.52C289.593 516.52 290.345 515.512 290.345 514.68ZM287.529 519.368V523.72H287.625C288.425 523.72 289.113 523.688 290.009 523.576L290.169 524.904C289.161 525.032 288.329 525.08 287.433 525.08H285.977V519.368H287.529ZM298.7 521.928H312.236V523.272H298.7V521.928ZM305.468 519.336C302.764 519.336 300.508 517.96 300.508 515.72V514.952C300.508 512.728 302.764 511.32 305.468 511.32C308.172 511.32 310.428 512.728 310.428 514.952V515.72C310.428 517.96 308.172 519.336 305.468 519.336ZM305.468 512.696C303.628 512.696 302.06 513.608 302.06 515.032V515.64C302.06 517.064 303.628 517.976 305.468 517.976C307.308 517.976 308.876 517.064 308.876 515.64V515.032C308.876 513.608 307.308 512.696 305.468 512.696ZM321.63 515.256V510.792H323.182V524.52H321.63V516.632H319.262V515.256H321.63ZM316.958 517.944H316.942C316.846 518.264 316.574 518.632 316.254 519.016C315.614 519.784 314.782 520.68 313.918 521.544L312.846 520.472C313.806 519.544 314.718 518.584 315.406 517.688C316.062 516.84 316.158 516.056 316.158 514.888V511.688H317.694V514.888C317.694 516.024 317.774 516.744 318.446 517.608C319.134 518.504 319.966 519.384 320.91 520.312L319.822 521.352C318.974 520.504 318.27 519.768 317.63 519C317.31 518.616 317.07 518.264 316.958 517.944ZM326.11 510.488V525.24H324.558V510.488H326.11ZM337.985 521.928H341.361V523.272H327.825V521.928H331.201V518.36C330.241 517.736 329.633 516.824 329.633 515.656V514.888C329.633 512.664 331.889 511.288 334.593 511.288C337.297 511.288 339.553 512.664 339.553 514.888V515.656C339.553 516.824 338.945 517.736 337.985 518.36V521.928ZM334.593 512.664C332.753 512.664 331.185 513.544 331.185 514.968V515.576C331.185 517 332.753 517.88 334.593 517.88C336.433 517.88 338.001 517 338.001 515.576V514.968C338.001 513.544 336.433 512.664 334.593 512.664ZM334.593 519.24C333.953 519.24 333.329 519.16 332.769 519.016V521.928H336.417V519.016C335.841 519.16 335.233 519.24 334.593 519.24ZM353.859 514.104V522.216H352.339V519.048L344.355 519.16L344.307 517.816L352.339 517.72V515.464H344.531V514.104H353.859ZM133.984 532.104V540.216H132.464V537.048L124.48 537.16L124.432 535.816L132.464 535.72V533.464H124.656V532.104H133.984ZM148.547 532.104V540.216H147.027V537.048L139.043 537.16L138.995 535.816L147.027 535.72V533.464H139.219V532.104H148.547ZM163.109 532.104V540.216H161.589V537.048L153.605 537.16L153.557 535.816L161.589 535.72V533.464H153.781V532.104H163.109ZM177.672 532.104V540.216H176.152V537.048L168.168 537.16L168.12 535.816L176.152 535.72V533.464H168.344V532.104H177.672ZM192.234 532.104V540.216H190.714V537.048L182.73 537.16L182.682 535.816L190.714 535.72V533.464H182.906V532.104H192.234ZM206.797 532.104V540.216H205.277V537.048L197.293 537.16L197.245 535.816L205.277 535.72V533.464H197.469V532.104H206.797ZM221.359 532.104V540.216H219.839V537.048L211.855 537.16L211.807 535.816L219.839 535.72V533.464H212.031V532.104H221.359ZM235.922 532.104V540.216H234.402V537.048L226.418 537.16L226.37 535.816L234.402 535.72V533.464H226.594V532.104H235.922Z" fill="black"/>
<g filter="url(#filter2_d_105_1191)">
<path d="M23 264H128C136.284 264 143 270.716 143 279V291C143 299.284 136.284 306 128 306H38C29.7157 306 23 299.284 23 291V264Z" fill="white"/>
<path d="M23.5 264.5H128C136.008 264.5 142.5 270.992 142.5 279V291C142.5 299.008 136.008 305.5 128 305.5H38C29.9919 305.5 23.5 299.008 23.5 291V264.5Z" stroke="#7ED287"/>
</g>
<path d="M31.088 247.968H32.672V259.056H31.088V247.968ZM26.732 248.748C28.4 248.748 29.636 250.26 29.636 252.684C29.636 255.12 28.4 256.644 26.732 256.644C25.064 256.644 23.828 255.12 23.828 252.684C23.828 250.26 25.064 248.748 26.732 248.748ZM26.732 250.176C25.916 250.176 25.352 251.052 25.352 252.684C25.352 254.328 25.916 255.204 26.732 255.204C27.548 255.204 28.112 254.328 28.112 252.684C28.112 251.052 27.548 250.176 26.732 250.176ZM38.8271 250.344V250.956C38.8271 252.756 39.7151 254.664 41.5631 255.432L40.6991 256.68C39.4151 256.128 38.5391 255.048 38.0471 253.716C37.5551 255.156 36.6671 256.368 35.3711 256.956L34.4711 255.696C36.3191 254.868 37.2191 252.84 37.2191 250.956V250.344H34.9151V249.036H41.1071V250.344H38.8271ZM42.1271 247.98H43.7111V259.032H42.1271V247.98ZM52.2541 253.02L51.4861 254.256C50.2741 253.86 49.4461 253.068 48.9781 252.084C48.4861 253.164 47.6221 254.052 46.3381 254.472L45.5341 253.224C47.3101 252.624 48.1141 251.22 48.1381 249.852H45.9661V248.592H51.9061V249.852H49.7581C49.7821 251.112 50.5501 252.444 52.2541 253.02ZM47.2981 256.308V255.048H54.8341V259.044H53.2501V256.308H47.2981ZM53.2501 247.992H54.8341V254.556H53.2501V251.892H51.6181V250.62H53.2501V247.992ZM65.8132 247.992V255.924H64.2172V247.992H65.8132ZM58.3372 251.496C58.3372 252.384 58.9852 252.924 59.8012 252.924C60.6292 252.924 61.2532 252.384 61.2532 251.496C61.2532 250.584 60.6292 250.056 59.8012 250.056C58.9852 250.056 58.3372 250.584 58.3372 251.496ZM62.8012 251.496C62.8012 253.104 61.4932 254.292 59.8012 254.292C58.1092 254.292 56.7892 253.104 56.7892 251.496C56.7892 249.864 58.1092 248.688 59.8012 248.688C61.4932 248.688 62.8012 249.864 62.8012 251.496ZM60.0412 257.58H66.0892V258.84H58.4572V255.144H60.0412V257.58ZM79.6149 249.36V250.62H70.4949V249.36H74.2509V248.088H75.8349V249.36H79.6149ZM72.9189 253.248C72.9189 253.884 73.6629 254.172 75.0309 254.172C76.4229 254.172 77.1669 253.884 77.1669 253.248C77.1669 252.624 76.4229 252.312 75.0309 252.312C73.6629 252.312 72.9189 252.624 72.9189 253.248ZM75.8349 256.644H80.0829V257.928H70.0629V256.644H74.2509V255.372C72.4149 255.204 71.2869 254.436 71.2869 253.248C71.2869 251.892 72.7389 251.088 75.0309 251.088C77.3469 251.088 78.7869 251.892 78.7869 253.248C78.7869 254.436 77.6709 255.192 75.8349 255.372V256.644ZM81.4979 250.776H84.9659V249.9H81.4859V248.628H86.5259V251.952H83.0699V252.912C84.8699 252.9 86.0819 252.828 87.4619 252.576L87.5939 253.848C86.0579 254.136 84.6539 254.184 82.4459 254.184H81.4979V250.776ZM86.1659 257.832C87.6059 257.832 88.3499 257.556 88.3499 256.944C88.3499 256.332 87.6059 256.056 86.1659 256.056C84.7259 256.056 83.9819 256.332 83.9819 256.944C83.9819 257.556 84.7259 257.832 86.1659 257.832ZM86.1659 254.844C88.4699 254.844 89.9099 255.612 89.9099 256.944C89.9099 258.264 88.4699 259.044 86.1659 259.044C83.8619 259.044 82.4219 258.264 82.4219 256.944C82.4219 255.612 83.8619 254.844 86.1659 254.844ZM89.8019 250.56H91.2659V251.856H89.8019V254.616H88.2179V247.992H89.8019V250.56ZM99.713 247.968H101.297V259.056H99.713V247.968ZM95.357 248.748C97.025 248.748 98.261 250.26 98.261 252.684C98.261 255.12 97.025 256.644 95.357 256.644C93.689 256.644 92.453 255.12 92.453 252.684C92.453 250.26 93.689 248.748 95.357 248.748ZM95.357 250.176C94.541 250.176 93.977 251.052 93.977 252.684C93.977 254.328 94.541 255.204 95.357 255.204C96.173 255.204 96.737 254.328 96.737 252.684C96.737 251.052 96.173 250.176 95.357 250.176Z" fill="#7FD287"/>
<path d="M38.376 281.536C38.376 283.184 40.056 284.256 42.344 284.256C44.632 284.256 46.296 283.184 46.296 281.536C46.296 279.888 44.632 278.816 42.344 278.816C40.056 278.816 38.376 279.888 38.376 281.536ZM43 288.256H48.872V289.344H35.832V288.256H41.672V285.264C39 285.072 37.112 283.648 37.112 281.536C37.112 279.248 39.304 277.776 42.344 277.776C45.368 277.776 47.544 279.248 47.544 281.536C47.544 283.648 45.672 285.072 43 285.264V288.256ZM59.7611 279.376V281.04C59.7611 283.424 61.4411 286.032 63.5211 287.024L62.7371 288.048C61.1371 287.232 59.7611 285.52 59.1051 283.536C58.4811 285.648 57.0891 287.488 55.4571 288.352L54.6891 287.312C56.7371 286.304 58.4491 283.584 58.4491 281.04V279.376H55.2011V278.304H63.0251V279.376H59.7611ZM65.3131 276.832H66.6251V291.2H65.3131V283.12H62.2091V282.048H65.3131V276.832ZM74.0159 284.88V288.256H78.0159V284.88C77.4079 285.024 76.7199 285.104 75.9999 285.104C75.2959 285.104 74.6079 285.024 74.0159 284.88ZM75.9999 278.768C73.6959 278.768 72.0479 279.824 72.0479 281.424C72.0479 283.024 73.6959 284.08 75.9999 284.08C78.3039 284.08 79.9679 283.024 79.9679 281.424C79.9679 279.824 78.3039 278.768 75.9999 278.768ZM79.3279 288.256H82.5439V289.344H69.5039V288.256H72.7039V284.384C71.5039 283.76 70.7839 282.72 70.7839 281.424C70.7839 279.184 72.9599 277.744 75.9999 277.744C79.0559 277.744 81.2159 279.184 81.2159 281.424C81.2159 282.72 80.5119 283.744 79.3279 284.368V288.256ZM89.1986 279.376V281.04C89.1986 283.424 90.8786 286.032 92.9586 287.024L92.1746 288.048C90.5746 287.232 89.1986 285.52 88.5426 283.536C87.9186 285.648 86.5266 287.488 84.8946 288.352L84.1266 287.312C86.1746 286.304 87.8866 283.584 87.8866 281.04V279.376H84.6386V278.304H92.4626V279.376H89.1986ZM94.7506 276.832H96.0626V291.2H94.7506V283.12H91.6466V282.048H94.7506V276.832ZM103.453 284.88V288.256H107.453V284.88C106.845 285.024 106.157 285.104 105.437 285.104C104.733 285.104 104.045 285.024 103.453 284.88ZM105.437 278.768C103.133 278.768 101.485 279.824 101.485 281.424C101.485 283.024 103.133 284.08 105.437 284.08C107.741 284.08 109.405 283.024 109.405 281.424C109.405 279.824 107.741 278.768 105.437 278.768ZM108.765 288.256H111.981V289.344H98.9414V288.256H102.141V284.384C100.941 283.76 100.221 282.72 100.221 281.424C100.221 279.184 102.397 277.744 105.437 277.744C108.493 277.744 110.653 279.184 110.653 281.424C110.653 282.72 109.949 283.744 108.765 284.368V288.256ZM116.112 278.364L115.964 286.653H114.391L114.243 278.364H116.112ZM115.18 290.108C114.866 290.108 114.597 289.998 114.374 289.778C114.15 289.555 114.04 289.286 114.044 288.972C114.04 288.661 114.15 288.396 114.374 288.176C114.597 287.953 114.866 287.841 115.18 287.841C115.487 287.841 115.752 287.953 115.976 288.176C116.199 288.396 116.313 288.661 116.317 288.972C116.313 289.18 116.258 289.371 116.152 289.545C116.05 289.716 115.913 289.852 115.743 289.955C115.572 290.057 115.385 290.108 115.18 290.108ZM120.815 278.364L120.668 286.653H119.094L118.946 278.364H120.815ZM119.884 290.108C119.569 290.108 119.3 289.998 119.077 289.778C118.853 289.555 118.743 289.286 118.747 288.972C118.743 288.661 118.853 288.396 119.077 288.176C119.3 287.953 119.569 287.841 119.884 287.841C120.19 287.841 120.455 287.953 120.679 288.176C120.902 288.396 121.016 288.661 121.02 288.972C121.016 289.18 120.961 289.371 120.855 289.545C120.753 289.716 120.616 289.852 120.446 289.955C120.276 290.057 120.088 290.108 119.884 290.108ZM125.518 278.364L125.371 286.653H123.797L123.649 278.364H125.518ZM124.587 290.108C124.272 290.108 124.003 289.998 123.78 289.778C123.556 289.555 123.446 289.286 123.45 288.972C123.446 288.661 123.556 288.396 123.78 288.176C124.003 287.953 124.272 287.841 124.587 287.841C124.893 287.841 125.159 287.953 125.382 288.176C125.606 288.396 125.719 288.661 125.723 288.972C125.719 289.18 125.664 289.371 125.558 289.545C125.456 289.716 125.32 289.852 125.149 289.955C124.979 290.057 124.791 290.108 124.587 290.108ZM130.222 278.364L130.074 286.653H128.5L128.352 278.364H130.222ZM129.29 290.108C128.975 290.108 128.706 289.998 128.483 289.778C128.259 289.555 128.15 289.286 128.153 288.972C128.15 288.661 128.259 288.396 128.483 288.176C128.706 287.953 128.975 287.841 129.29 287.841C129.597 287.841 129.862 287.953 130.085 288.176C130.309 288.396 130.422 288.661 130.426 288.972C130.422 289.18 130.367 289.371 130.261 289.545C130.159 289.716 130.023 289.852 129.852 289.955C129.682 290.057 129.494 290.108 129.29 290.108Z" fill="black"/>
<g filter="url(#filter3_d_105_1191)">
<path d="M23 390H172C180.284 390 187 396.716 187 405V417C187 425.284 180.284 432 172 432H38C29.7157 432 23 425.284 23 417V390Z" fill="white"/>
<path d="M23.5 390.5H172C180.008 390.5 186.5 396.992 186.5 405V417C186.5 425.008 180.008 431.5 172 431.5H38C29.9919 431.5 23.5 425.008 23.5 417V390.5Z" stroke="#7ED287"/>
</g>
<path d="M31.088 373.968H32.672V385.056H31.088V373.968ZM26.732 374.748C28.4 374.748 29.636 376.26 29.636 378.684C29.636 381.12 28.4 382.644 26.732 382.644C25.064 382.644 23.828 381.12 23.828 378.684C23.828 376.26 25.064 374.748 26.732 374.748ZM26.732 376.176C25.916 376.176 25.352 377.052 25.352 378.684C25.352 380.328 25.916 381.204 26.732 381.204C27.548 381.204 28.112 380.328 28.112 378.684C28.112 377.052 27.548 376.176 26.732 376.176ZM38.8271 376.344V376.956C38.8271 378.756 39.7151 380.664 41.5631 381.432L40.6991 382.68C39.4151 382.128 38.5391 381.048 38.0471 379.716C37.5551 381.156 36.6671 382.368 35.3711 382.956L34.4711 381.696C36.3191 380.868 37.2191 378.84 37.2191 376.956V376.344H34.9151V375.036H41.1071V376.344H38.8271ZM42.1271 373.98H43.7111V385.032H42.1271V373.98ZM52.2541 379.02L51.4861 380.256C50.2741 379.86 49.4461 379.068 48.9781 378.084C48.4861 379.164 47.6221 380.052 46.3381 380.472L45.5341 379.224C47.3101 378.624 48.1141 377.22 48.1381 375.852H45.9661V374.592H51.9061V375.852H49.7581C49.7821 377.112 50.5501 378.444 52.2541 379.02ZM47.2981 382.308V381.048H54.8341V385.044H53.2501V382.308H47.2981ZM53.2501 373.992H54.8341V380.556H53.2501V377.892H51.6181V376.62H53.2501V373.992ZM65.8132 373.992V381.924H64.2172V373.992H65.8132ZM58.3372 377.496C58.3372 378.384 58.9852 378.924 59.8012 378.924C60.6292 378.924 61.2532 378.384 61.2532 377.496C61.2532 376.584 60.6292 376.056 59.8012 376.056C58.9852 376.056 58.3372 376.584 58.3372 377.496ZM62.8012 377.496C62.8012 379.104 61.4932 380.292 59.8012 380.292C58.1092 380.292 56.7892 379.104 56.7892 377.496C56.7892 375.864 58.1092 374.688 59.8012 374.688C61.4932 374.688 62.8012 375.864 62.8012 377.496ZM60.0412 383.58H66.0892V384.84H58.4572V381.144H60.0412V383.58ZM77.6349 373.968H79.2189V385.056H77.6349V373.968ZM70.6029 374.856H72.1749V377.532H74.4789V374.856H76.0509V382.476H70.6029V374.856ZM72.1749 378.768V381.216H74.4789V378.768H72.1749ZM89.9219 376.524V377.76H82.3499V374.352H89.8379V375.588H83.9219V376.524H89.9219ZM91.0859 379.572H86.8859V380.28H89.8739V383.124H83.8259V383.76H90.1619V384.948H82.2539V382.032H88.3139V381.444H82.2419V380.28H85.3019V379.572H81.1019V378.336H91.0859V379.572ZM92.753 375.12H98.057C98.057 378.504 96.917 381.264 92.993 383.16L92.165 381.912C94.985 380.556 96.209 378.828 96.437 376.38H92.753V375.12ZM99.749 373.968H101.345V385.02H99.749V373.968Z" fill="#7FD287"/>
<path d="M40.808 405.376V407.04C40.808 409.424 42.488 412.032 44.568 413.024L43.784 414.048C42.184 413.232 40.808 411.52 40.152 409.536C39.528 411.648 38.136 413.488 36.504 414.352L35.736 413.312C37.784 412.304 39.496 409.584 39.496 407.04V405.376H36.248V404.304H44.072V405.376H40.808ZM46.36 402.832H47.672V417.2H46.36V409.12H43.256V408.048H46.36V402.832ZM62.0708 407.152V408.224H52.3108V403.36H53.6228V407.152H62.0708ZM53.5268 412.64V415.76H62.1508V416.832H52.2148V412.64H53.5268ZM50.5508 410.144H63.5588V411.2H50.5508V410.144ZM75.7175 402.832H77.0295V417.216H75.7175V402.832ZM69.4615 403.936C71.5895 403.936 73.1095 405.888 73.1095 408.944C73.1095 412 71.5895 413.952 69.4615 413.952C67.3335 413.952 65.8135 412 65.8135 408.944C65.8135 405.888 67.3335 403.936 69.4615 403.936ZM69.4615 405.12C68.0535 405.12 67.0615 406.624 67.0615 408.944C67.0615 411.28 68.0535 412.784 69.4615 412.784C70.8535 412.784 71.8455 411.28 71.8455 408.944C71.8455 406.624 70.8535 405.12 69.4615 405.12ZM80.8363 404.24H87.4283V413.568H80.8363V404.24ZM86.1483 405.296H82.1163V412.528H86.1483V405.296ZM90.4363 402.832H91.7483V417.216H90.4363V402.832ZM106.227 406.768V407.84H96.515V403.2H97.843V406.768H106.227ZM106.179 412.928H101.939C102.211 414.592 104.323 415.776 106.755 416.096L106.259 417.104C104.067 416.768 102.083 415.808 101.219 414.272C100.371 415.808 98.387 416.768 96.195 417.104L95.699 416.096C98.131 415.776 100.259 414.592 100.515 412.928H96.259V411.888H106.179V412.928ZM94.739 409.312H107.715V410.384H94.739V409.312ZM110.914 407.296C110.914 408.656 111.954 409.632 113.362 409.632C114.754 409.632 115.794 408.656 115.794 407.296C115.794 405.904 114.754 404.912 113.362 404.912C111.954 404.912 110.914 405.904 110.914 407.296ZM119.938 407.84H117.01C116.754 409.568 115.282 410.752 113.362 410.752C111.234 410.752 109.666 409.312 109.666 407.296C109.666 405.232 111.234 403.808 113.362 403.808C115.298 403.808 116.77 404.992 117.026 406.768H119.938V402.832H121.266V412.672H119.938V407.84ZM117.314 411.552V412.112C117.314 414.096 119.57 415.648 122.13 416.08L121.618 417.12C119.442 416.736 117.49 415.6 116.642 413.952C115.778 415.584 113.826 416.736 111.666 417.12L111.138 416.08C113.682 415.632 115.97 414.048 115.97 412.112V411.552H117.314ZM126.033 404.224V412.448C128.097 412.448 130.225 412.272 132.545 411.808L132.705 412.896C130.257 413.392 128.065 413.552 125.873 413.552H124.737V404.224H126.033ZM137.505 408.56V409.648H135.201V417.184H133.889V402.832H135.201V408.56H137.505ZM146.127 410.576H149.391V407.12H146.079C146.207 407.68 146.287 408.288 146.287 408.944C146.287 409.536 146.223 410.08 146.127 410.576ZM142.719 412.784C144.079 412.784 145.055 411.28 145.055 408.944C145.055 406.624 144.079 405.12 142.719 405.12C141.343 405.12 140.383 406.624 140.383 408.944C140.383 411.28 141.343 412.784 142.719 412.784ZM149.391 402.832H150.703V417.216H149.391V411.648H145.807C145.215 413.104 144.095 413.952 142.719 413.952C140.623 413.952 139.135 412 139.135 408.944C139.135 405.888 140.623 403.936 142.719 403.936C144.047 403.936 145.103 404.704 145.711 406.048H149.391V402.832ZM155.011 416.108C154.701 416.108 154.434 415.998 154.21 415.778C153.987 415.555 153.875 415.286 153.875 414.972C153.875 414.661 153.987 414.396 154.21 414.176C154.434 413.953 154.701 413.841 155.011 413.841C155.322 413.841 155.589 413.953 155.812 414.176C156.036 414.396 156.148 414.661 156.148 414.972C156.148 415.18 156.095 415.371 155.989 415.545C155.886 415.716 155.75 415.852 155.58 415.955C155.409 416.057 155.22 416.108 155.011 416.108ZM159.543 416.108C159.232 416.108 158.965 415.998 158.741 415.778C158.518 415.555 158.406 415.286 158.406 414.972C158.406 414.661 158.518 414.396 158.741 414.176C158.965 413.953 159.232 413.841 159.543 413.841C159.853 413.841 160.12 413.953 160.344 414.176C160.567 414.396 160.679 414.661 160.679 414.972C160.679 415.18 160.626 415.371 160.52 415.545C160.418 415.716 160.281 415.852 160.111 415.955C159.94 416.057 159.751 416.108 159.543 416.108ZM164.074 416.108C163.763 416.108 163.496 415.998 163.273 415.778C163.049 415.555 162.938 415.286 162.938 414.972C162.938 414.661 163.049 414.396 163.273 414.176C163.496 413.953 163.763 413.841 164.074 413.841C164.384 413.841 164.652 413.953 164.875 414.176C165.098 414.396 165.21 414.661 165.21 414.972C165.21 415.18 165.157 415.371 165.051 415.545C164.949 415.716 164.812 415.852 164.642 415.955C164.472 416.057 164.282 416.108 164.074 416.108ZM167.828 412.653V412.545C167.836 411.841 167.906 411.28 168.038 410.864C168.175 410.447 168.368 410.11 168.618 409.852C168.868 409.595 169.169 409.36 169.521 409.148C169.749 409.004 169.953 408.843 170.135 408.665C170.317 408.487 170.461 408.282 170.567 408.051C170.673 407.82 170.726 407.564 170.726 407.284C170.726 406.947 170.646 406.655 170.487 406.409C170.328 406.163 170.116 405.973 169.851 405.841C169.589 405.705 169.298 405.636 168.976 405.636C168.684 405.636 168.406 405.697 168.141 405.818C167.875 405.939 167.656 406.129 167.482 406.386C167.307 406.64 167.207 406.968 167.18 407.369H165.453C165.48 406.688 165.652 406.112 165.97 405.642C166.288 405.169 166.709 404.811 167.232 404.568C167.758 404.326 168.339 404.205 168.976 404.205C169.673 404.205 170.283 404.335 170.805 404.597C171.328 404.854 171.733 405.216 172.021 405.682C172.313 406.144 172.459 406.684 172.459 407.301C172.459 407.725 172.393 408.108 172.26 408.449C172.127 408.786 171.938 409.087 171.692 409.352C171.449 409.617 171.158 409.852 170.817 410.057C170.495 410.258 170.233 410.466 170.033 410.682C169.836 410.898 169.692 411.153 169.601 411.449C169.51 411.744 169.461 412.11 169.453 412.545V412.653H167.828ZM168.686 416.108C168.375 416.108 168.108 415.998 167.885 415.778C167.661 415.555 167.55 415.286 167.55 414.972C167.55 414.661 167.661 414.396 167.885 414.176C168.108 413.953 168.375 413.841 168.686 413.841C168.993 413.841 169.258 413.953 169.482 414.176C169.709 414.396 169.822 414.661 169.822 414.972C169.822 415.18 169.769 415.371 169.663 415.545C169.561 415.716 169.425 415.852 169.254 415.955C169.084 416.057 168.894 416.108 168.686 416.108Z" fill="black"/>
<g filter="url(#filter4_d_105_1191)">
<path d="M20 682C20 676.477 24.4772 672 30 672H360C365.523 672 370 676.477 370 682V706C370 711.523 365.523 716 360 716H30C24.4772 716 20 711.523 20 706V682Z" fill="white"/>
</g>
<path d="M39.2 696.216V691.152H36.944V696.216H39.2ZM41.708 693.18V689.364H42.644V699.348H41.708V693.996H40.112V696.996H36.02V690.372H40.112V693.18H41.708ZM43.844 689.124H44.78V699.876H43.844V689.124ZM49.8671 690.144V692.16C49.8671 693.888 50.6711 695.712 52.0871 696.576L51.5231 697.344C50.5031 696.72 49.7831 695.58 49.3991 694.272C49.0151 695.7 48.2351 696.912 47.1671 697.572L46.5551 696.84C48.0311 695.976 48.9191 694.044 48.9191 692.196V690.144H49.8671ZM52.6991 692.988V689.364H53.6231V699.36H52.6991V693.804H50.9231V692.988H52.6991ZM54.8831 689.124H55.8191V699.888H54.8831V689.124ZM61.5541 691.044V692.412C61.5541 694.236 62.8501 696.096 64.4341 696.768L63.8821 697.56C62.6341 696.984 61.5781 695.748 61.0621 694.272C60.5701 695.844 59.5141 697.2 58.2901 697.824L57.7141 697.032C59.2621 696.3 60.5701 694.272 60.5701 692.412V691.044H58.0741V690.228H64.0861V691.044H61.5541ZM65.5381 689.136H66.5221V699.888H65.5381V689.136ZM76.2892 691.008V690.132H69.9772V689.436H77.2612V691.68H70.9732V692.604H77.4532V693.312H70.0012V691.008H76.2892ZM70.9132 698.04V699.036H77.6332V699.744H69.9412V697.356H76.3252V696.456H69.9172V695.748H77.2972V698.04H70.9132ZM68.7532 694.128H78.5092V694.872H68.7532V694.128ZM90.816 689.136H91.8V694.908H90.816V689.136ZM84.864 695.436H85.836V696.756H90.828V695.436H91.8V699.744H84.864V695.436ZM85.836 697.524V698.952H90.828V697.524H85.836ZM86.016 689.64C87.648 689.64 88.836 690.648 88.836 692.112C88.836 693.6 87.648 694.596 86.016 694.596C84.396 694.596 83.22 693.6 83.22 692.112C83.22 690.648 84.396 689.64 86.016 689.64ZM86.016 690.456C84.948 690.456 84.18 691.14 84.18 692.112C84.18 693.096 84.948 693.78 86.016 693.78C87.108 693.78 87.876 693.096 87.876 692.112C87.876 691.14 87.108 690.456 86.016 690.456ZM99.6951 694.2L99.7911 694.992C98.4711 695.22 97.3791 695.256 95.2311 695.256H94.4631V692.064H98.1111V690.576H94.4271V689.772H99.0711V692.82H95.4231V694.452C97.4151 694.452 98.4471 694.404 99.6951 694.2ZM95.6631 697.128V696.324H102.875V699.9H101.879V697.128H95.6631ZM101.879 689.136H102.875V695.748H101.879V693.756H99.7791V692.964H101.879V691.524H99.7791V690.72H101.879V689.136ZM108.202 696.672C109.186 696.672 109.894 695.976 109.894 695.016C109.894 694.044 109.186 693.348 108.202 693.348C107.23 693.348 106.522 694.044 106.522 695.016C106.522 695.976 107.23 696.672 108.202 696.672ZM108.202 692.532C109.738 692.532 110.83 693.564 110.83 695.016C110.83 696.48 109.738 697.488 108.202 697.488C106.69 697.488 105.598 696.48 105.598 695.016C105.598 693.564 106.69 692.532 108.202 692.532ZM108.682 689.256V690.852H111.334V691.644H104.986V690.852H107.698V689.256H108.682ZM115.102 693.552V694.38H113.338V699.888H112.354V689.136H113.338V693.552H115.102ZM119.277 690.144V692.16C119.277 693.888 120.081 695.712 121.497 696.576L120.933 697.344C119.913 696.72 119.193 695.58 118.809 694.272C118.425 695.7 117.645 696.912 116.577 697.572L115.965 696.84C117.441 695.976 118.329 694.044 118.329 692.196V690.144H119.277ZM122.109 692.988V689.364H123.033V699.36H122.109V693.804H120.333V692.988H122.109ZM124.293 689.124H125.229V699.888H124.293V689.124ZM130.496 695.16V697.692H133.496V695.16C133.04 695.268 132.524 695.328 131.984 695.328C131.456 695.328 130.94 695.268 130.496 695.16ZM131.984 690.576C130.256 690.576 129.02 691.368 129.02 692.568C129.02 693.768 130.256 694.56 131.984 694.56C133.712 694.56 134.96 693.768 134.96 692.568C134.96 691.368 133.712 690.576 131.984 690.576ZM134.48 697.692H136.892V698.508H127.112V697.692H129.512V694.788C128.612 694.32 128.072 693.54 128.072 692.568C128.072 690.888 129.704 689.808 131.984 689.808C134.276 689.808 135.896 690.888 135.896 692.568C135.896 693.54 135.368 694.308 134.48 694.776V697.692ZM139.223 699.081C138.99 699.081 138.79 698.999 138.623 698.834C138.455 698.666 138.371 698.464 138.371 698.229C138.371 697.996 138.455 697.797 138.623 697.632C138.79 697.464 138.99 697.381 139.223 697.381C139.456 697.381 139.657 697.464 139.824 697.632C139.992 697.797 140.076 697.996 140.076 698.229C140.076 698.385 140.036 698.528 139.956 698.659C139.88 698.787 139.777 698.889 139.65 698.966C139.522 699.043 139.38 699.081 139.223 699.081Z" fill="#8A8A8A"/>
<path d="M343.321 697L354.321 686M343.321 697L346.821 704C346.865 704.096 346.935 704.177 347.024 704.234C347.112 704.291 347.216 704.321 347.321 704.321C347.426 704.321 347.529 704.291 347.618 704.234C347.707 704.177 347.777 704.096 347.821 704L354.321 686M343.321 697L336.321 693.5C336.225 693.456 336.144 693.386 336.087 693.297C336.03 693.208 336 693.105 336 693C336 692.895 336.03 692.792 336.087 692.703C336.144 692.614 336.225 692.544 336.321 692.5L354.321 686" stroke="#BCBCBC" stroke-width="2" stroke-linecap="round" stroke-linejoin="round"/>
<defs>
<filter id="filter0_d_105_1191" x="104" y="142" width="271" height="69" filterUnits="userSpaceOnUse" color-interpolation-filters="sRGB">
<feFlood flood-opacity="0" result="BackgroundImageFix"/>
<feColorMatrix in="SourceAlpha" type="matrix" values="0 0 0 0 0 0 0 0 0 0 0 0 0 0 0 0 0 0 127 0" result="hardAlpha"/>
<feOffset dy="6"/>
<feGaussianBlur stdDeviation="2"/>
<feComposite in2="hardAlpha" operator="out"/>
<feColorMatrix type="matrix" values="0 0 0 0 0 0 0 0 0 0 0 0 0 0 0 0 0 0 0.12 0"/>
<feBlend mode="normal" in2="BackgroundImageFix" result="effect1_dropShadow_105_1191"/>
<feBlend mode="normal" in="SourceGraphic" in2="effect1_dropShadow_105_1191" result="shape"/>
</filter>
<filter id="filter1_d_105_1191" x="104" y="498" width="271" height="69" filterUnits="userSpaceOnUse" color-interpolation-filters="sRGB">
<feFlood flood-opacity="0" result="BackgroundImageFix"/>
<feColorMatrix in="SourceAlpha" type="matrix" values="0 0 0 0 0 0 0 0 0 0 0 0 0 0 0 0 0 0 127 0" result="hardAlpha"/>
<feOffset dy="6"/>
<feGaussianBlur stdDeviation="2"/>
<feComposite in2="hardAlpha" operator="out"/>
<feColorMatrix type="matrix" values="0 0 0 0 0 0 0 0 0 0 0 0 0 0 0 0 0 0 0.12 0"/>
<feBlend mode="normal" in2="BackgroundImageFix" result="effect1_dropShadow_105_1191"/>
<feBlend mode="normal" in="SourceGraphic" in2="effect1_dropShadow_105_1191" result="shape"/>
</filter>
<filter id="filter2_d_105_1191" x="19" y="264" width="128" height="52" filterUnits="userSpaceOnUse" color-interpolation-filters="sRGB">
<feFlood flood-opacity="0" result="BackgroundImageFix"/>
<feColorMatrix in="SourceAlpha" type="matrix" values="0 0 0 0 0 0 0 0 0 0 0 0 0 0 0 0 0 0 127 0" result="hardAlpha"/>
<feOffset dy="6"/>
<feGaussianBlur stdDeviation="2"/>
<feComposite in2="hardAlpha" operator="out"/>
<feColorMatrix type="matrix" values="0 0 0 0 0 0 0 0 0 0 0 0 0 0 0 0 0 0 0.12 0"/>
<feBlend mode="normal" in2="BackgroundImageFix" result="effect1_dropShadow_105_1191"/>
<feBlend mode="normal" in="SourceGraphic" in2="effect1_dropShadow_105_1191" result="shape"/>
</filter>
<filter id="filter3_d_105_1191" x="19" y="390" width="172" height="52" filterUnits="userSpaceOnUse" color-interpolation-filters="sRGB">
<feFlood flood-opacity="0" result="BackgroundImageFix"/>
<feColorMatrix in="SourceAlpha" type="matrix" values="0 0 0 0 0 0 0 0 0 0 0 0 0 0 0 0 0 0 127 0" result="hardAlpha"/>
<feOffset dy="6"/>
<feGaussianBlur stdDeviation="2"/>
<feComposite in2="hardAlpha" operator="out"/>
<feColorMatrix type="matrix" values="0 0 0 0 0 0 0 0 0 0 0 0 0 0 0 0 0 0 0.12 0"/>
<feBlend mode="normal" in2="BackgroundImageFix" result="effect1_dropShadow_105_1191"/>
<feBlend mode="normal" in="SourceGraphic" in2="effect1_dropShadow_105_1191" result="shape"/>
</filter>
<filter id="filter4_d_105_1191" x="14" y="670" width="362" height="56" filterUnits="userSpaceOnUse" color-interpolation-filters="sRGB">
<feFlood flood-opacity="0" result="BackgroundImageFix"/>
<feColorMatrix in="SourceAlpha" type="matrix" values="0 0 0 0 0 0 0 0 0 0 0 0 0 0 0 0 0 0 127 0" result="hardAlpha"/>
<feOffset dy="4"/>
<feGaussianBlur stdDeviation="3"/>
<feComposite in2="hardAlpha" operator="out"/>
<feColorMatrix type="matrix" values="0 0 0 0 0 0 0 0 0 0 0 0 0 0 0 0 0 0 0.12 0"/>
<feBlend mode="normal" in2="BackgroundImageFix" result="effect1_dropShadow_105_1191"/>
<feBlend mode="normal" in="SourceGraphic" in2="effect1_dropShadow_105_1191" result="shape"/>
</filter>
</defs>
</svg>
