<svg width="390" height="800" viewBox="0 0 390 800" fill="none" xmlns="http://www.w3.org/2000/svg">
<rect width="390" height="800" fill="white"/>
<path d="M20 158C20 152.477 24.4772 148 30 148H195V192H30C24.4772 192 20 187.523 20 182V158Z" fill="#C0EF52"/>
<rect x="20.5" y="148.5" width="349" height="43" rx="9.5" stroke="#C0EF52"/>
<path d="M95.624 111.832V122.36H94.312V111.832H95.624ZM92.488 118.984L91.8 120.024C90.168 119.4 88.904 118.104 88.264 116.472C87.656 118.216 86.36 119.608 84.68 120.312L83.992 119.24C86.152 118.408 87.592 116.328 87.592 114.088V112.632H88.904V114.088C88.904 116.248 90.36 118.2 92.488 118.984ZM87.704 124.792H96.056V125.864H86.392V121.384H87.704V124.792ZM105.719 123.288H111.591V124.376H98.5508V123.288H104.391V119.608H100.215V112.984H109.943V114.056H101.527V118.552H110.087V119.608H105.719V123.288ZM122.006 118.136L122.15 119.192C119.798 119.576 117.846 119.656 115.19 119.656H114.038V115.592H119.222V113.768H113.99V112.696H120.517V116.6H115.318V118.584C117.862 118.584 119.734 118.504 122.006 118.136ZM117.062 122.184V124.936H123.782V122.184H117.062ZM115.782 125.992V121.144H125.062V125.992H115.782ZM123.75 111.848H125.062V120.344H123.75V111.848Z" fill="black"/>
<path d="M263.24 116.264H266.344V111.848H267.672V122.44H266.344V117.336H263.24V116.264ZM256.792 112.952H263.304C263.304 116.648 260.696 119.448 256.632 120.792L256.072 119.736C259.352 118.648 261.608 116.6 261.896 114.024H256.792V112.952ZM259.912 124.792H268.04V125.864H258.6V121.368H259.912V124.792ZM272.375 114.648V121.56C274.295 121.544 275.655 121.464 277.223 121.128L277.335 122.216C275.623 122.584 274.167 122.648 272.023 122.648H271.079V113.576H276.423V114.648H272.375ZM281.495 111.832H282.759V126.184H281.495V118.664H279.463V125.464H278.231V112.152H279.463V117.592H281.495V111.832ZM295.75 111.848H297.062V119.544H295.75V111.848ZM287.814 120.248H289.11V122.008H295.766V120.248H297.062V125.992H287.814V120.248ZM289.11 123.032V124.936H295.766V123.032H289.11ZM289.35 112.52C291.526 112.52 293.11 113.864 293.11 115.816C293.11 117.8 291.526 119.128 289.35 119.128C287.19 119.128 285.622 117.8 285.622 115.816C285.622 113.864 287.19 112.52 289.35 112.52ZM289.35 113.608C287.926 113.608 286.902 114.52 286.902 115.816C286.902 117.128 287.926 118.04 289.35 118.04C290.806 118.04 291.83 117.128 291.83 115.816C291.83 114.52 290.806 113.608 289.35 113.608ZM312.996 118.936V120.008H307.14V126.2H305.812V120.008H300.02V118.936H309.54C309.988 116.872 309.988 115.352 309.988 114.008V113.816H301.636V112.76H311.268V114.008C311.268 115.352 311.268 116.872 310.868 118.936H312.996Z" fill="black"/>
<path d="M89.356 94.396L88.924 93.232C91.144 93.136 92.224 92.608 92.524 91.984H89.476V90.844H92.704V89.968H94.288V90.844H97.54V91.984H94.468C94.78 92.608 95.86 93.136 98.08 93.232L97.636 94.396C95.584 94.288 94.192 93.784 93.496 92.968C92.812 93.784 91.42 94.288 89.356 94.396ZM98.488 95.836H94.3V96.496H97.288V99.232H91.24V99.808H97.576V100.948H89.668V98.164H95.728V97.636H89.656V96.496H92.716V95.836H88.54V94.672H98.488V95.836ZM103.611 94.072V92.968H101.439V94.072H103.611ZM105.171 90.46V95.308H99.8791V90.46H101.439V91.78H103.611V90.46H105.171ZM102.543 99.028V99.724H108.579V100.948H100.971V97.9H106.695V97.228H100.959V96.028H108.255V99.028H102.543ZM108.255 92.116H109.707V93.4H108.255V95.596H106.671V89.98H108.255V92.116ZM112.31 98.272V97.024H119.834V101.044H118.25V98.272H112.31ZM116.498 93.868H118.25V92.728H116.498C116.534 92.908 116.558 93.088 116.558 93.292C116.558 93.484 116.534 93.676 116.498 93.868ZM113.642 94.684C114.458 94.684 115.058 94.168 115.058 93.292C115.058 92.428 114.458 91.912 113.642 91.912C112.838 91.912 112.238 92.428 112.238 93.292C112.238 94.168 112.838 94.684 113.642 94.684ZM118.25 89.98H119.834V96.52H118.25V95.128H115.85C115.322 95.692 114.53 96.04 113.642 96.04C112.01 96.04 110.738 94.888 110.738 93.292C110.738 91.708 112.01 90.556 113.642 90.556C114.542 90.556 115.334 90.904 115.862 91.468H118.25V89.98Z" fill="#7ED287"/>
<path d="M274.3 98.488H278.524V99.784H268.516V98.488H272.716V96.184H269.68V90.736H277.372V92.008H271.276V94.912H277.456V96.184H274.3V98.488ZM286.155 95.164L285.435 96.4C284.187 96.064 283.335 95.356 282.843 94.468C282.363 95.44 281.487 96.208 280.227 96.592L279.471 95.356C281.235 94.864 282.003 93.628 282.027 92.38H279.867V91.132H282.027V89.944H283.611V91.132H285.795V92.38H283.611C283.635 93.532 284.403 94.696 286.155 95.164ZM280.875 98.476V97.216H288.255V101.044H286.671V98.476H280.875ZM289.719 92.704V94H288.255V96.748H286.671V89.98H288.255V92.704H289.719ZM292.31 98.272V97.024H299.834V101.044H298.25V98.272H292.31ZM296.498 93.868H298.25V92.728H296.498C296.534 92.908 296.558 93.088 296.558 93.292C296.558 93.484 296.534 93.676 296.498 93.868ZM293.642 94.684C294.458 94.684 295.058 94.168 295.058 93.292C295.058 92.428 294.458 91.912 293.642 91.912C292.838 91.912 292.238 92.428 292.238 93.292C292.238 94.168 292.838 94.684 293.642 94.684ZM298.25 89.98H299.834V96.52H298.25V95.128H295.85C295.322 95.692 294.53 96.04 293.642 96.04C292.01 96.04 290.738 94.888 290.738 93.292C290.738 91.708 292.01 90.556 293.642 90.556C294.542 90.556 295.334 90.904 295.862 91.468H298.25V89.98Z" fill="#7ED287"/>
<path d="M197.583 101.516C197.285 101.643 197.132 101.776 196.979 102.06C196.833 102.338 196.82 102.73 196.946 103.015C196.999 103.129 198.905 104.987 201.43 107.39C203.848 109.685 205.821 111.582 205.821 111.607C205.821 111.638 199.324 111.657 191.385 111.657H176.95L176.658 111.797C175.781 112.22 175.781 113.371 176.658 113.788L176.95 113.933H191.385C199.324 113.933 205.821 113.952 205.821 113.978C205.821 114.003 203.868 115.862 201.476 118.119C198.374 121.04 197.092 122.292 196.992 122.488C196.82 122.829 196.813 123.221 196.979 123.531C197.132 123.822 197.285 123.954 197.603 124.081C197.909 124.201 198.188 124.201 198.5 124.081C198.839 123.942 209.687 113.63 209.873 113.263C210.033 112.954 210.039 112.682 209.906 112.366C209.76 112.043 198.925 101.719 198.54 101.542C198.221 101.39 197.902 101.384 197.583 101.516Z" fill="#7ED287"/>
<path d="M89.0611 177V175.006L93.7209 170.691C94.1172 170.308 94.4496 169.962 94.718 169.656C94.9908 169.349 95.1974 169.048 95.3381 168.754C95.4787 168.456 95.549 168.134 95.549 167.789C95.549 167.406 95.4616 167.075 95.2869 166.798C95.1122 166.517 94.8736 166.302 94.571 166.153C94.2685 165.999 93.9254 165.923 93.5419 165.923C93.1413 165.923 92.7919 166.004 92.4936 166.165C92.1953 166.327 91.9652 166.56 91.8033 166.862C91.6413 167.165 91.5604 167.525 91.5604 167.942H88.9332C88.9332 167.086 89.1271 166.342 89.5149 165.712C89.9027 165.081 90.446 164.593 91.1449 164.248C91.8438 163.903 92.6491 163.73 93.5611 163.73C94.4986 163.73 95.3146 163.896 96.0092 164.229C96.7081 164.557 97.2514 165.013 97.6392 165.597C98.027 166.18 98.2209 166.849 98.2209 167.604C98.2209 168.098 98.1229 168.586 97.9268 169.067C97.7351 169.549 97.392 170.084 96.8977 170.672C96.4034 171.256 95.7067 171.957 94.8075 172.775L92.8963 174.648V174.737H98.3935V177H89.0611ZM114.44 164.04V165.93H100.76V164.04H106.394V162.132H108.77V164.04H114.44ZM104.396 169.872C104.396 170.826 105.512 171.258 107.564 171.258C109.652 171.258 110.768 170.826 110.768 169.872C110.768 168.936 109.652 168.468 107.564 168.468C105.512 168.468 104.396 168.936 104.396 169.872ZM108.77 174.966H115.142V176.892H100.112V174.966H106.394V173.058C103.64 172.806 101.948 171.654 101.948 169.872C101.948 167.838 104.126 166.632 107.564 166.632C111.038 166.632 113.198 167.838 113.198 169.872C113.198 171.654 111.524 172.788 108.77 173.058V174.966ZM122.664 166.56V167.136C122.664 169.476 123.834 172.158 126.426 173.4L125.166 175.2C123.402 174.39 122.196 172.842 121.512 171.006C120.792 172.986 119.514 174.66 117.66 175.488L116.382 173.67C119.064 172.428 120.306 169.62 120.306 167.136V166.56H116.94V164.67H120.306V162.366H122.682V164.67H125.958V166.56H122.664ZM132.06 168.414V170.376H129.648V178.548H127.272V161.988H129.648V168.414H132.06Z" fill="#101010"/>
<path d="M262.84 163.122H265.288C265.288 167.784 263.218 170.988 257.782 172.806L256.828 170.934C261.328 169.476 262.84 167.172 262.84 164.076V163.122ZM257.692 163.122H264.37V165.03H257.692V163.122ZM263.128 166.416V168.036L257.17 168.486L256.846 166.614L263.128 166.416ZM267.43 161.934H269.842V174.174H267.43V161.934ZM269.158 166.722H272.056V168.684H269.158V166.722ZM259.06 176.406H270.4V178.314H259.06V176.406ZM259.06 173.094H261.472V177.702H259.06V173.094ZM288.875 161.916H291.287V178.638H288.875V161.916ZM282.305 163.086C284.825 163.086 286.679 165.39 286.679 169.026C286.679 172.698 284.825 175.002 282.305 175.002C279.785 175.002 277.931 172.698 277.931 169.026C277.931 165.39 279.785 163.086 282.305 163.086ZM282.305 165.264C281.063 165.264 280.217 166.578 280.217 169.026C280.217 171.51 281.063 172.842 282.305 172.842C283.547 172.842 284.375 171.51 284.375 169.026C284.375 166.578 283.547 165.264 282.305 165.264ZM294.021 169.764H309.105V171.672H294.021V169.764ZM300.375 167.262H302.751V170.502H300.375V167.262ZM295.839 166.506H307.395V168.396H295.839V166.506ZM295.839 162.654H307.305V164.526H298.215V167.712H295.839V162.654ZM301.509 172.5C305.109 172.5 307.287 173.598 307.287 175.56C307.287 177.522 305.109 178.62 301.509 178.62C297.909 178.62 295.713 177.522 295.713 175.56C295.713 173.598 297.909 172.5 301.509 172.5ZM301.509 174.3C299.277 174.3 298.143 174.714 298.143 175.56C298.143 176.424 299.277 176.802 301.509 176.802C303.741 176.802 304.875 176.424 304.875 175.56C304.875 174.714 303.741 174.3 301.509 174.3Z" fill="black"/>
<rect x="30" y="246" width="10" height="470" fill="#1AA04C"/>
<ellipse cx="35" cy="279.857" rx="12" ry="10.9714" fill="#1AA04C"/>
<ellipse cx="35.0001" cy="279.857" rx="8.8" ry="8.04571" fill="white"/>
<ellipse cx="35" cy="342.828" rx="12" ry="10.9714" fill="#1AA04C"/>
<ellipse cx="35.0001" cy="342.828" rx="8.8" ry="8.04571" fill="white"/>
<ellipse cx="35" cy="407.857" rx="12" ry="10.9714" fill="#1AA04C"/>
<ellipse cx="35.0001" cy="407.857" rx="8.8" ry="8.04571" fill="white"/>
<ellipse cx="35" cy="473.371" rx="12" ry="10.9714" fill="#1AA04C"/>
<ellipse cx="35.0001" cy="473.371" rx="8.8" ry="8.04571" fill="white"/>
<ellipse cx="35" cy="535.057" rx="12" ry="10.9714" fill="#1AA04C"/>
<ellipse cx="35.0001" cy="535.057" rx="8.8" ry="8.04571" fill="white"/>
<ellipse cx="35" cy="599.572" rx="12" ry="10.9714" fill="#1AA04C"/>
<ellipse cx="35.0001" cy="599.572" rx="8.8" ry="8.04571" fill="white"/>
<ellipse cx="35" cy="664.086" rx="12" ry="10.9714" fill="#1AA04C"/>
<ellipse cx="35.0001" cy="664.086" rx="8.8" ry="8.04571" fill="white"/>
<path d="M74.544 272.988V285.066H72.15V272.988H74.544ZM70.926 280.674L69.72 282.564C67.884 281.934 66.624 280.71 65.904 279.162C65.148 280.836 63.852 282.186 61.926 282.852L60.72 280.962C63.474 280.026 64.662 277.704 64.662 275.49V273.888H67.074V275.49C67.074 277.686 68.226 279.81 70.926 280.674ZM65.886 287.37H74.958V289.26H63.51V283.914H65.886V287.37ZM86.0086 285.732H92.3446V287.676H77.3326V285.732H83.6326V282.276H79.0786V274.104H90.6166V276.012H81.4726V280.368H90.7426V282.276H86.0086V285.732ZM103.899 279.9L104.169 281.79C101.703 282.186 99.4892 282.258 96.1952 282.258H94.7372V277.146H100.011V275.814H94.7192V273.906H102.351V278.91H97.0772V280.35C99.8132 280.332 101.739 280.242 103.899 279.9ZM98.9672 285.408V287.496H105.339V285.408H98.9672ZM96.6272 289.35V283.536H107.661V289.35H96.6272ZM105.267 272.988H107.661V282.798H105.267V272.988Z" fill="black"/>
<path d="M70.52 341.974V339.526H63.95V341.974H70.52ZM72.86 337.672V343.846H61.61V337.672H72.86ZM63.878 348.454V351.37H73.112V353.26H61.502V348.454H63.878ZM59.756 345.16H74.768V347.032H68.666V349.858H66.29V347.032H59.756V345.16ZM79.0866 344.998V347.932C80.5986 347.896 82.0386 347.806 83.6946 347.554L83.8746 349.48C81.7506 349.822 79.9506 349.876 77.9526 349.876H76.7826V343.126H80.7426V340.48H76.7646V338.572H83.0286V344.998H79.0866ZM88.3026 336.952H90.5526V353.53H88.3026V345.124H86.8086V352.756H84.5946V337.258H86.8086V343.216H88.3026V336.952Z" fill="black"/>
<path d="M61.24 407.92C61.24 409.198 62.122 409.972 63.346 409.972C64.57 409.972 65.47 409.198 65.47 407.92C65.47 406.624 64.57 405.868 63.346 405.868C62.122 405.868 61.24 406.624 61.24 407.92ZM70.258 407.02H67.63C67.684 407.308 67.72 407.596 67.72 407.92C67.72 408.226 67.684 408.514 67.612 408.82H70.258V407.02ZM70.258 410.71H66.568C65.776 411.502 64.642 411.97 63.346 411.97C60.898 411.97 58.99 410.26 58.99 407.92C58.99 405.562 60.898 403.852 63.346 403.852C64.678 403.852 65.812 404.338 66.604 405.13H70.258V402.97H72.634V412.69H70.258V410.71ZM67.018 417.73C69.196 417.73 70.366 417.262 70.366 416.29C70.366 415.318 69.196 414.85 67.018 414.85C64.84 414.85 63.688 415.318 63.688 416.29C63.688 417.262 64.84 417.73 67.018 417.73ZM67.018 413.014C70.528 413.014 72.706 414.22 72.706 416.29C72.706 418.342 70.528 419.548 67.018 419.548C63.526 419.548 61.348 418.342 61.348 416.29C61.348 414.22 63.526 413.014 67.018 413.014ZM88.6346 407.524V409.396H77.1686V403.42H88.5446V405.31H79.5266V407.524H88.6346ZM82.7846 417.748C84.9986 417.748 86.1326 417.37 86.1326 416.506C86.1326 415.642 84.9986 415.246 82.7846 415.246C80.5706 415.246 79.4366 415.642 79.4366 416.506C79.4366 417.37 80.5706 417.748 82.7846 417.748ZM82.7846 413.446C86.3666 413.446 88.5446 414.544 88.5446 416.506C88.5446 418.45 86.3666 419.548 82.7846 419.548C79.2026 419.548 77.0426 418.45 77.0426 416.506C77.0426 414.544 79.2026 413.446 82.7846 413.446ZM75.3506 410.548H90.3446V412.492H75.3506V410.548ZM97.6692 406.228V410.926H101.053V406.228H97.6692ZM100.549 415.768H106.903V417.676H91.8912V415.768H98.1732V412.816H93.1512V410.926H95.3112V406.228H93.0612V404.338H105.661V406.228H103.411V410.926H105.607V412.816H100.549V415.768ZM123.444 410.98V412.888H117.072V419.548H114.66V412.888H108.468V410.98H118.908C119.322 408.874 119.358 407.254 119.358 405.832H110.178V403.924H121.68V405.418C121.68 406.966 121.68 408.658 121.266 410.98H123.444ZM133.918 407.398H136.492V402.97H138.868V412.978H136.492V409.306H133.918V407.398ZM134.962 410.638L133.882 412.456C132.028 411.97 130.732 410.944 129.976 409.63C129.238 411.142 127.942 412.312 126.016 412.87L124.9 411.034C127.528 410.278 128.68 408.406 128.716 406.552H125.476V404.68H128.716V402.916H131.092V404.68H134.368V406.552H131.092C131.128 408.262 132.316 409.936 134.962 410.638ZM133.27 417.73C135.43 417.73 136.564 417.316 136.564 416.416C136.564 415.516 135.43 415.084 133.27 415.084C131.074 415.084 129.958 415.516 129.958 416.416C129.958 417.316 131.074 417.73 133.27 417.73ZM133.27 413.266C136.78 413.266 138.94 414.418 138.94 416.416C138.94 418.396 136.78 419.548 133.27 419.548C129.742 419.548 127.582 418.396 127.582 416.416C127.582 414.418 129.742 413.266 133.27 413.266Z" fill="black"/>
<path d="M68.17 473.27L68.404 475.16C66.37 475.592 64.462 475.682 60.754 475.682H59.35V468.086H66.784V469.976H61.708V473.774C64.714 473.756 66.37 473.648 68.17 473.27ZM66.388 481.658C68.494 481.658 69.664 481.19 69.664 480.182C69.664 479.192 68.494 478.724 66.388 478.724C64.3 478.724 63.13 479.192 63.13 480.182C63.13 481.19 64.3 481.658 66.388 481.658ZM66.388 476.834C69.826 476.834 72.004 478.094 72.004 480.182C72.004 482.306 69.826 483.566 66.388 483.566C62.986 483.566 60.79 482.306 60.79 480.182C60.79 478.094 62.986 476.834 66.388 476.834ZM71.86 470.894H74.02V472.82H71.86V476.546H69.466V466.952H71.86V470.894ZM85.2506 474.836L84.0266 476.69C82.2266 476.096 81.0026 474.908 80.2826 473.414C79.5446 475.07 78.2306 476.366 76.3406 476.996L75.0806 475.142C77.8706 474.242 79.0406 472.028 79.0406 469.76V467.978H81.4526V469.778C81.4526 471.884 82.5686 473.972 85.2506 474.836ZM80.0846 477.95V481.37H88.9586V483.26H77.7086V477.95H80.0846ZM88.3826 471.776H90.5786V473.738H88.3826V479.102H86.0066V466.97H88.3826V471.776Z" fill="black"/>
<path d="M68.548 530.428L68.53 532.282H58.756V530.428H62.446V528.844H64.84V530.428H68.548ZM61.852 535.666C61.852 536.458 62.59 536.872 63.652 536.872C64.714 536.872 65.452 536.458 65.452 535.666C65.452 534.874 64.714 534.46 63.652 534.46C62.59 534.46 61.852 534.874 61.852 535.666ZM67.72 535.666C67.72 537.412 66.046 538.6 63.652 538.6C61.258 538.6 59.584 537.412 59.584 535.666C59.584 533.902 61.258 532.732 63.652 532.732C66.046 532.732 67.72 533.902 67.72 535.666ZM69.466 543.514V542.344H63.4V543.514H69.466ZM69.466 540.562V539.302H71.824V545.35H61.042V539.302H63.4V540.562H69.466ZM74.02 532.948V534.892H71.824V538.69H69.448V528.988H71.824V532.948H74.02ZM84.3326 532.966H86.8166V528.97H89.1926V538.834H86.8166V534.892H84.3326V532.966ZM85.3226 536.53L84.1706 538.384C82.3706 537.79 81.1286 536.62 80.4086 535.162C79.6886 536.836 78.3746 538.186 76.4486 538.834L75.2426 536.962C77.8706 536.044 79.0766 533.938 79.1486 531.868H75.8906V529.96H84.8006V531.868H81.5786C81.6506 533.758 82.8026 535.702 85.3226 536.53ZM83.5946 543.766C85.7546 543.766 86.8886 543.316 86.8886 542.38C86.8886 541.444 85.7546 540.994 83.5946 540.994C81.4166 540.994 80.2826 541.444 80.2826 542.38C80.2826 543.316 81.4166 543.766 83.5946 543.766ZM83.5946 539.194C87.1046 539.194 89.2646 540.364 89.2646 542.38C89.2646 544.396 87.1046 545.566 83.5946 545.566C80.0666 545.566 77.9066 544.396 77.9066 542.38C77.9066 540.364 80.0666 539.194 83.5946 539.194Z" fill="black"/>
<path d="M72.544 656.988V669.066H70.15V656.988H72.544ZM68.926 664.674L67.72 666.564C65.884 665.934 64.624 664.71 63.904 663.162C63.148 664.836 61.852 666.186 59.926 666.852L58.72 664.962C61.474 664.026 62.662 661.704 62.662 659.49V657.888H65.074V659.49C65.074 661.686 66.226 663.81 68.926 664.674ZM63.886 671.37H72.958V673.26H61.51V667.914H63.886V671.37ZM76.7186 664.926L75.9626 663.108C79.4906 662.856 81.1466 661.668 81.4346 660.426H76.7726V658.59H81.6146V657.024H83.9906V658.59H88.8866V660.426H84.1886C84.4766 661.668 86.1146 662.856 89.6606 663.108L88.9226 664.926C85.8986 664.656 83.8286 663.72 82.8206 662.334C81.7946 663.72 79.7426 664.656 76.7186 664.926ZM79.5266 668.706V671.37H88.6346V673.26H77.1506V668.706H79.5266ZM83.9906 665.898H90.3086V667.77H75.3326V665.898H81.6146V664.098H83.9906V665.898Z" fill="black"/>
<path d="M72.976 594.158V595.94H59.494V594.158H65.074V592.826H67.45V594.158H72.976ZM66.226 607.856C68.53 607.856 69.556 607.586 69.556 606.992C69.556 606.38 68.53 606.128 66.226 606.128C63.922 606.128 62.896 606.38 62.896 606.992C62.896 607.586 63.922 607.856 66.226 607.856ZM66.226 604.418C69.88 604.418 71.986 605.3 71.986 606.992C71.986 608.684 69.88 609.548 66.226 609.548C62.59 609.548 60.484 608.684 60.484 606.992C60.484 605.3 62.59 604.418 66.226 604.418ZM63.256 598.748C63.256 599.288 64.21 599.522 66.262 599.522C68.332 599.522 69.268 599.288 69.268 598.748C69.268 598.208 68.332 597.992 66.262 597.992C64.21 597.992 63.256 598.208 63.256 598.748ZM67.45 601.934H73.768V603.77H58.756V601.934H65.074V601.088C62.284 600.908 60.718 600.134 60.718 598.748C60.718 597.182 62.716 596.39 66.262 596.39C69.826 596.39 71.824 597.182 71.824 598.748C71.824 600.134 70.258 600.908 67.45 601.088V601.934ZM78.1406 596.804V603.86C79.6886 603.824 81.0926 603.734 82.6766 603.446L82.8566 605.372C80.8406 605.75 79.0766 605.822 76.9526 605.822H75.8006V594.878H81.9386V596.804H78.1406ZM87.3026 592.952H89.5526V609.548H87.3026V601.25H85.8086V608.774H83.5946V593.276H85.8086V599.342H87.3026V592.952ZM103.267 592.97H105.661V601.88H103.267V592.97ZM94.6452 602.6H97.0032V604.148H103.303V602.6H105.661V609.35H94.6452V602.6ZM97.0032 605.966V607.46H103.303V605.966H97.0032ZM96.6432 593.654C99.2172 593.654 101.143 595.292 101.143 597.56C101.143 599.846 99.2172 601.484 96.6432 601.484C94.0692 601.484 92.1252 599.846 92.1252 597.56C92.1252 595.292 94.0692 593.654 96.6432 593.654ZM96.6432 595.616C95.3832 595.616 94.4472 596.354 94.4472 597.56C94.4472 598.802 95.3832 599.522 96.6432 599.522C97.9032 599.522 98.8212 598.802 98.8212 597.56C98.8212 596.354 97.9032 595.616 96.6432 595.616ZM123.444 600.98V602.888H117.072V609.548H114.66V602.888H108.468V600.98H118.908C119.322 598.874 119.358 597.254 119.358 595.832H110.178V593.924H121.68V595.418C121.68 596.966 121.68 598.658 121.266 600.98H123.444Z" fill="black"/>
<path d="M189.8 213.22C189.8 214.204 190.58 214.9 191.624 214.9C192.656 214.9 193.436 214.204 193.436 213.22C193.436 212.248 192.656 211.552 191.624 211.552C190.58 211.552 189.8 212.248 189.8 213.22ZM194.396 213.22C194.396 214.696 193.22 215.716 191.624 215.716C190.016 215.716 188.84 214.696 188.84 213.22C188.84 211.768 190.016 210.736 191.624 210.736C193.22 210.736 194.396 211.768 194.396 213.22ZM195.728 217.276V217.492C195.728 218.596 196.424 219.664 197.756 220.108L197.288 220.84C196.28 220.492 195.608 219.82 195.26 218.968C194.9 219.808 194.216 220.492 193.22 220.84L192.752 220.12C191.948 220.444 191.024 220.516 190.28 220.516H189.764V216.724H190.724V219.7C191.396 219.664 192.212 219.544 192.764 219.232L193.04 219.988C194.18 219.484 194.792 218.488 194.792 217.492V217.276H193.04V216.496H197.444V217.276H195.728ZM196.988 212.668H198.584V213.484H196.988V215.92H196.004V210.124H196.988V212.668ZM204.535 211.048C202.771 211.048 201.763 211.456 201.763 212.176C201.763 212.896 202.771 213.304 204.535 213.304C206.299 213.304 207.307 212.896 207.307 212.176C207.307 211.456 206.299 211.048 204.535 211.048ZM204.535 214.036C202.171 214.036 200.755 213.388 200.755 212.176C200.755 210.964 202.171 210.304 204.535 210.304C206.899 210.304 208.315 210.964 208.315 212.176C208.315 213.388 206.899 214.036 204.535 214.036ZM201.835 218.908V220H208.483V220.768H200.875V218.188H207.187V217.228H200.839V216.484H208.159V218.908H201.835ZM199.663 214.768H209.407V215.56H199.663V214.768ZM214.665 211.276H219.585C219.585 214.336 218.181 217.108 214.701 218.848L214.161 218.08C216.909 216.7 218.385 214.636 218.613 212.092H214.665V211.276ZM224.097 214.492V215.308H222.369V220.888H221.385V210.124H222.369V214.492H224.097ZM233.756 213.124V213.916H226.448V210.352H227.432V213.124H233.756ZM229.988 220.084C231.668 220.084 232.676 219.64 232.676 218.896C232.676 218.128 231.68 217.696 229.988 217.696C228.296 217.696 227.3 218.128 227.3 218.896C227.3 219.64 228.296 220.084 229.988 220.084ZM229.988 216.928C232.28 216.928 233.672 217.636 233.672 218.896C233.672 220.144 232.28 220.852 229.988 220.852C227.696 220.852 226.304 220.144 226.304 218.896C226.304 217.636 227.696 216.928 229.988 216.928ZM225.14 215.164H234.872V215.968H225.14V215.164ZM244.039 216.496V213.22H241.699V212.416H244.039V210.136H245.035V216.496H244.039ZM242.479 215.224L241.951 215.992C240.775 215.548 239.863 214.696 239.395 213.58C238.939 214.852 237.967 215.824 236.671 216.316L236.155 215.512C237.811 214.924 238.879 213.484 238.879 211.84V210.736H239.863V211.804C239.863 213.34 240.907 214.672 242.479 215.224ZM241.483 220.096C243.103 220.096 244.087 219.628 244.087 218.848C244.087 218.056 243.103 217.588 241.483 217.588C239.863 217.588 238.879 218.056 238.879 218.848C238.879 219.628 239.863 220.096 241.483 220.096ZM241.483 216.82C243.691 216.82 245.071 217.552 245.071 218.848C245.071 220.132 243.691 220.876 241.483 220.876C239.275 220.876 237.895 220.132 237.895 218.848C237.895 217.552 239.275 216.82 241.483 216.82ZM252.066 211.048C250.302 211.048 249.294 211.456 249.294 212.176C249.294 212.896 250.302 213.304 252.066 213.304C253.83 213.304 254.838 212.896 254.838 212.176C254.838 211.456 253.83 211.048 252.066 211.048ZM252.066 214.036C249.702 214.036 248.286 213.388 248.286 212.176C248.286 210.964 249.702 210.304 252.066 210.304C254.43 210.304 255.846 210.964 255.846 212.176C255.846 213.388 254.43 214.036 252.066 214.036ZM249.366 218.908V220H256.014V220.768H248.406V218.188H254.718V217.228H248.37V216.484H255.69V218.908H249.366ZM247.194 214.768H256.938V215.56H247.194V214.768ZM262.784 212.896C262.784 213.844 263.552 214.504 264.596 214.504C265.652 214.504 266.42 213.844 266.42 212.896C266.42 211.972 265.652 211.3 264.596 211.3C263.552 211.3 262.784 211.972 262.784 212.896ZM267.38 212.896C267.38 214.324 266.216 215.308 264.596 215.308C262.988 215.308 261.824 214.324 261.824 212.896C261.824 211.492 262.988 210.508 264.596 210.508C266.216 210.508 267.38 211.492 267.38 212.896ZM264.128 218.752V219.952H270.368V220.744H263.168V218.02H269V216.892H263.132V216.112H269.972V218.752H264.128ZM269.972 212.44H271.568V213.256H269.972V215.608H268.988V210.124H269.972V212.44ZM274.027 214.948V217.576C275.611 217.576 276.931 217.504 278.539 217.252L278.623 218.068C276.931 218.332 275.551 218.392 273.871 218.392H273.055V214.144H276.763V211.888H273.031V211.096H277.735V214.948H274.027ZM280.531 210.112H281.515V220.9H280.531V216.328H278.335V215.524H280.531V213.376H278.407V212.572H280.531V210.112ZM292.327 215.284V216.088H284.935V211.108H292.219V211.924H285.907V215.284H292.327ZM283.687 218.62H293.455V219.436H283.687V218.62ZM296.106 214.948V217.576C297.69 217.576 299.01 217.504 300.618 217.252L300.702 218.068C299.01 218.332 297.63 218.392 295.95 218.392H295.134V214.144H298.842V211.888H295.11V211.096H299.814V214.948H296.106ZM302.61 210.112H303.594V220.9H302.61V216.328H300.414V215.524H302.61V213.376H300.486V212.572H302.61V210.112ZM309.149 216.16V218.692H312.149V216.16C311.693 216.268 311.177 216.328 310.637 216.328C310.109 216.328 309.593 216.268 309.149 216.16ZM310.637 211.576C308.909 211.576 307.673 212.368 307.673 213.568C307.673 214.768 308.909 215.56 310.637 215.56C312.365 215.56 313.613 214.768 313.613 213.568C313.613 212.368 312.365 211.576 310.637 211.576ZM313.133 218.692H315.545V219.508H305.765V218.692H308.165V215.788C307.265 215.32 306.725 214.54 306.725 213.568C306.725 211.888 308.357 210.808 310.637 210.808C312.929 210.808 314.549 211.888 314.549 213.568C314.549 214.54 314.021 215.308 313.133 215.776V218.692Z" fill="black"/>
<circle cx="327" cy="215" r="7" fill="#7ED287"/>
<circle cx="345" cy="215" r="7" fill="#FABE00"/>
<circle cx="363" cy="215" r="7" fill="#F21111"/>
<path d="M64.169 392.544V390.564H62.189V392.544H64.169ZM65.599 389.431V393.677H60.77V389.431H65.599ZM62.772 394.711V397.505C63.311 397.461 63.839 397.373 64.345 397.208L64.543 398.352C63.707 398.638 62.915 398.693 61.925 398.693H61.364V394.711H62.772ZM66.721 397.978C67.117 397.978 67.392 397.824 67.392 397.527C67.392 397.219 67.117 397.076 66.721 397.076C66.336 397.076 66.05 397.219 66.05 397.527C66.05 397.824 66.336 397.978 66.721 397.978ZM66.721 396.097C67.876 396.097 68.679 396.647 68.679 397.527C68.679 398.396 67.876 398.957 66.721 398.957C65.566 398.957 64.763 398.396 64.763 397.527C64.763 396.647 65.566 396.097 66.721 396.097ZM67.447 394.095V394.81H69.262V395.844H64.191V394.81H66.039V394.095H67.447ZM68.448 390.927H69.79V392.115H68.448V393.842H66.996V388.815H68.448V390.927ZM77.5331 388.804H78.9851V398.968H77.5331V388.804ZM73.5401 389.519C75.0691 389.519 76.2021 390.905 76.2021 393.127C76.2021 395.36 75.0691 396.757 73.5401 396.757C72.0111 396.757 70.8781 395.36 70.8781 393.127C70.8781 390.905 72.0111 389.519 73.5401 389.519ZM73.5401 390.828C72.7921 390.828 72.2751 391.631 72.2751 393.127C72.2751 394.634 72.7921 395.437 73.5401 395.437C74.2881 395.437 74.8051 394.634 74.8051 393.127C74.8051 391.631 74.2881 390.828 73.5401 390.828ZM82.5593 389.937V395.228C83.3513 395.206 84.2203 395.14 85.1883 394.964L85.3093 396.185C83.9893 396.427 82.8233 396.482 81.8113 396.482H81.1073V389.937H82.5593ZM88.0043 388.804H89.3903V398.935H88.0043V393.886H87.0913V398.462H85.7383V388.991H87.0913V392.709H88.0043V388.804ZM92.6124 393.578V395.514C93.8334 395.503 94.9224 395.448 96.1874 395.261L96.2974 396.449C94.8014 396.68 93.5144 396.713 91.9964 396.713H91.1824V392.434H94.2514V390.817H91.1604V389.662H95.6814V393.578H92.6124ZM97.8484 388.804H99.3114V398.968H97.8484V394.876H96.1654V393.71H97.8484V392.126H96.1874V390.96H97.8484V388.804ZM104.415 394.656V396.592H106.648V394.656C106.296 394.722 105.922 394.755 105.526 394.755C105.13 394.755 104.767 394.722 104.415 394.656ZM105.526 390.454C104.118 390.454 103.183 391.026 103.183 392.038C103.183 393.039 104.118 393.622 105.526 393.622C106.934 393.622 107.88 393.039 107.88 392.038C107.88 391.026 106.934 390.454 105.526 390.454ZM108.089 396.592H110.124V397.769H100.95V396.592H102.974V394.117C102.204 393.644 101.742 392.918 101.753 392.038C101.753 390.377 103.348 389.31 105.526 389.31C107.715 389.31 109.31 390.377 109.31 392.038C109.31 392.918 108.848 393.644 108.089 394.117V396.592Z" fill="#FC3C3C"/>
<path d="M62.169 580.544V578.564H60.189V580.544H62.169ZM63.599 577.431V581.677H58.77V577.431H63.599ZM60.772 582.711V585.505C61.311 585.461 61.839 585.373 62.345 585.208L62.543 586.352C61.707 586.638 60.915 586.693 59.925 586.693H59.364V582.711H60.772ZM64.721 585.978C65.117 585.978 65.392 585.824 65.392 585.527C65.392 585.219 65.117 585.076 64.721 585.076C64.336 585.076 64.05 585.219 64.05 585.527C64.05 585.824 64.336 585.978 64.721 585.978ZM64.721 584.097C65.876 584.097 66.679 584.647 66.679 585.527C66.679 586.396 65.876 586.957 64.721 586.957C63.566 586.957 62.763 586.396 62.763 585.527C62.763 584.647 63.566 584.097 64.721 584.097ZM65.447 582.095V582.81H67.262V583.844H62.191V582.81H64.039V582.095H65.447ZM66.448 578.927H67.79V580.115H66.448V581.842H64.996V576.815H66.448V578.927ZM75.5331 576.804H76.9851V586.968H75.5331V576.804ZM71.5401 577.519C73.0691 577.519 74.2021 578.905 74.2021 581.127C74.2021 583.36 73.0691 584.757 71.5401 584.757C70.0111 584.757 68.8781 583.36 68.8781 581.127C68.8781 578.905 70.0111 577.519 71.5401 577.519ZM71.5401 578.828C70.7921 578.828 70.2751 579.631 70.2751 581.127C70.2751 582.634 70.7921 583.437 71.5401 583.437C72.2881 583.437 72.8051 582.634 72.8051 581.127C72.8051 579.631 72.2881 578.828 71.5401 578.828ZM80.5593 577.937V583.228C81.3513 583.206 82.2203 583.14 83.1883 582.964L83.3093 584.185C81.9893 584.427 80.8233 584.482 79.8113 584.482H79.1073V577.937H80.5593ZM86.0043 576.804H87.3903V586.935H86.0043V581.886H85.0913V586.462H83.7383V576.991H85.0913V580.709H86.0043V576.804ZM90.6124 581.578V583.514C91.8334 583.503 92.9224 583.448 94.1874 583.261L94.2974 584.449C92.8014 584.68 91.5144 584.713 89.9964 584.713H89.1824V580.434H92.2514V578.817H89.1604V577.662H93.6814V581.578H90.6124ZM95.8484 576.804H97.3114V586.968H95.8484V582.876H94.1654V581.71H95.8484V580.126H94.1874V578.96H95.8484V576.804ZM102.415 582.656V584.592H104.648V582.656C104.296 582.722 103.922 582.755 103.526 582.755C103.13 582.755 102.767 582.722 102.415 582.656ZM103.526 578.454C102.118 578.454 101.183 579.026 101.183 580.038C101.183 581.039 102.118 581.622 103.526 581.622C104.934 581.622 105.88 581.039 105.88 580.038C105.88 579.026 104.934 578.454 103.526 578.454ZM106.089 584.592H108.124V585.769H98.9496V584.592H100.974V582.117C100.204 581.644 99.7416 580.918 99.7526 580.038C99.7526 578.377 101.348 577.31 103.526 577.31C105.715 577.31 107.31 578.377 107.31 580.038C107.31 580.918 106.848 581.644 106.089 582.117V584.592Z" fill="#FC3C3C"/>
<path d="M99.523 431.567L98.863 432.7C97.719 432.392 96.938 431.743 96.487 430.929C96.047 431.82 95.244 432.524 94.089 432.876L93.396 431.743C95.013 431.292 95.717 430.159 95.739 429.015H93.759V427.871H95.739V426.782H97.191V427.871H99.193V429.015H97.191C97.213 430.071 97.917 431.138 99.523 431.567ZM94.683 434.603V433.448H101.448V436.957H99.996V434.603H94.683ZM102.79 429.312V430.5H101.448V433.019H99.996V426.815H101.448V429.312H102.79ZM109.642 431.402L108.883 432.524C107.805 432.15 107.079 431.435 106.65 430.544C106.21 431.523 105.429 432.304 104.285 432.7L103.526 431.556C105.209 431.006 105.902 429.664 105.902 428.289V427.332H107.376V428.377C107.376 429.642 108.047 430.874 109.642 431.402ZM105.154 434.449V433.305H112.062V436.957H110.61V434.449H105.154ZM110.61 426.815H112.062V432.843H110.61V429.884H108.762V428.707H110.61V426.815ZM122.874 431.468H119.013V432.315H121.73V435.098H116.219V435.747H122.005V436.869H114.767V434.053H120.278V433.426H114.756V432.315H117.561V431.468H113.711V430.324H116.087C116.362 429.466 116.428 428.828 116.45 428.267H114.525V427.123H117.858V427.794C117.858 428.454 117.858 429.301 117.572 430.324H120.08C120.311 429.466 120.377 428.806 120.388 428.267H118.463V427.123H121.807V427.695C121.807 428.344 121.807 429.213 121.532 430.324H122.874V431.468ZM129.946 430.863L130.078 431.996C128.648 432.216 127.383 432.249 125.249 432.249H124.38V427.332H129.253V428.476H125.821V429.224H128.956V430.346H125.821V431.105C127.57 431.094 128.681 431.061 129.946 430.863ZM130.804 435.67V434.845H126.954V435.67H130.804ZM130.804 433.734V432.887H132.245V436.825H125.513V432.887H126.954V433.734H130.804ZM130.782 426.815H132.245V432.458H130.782V426.815Z" fill="#5FBBD0"/>
<path d="M136 428L140 432L136 436" stroke="#5FBBD0"/>
<path d="M101.523 621.567L100.863 622.7C99.719 622.392 98.938 621.743 98.487 620.929C98.047 621.82 97.244 622.524 96.089 622.876L95.396 621.743C97.013 621.292 97.717 620.159 97.739 619.015H95.759V617.871H97.739V616.782H99.191V617.871H101.193V619.015H99.191C99.213 620.071 99.917 621.138 101.523 621.567ZM96.683 624.603V623.448H103.448V626.957H101.996V624.603H96.683ZM104.79 619.312V620.5H103.448V623.019H101.996V616.815H103.448V619.312H104.79ZM111.642 621.402L110.883 622.524C109.805 622.15 109.079 621.435 108.65 620.544C108.21 621.523 107.429 622.304 106.285 622.7L105.526 621.556C107.209 621.006 107.902 619.664 107.902 618.289V617.332H109.376V618.377C109.376 619.642 110.047 620.874 111.642 621.402ZM107.154 624.449V623.305H114.062V626.957H112.61V624.449H107.154ZM112.61 616.815H114.062V622.843H112.61V619.884H110.762V618.707H112.61V616.815ZM124.874 621.468H121.013V622.315H123.73V625.098H118.219V625.747H124.005V626.869H116.767V624.053H122.278V623.426H116.756V622.315H119.561V621.468H115.711V620.324H118.087C118.362 619.466 118.428 618.828 118.45 618.267H116.525V617.123H119.858V617.794C119.858 618.454 119.858 619.301 119.572 620.324H122.08C122.311 619.466 122.377 618.806 122.388 618.267H120.463V617.123H123.807V617.695C123.807 618.344 123.807 619.213 123.532 620.324H124.874V621.468ZM131.946 620.863L132.078 621.996C130.648 622.216 129.383 622.249 127.249 622.249H126.38V617.332H131.253V618.476H127.821V619.224H130.956V620.346H127.821V621.105C129.57 621.094 130.681 621.061 131.946 620.863ZM132.804 625.67V624.845H128.954V625.67H132.804ZM132.804 623.734V622.887H134.245V626.825H127.513V622.887H128.954V623.734H132.804ZM132.782 616.815H134.245V622.458H132.782V616.815Z" fill="#5FBBD0"/>
<path d="M138 618L142 622L138 626" stroke="#5FBBD0"/>
<path d="M324.7 286L330.415 274.699V274.603H323.805V272.909H332.46V274.661L326.765 286H324.7ZM333.354 283.443V281.845L339.01 272.909H340.27V275.261H339.471L335.425 281.666V281.768H343.178V283.443H333.354ZM339.56 286V282.957L339.573 282.229V272.909H341.446V286H339.56ZM352.239 283.545V282.855C352.239 282.361 352.341 281.909 352.546 281.5C352.754 281.087 353.057 280.756 353.453 280.509C353.854 280.258 354.338 280.132 354.904 280.132C355.484 280.132 355.97 280.256 356.362 280.503C356.754 280.75 357.05 281.08 357.25 281.494C357.455 281.907 357.557 282.361 357.557 282.855V283.545C357.557 284.04 357.455 284.494 357.25 284.907C357.046 285.316 356.745 285.646 356.349 285.898C355.957 286.145 355.475 286.268 354.904 286.268C354.329 286.268 353.843 286.145 353.447 285.898C353.051 285.646 352.75 285.316 352.546 284.907C352.341 284.494 352.239 284.04 352.239 283.545ZM353.728 282.855V283.545C353.728 283.912 353.816 284.244 353.99 284.543C354.165 284.841 354.47 284.99 354.904 284.99C355.335 284.99 355.635 284.841 355.806 284.543C355.976 284.244 356.061 283.912 356.061 283.545V282.855C356.061 282.489 355.978 282.156 355.812 281.858C355.65 281.56 355.347 281.411 354.904 281.411C354.478 281.411 354.176 281.56 353.997 281.858C353.818 282.156 353.728 282.489 353.728 282.855ZM345.655 276.054V275.364C345.655 274.869 345.757 274.415 345.962 274.002C346.171 273.589 346.473 273.259 346.869 273.011C347.27 272.764 347.754 272.641 348.32 272.641C348.9 272.641 349.386 272.764 349.778 273.011C350.17 273.259 350.466 273.589 350.666 274.002C350.867 274.415 350.967 274.869 350.967 275.364V276.054C350.967 276.548 350.865 277.002 350.66 277.415C350.46 277.825 350.161 278.155 349.765 278.406C349.373 278.653 348.892 278.777 348.32 278.777C347.741 278.777 347.253 278.653 346.857 278.406C346.465 278.155 346.166 277.825 345.962 277.415C345.757 277.002 345.655 276.548 345.655 276.054ZM347.151 275.364V276.054C347.151 276.42 347.236 276.753 347.406 277.051C347.581 277.349 347.886 277.499 348.32 277.499C348.747 277.499 349.045 277.349 349.215 277.051C349.39 276.753 349.477 276.42 349.477 276.054V275.364C349.477 274.997 349.394 274.665 349.228 274.366C349.062 274.068 348.759 273.919 348.32 273.919C347.894 273.919 347.592 274.068 347.413 274.366C347.238 274.665 347.151 274.997 347.151 275.364ZM346.262 286L355.262 272.909H356.79L347.79 286H346.262Z" fill="#7ED287"/>
<path d="M325.259 353V351.568L329.689 346.979C330.162 346.48 330.552 346.043 330.859 345.668C331.17 345.289 331.402 344.929 331.555 344.588C331.709 344.247 331.786 343.885 331.786 343.501C331.786 343.067 331.683 342.692 331.479 342.376C331.274 342.057 330.995 341.812 330.641 341.641C330.288 341.467 329.889 341.379 329.446 341.379C328.977 341.379 328.568 341.475 328.219 341.667C327.869 341.859 327.601 342.129 327.413 342.479C327.226 342.828 327.132 343.237 327.132 343.706H325.246C325.246 342.909 325.43 342.212 325.796 341.616C326.163 341.019 326.665 340.557 327.305 340.229C327.944 339.896 328.67 339.73 329.484 339.73C330.307 339.73 331.031 339.894 331.658 340.222C332.288 340.546 332.781 340.989 333.134 341.552C333.488 342.11 333.665 342.741 333.665 343.444C333.665 343.93 333.573 344.405 333.39 344.869C333.211 345.334 332.898 345.852 332.45 346.423C332.003 346.989 331.381 347.678 330.584 348.487L327.982 351.21V351.306H333.876V353H325.259ZM336.298 353V351.568L340.728 346.979C341.201 346.48 341.591 346.043 341.898 345.668C342.209 345.289 342.441 344.929 342.594 344.588C342.748 344.247 342.825 343.885 342.825 343.501C342.825 343.067 342.722 342.692 342.518 342.376C342.313 342.057 342.034 341.812 341.68 341.641C341.327 341.467 340.928 341.379 340.485 341.379C340.016 341.379 339.607 341.475 339.258 341.667C338.908 341.859 338.64 342.129 338.452 342.479C338.265 342.828 338.171 343.237 338.171 343.706H336.286C336.286 342.909 336.469 342.212 336.835 341.616C337.202 341.019 337.705 340.557 338.344 340.229C338.983 339.896 339.71 339.73 340.523 339.73C341.346 339.73 342.07 339.894 342.697 340.222C343.327 340.546 343.82 340.989 344.173 341.552C344.527 342.11 344.704 342.741 344.704 343.444C344.704 343.93 344.612 344.405 344.429 344.869C344.25 345.334 343.937 345.852 343.489 346.423C343.042 346.989 342.42 347.678 341.623 348.487L339.021 351.21V351.306H344.915V353H336.298ZM354.17 350.545V349.855C354.17 349.361 354.273 348.909 354.477 348.5C354.686 348.087 354.989 347.756 355.385 347.509C355.786 347.258 356.269 347.132 356.836 347.132C357.415 347.132 357.901 347.256 358.293 347.503C358.685 347.75 358.982 348.08 359.182 348.494C359.386 348.907 359.489 349.361 359.489 349.855V350.545C359.489 351.04 359.386 351.494 359.182 351.907C358.977 352.316 358.677 352.646 358.281 352.898C357.888 353.145 357.407 353.268 356.836 353.268C356.261 353.268 355.775 353.145 355.379 352.898C354.982 352.646 354.682 352.316 354.477 351.907C354.273 351.494 354.17 351.04 354.17 350.545ZM355.66 349.855V350.545C355.66 350.912 355.747 351.244 355.922 351.543C356.097 351.841 356.401 351.99 356.836 351.99C357.266 351.99 357.567 351.841 357.737 351.543C357.908 351.244 357.993 350.912 357.993 350.545V349.855C357.993 349.489 357.91 349.156 357.744 348.858C357.582 348.56 357.279 348.411 356.836 348.411C356.41 348.411 356.107 348.56 355.928 348.858C355.749 349.156 355.66 349.489 355.66 349.855ZM347.587 343.054V342.364C347.587 341.869 347.689 341.415 347.893 341.002C348.102 340.589 348.405 340.259 348.801 340.011C349.202 339.764 349.685 339.641 350.252 339.641C350.832 339.641 351.317 339.764 351.71 340.011C352.102 340.259 352.398 340.589 352.598 341.002C352.798 341.415 352.898 341.869 352.898 342.364V343.054C352.898 343.548 352.796 344.002 352.592 344.415C352.391 344.825 352.093 345.155 351.697 345.406C351.305 345.653 350.823 345.777 350.252 345.777C349.673 345.777 349.185 345.653 348.788 345.406C348.396 345.155 348.098 344.825 347.893 344.415C347.689 344.002 347.587 343.548 347.587 343.054ZM349.082 342.364V343.054C349.082 343.42 349.168 343.753 349.338 344.051C349.513 344.349 349.817 344.499 350.252 344.499C350.678 344.499 350.977 344.349 351.147 344.051C351.322 343.753 351.409 343.42 351.409 343.054V342.364C351.409 341.997 351.326 341.665 351.16 341.366C350.994 341.068 350.691 340.919 350.252 340.919C349.826 340.919 349.523 341.068 349.344 341.366C349.17 341.665 349.082 341.997 349.082 342.364ZM348.194 353L357.194 339.909H358.722L349.722 353H348.194Z" fill="#F21111"/>
<path d="M324.984 479.443V477.845L330.641 468.909H331.901V471.261H331.102L327.055 477.666V477.768H334.809V479.443H324.984ZM331.191 482V478.957L331.204 478.229V468.909H333.077V482H331.191ZM341.827 468.909V482H339.846V470.891H339.769L336.637 472.936V471.044L339.903 468.909H341.827ZM352.202 479.545V478.855C352.202 478.361 352.304 477.909 352.509 477.5C352.717 477.087 353.02 476.756 353.416 476.509C353.817 476.258 354.3 476.132 354.867 476.132C355.447 476.132 355.933 476.256 356.325 476.503C356.717 476.75 357.013 477.08 357.213 477.494C357.418 477.907 357.52 478.361 357.52 478.855V479.545C357.52 480.04 357.418 480.494 357.213 480.907C357.009 481.316 356.708 481.646 356.312 481.898C355.92 482.145 355.438 482.268 354.867 482.268C354.292 482.268 353.806 482.145 353.41 481.898C353.013 481.646 352.713 481.316 352.509 480.907C352.304 480.494 352.202 480.04 352.202 479.545ZM353.691 478.855V479.545C353.691 479.912 353.778 480.244 353.953 480.543C354.128 480.841 354.433 480.99 354.867 480.99C355.298 480.99 355.598 480.841 355.768 480.543C355.939 480.244 356.024 479.912 356.024 479.545V478.855C356.024 478.489 355.941 478.156 355.775 477.858C355.613 477.56 355.31 477.411 354.867 477.411C354.441 477.411 354.138 477.56 353.96 477.858C353.781 478.156 353.691 478.489 353.691 478.855ZM345.618 472.054V471.364C345.618 470.869 345.72 470.415 345.925 470.002C346.134 469.589 346.436 469.259 346.832 469.011C347.233 468.764 347.717 468.641 348.283 468.641C348.863 468.641 349.349 468.764 349.741 469.011C350.133 469.259 350.429 469.589 350.629 470.002C350.83 470.415 350.93 470.869 350.93 471.364V472.054C350.93 472.548 350.827 473.002 350.623 473.415C350.423 473.825 350.124 474.155 349.728 474.406C349.336 474.653 348.854 474.777 348.283 474.777C347.704 474.777 347.216 474.653 346.82 474.406C346.428 474.155 346.129 473.825 345.925 473.415C345.72 473.002 345.618 472.548 345.618 472.054ZM347.114 471.364V472.054C347.114 472.42 347.199 472.753 347.369 473.051C347.544 473.349 347.849 473.499 348.283 473.499C348.71 473.499 349.008 473.349 349.178 473.051C349.353 472.753 349.44 472.42 349.44 472.054V471.364C349.44 470.997 349.357 470.665 349.191 470.366C349.025 470.068 348.722 469.919 348.283 469.919C347.857 469.919 347.555 470.068 347.376 470.366C347.201 470.665 347.114 470.997 347.114 471.364ZM346.225 482L355.225 468.909H356.753L347.753 482H346.225Z" fill="#FABE00"/>
<path d="M328.683 415.179C327.766 415.179 326.957 415.021 326.254 414.706C325.555 414.391 325.007 413.956 324.611 413.402C324.214 412.848 324.018 412.217 324.023 411.51C324.018 410.956 324.131 410.447 324.362 409.982C324.596 409.513 324.913 409.124 325.314 408.812C325.714 408.497 326.162 408.297 326.656 408.212V408.135C326.004 407.977 325.482 407.628 325.09 407.087C324.698 406.545 324.504 405.923 324.509 405.22C324.504 404.551 324.681 403.955 325.039 403.43C325.401 402.902 325.898 402.487 326.528 402.184C327.159 401.881 327.877 401.73 328.683 401.73C329.479 401.73 330.191 401.884 330.817 402.19C331.448 402.493 331.945 402.908 332.307 403.437C332.669 403.961 332.852 404.555 332.857 405.22C332.852 405.923 332.652 406.545 332.256 407.087C331.859 407.628 331.344 407.977 330.709 408.135V408.212C331.199 408.297 331.64 408.497 332.032 408.812C332.428 409.124 332.744 409.513 332.978 409.982C333.217 410.447 333.338 410.956 333.342 411.51C333.338 412.217 333.138 412.848 332.741 413.402C332.345 413.956 331.795 414.391 331.092 414.706C330.393 415.021 329.59 415.179 328.683 415.179ZM328.683 413.562C329.224 413.562 329.692 413.472 330.089 413.293C330.485 413.11 330.792 412.857 331.009 412.533C331.227 412.205 331.337 411.821 331.342 411.382C331.337 410.926 331.218 410.523 330.984 410.174C330.754 409.825 330.44 409.55 330.044 409.349C329.648 409.149 329.194 409.049 328.683 409.049C328.167 409.049 327.709 409.149 327.308 409.349C326.908 409.55 326.592 409.825 326.362 410.174C326.132 410.523 326.019 410.926 326.023 411.382C326.019 411.821 326.124 412.205 326.337 412.533C326.554 412.857 326.863 413.11 327.263 413.293C327.664 413.472 328.137 413.562 328.683 413.562ZM328.683 407.47C329.117 407.47 329.503 407.383 329.839 407.208C330.176 407.033 330.44 406.79 330.632 406.479C330.828 406.168 330.928 405.804 330.933 405.386C330.928 404.977 330.83 404.619 330.638 404.312C330.451 404.006 330.189 403.769 329.852 403.603C329.516 403.433 329.126 403.347 328.683 403.347C328.231 403.347 327.835 403.433 327.494 403.603C327.157 403.769 326.895 404.006 326.707 404.312C326.52 404.619 326.428 404.977 326.433 405.386C326.428 405.804 326.522 406.168 326.714 406.479C326.906 406.79 327.17 407.033 327.506 407.208C327.847 407.383 328.239 407.47 328.683 407.47ZM340.056 415.179C339.139 415.179 338.33 415.021 337.627 414.706C336.928 414.391 336.38 413.956 335.984 413.402C335.588 412.848 335.392 412.217 335.396 411.51C335.392 410.956 335.504 410.447 335.735 409.982C335.969 409.513 336.286 409.124 336.687 408.812C337.088 408.497 337.535 408.297 338.029 408.212V408.135C337.377 407.977 336.855 407.628 336.463 407.087C336.071 406.545 335.877 405.923 335.882 405.22C335.877 404.551 336.054 403.955 336.412 403.43C336.774 402.902 337.271 402.487 337.901 402.184C338.532 401.881 339.25 401.73 340.056 401.73C340.852 401.73 341.564 401.884 342.191 402.19C342.821 402.493 343.318 402.908 343.68 403.437C344.042 403.961 344.225 404.555 344.23 405.22C344.225 405.923 344.025 406.545 343.629 407.087C343.232 407.628 342.717 407.977 342.082 408.135V408.212C342.572 408.297 343.013 408.497 343.405 408.812C343.801 409.124 344.117 409.513 344.351 409.982C344.59 410.447 344.711 410.956 344.715 411.51C344.711 412.217 344.511 412.848 344.115 413.402C343.718 413.956 343.169 414.391 342.465 414.706C341.767 415.021 340.963 415.179 340.056 415.179ZM340.056 413.562C340.597 413.562 341.066 413.472 341.462 413.293C341.858 413.11 342.165 412.857 342.382 412.533C342.6 412.205 342.71 411.821 342.715 411.382C342.71 410.926 342.591 410.523 342.357 410.174C342.127 409.825 341.813 409.55 341.417 409.349C341.021 409.149 340.567 409.049 340.056 409.049C339.54 409.049 339.082 409.149 338.681 409.349C338.281 409.55 337.965 409.825 337.735 410.174C337.505 410.523 337.392 410.926 337.396 411.382C337.392 411.821 337.497 412.205 337.71 412.533C337.927 412.857 338.236 413.11 338.637 413.293C339.037 413.472 339.51 413.562 340.056 413.562ZM340.056 407.47C340.49 407.47 340.876 407.383 341.213 407.208C341.549 407.033 341.813 406.79 342.005 406.479C342.201 406.168 342.301 405.804 342.306 405.386C342.301 404.977 342.203 404.619 342.012 404.312C341.824 404.006 341.562 403.769 341.225 403.603C340.889 403.433 340.499 403.347 340.056 403.347C339.604 403.347 339.208 403.433 338.867 403.603C338.53 403.769 338.268 404.006 338.08 404.312C337.893 404.619 337.801 404.977 337.806 405.386C337.801 405.804 337.895 406.168 338.087 406.479C338.279 406.79 338.543 407.033 338.879 407.208C339.22 407.383 339.612 407.47 340.056 407.47ZM353.838 412.545V411.855C353.838 411.361 353.941 410.909 354.145 410.5C354.354 410.087 354.657 409.756 355.053 409.509C355.453 409.258 355.937 409.132 356.504 409.132C357.083 409.132 357.569 409.256 357.961 409.503C358.353 409.75 358.65 410.08 358.85 410.494C359.054 410.907 359.157 411.361 359.157 411.855V412.545C359.157 413.04 359.054 413.494 358.85 413.907C358.645 414.316 358.345 414.646 357.949 414.898C357.556 415.145 357.075 415.268 356.504 415.268C355.929 415.268 355.443 415.145 355.047 414.898C354.65 414.646 354.35 414.316 354.145 413.907C353.941 413.494 353.838 413.04 353.838 412.545ZM355.328 411.855V412.545C355.328 412.912 355.415 413.244 355.59 413.543C355.765 413.841 356.069 413.99 356.504 413.99C356.934 413.99 357.235 413.841 357.405 413.543C357.576 413.244 357.661 412.912 357.661 412.545V411.855C357.661 411.489 357.578 411.156 357.412 410.858C357.25 410.56 356.947 410.411 356.504 410.411C356.078 410.411 355.775 410.56 355.596 410.858C355.417 411.156 355.328 411.489 355.328 411.855ZM347.255 405.054V404.364C347.255 403.869 347.357 403.415 347.561 403.002C347.77 402.589 348.073 402.259 348.469 402.011C348.87 401.764 349.353 401.641 349.92 401.641C350.5 401.641 350.985 401.764 351.377 402.011C351.77 402.259 352.066 402.589 352.266 403.002C352.466 403.415 352.566 403.869 352.566 404.364V405.054C352.566 405.548 352.464 406.002 352.26 406.415C352.059 406.825 351.761 407.155 351.365 407.406C350.973 407.653 350.491 407.777 349.92 407.777C349.341 407.777 348.853 407.653 348.456 407.406C348.064 407.155 347.766 406.825 347.561 406.415C347.357 406.002 347.255 405.548 347.255 405.054ZM348.75 404.364V405.054C348.75 405.42 348.836 405.753 349.006 406.051C349.181 406.349 349.485 406.499 349.92 406.499C350.346 406.499 350.645 406.349 350.815 406.051C350.99 405.753 351.077 405.42 351.077 405.054V404.364C351.077 403.997 350.994 403.665 350.828 403.366C350.662 403.068 350.359 402.919 349.92 402.919C349.494 402.919 349.191 403.068 349.012 403.366C348.838 403.665 348.75 403.997 348.75 404.364ZM347.862 415L356.862 401.909H358.39L349.39 415H347.862Z" fill="#7ED287"/>
<path d="M326.817 544.179C325.939 544.179 325.155 544.028 324.464 543.725C323.778 543.423 323.235 543.003 322.835 542.466C322.438 541.925 322.225 541.298 322.195 540.587H324.202C324.228 540.974 324.358 541.311 324.592 541.597C324.831 541.878 325.142 542.095 325.526 542.249C325.909 542.402 326.335 542.479 326.804 542.479C327.32 542.479 327.776 542.389 328.172 542.21C328.572 542.031 328.886 541.782 329.112 541.462C329.337 541.138 329.45 540.766 329.45 540.344C329.45 539.905 329.337 539.519 329.112 539.187C328.89 538.85 328.564 538.586 328.134 538.394C327.707 538.202 327.192 538.107 326.587 538.107H325.481V536.496H326.587C327.072 536.496 327.499 536.408 327.865 536.234C328.236 536.059 328.526 535.816 328.734 535.505C328.943 535.19 329.048 534.821 329.048 534.399C329.048 533.994 328.956 533.643 328.773 533.344C328.594 533.042 328.338 532.805 328.006 532.635C327.678 532.464 327.29 532.379 326.842 532.379C326.416 532.379 326.018 532.458 325.647 532.616C325.281 532.769 324.982 532.991 324.752 533.281C324.522 533.566 324.398 533.909 324.381 534.31H322.47C322.491 533.602 322.7 532.98 323.097 532.443C323.497 531.906 324.026 531.487 324.682 531.184C325.338 530.881 326.067 530.73 326.868 530.73C327.707 530.73 328.432 530.894 329.041 531.222C329.655 531.546 330.128 531.979 330.46 532.52C330.797 533.061 330.963 533.653 330.959 534.297C330.963 535.03 330.759 535.652 330.345 536.163C329.936 536.675 329.391 537.018 328.709 537.192V537.295C329.578 537.427 330.251 537.772 330.729 538.33C331.21 538.888 331.449 539.581 331.445 540.408C331.449 541.128 331.249 541.773 330.844 542.344C330.443 542.915 329.896 543.365 329.201 543.693C328.506 544.017 327.712 544.179 326.817 544.179ZM338.418 544.179C337.54 544.179 336.756 544.028 336.066 543.725C335.38 543.423 334.837 543.003 334.436 542.466C334.04 541.925 333.827 541.298 333.797 540.587H335.804C335.83 540.974 335.96 541.311 336.194 541.597C336.433 541.878 336.744 542.095 337.127 542.249C337.511 542.402 337.937 542.479 338.406 542.479C338.921 542.479 339.377 542.389 339.773 542.21C340.174 542.031 340.487 541.782 340.713 541.462C340.939 541.138 341.052 540.766 341.052 540.344C341.052 539.905 340.939 539.519 340.713 539.187C340.491 538.85 340.165 538.586 339.735 538.394C339.309 538.202 338.793 538.107 338.188 538.107H337.082V536.496H338.188C338.674 536.496 339.1 536.408 339.467 536.234C339.837 536.059 340.127 535.816 340.336 535.505C340.545 535.19 340.649 534.821 340.649 534.399C340.649 533.994 340.558 533.643 340.374 533.344C340.195 533.042 339.94 532.805 339.607 532.635C339.279 532.464 338.891 532.379 338.444 532.379C338.018 532.379 337.619 532.458 337.249 532.616C336.882 532.769 336.584 532.991 336.354 533.281C336.124 533.566 336 533.909 335.983 534.31H334.072C334.093 533.602 334.302 532.98 334.698 532.443C335.099 531.906 335.627 531.487 336.283 531.184C336.94 530.881 337.668 530.73 338.469 530.73C339.309 530.73 340.033 530.894 340.643 531.222C341.256 531.546 341.729 531.979 342.062 532.52C342.398 533.061 342.565 533.653 342.56 534.297C342.565 535.03 342.36 535.652 341.947 536.163C341.538 536.675 340.992 537.018 340.31 537.192V537.295C341.18 537.427 341.853 537.772 342.33 538.33C342.812 538.888 343.05 539.581 343.046 540.408C343.05 541.128 342.85 541.773 342.445 542.344C342.045 542.915 341.497 543.365 340.803 543.693C340.108 544.017 339.313 544.179 338.418 544.179ZM352.295 541.545V540.855C352.295 540.361 352.398 539.909 352.602 539.5C352.811 539.087 353.114 538.756 353.51 538.509C353.911 538.258 354.394 538.132 354.961 538.132C355.54 538.132 356.026 538.256 356.418 538.503C356.81 538.75 357.107 539.08 357.307 539.494C357.511 539.907 357.614 540.361 357.614 540.855V541.545C357.614 542.04 357.511 542.494 357.307 542.907C357.102 543.316 356.802 543.646 356.406 543.898C356.013 544.145 355.532 544.268 354.961 544.268C354.386 544.268 353.9 544.145 353.504 543.898C353.107 543.646 352.807 543.316 352.602 542.907C352.398 542.494 352.295 542.04 352.295 541.545ZM353.785 540.855V541.545C353.785 541.912 353.872 542.244 354.047 542.543C354.222 542.841 354.526 542.99 354.961 542.99C355.391 542.99 355.692 542.841 355.862 542.543C356.033 542.244 356.118 541.912 356.118 541.545V540.855C356.118 540.489 356.035 540.156 355.869 539.858C355.707 539.56 355.404 539.411 354.961 539.411C354.535 539.411 354.232 539.56 354.053 539.858C353.874 540.156 353.785 540.489 353.785 540.855ZM345.712 534.054V533.364C345.712 532.869 345.814 532.415 346.018 532.002C346.227 531.589 346.53 531.259 346.926 531.011C347.327 530.764 347.81 530.641 348.377 530.641C348.957 530.641 349.442 530.764 349.835 531.011C350.227 531.259 350.523 531.589 350.723 532.002C350.923 532.415 351.023 532.869 351.023 533.364V534.054C351.023 534.548 350.921 535.002 350.717 535.415C350.516 535.825 350.218 536.155 349.822 536.406C349.43 536.653 348.948 536.777 348.377 536.777C347.798 536.777 347.31 536.653 346.913 536.406C346.521 536.155 346.223 535.825 346.018 535.415C345.814 535.002 345.712 534.548 345.712 534.054ZM347.207 533.364V534.054C347.207 534.42 347.293 534.753 347.463 535.051C347.638 535.349 347.942 535.499 348.377 535.499C348.803 535.499 349.102 535.349 349.272 535.051C349.447 534.753 349.534 534.42 349.534 534.054V533.364C349.534 532.997 349.451 532.665 349.285 532.366C349.119 532.068 348.816 531.919 348.377 531.919C347.951 531.919 347.648 532.068 347.469 532.366C347.295 532.665 347.207 532.997 347.207 533.364ZM346.319 544L355.319 530.909H356.847L347.847 544H346.319Z" fill="#FABE00"/>
<path d="M329.226 594.909V608H327.244V596.891H327.168L324.036 598.936V597.044L327.302 594.909H329.226ZM332.767 608V606.568L337.197 601.979C337.67 601.48 338.06 601.043 338.366 600.668C338.678 600.289 338.91 599.929 339.063 599.588C339.217 599.247 339.293 598.885 339.293 598.501C339.293 598.067 339.191 597.692 338.987 597.376C338.782 597.057 338.503 596.812 338.149 596.641C337.795 596.467 337.397 596.379 336.954 596.379C336.485 596.379 336.076 596.475 335.727 596.667C335.377 596.859 335.109 597.129 334.921 597.479C334.734 597.828 334.64 598.237 334.64 598.706H332.754C332.754 597.909 332.938 597.212 333.304 596.616C333.67 596.019 334.173 595.557 334.812 595.229C335.452 594.896 336.178 594.73 336.992 594.73C337.815 594.73 338.539 594.894 339.165 595.222C339.796 595.546 340.288 595.989 340.642 596.552C340.996 597.11 341.173 597.741 341.173 598.444C341.173 598.93 341.081 599.405 340.898 599.869C340.719 600.334 340.406 600.852 339.958 601.423C339.511 601.989 338.888 602.678 338.092 603.487L335.49 606.21V606.306H341.384V608H332.767ZM350.639 605.545V604.855C350.639 604.361 350.741 603.909 350.946 603.5C351.155 603.087 351.457 602.756 351.854 602.509C352.254 602.258 352.738 602.132 353.305 602.132C353.884 602.132 354.37 602.256 354.762 602.503C355.154 602.75 355.45 603.08 355.651 603.494C355.855 603.907 355.957 604.361 355.957 604.855V605.545C355.957 606.04 355.855 606.494 355.651 606.907C355.446 607.316 355.146 607.646 354.749 607.898C354.357 608.145 353.876 608.268 353.305 608.268C352.729 608.268 352.244 608.145 351.847 607.898C351.451 607.646 351.151 607.316 350.946 606.907C350.741 606.494 350.639 606.04 350.639 605.545ZM352.129 604.855V605.545C352.129 605.912 352.216 606.244 352.391 606.543C352.565 606.841 352.87 606.99 353.305 606.99C353.735 606.99 354.036 606.841 354.206 606.543C354.376 606.244 354.462 605.912 354.462 605.545V604.855C354.462 604.489 354.379 604.156 354.212 603.858C354.05 603.56 353.748 603.411 353.305 603.411C352.879 603.411 352.576 603.56 352.397 603.858C352.218 604.156 352.129 604.489 352.129 604.855ZM344.055 598.054V597.364C344.055 596.869 344.158 596.415 344.362 596.002C344.571 595.589 344.874 595.259 345.27 595.011C345.67 594.764 346.154 594.641 346.721 594.641C347.3 594.641 347.786 594.764 348.178 595.011C348.57 595.259 348.866 595.589 349.067 596.002C349.267 596.415 349.367 596.869 349.367 597.364V598.054C349.367 598.548 349.265 599.002 349.06 599.415C348.86 599.825 348.562 600.155 348.165 600.406C347.773 600.653 347.292 600.777 346.721 600.777C346.141 600.777 345.653 600.653 345.257 600.406C344.865 600.155 344.567 599.825 344.362 599.415C344.158 599.002 344.055 598.548 344.055 598.054ZM345.551 597.364V598.054C345.551 598.42 345.636 598.753 345.807 599.051C345.982 599.349 346.286 599.499 346.721 599.499C347.147 599.499 347.445 599.349 347.616 599.051C347.79 598.753 347.878 598.42 347.878 598.054V597.364C347.878 596.997 347.795 596.665 347.629 596.366C347.462 596.068 347.16 595.919 346.721 595.919C346.295 595.919 345.992 596.068 345.813 596.366C345.638 596.665 345.551 596.997 345.551 597.364ZM344.663 608L353.663 594.909H355.19L346.19 608H344.663Z" fill="#F21111"/>
<path d="M329.226 657.909V671H327.244V659.891H327.168L324.036 661.936V660.044L327.302 657.909H329.226ZM332.767 671V669.568L337.197 664.979C337.67 664.48 338.06 664.043 338.366 663.668C338.678 663.289 338.91 662.929 339.063 662.588C339.217 662.247 339.293 661.885 339.293 661.501C339.293 661.067 339.191 660.692 338.987 660.376C338.782 660.057 338.503 659.812 338.149 659.641C337.795 659.467 337.397 659.379 336.954 659.379C336.485 659.379 336.076 659.475 335.727 659.667C335.377 659.859 335.109 660.129 334.921 660.479C334.734 660.828 334.64 661.237 334.64 661.706H332.754C332.754 660.909 332.938 660.212 333.304 659.616C333.67 659.019 334.173 658.557 334.812 658.229C335.452 657.896 336.178 657.73 336.992 657.73C337.815 657.73 338.539 657.894 339.165 658.222C339.796 658.546 340.288 658.989 340.642 659.552C340.996 660.11 341.173 660.741 341.173 661.444C341.173 661.93 341.081 662.405 340.898 662.869C340.719 663.334 340.406 663.852 339.958 664.423C339.511 664.989 338.888 665.678 338.092 666.487L335.49 669.21V669.306H341.384V671H332.767ZM350.639 668.545V667.855C350.639 667.361 350.741 666.909 350.946 666.5C351.155 666.087 351.457 665.756 351.854 665.509C352.254 665.258 352.738 665.132 353.305 665.132C353.884 665.132 354.37 665.256 354.762 665.503C355.154 665.75 355.45 666.08 355.651 666.494C355.855 666.907 355.957 667.361 355.957 667.855V668.545C355.957 669.04 355.855 669.494 355.651 669.907C355.446 670.316 355.146 670.646 354.749 670.898C354.357 671.145 353.876 671.268 353.305 671.268C352.729 671.268 352.244 671.145 351.847 670.898C351.451 670.646 351.151 670.316 350.946 669.907C350.741 669.494 350.639 669.04 350.639 668.545ZM352.129 667.855V668.545C352.129 668.912 352.216 669.244 352.391 669.543C352.565 669.841 352.87 669.99 353.305 669.99C353.735 669.99 354.036 669.841 354.206 669.543C354.376 669.244 354.462 668.912 354.462 668.545V667.855C354.462 667.489 354.379 667.156 354.212 666.858C354.05 666.56 353.748 666.411 353.305 666.411C352.879 666.411 352.576 666.56 352.397 666.858C352.218 667.156 352.129 667.489 352.129 667.855ZM344.055 661.054V660.364C344.055 659.869 344.158 659.415 344.362 659.002C344.571 658.589 344.874 658.259 345.27 658.011C345.67 657.764 346.154 657.641 346.721 657.641C347.3 657.641 347.786 657.764 348.178 658.011C348.57 658.259 348.866 658.589 349.067 659.002C349.267 659.415 349.367 659.869 349.367 660.364V661.054C349.367 661.548 349.265 662.002 349.06 662.415C348.86 662.825 348.562 663.155 348.165 663.406C347.773 663.653 347.292 663.777 346.721 663.777C346.141 663.777 345.653 663.653 345.257 663.406C344.865 663.155 344.567 662.825 344.362 662.415C344.158 662.002 344.055 661.548 344.055 661.054ZM345.551 660.364V661.054C345.551 661.42 345.636 661.753 345.807 662.051C345.982 662.349 346.286 662.499 346.721 662.499C347.147 662.499 347.445 662.349 347.616 662.051C347.79 661.753 347.878 661.42 347.878 661.054V660.364C347.878 659.997 347.795 659.665 347.629 659.366C347.462 659.068 347.16 658.919 346.721 658.919C346.295 658.919 345.992 659.068 345.813 659.366C345.638 659.665 345.551 659.997 345.551 660.364ZM344.663 671L353.663 657.909H355.19L346.19 671H344.663Z" fill="#F21111"/>
<path d="M292.333 280C292.333 281.473 293.527 282.667 295 282.667C296.473 282.667 297.667 281.473 297.667 280C297.667 278.527 296.473 277.333 295 277.333C293.527 277.333 292.333 278.527 292.333 280ZM168 280.5H168.992V279.5H168V280.5ZM170.977 280.5H172.961V279.5H170.977V280.5ZM174.945 280.5H176.93V279.5H174.945V280.5ZM178.914 280.5H180.898V279.5H178.914V280.5ZM182.883 280.5H184.867V279.5H182.883V280.5ZM186.852 280.5H188.836V279.5H186.852V280.5ZM190.82 280.5H192.805V279.5H190.82V280.5ZM194.789 280.5H196.773V279.5H194.789V280.5ZM198.758 280.5H200.742V279.5H198.758V280.5ZM202.727 280.5H204.711V279.5H202.727V280.5ZM206.695 280.5H208.68V279.5H206.695V280.5ZM210.664 280.5H212.648V279.5H210.664V280.5ZM214.633 280.5H216.617V279.5H214.633V280.5ZM218.602 280.5H220.586V279.5H218.602V280.5ZM222.57 280.5H224.555V279.5H222.57V280.5ZM226.539 280.5H228.523V279.5H226.539V280.5ZM230.508 280.5H232.492V279.5H230.508V280.5ZM234.477 280.5H236.461V279.5H234.477V280.5ZM238.445 280.5H240.43V279.5H238.445V280.5ZM242.414 280.5H244.398V279.5H242.414V280.5ZM246.383 280.5H248.367V279.5H246.383V280.5ZM250.352 280.5H252.336V279.5H250.352V280.5ZM254.32 280.5H256.305V279.5H254.32V280.5ZM258.289 280.5H260.273V279.5H258.289V280.5ZM262.258 280.5H264.242V279.5H262.258V280.5ZM266.227 280.5H268.211V279.5H266.227V280.5ZM270.195 280.5H272.18V279.5H270.195V280.5ZM274.164 280.5H276.148V279.5H274.164V280.5ZM278.133 280.5H280.117V279.5H278.133V280.5ZM282.102 280.5H284.086V279.5H282.102V280.5ZM286.07 280.5H288.055V279.5H286.07V280.5ZM290.039 280.5H292.023V279.5H290.039V280.5ZM294.008 280.5H295V279.5H294.008V280.5Z" fill="#C5C5C5"/>
<path d="M292.333 345C292.333 346.473 293.527 347.667 295 347.667C296.473 347.667 297.667 346.473 297.667 345C297.667 343.527 296.473 342.333 295 342.333C293.527 342.333 292.333 343.527 292.333 345ZM168 345.5H168.992V344.5H168V345.5ZM170.977 345.5H172.961V344.5H170.977V345.5ZM174.945 345.5H176.93V344.5H174.945V345.5ZM178.914 345.5H180.898V344.5H178.914V345.5ZM182.883 345.5H184.867V344.5H182.883V345.5ZM186.852 345.5H188.836V344.5H186.852V345.5ZM190.82 345.5H192.805V344.5H190.82V345.5ZM194.789 345.5H196.773V344.5H194.789V345.5ZM198.758 345.5H200.742V344.5H198.758V345.5ZM202.727 345.5H204.711V344.5H202.727V345.5ZM206.695 345.5H208.68V344.5H206.695V345.5ZM210.664 345.5H212.648V344.5H210.664V345.5ZM214.633 345.5H216.617V344.5H214.633V345.5ZM218.602 345.5H220.586V344.5H218.602V345.5ZM222.57 345.5H224.555V344.5H222.57V345.5ZM226.539 345.5H228.523V344.5H226.539V345.5ZM230.508 345.5H232.492V344.5H230.508V345.5ZM234.477 345.5H236.461V344.5H234.477V345.5ZM238.445 345.5H240.43V344.5H238.445V345.5ZM242.414 345.5H244.398V344.5H242.414V345.5ZM246.383 345.5H248.367V344.5H246.383V345.5ZM250.352 345.5H252.336V344.5H250.352V345.5ZM254.32 345.5H256.305V344.5H254.32V345.5ZM258.289 345.5H260.273V344.5H258.289V345.5ZM262.258 345.5H264.242V344.5H262.258V345.5ZM266.227 345.5H268.211V344.5H266.227V345.5ZM270.195 345.5H272.18V344.5H270.195V345.5ZM274.164 345.5H276.148V344.5H274.164V345.5ZM278.133 345.5H280.117V344.5H278.133V345.5ZM282.102 345.5H284.086V344.5H282.102V345.5ZM286.07 345.5H288.055V344.5H286.07V345.5ZM290.039 345.5H292.023V344.5H290.039V345.5ZM294.008 345.5H295V344.5H294.008V345.5Z" fill="#C5C5C5"/>
<path d="M292.333 411C292.333 412.473 293.527 413.667 295 413.667C296.473 413.667 297.667 412.473 297.667 411C297.667 409.527 296.473 408.333 295 408.333C293.527 408.333 292.333 409.527 292.333 411ZM168 411.5H168.992V410.5H168V411.5ZM170.977 411.5H172.961V410.5H170.977V411.5ZM174.945 411.5H176.93V410.5H174.945V411.5ZM178.914 411.5H180.898V410.5H178.914V411.5ZM182.883 411.5H184.867V410.5H182.883V411.5ZM186.852 411.5H188.836V410.5H186.852V411.5ZM190.82 411.5H192.805V410.5H190.82V411.5ZM194.789 411.5H196.773V410.5H194.789V411.5ZM198.758 411.5H200.742V410.5H198.758V411.5ZM202.727 411.5H204.711V410.5H202.727V411.5ZM206.695 411.5H208.68V410.5H206.695V411.5ZM210.664 411.5H212.648V410.5H210.664V411.5ZM214.633 411.5H216.617V410.5H214.633V411.5ZM218.602 411.5H220.586V410.5H218.602V411.5ZM222.57 411.5H224.555V410.5H222.57V411.5ZM226.539 411.5H228.523V410.5H226.539V411.5ZM230.508 411.5H232.492V410.5H230.508V411.5ZM234.477 411.5H236.461V410.5H234.477V411.5ZM238.445 411.5H240.43V410.5H238.445V411.5ZM242.414 411.5H244.398V410.5H242.414V411.5ZM246.383 411.5H248.367V410.5H246.383V411.5ZM250.352 411.5H252.336V410.5H250.352V411.5ZM254.32 411.5H256.305V410.5H254.32V411.5ZM258.289 411.5H260.273V410.5H258.289V411.5ZM262.258 411.5H264.242V410.5H262.258V411.5ZM266.227 411.5H268.211V410.5H266.227V411.5ZM270.195 411.5H272.18V410.5H270.195V411.5ZM274.164 411.5H276.148V410.5H274.164V411.5ZM278.133 411.5H280.117V410.5H278.133V411.5ZM282.102 411.5H284.086V410.5H282.102V411.5ZM286.07 411.5H288.055V410.5H286.07V411.5ZM290.039 411.5H292.023V410.5H290.039V411.5ZM294.008 411.5H295V410.5H294.008V411.5Z" fill="#C5C5C5"/>
<path d="M292.333 475C292.333 476.473 293.527 477.667 295 477.667C296.473 477.667 297.667 476.473 297.667 475C297.667 473.527 296.473 472.333 295 472.333C293.527 472.333 292.333 473.527 292.333 475ZM168 475.5H168.992V474.5H168V475.5ZM170.977 475.5H172.961V474.5H170.977V475.5ZM174.945 475.5H176.93V474.5H174.945V475.5ZM178.914 475.5H180.898V474.5H178.914V475.5ZM182.883 475.5H184.867V474.5H182.883V475.5ZM186.852 475.5H188.836V474.5H186.852V475.5ZM190.82 475.5H192.805V474.5H190.82V475.5ZM194.789 475.5H196.773V474.5H194.789V475.5ZM198.758 475.5H200.742V474.5H198.758V475.5ZM202.727 475.5H204.711V474.5H202.727V475.5ZM206.695 475.5H208.68V474.5H206.695V475.5ZM210.664 475.5H212.648V474.5H210.664V475.5ZM214.633 475.5H216.617V474.5H214.633V475.5ZM218.602 475.5H220.586V474.5H218.602V475.5ZM222.57 475.5H224.555V474.5H222.57V475.5ZM226.539 475.5H228.523V474.5H226.539V475.5ZM230.508 475.5H232.492V474.5H230.508V475.5ZM234.477 475.5H236.461V474.5H234.477V475.5ZM238.445 475.5H240.43V474.5H238.445V475.5ZM242.414 475.5H244.398V474.5H242.414V475.5ZM246.383 475.5H248.367V474.5H246.383V475.5ZM250.352 475.5H252.336V474.5H250.352V475.5ZM254.32 475.5H256.305V474.5H254.32V475.5ZM258.289 475.5H260.273V474.5H258.289V475.5ZM262.258 475.5H264.242V474.5H262.258V475.5ZM266.227 475.5H268.211V474.5H266.227V475.5ZM270.195 475.5H272.18V474.5H270.195V475.5ZM274.164 475.5H276.148V474.5H274.164V475.5ZM278.133 475.5H280.117V474.5H278.133V475.5ZM282.102 475.5H284.086V474.5H282.102V475.5ZM286.07 475.5H288.055V474.5H286.07V475.5ZM290.039 475.5H292.023V474.5H290.039V475.5ZM294.008 475.5H295V474.5H294.008V475.5Z" fill="#C5C5C5"/>
<path d="M292.333 540C292.333 541.473 293.527 542.667 295 542.667C296.473 542.667 297.667 541.473 297.667 540C297.667 538.527 296.473 537.333 295 537.333C293.527 537.333 292.333 538.527 292.333 540ZM168 540.5H168.992V539.5H168V540.5ZM170.977 540.5H172.961V539.5H170.977V540.5ZM174.945 540.5H176.93V539.5H174.945V540.5ZM178.914 540.5H180.898V539.5H178.914V540.5ZM182.883 540.5H184.867V539.5H182.883V540.5ZM186.852 540.5H188.836V539.5H186.852V540.5ZM190.82 540.5H192.805V539.5H190.82V540.5ZM194.789 540.5H196.773V539.5H194.789V540.5ZM198.758 540.5H200.742V539.5H198.758V540.5ZM202.727 540.5H204.711V539.5H202.727V540.5ZM206.695 540.5H208.68V539.5H206.695V540.5ZM210.664 540.5H212.648V539.5H210.664V540.5ZM214.633 540.5H216.617V539.5H214.633V540.5ZM218.602 540.5H220.586V539.5H218.602V540.5ZM222.57 540.5H224.555V539.5H222.57V540.5ZM226.539 540.5H228.523V539.5H226.539V540.5ZM230.508 540.5H232.492V539.5H230.508V540.5ZM234.477 540.5H236.461V539.5H234.477V540.5ZM238.445 540.5H240.43V539.5H238.445V540.5ZM242.414 540.5H244.398V539.5H242.414V540.5ZM246.383 540.5H248.367V539.5H246.383V540.5ZM250.352 540.5H252.336V539.5H250.352V540.5ZM254.32 540.5H256.305V539.5H254.32V540.5ZM258.289 540.5H260.273V539.5H258.289V540.5ZM262.258 540.5H264.242V539.5H262.258V540.5ZM266.227 540.5H268.211V539.5H266.227V540.5ZM270.195 540.5H272.18V539.5H270.195V540.5ZM274.164 540.5H276.148V539.5H274.164V540.5ZM278.133 540.5H280.117V539.5H278.133V540.5ZM282.102 540.5H284.086V539.5H282.102V540.5ZM286.07 540.5H288.055V539.5H286.07V540.5ZM290.039 540.5H292.023V539.5H290.039V540.5ZM294.008 540.5H295V539.5H294.008V540.5Z" fill="#C5C5C5"/>
<path d="M292.333 602C292.333 603.473 293.527 604.667 295 604.667C296.473 604.667 297.667 603.473 297.667 602C297.667 600.527 296.473 599.333 295 599.333C293.527 599.333 292.333 600.527 292.333 602ZM168 602.5H168.992V601.5H168V602.5ZM170.977 602.5H172.961V601.5H170.977V602.5ZM174.945 602.5H176.93V601.5H174.945V602.5ZM178.914 602.5H180.898V601.5H178.914V602.5ZM182.883 602.5H184.867V601.5H182.883V602.5ZM186.852 602.5H188.836V601.5H186.852V602.5ZM190.82 602.5H192.805V601.5H190.82V602.5ZM194.789 602.5H196.773V601.5H194.789V602.5ZM198.758 602.5H200.742V601.5H198.758V602.5ZM202.727 602.5H204.711V601.5H202.727V602.5ZM206.695 602.5H208.68V601.5H206.695V602.5ZM210.664 602.5H212.648V601.5H210.664V602.5ZM214.633 602.5H216.617V601.5H214.633V602.5ZM218.602 602.5H220.586V601.5H218.602V602.5ZM222.57 602.5H224.555V601.5H222.57V602.5ZM226.539 602.5H228.523V601.5H226.539V602.5ZM230.508 602.5H232.492V601.5H230.508V602.5ZM234.477 602.5H236.461V601.5H234.477V602.5ZM238.445 602.5H240.43V601.5H238.445V602.5ZM242.414 602.5H244.398V601.5H242.414V602.5ZM246.383 602.5H248.367V601.5H246.383V602.5ZM250.352 602.5H252.336V601.5H250.352V602.5ZM254.32 602.5H256.305V601.5H254.32V602.5ZM258.289 602.5H260.273V601.5H258.289V602.5ZM262.258 602.5H264.242V601.5H262.258V602.5ZM266.227 602.5H268.211V601.5H266.227V602.5ZM270.195 602.5H272.18V601.5H270.195V602.5ZM274.164 602.5H276.148V601.5H274.164V602.5ZM278.133 602.5H280.117V601.5H278.133V602.5ZM282.102 602.5H284.086V601.5H282.102V602.5ZM286.07 602.5H288.055V601.5H286.07V602.5ZM290.039 602.5H292.023V601.5H290.039V602.5ZM294.008 602.5H295V601.5H294.008V602.5Z" fill="#C5C5C5"/>
<path d="M292.333 666C292.333 667.473 293.527 668.667 295 668.667C296.473 668.667 297.667 667.473 297.667 666C297.667 664.527 296.473 663.333 295 663.333C293.527 663.333 292.333 664.527 292.333 666ZM168 666.5H168.992V665.5H168V666.5ZM170.977 666.5H172.961V665.5H170.977V666.5ZM174.945 666.5H176.93V665.5H174.945V666.5ZM178.914 666.5H180.898V665.5H178.914V666.5ZM182.883 666.5H184.867V665.5H182.883V666.5ZM186.852 666.5H188.836V665.5H186.852V666.5ZM190.82 666.5H192.805V665.5H190.82V666.5ZM194.789 666.5H196.773V665.5H194.789V666.5ZM198.758 666.5H200.742V665.5H198.758V666.5ZM202.727 666.5H204.711V665.5H202.727V666.5ZM206.695 666.5H208.68V665.5H206.695V666.5ZM210.664 666.5H212.648V665.5H210.664V666.5ZM214.633 666.5H216.617V665.5H214.633V666.5ZM218.602 666.5H220.586V665.5H218.602V666.5ZM222.57 666.5H224.555V665.5H222.57V666.5ZM226.539 666.5H228.523V665.5H226.539V666.5ZM230.508 666.5H232.492V665.5H230.508V666.5ZM234.477 666.5H236.461V665.5H234.477V666.5ZM238.445 666.5H240.43V665.5H238.445V666.5ZM242.414 666.5H244.398V665.5H242.414V666.5ZM246.383 666.5H248.367V665.5H246.383V666.5ZM250.352 666.5H252.336V665.5H250.352V666.5ZM254.32 666.5H256.305V665.5H254.32V666.5ZM258.289 666.5H260.273V665.5H258.289V666.5ZM262.258 666.5H264.242V665.5H262.258V666.5ZM266.227 666.5H268.211V665.5H266.227V666.5ZM270.195 666.5H272.18V665.5H270.195V666.5ZM274.164 666.5H276.148V665.5H274.164V666.5ZM278.133 666.5H280.117V665.5H278.133V666.5ZM282.102 666.5H284.086V665.5H282.102V666.5ZM286.07 666.5H288.055V665.5H286.07V666.5ZM290.039 666.5H292.023V665.5H290.039V666.5ZM294.008 666.5H295V665.5H294.008V666.5Z" fill="#C5C5C5"/>
<rect width="390" height="68" fill="#7ED287"/>
<path d="M157.276 44.252C156.716 44.252 156.268 44.1027 155.932 43.804C155.596 43.5053 155.428 43.0947 155.428 42.572V32.772C155.428 30.0653 156.203 27.9467 157.752 26.416C159.301 24.8853 161.457 24.12 164.22 24.12C166.031 24.12 167.599 24.4653 168.924 25.156C170.249 25.8467 171.257 26.8453 171.948 28.152C172.657 29.4587 173.012 30.9987 173.012 32.772V42.572C173.012 43.0947 172.844 43.5053 172.508 43.804C172.172 44.1027 171.724 44.252 171.164 44.252C170.604 44.252 170.147 44.1027 169.792 43.804C169.456 43.4867 169.288 43.076 169.288 42.572V38.008H159.152V42.572C159.152 43.076 158.975 43.4867 158.62 43.804C158.284 44.1027 157.836 44.252 157.276 44.252ZM169.288 35.124V32.688C169.288 30.8213 168.859 29.4213 168 28.488C167.16 27.536 165.9 27.06 164.22 27.06C160.841 27.06 159.152 28.936 159.152 32.688V35.124H169.288ZM177.729 44.28C177.169 44.28 176.721 44.1307 176.385 43.832C176.049 43.5333 175.881 43.1227 175.881 42.6V32.044C175.881 29.5613 176.656 27.62 178.205 26.22C179.754 24.82 181.901 24.12 184.645 24.12C187.389 24.12 189.536 24.82 191.085 26.22C192.634 27.62 193.409 29.5613 193.409 32.044V42.6C193.409 43.1227 193.241 43.5333 192.905 43.832C192.569 44.1307 192.121 44.28 191.561 44.28C191.001 44.28 190.544 44.1307 190.189 43.832C189.853 43.5147 189.685 43.104 189.685 42.6V31.96C189.685 30.3733 189.256 29.16 188.397 28.32C187.538 27.48 186.288 27.06 184.645 27.06C183.002 27.06 181.752 27.48 180.893 28.32C180.034 29.16 179.605 30.3733 179.605 31.96V42.6C179.605 43.104 179.428 43.5147 179.073 43.832C178.737 44.1307 178.289 44.28 177.729 44.28ZM206.115 44.28C204.005 44.28 202.176 43.8787 200.627 43.076C199.077 42.2733 197.892 41.116 197.071 39.604C196.249 38.092 195.839 36.3 195.839 34.228C195.839 32.156 196.249 30.364 197.071 28.852C197.892 27.3213 199.068 26.1547 200.599 25.352C202.148 24.5307 203.968 24.12 206.059 24.12C207.795 24.12 209.4 24.4187 210.875 25.016C212.349 25.6133 213.441 26.4067 214.151 27.396C214.375 27.6947 214.487 28.0027 214.487 28.32C214.487 28.7867 214.235 29.2067 213.731 29.58C213.507 29.748 213.227 29.832 212.891 29.832C212.611 29.832 212.331 29.776 212.051 29.664C211.771 29.5333 211.537 29.356 211.351 29.132C210.716 28.404 209.979 27.8813 209.139 27.564C208.299 27.228 207.272 27.06 206.059 27.06C204.024 27.06 202.437 27.6947 201.299 28.964C200.16 30.2147 199.591 31.9693 199.591 34.228C199.591 36.468 200.16 38.2133 201.299 39.464C202.456 40.7147 204.061 41.34 206.115 41.34C207.813 41.34 209.139 41.0133 210.091 40.36C211.061 39.7067 211.547 38.8013 211.547 37.644V37.028C211.547 36.636 211.453 36.3653 211.267 36.216C211.099 36.0667 210.8 35.992 210.371 35.992H206.703C206.18 35.992 205.769 35.8707 205.471 35.628C205.172 35.3667 205.023 35.012 205.023 34.564C205.023 34.0973 205.163 33.7427 205.443 33.5C205.741 33.2387 206.161 33.108 206.703 33.108H212.135C213.217 33.108 214.011 33.3413 214.515 33.808C215.019 34.256 215.271 34.9747 215.271 35.964V37.056C215.271 38.4747 214.888 39.7347 214.123 40.836C213.357 41.9187 212.275 42.768 210.875 43.384C209.493 43.9813 207.907 44.28 206.115 44.28ZM228.323 44.28C226.139 44.28 224.253 43.86 222.667 43.02C221.099 42.1613 219.904 40.976 219.083 39.464C218.261 37.9333 217.851 36.1787 217.851 34.2C217.851 32.2213 218.261 30.476 219.083 28.964C219.904 27.4333 221.099 26.248 222.667 25.408C224.253 24.5493 226.139 24.12 228.323 24.12C230.507 24.12 232.383 24.5493 233.951 25.408C235.537 26.248 236.741 27.4333 237.563 28.964C238.384 30.476 238.795 32.2213 238.795 34.2C238.795 36.1787 238.384 37.9333 237.563 39.464C236.741 40.976 235.537 42.1613 233.951 43.02C232.383 43.86 230.507 44.28 228.323 44.28ZM228.323 41.34C230.451 41.34 232.103 40.7053 233.279 39.436C234.455 38.148 235.043 36.4027 235.043 34.2C235.043 31.9787 234.427 30.2333 233.195 28.964C231.981 27.6947 230.264 27.06 228.043 27.06C226.008 27.06 224.421 27.7133 223.283 29.02C222.163 30.308 221.603 32.0347 221.603 34.2C221.603 36.4027 222.191 38.148 223.367 39.436C224.543 40.7053 226.195 41.34 228.323 41.34Z" fill="white"/>
<path d="M38 44L26 34L38 24" stroke="white" stroke-width="3.16" stroke-linecap="round"/>
</svg>
