<svg width="434" height="876" viewBox="0 0 434 876" fill="none" xmlns="http://www.w3.org/2000/svg">
<path d="M22 56H412V836C412 847.046 403.046 856 392 856H42C30.9543 856 22 847.046 22 836V56Z" fill="white"/>
<rect x="22" y="56" width="390" height="68" fill="#7ED287"/>
<rect x="42" y="80" width="24" height="3.15789" rx="1.57895" fill="white"/>
<rect x="42" y="88.4209" width="24" height="3.15789" rx="1.57895" fill="white"/>
<rect x="42" y="96.8418" width="24" height="3.15789" rx="1.57895" fill="white"/>
<path d="M179.276 100.252C178.716 100.252 178.268 100.103 177.932 99.804C177.596 99.5053 177.428 99.0947 177.428 98.572V88.772C177.428 86.0653 178.203 83.9467 179.752 82.416C181.301 80.8853 183.457 80.12 186.22 80.12C188.031 80.12 189.599 80.4653 190.924 81.156C192.249 81.8467 193.257 82.8453 193.948 84.152C194.657 85.4587 195.012 86.9987 195.012 88.772V98.572C195.012 99.0947 194.844 99.5053 194.508 99.804C194.172 100.103 193.724 100.252 193.164 100.252C192.604 100.252 192.147 100.103 191.792 99.804C191.456 99.4867 191.288 99.076 191.288 98.572V94.008H181.152V98.572C181.152 99.076 180.975 99.4867 180.62 99.804C180.284 100.103 179.836 100.252 179.276 100.252ZM191.288 91.124V88.688C191.288 86.8213 190.859 85.4213 190 84.488C189.16 83.536 187.9 83.06 186.22 83.06C182.841 83.06 181.152 84.936 181.152 88.688V91.124H191.288ZM199.729 100.28C199.169 100.28 198.721 100.131 198.385 99.832C198.049 99.5333 197.881 99.1227 197.881 98.6V88.044C197.881 85.5613 198.656 83.62 200.205 82.22C201.754 80.82 203.901 80.12 206.645 80.12C209.389 80.12 211.536 80.82 213.085 82.22C214.634 83.62 215.409 85.5613 215.409 88.044V98.6C215.409 99.1227 215.241 99.5333 214.905 99.832C214.569 100.131 214.121 100.28 213.561 100.28C213.001 100.28 212.544 100.131 212.189 99.832C211.853 99.5147 211.685 99.104 211.685 98.6V87.96C211.685 86.3733 211.256 85.16 210.397 84.32C209.538 83.48 208.288 83.06 206.645 83.06C205.002 83.06 203.752 83.48 202.893 84.32C202.034 85.16 201.605 86.3733 201.605 87.96V98.6C201.605 99.104 201.428 99.5147 201.073 99.832C200.737 100.131 200.289 100.28 199.729 100.28ZM228.115 100.28C226.005 100.28 224.176 99.8787 222.627 99.076C221.077 98.2733 219.892 97.116 219.071 95.604C218.249 94.092 217.839 92.3 217.839 90.228C217.839 88.156 218.249 86.364 219.071 84.852C219.892 83.3213 221.068 82.1547 222.599 81.352C224.148 80.5307 225.968 80.12 228.059 80.12C229.795 80.12 231.4 80.4187 232.875 81.016C234.349 81.6133 235.441 82.4067 236.151 83.396C236.375 83.6947 236.487 84.0027 236.487 84.32C236.487 84.7867 236.235 85.2067 235.731 85.58C235.507 85.748 235.227 85.832 234.891 85.832C234.611 85.832 234.331 85.776 234.051 85.664C233.771 85.5333 233.537 85.356 233.351 85.132C232.716 84.404 231.979 83.8813 231.139 83.564C230.299 83.228 229.272 83.06 228.059 83.06C226.024 83.06 224.437 83.6947 223.299 84.964C222.16 86.2147 221.591 87.9693 221.591 90.228C221.591 92.468 222.16 94.2133 223.299 95.464C224.456 96.7147 226.061 97.34 228.115 97.34C229.813 97.34 231.139 97.0133 232.091 96.36C233.061 95.7067 233.547 94.8013 233.547 93.644V93.028C233.547 92.636 233.453 92.3653 233.267 92.216C233.099 92.0667 232.8 91.992 232.371 91.992H228.703C228.18 91.992 227.769 91.8707 227.471 91.628C227.172 91.3667 227.023 91.012 227.023 90.564C227.023 90.0973 227.163 89.7427 227.443 89.5C227.741 89.2387 228.161 89.108 228.703 89.108H234.135C235.217 89.108 236.011 89.3413 236.515 89.808C237.019 90.256 237.271 90.9747 237.271 91.964V93.056C237.271 94.4747 236.888 95.7347 236.123 96.836C235.357 97.9187 234.275 98.768 232.875 99.384C231.493 99.9813 229.907 100.28 228.115 100.28ZM250.323 100.28C248.139 100.28 246.253 99.86 244.667 99.02C243.099 98.1613 241.904 96.976 241.083 95.464C240.261 93.9333 239.851 92.1787 239.851 90.2C239.851 88.2213 240.261 86.476 241.083 84.964C241.904 83.4333 243.099 82.248 244.667 81.408C246.253 80.5493 248.139 80.12 250.323 80.12C252.507 80.12 254.383 80.5493 255.951 81.408C257.537 82.248 258.741 83.4333 259.563 84.964C260.384 86.476 260.795 88.2213 260.795 90.2C260.795 92.1787 260.384 93.9333 259.563 95.464C258.741 96.976 257.537 98.1613 255.951 99.02C254.383 99.86 252.507 100.28 250.323 100.28ZM250.323 97.34C252.451 97.34 254.103 96.7053 255.279 95.436C256.455 94.148 257.043 92.4027 257.043 90.2C257.043 87.9787 256.427 86.2333 255.195 84.964C253.981 83.6947 252.264 83.06 250.043 83.06C248.008 83.06 246.421 83.7133 245.283 85.02C244.163 86.308 243.603 88.0347 243.603 90.2C243.603 92.4027 244.191 94.148 245.367 95.436C246.543 96.7053 248.195 97.34 250.323 97.34Z" fill="white"/>
<rect x="42.5" y="143.5" width="349" height="47" rx="9.5" fill="#F4FBF4" stroke="#7ED287"/>
<path d="M67.8 165.704V160.216H69.048V173.464H67.8V166.76H64.856C63.992 168.424 62.616 169.912 60.632 171.096L59.864 170.152C62.936 168.312 64.472 165.736 64.712 162.728H60.472V161.656H66.008C66.008 163.064 65.8 164.424 65.32 165.704H67.8ZM70.792 159.832H72.04V174.184H70.792V159.832ZM79.6548 161.08V163.656C79.6548 166.28 81.3668 168.92 83.4948 169.88L82.7108 170.936C81.0788 170.136 79.7028 168.44 79.0148 166.392C78.3588 168.552 76.9828 170.344 75.3028 171.208L74.5028 170.136C76.6148 169.128 78.3588 166.376 78.3588 163.656V161.08H79.6548ZM84.9988 159.832H86.3108V174.216H84.9988V159.832ZM92.1655 171.288V172.968H101.03V174.008H90.8695V170.296H99.3655V168.712H90.8215V167.672H100.678V171.288H92.1655ZM100.31 165.176H102.31V166.232H89.2855V165.176H98.9975C99.3175 163.592 99.3335 162.44 99.3335 161.496H90.9495V160.44H100.63V161.352C100.63 162.328 100.63 163.56 100.31 165.176ZM112.447 162.584V163.88C112.447 166.376 113.519 168.872 115.503 169.992L114.703 170.952C113.311 170.12 112.319 168.584 111.823 166.76C111.327 168.728 110.287 170.408 108.863 171.304L108.063 170.328C110.063 169.128 111.183 166.52 111.183 163.88V162.584H108.463V161.512H115.007V162.584H112.447ZM116.287 164.984V160.152H117.535V173.432H116.287V166.056H113.919V164.984H116.287ZM119.167 159.816H120.431V174.168H119.167V159.816ZM124.397 170.712V169.656H134.333V174.2H133.021V170.712H124.397ZM125.901 161.464V164.248H132.973V161.464H125.901ZM130.109 167.112H135.933V168.168H122.941V167.112H128.797V165.288H124.621V160.424H134.269V165.288H130.109V167.112ZM142.791 160.744H149.271C149.271 164.376 146.727 166.952 142.615 168.12L142.071 167.096C145.479 166.12 147.607 164.248 147.879 161.816H142.791V160.744ZM145.751 169.672V172.92H152.439V169.672H145.751ZM144.455 173.976V168.632H153.735V173.976H144.455ZM152.407 159.832H153.735V168.024H152.407V164.6H149.286V163.528H152.407V159.832ZM163.813 166.632L163.109 167.624C161.781 167.08 160.789 166.024 160.277 164.792C159.765 166.152 158.741 167.368 157.349 167.992L156.645 166.984C158.517 166.136 159.637 164.248 159.637 162.616V160.68H160.901V162.616C160.901 164.232 161.957 165.896 163.813 166.632ZM159.093 170.36V169.304H168.741V174.184H167.429V170.36H159.093ZM167.477 159.848H168.741V168.52H167.477V164.648H165.653V168.424H164.405V160.088H165.653V163.576H167.477V159.848Z" fill="#7ED287"/>
<path d="M50.088 236.968H51.672V248.056H50.088V236.968ZM43.056 237.856H44.628V240.532H46.932V237.856H48.504V245.476H43.056V237.856ZM44.628 241.768V244.216H46.932V241.768H44.628ZM60.9591 242.332L60.1071 243.448C59.3751 243.004 58.9071 242.308 58.6311 241.48C58.3671 242.332 57.9111 243.088 57.1551 243.568C56.3991 243.076 55.9431 242.32 55.6791 241.456C55.4031 242.284 54.9351 242.992 54.2031 243.448L53.3391 242.332C54.6231 241.516 54.9351 240.04 54.9351 238.696V237.724H56.4231V238.696C56.4231 239.668 56.5551 240.784 57.1671 241.66C57.7551 240.784 57.8871 239.68 57.8871 238.696V237.724H59.3631V238.696C59.3631 240.088 59.6751 241.54 60.9591 242.332ZM56.6271 244.252V246.58H62.9751V247.84H55.0311V244.252H56.6271ZM62.5911 240.136H63.6951V241.432H62.5911V245.044H61.0071V236.98H62.5911V240.136ZM68.9048 238.024V244C70.2968 243.964 71.7968 243.844 73.3448 243.544L73.5008 244.84C71.6648 245.224 69.8888 245.32 68.2808 245.32H67.3208V238.024H68.9048ZM77.1848 241.144V242.452H75.6368V248.008H74.0528V236.968H75.6368V241.144H77.1848ZM85.2838 240.736V238.768H80.7358V240.736H85.2838ZM86.8318 237.52V241.984H79.1758V237.52H86.8318ZM88.0318 243.16V244.42H83.7838V248.032H82.1998V244.42H78.0238V243.16H88.0318ZM100.31 239.2V240.448H92.6895V237.088H94.2735V239.2H100.31ZM94.1895 246.016V246.712H100.598V247.9H92.5935V244.9H98.6895V244.276H92.5815V243.088H100.286V246.016H94.1895ZM91.4535 241.156H101.462V242.404H91.4535V241.156ZM105.121 240.628V242.176H109.849V240.628H105.121ZM108.277 245.464H112.501V246.748H102.493V245.464H106.693V243.436H103.549V237.664H105.121V239.38H109.849V237.664H111.409V243.436H108.277V245.464Z" fill="#7ED287"/>
<path d="M44.954 264.166C44.954 264.88 45.542 265.3 46.438 265.3C47.334 265.3 47.95 264.88 47.95 264.166C47.95 263.438 47.334 263.032 46.438 263.032C45.542 263.032 44.954 263.438 44.954 264.166ZM50.316 267.106L50.442 268.366C47.838 268.842 44.926 268.884 42.77 268.898L42.56 267.47C43.442 267.47 44.464 267.47 45.528 267.442V266.546C44.156 266.28 43.232 265.384 43.232 264.166C43.232 262.71 44.562 261.702 46.438 261.702C48.328 261.702 49.658 262.71 49.658 264.166C49.658 265.37 48.748 266.266 47.376 266.532V267.372C48.384 267.316 49.378 267.246 50.316 267.106ZM48.51 272.818C50.162 272.818 51.058 272.524 51.058 271.894C51.058 271.264 50.162 270.97 48.51 270.97C46.844 270.97 45.962 271.264 45.962 271.894C45.962 272.524 46.844 272.818 48.51 272.818ZM48.51 269.584C51.212 269.584 52.906 270.452 52.906 271.894C52.906 273.336 51.212 274.204 48.51 274.204C45.794 274.204 44.114 273.336 44.114 271.894C44.114 270.452 45.794 269.584 48.51 269.584ZM52.822 264.6H54.446V266.126H52.822V269.416H50.974V261.31H52.822V264.6ZM63.3909 266.504L62.5089 267.946C61.0389 267.512 60.0449 266.63 59.4709 265.51C58.8829 266.728 57.8329 267.708 56.3069 268.17L55.4109 266.714C57.5669 266.07 58.5049 264.446 58.5049 262.878V261.688H60.3809V262.878C60.3809 264.404 61.3049 265.902 63.3909 266.504ZM64.3569 272.58V271.418H59.4569V272.58H64.3569ZM64.3569 270.004V268.8H66.1909V274.05H57.6229V268.8H59.4569V270.004H64.3569ZM64.3289 261.31H66.1909V268.24H64.3289V261.31ZM70.9358 267.386V269.71C72.8958 269.696 74.5198 269.598 76.3398 269.29L76.5358 270.788C74.4358 271.152 72.5458 271.236 70.2078 271.236H69.0458V265.93H73.2318V263.872H69.0318V262.402H75.1218V267.386H70.9358ZM77.2358 261.296H79.0838V274.232H77.2358V261.296ZM83.2407 270.984V269.528H92.0187V274.218H90.1707V270.984H83.2407ZM88.1267 265.846H90.1707V264.516H88.1267C88.1687 264.726 88.1967 264.936 88.1967 265.174C88.1967 265.398 88.1687 265.622 88.1267 265.846ZM84.7947 266.798C85.7467 266.798 86.4467 266.196 86.4467 265.174C86.4467 264.166 85.7467 263.564 84.7947 263.564C83.8567 263.564 83.1567 264.166 83.1567 265.174C83.1567 266.196 83.8567 266.798 84.7947 266.798ZM90.1707 261.31H92.0187V268.94H90.1707V267.316H87.3707C86.7547 267.974 85.8307 268.38 84.7947 268.38C82.8907 268.38 81.4067 267.036 81.4067 265.174C81.4067 263.326 82.8907 261.982 84.7947 261.982C85.8447 261.982 86.7687 262.388 87.3847 263.046H90.1707V261.31ZM97.5811 273V271.449L101.205 268.093C101.514 267.795 101.772 267.526 101.981 267.288C102.193 267.049 102.354 266.815 102.463 266.587C102.573 266.355 102.627 266.104 102.627 265.836C102.627 265.538 102.559 265.281 102.423 265.065C102.288 264.847 102.102 264.679 101.867 264.563C101.631 264.444 101.365 264.384 101.066 264.384C100.755 264.384 100.483 264.447 100.251 264.573C100.019 264.699 99.8399 264.88 99.714 265.115C99.588 265.35 99.525 265.63 99.525 265.955H97.4817C97.4817 265.289 97.6325 264.711 97.9341 264.22C98.2357 263.73 98.6583 263.35 99.2019 263.082C99.7454 262.813 100.372 262.679 101.081 262.679C101.81 262.679 102.445 262.808 102.985 263.067C103.529 263.322 103.951 263.677 104.253 264.131C104.555 264.585 104.705 265.105 104.705 265.692C104.705 266.076 104.629 266.456 104.477 266.83C104.328 267.205 104.061 267.621 103.676 268.078C103.292 268.532 102.75 269.077 102.051 269.714L100.564 271.17V271.24H104.84V273H97.5811ZM111.006 267.358V265.538H108.556V267.358H111.006ZM112.812 266.224V268.828H106.722V262.164H108.556V264.124H111.006V262.178H112.812V264.74H115.108V261.324H116.956V270.83H115.108V266.224H112.812ZM110.292 272.51H117.236V273.98H108.444V269.906H110.292V272.51ZM123.275 266.462L122.771 265.104C125.361 264.992 126.621 264.376 126.971 263.648H123.415V262.318H127.181V261.296H129.029V262.318H132.823V263.648H129.239C129.603 264.376 130.863 264.992 133.453 265.104L132.935 266.462C130.541 266.336 128.917 265.748 128.105 264.796C127.307 265.748 125.683 266.336 123.275 266.462ZM133.929 268.142H129.043V268.912H132.529V272.104H125.473V272.776H132.865V274.106H123.639V270.858H130.709V270.242H123.625V268.912H127.195V268.142H122.323V266.784H133.929V268.142ZM146.836 267.54V269.024H141.88V274.204H140.004V269.024H135.188V267.54H143.308C143.63 265.902 143.658 264.642 143.658 263.536H136.518V262.052H145.464V263.214C145.464 264.418 145.464 265.734 145.142 267.54H146.836ZM161.191 266.392L159.371 266.21C159.665 265.062 159.707 264.194 159.707 263.34H152.623V261.884H161.555V262.948C161.555 263.97 161.555 265.062 161.191 266.392ZM157.047 272.818C158.797 272.818 159.791 272.468 159.791 271.782C159.791 271.082 158.797 270.732 157.047 270.732C155.311 270.732 154.317 271.082 154.317 271.782C154.317 272.468 155.311 272.818 157.047 272.818ZM157.047 269.346C159.833 269.346 161.625 270.27 161.625 271.782C161.625 273.28 159.833 274.204 157.047 274.204C154.275 274.204 152.483 273.28 152.483 271.782C152.483 270.27 154.275 269.346 157.047 269.346ZM157.467 267.078H162.927V268.534H151.321V267.078H155.619V264.824H157.467V267.078ZM168.918 262.304V264.18C168.918 266.504 169.828 268.842 171.9 269.864L170.78 271.32C169.436 270.634 168.526 269.388 167.994 267.848C167.434 269.486 166.468 270.844 165.012 271.558L163.906 270.06C166.076 269.038 167.056 266.574 167.056 264.18V262.304H168.918ZM176.142 266.266V267.806H174.266V274.204H172.418V261.31H174.266V266.266H176.142ZM178.171 266.658L177.555 265.23C179.949 265.02 181.209 264.18 181.531 263.312H178.115V261.842H187.649V263.312H184.219C184.541 264.18 185.801 265.02 188.209 265.23L187.565 266.658C185.143 266.448 183.561 265.538 182.875 264.32C182.189 265.538 180.607 266.448 178.171 266.658ZM185.451 271.88C185.451 271.222 184.569 270.942 182.847 270.942C181.125 270.942 180.243 271.222 180.243 271.88C180.243 272.524 181.125 272.804 182.847 272.804C184.569 272.804 185.451 272.524 185.451 271.88ZM188.699 268.632H183.799V269.584C186.011 269.766 187.327 270.564 187.327 271.88C187.327 273.364 185.633 274.204 182.847 274.204C180.061 274.204 178.381 273.364 178.381 271.88C178.381 270.55 179.711 269.752 181.951 269.57V268.632H177.051V267.162H188.699V268.632Z" fill="black"/>
<path d="M44.52 285.25C44.52 286.132 45.346 286.706 46.55 286.706C47.74 286.706 48.566 286.132 48.566 285.25C48.566 284.382 47.74 283.808 46.55 283.808C45.346 283.808 44.52 284.382 44.52 285.25ZM50.554 288.33L50.638 289.142C48.006 289.618 45.038 289.66 42.882 289.66L42.728 288.736C43.694 288.736 44.814 288.736 45.99 288.694V287.532C44.464 287.364 43.456 286.496 43.456 285.25C43.456 283.878 44.702 282.954 46.55 282.954C48.384 282.954 49.644 283.878 49.644 285.25C49.644 286.482 48.65 287.336 47.138 287.518V288.638C48.3 288.582 49.476 288.498 50.554 288.33ZM48.454 294.126C50.316 294.126 51.422 293.65 51.422 292.824C51.422 292.012 50.316 291.522 48.454 291.522C46.592 291.522 45.472 292.012 45.472 292.824C45.472 293.65 46.592 294.126 48.454 294.126ZM48.454 290.64C51.002 290.64 52.57 291.438 52.57 292.824C52.57 294.21 51.002 295.022 48.454 295.022C45.892 295.022 44.338 294.21 44.338 292.824C44.338 291.438 45.892 290.64 48.454 290.64ZM52.472 285.992H54.306V286.944H52.472V290.5H51.324V282.492H52.472V285.992ZM63.2229 287.966L62.6629 288.862C61.2209 288.372 60.0589 287.336 59.4849 285.992C58.9389 287.434 57.7769 288.568 56.2789 289.114L55.6909 288.204C57.5949 287.532 58.8969 285.88 58.8969 284.074V282.898H60.0449V284.074C60.0449 285.796 61.3609 287.364 63.2229 287.966ZM64.7909 293.944V292.278H58.9669V293.944H64.7909ZM64.7909 291.382V289.842H65.9249V294.868H57.8329V289.842H58.9669V291.382H64.7909ZM64.7769 282.492H65.9249V289.226H64.7769V282.492ZM70.3758 288.12V291.06C72.4338 291.06 74.2818 290.962 76.4798 290.612L76.5918 291.55C74.3238 291.928 72.4198 292.012 70.2638 292.012H69.2278V287.196H73.8478V284.578H69.1858V283.64H75.0098V288.12H70.3758ZM77.6558 282.464H78.8038V295.05H77.6558V282.464ZM83.3247 291.508V290.57H91.7247V295.05H90.5627V291.508H83.3247ZM87.8887 287.14H90.5627V285.25H87.8887C87.9727 285.544 88.0287 285.852 88.0287 286.188C88.0287 286.538 87.9727 286.846 87.8887 287.14ZM84.7947 288.246C86.0267 288.246 86.9367 287.392 86.9367 286.188C86.9367 285.012 86.0267 284.158 84.7947 284.158C83.5767 284.158 82.6667 285.012 82.6667 286.188C82.6667 287.392 83.5767 288.246 84.7947 288.246ZM90.5627 282.492L91.7247 282.478V289.884H90.5627V288.078H87.3847C86.7967 288.792 85.8867 289.226 84.7947 289.226C82.9467 289.226 81.5747 287.966 81.5747 286.188C81.5747 284.424 82.9467 283.178 84.7947 283.178C85.8867 283.178 86.8107 283.612 87.3987 284.326H90.5627V282.492ZM98.2001 294V292.886L101.645 289.317C102.013 288.929 102.317 288.589 102.555 288.298C102.797 288.003 102.978 287.723 103.097 287.457C103.216 287.192 103.276 286.911 103.276 286.612C103.276 286.274 103.197 285.982 103.037 285.737C102.878 285.489 102.661 285.298 102.386 285.165C102.111 285.03 101.801 284.962 101.456 284.962C101.092 284.962 100.774 285.036 100.502 285.185C100.23 285.335 100.021 285.545 99.8755 285.817C99.7297 286.089 99.6568 286.407 99.6568 286.771H98.1902C98.1902 286.152 98.3327 285.61 98.6177 285.146C98.9028 284.682 99.2939 284.322 99.791 284.067C100.288 283.808 100.853 283.679 101.486 283.679C102.126 283.679 102.689 283.807 103.177 284.062C103.667 284.314 104.05 284.658 104.325 285.096C104.6 285.53 104.738 286.021 104.738 286.567C104.738 286.945 104.666 287.315 104.524 287.676C104.385 288.037 104.141 288.44 103.793 288.884C103.445 289.325 102.961 289.86 102.341 290.49L100.318 292.608V292.683H104.902V294H98.2001ZM111.701 288.708V286.44H108.313V288.708H111.701ZM112.835 286.958V289.632H107.179V283.318H108.313V285.53H111.701V283.318H112.835V286.02H115.733V282.478H116.895V291.774H115.733V286.958H112.835ZM109.965 293.818H117.189V294.756H108.817V290.864H109.965V293.818ZM124.071 287.49L123.735 286.622C126.059 286.468 127.977 285.698 128.173 284.452H124.295V283.584H128.243V282.394H129.391V283.584H133.325V284.452H129.461C129.657 285.698 131.547 286.468 133.885 286.622L133.535 287.49C131.435 287.322 129.587 286.678 128.817 285.516C128.047 286.678 126.185 287.322 124.071 287.49ZM134.473 288.932H129.391V290.094H133.031V292.838H125.653V294.028H133.409V294.896H124.533V292.012H131.897V290.948H124.491V290.094H128.229V288.932H123.147V288.05H134.473V288.932ZM147.38 288.694V289.632H142.256V295.05H141.094V289.632H136.026V288.694H144.356C144.748 286.888 144.748 285.558 144.748 284.382V284.214H137.44V283.29H145.868V284.382C145.868 285.558 145.868 286.888 145.518 288.694H147.38ZM161.374 284.186V284.046H153.954V283.122H162.508V284.186C162.508 285.194 162.508 286.216 162.158 287.504L161.038 287.378C161.374 286.09 161.374 285.166 161.374 284.186ZM158.224 294.126C160.198 294.126 161.458 293.594 161.458 292.726C161.458 291.83 160.198 291.298 158.224 291.298C156.264 291.298 155.004 291.83 155.004 292.726C155.004 293.594 156.264 294.126 158.224 294.126ZM158.224 290.416C160.898 290.416 162.606 291.27 162.606 292.726C162.606 294.154 160.898 295.022 158.224 295.022C155.55 295.022 153.856 294.154 153.856 292.726C153.856 291.27 155.55 290.416 158.224 290.416ZM158.406 288.33H163.922V289.254H152.624V288.33H157.258V285.922H158.406V288.33ZM169.688 283.57V285.824C169.688 288.036 171.116 290.318 172.88 291.2L172.166 292.11C170.836 291.396 169.702 289.926 169.128 288.204C168.582 290.038 167.42 291.606 166.006 292.362L165.32 291.438C167.126 290.514 168.554 288.106 168.554 285.824V283.57H169.688ZM177.206 287.574V288.526H175.134V295.036H173.986V282.492H175.134V287.574H177.206ZM179.403 287.602L178.997 286.692C181.195 286.44 183.197 285.362 183.295 283.976H179.403V283.052H188.685V283.976H184.779C184.877 285.362 186.879 286.44 189.077 286.692L188.671 287.602C186.613 287.35 184.737 286.426 184.037 285.04C183.351 286.426 181.461 287.35 179.403 287.602ZM187.159 292.81C187.159 291.97 185.983 291.494 184.023 291.494C182.049 291.494 180.887 291.97 180.887 292.81C180.887 293.65 182.049 294.14 184.023 294.14C185.983 294.14 187.159 293.65 187.159 292.81ZM189.707 289.282H184.611V290.626C186.949 290.738 188.321 291.508 188.321 292.81C188.321 294.238 186.711 295.022 184.037 295.022C181.349 295.022 179.725 294.238 179.725 292.81C179.725 291.508 181.111 290.738 183.449 290.626V289.282H178.353V288.358H189.707V289.282ZM200.36 282.478H201.508V295.064H200.36V282.478ZM194.886 283.444C196.748 283.444 198.078 285.152 198.078 287.826C198.078 290.5 196.748 292.208 194.886 292.208C193.024 292.208 191.694 290.5 191.694 287.826C191.694 285.152 193.024 283.444 194.886 283.444ZM194.886 284.48C193.654 284.48 192.786 285.796 192.786 287.826C192.786 289.87 193.654 291.186 194.886 291.186C196.104 291.186 196.972 289.87 196.972 287.826C196.972 285.796 196.104 284.48 194.886 284.48ZM205.749 288.148V291.06C208.031 291.06 209.655 290.976 211.531 290.612L211.657 291.564C209.697 291.914 208.017 292.012 205.623 292.012H204.629V287.21H209.137V284.578H204.587V283.64H210.271V288.148H205.749ZM215.843 287.462V288.428H213.785V295.05H212.637V282.464H213.785V287.462H215.843ZM225.861 288.05V284.326H222.333V288.05H225.861ZM226.981 283.416V288.974H221.213V283.416H226.981ZM222.277 291.522V290.584H230.439V295.05H229.291V291.522H222.277ZM232.301 285.74V286.692H230.439V289.926H229.291V282.492H230.439V285.74H232.301ZM242.772 287.924V286.44H240.644V285.502H242.772V282.492H243.92V290.43H242.772V288.848H240.63V287.924H242.772ZM240.63 283.794V284.718H233.602V283.794H236.598V282.352H237.746V283.794H240.63ZM238.922 287.658C238.922 286.776 238.208 286.202 237.158 286.202C236.108 286.202 235.394 286.776 235.394 287.658C235.394 288.512 236.108 289.086 237.158 289.086C238.208 289.086 238.922 288.512 238.922 287.658ZM234.316 287.658C234.316 286.258 235.478 285.334 237.158 285.334C238.824 285.334 240 286.258 240 287.658C240 289.044 238.824 289.954 237.158 289.954C235.478 289.954 234.316 289.044 234.316 287.658ZM242.548 290.696V291.088C242.548 292.32 243.472 293.538 245.068 294.042L244.522 294.882C243.29 294.462 242.394 293.622 241.974 292.614C241.596 293.594 240.84 294.518 239.678 294.994C238.474 294.546 237.732 293.664 237.354 292.656C236.906 293.622 236.038 294.448 234.848 294.882L234.302 294.042C235.856 293.51 236.822 292.236 236.822 291.088V290.71H237.928V291.088C237.928 292.138 238.502 293.272 239.65 293.888C240.826 293.188 241.428 291.998 241.428 291.088V290.696H242.548ZM248.203 283.822V290.864C249.547 290.85 250.807 290.766 252.263 290.472L252.417 291.438C250.779 291.774 249.379 291.858 247.867 291.858H247.069V283.822H248.203ZM253.355 286.692V282.786H254.447V294.406H253.355V287.644H250.555V286.692H253.355ZM256.029 282.464H257.121V295.036H256.029V282.464ZM263.266 289.52V292.474H266.766V289.52C266.234 289.646 265.632 289.716 265.002 289.716C264.386 289.716 263.784 289.646 263.266 289.52ZM265.002 284.172C262.986 284.172 261.544 285.096 261.544 286.496C261.544 287.896 262.986 288.82 265.002 288.82C267.018 288.82 268.474 287.896 268.474 286.496C268.474 285.096 267.018 284.172 265.002 284.172ZM267.914 292.474H270.728V293.426H259.318V292.474H262.118V289.086C261.068 288.54 260.438 287.63 260.438 286.496C260.438 284.536 262.342 283.276 265.002 283.276C267.676 283.276 269.566 284.536 269.566 286.496C269.566 287.63 268.95 288.526 267.914 289.072V292.474Z" fill="#B5B5B5"/>
<line x1="40" y1="327.5" x2="390" y2="327.5" stroke="#7ED287"/>
<path d="M49.776 358.036V356.896H45.228V358.036H49.776ZM51.336 354.4V359.296H43.656V354.4H45.228V355.66H49.776V354.4H51.336ZM52.524 360.34V361.6H48.276V365.044H46.692V361.6H42.516V360.34H52.524ZM57.8271 356.344V356.956C57.8271 358.756 58.7151 360.664 60.5631 361.432L59.6991 362.68C58.4151 362.128 57.5391 361.048 57.0471 359.716C56.5551 361.156 55.6671 362.368 54.3711 362.956L53.4711 361.696C55.3191 360.868 56.2191 358.84 56.2191 356.956V356.344H53.9151V355.036H60.1071V356.344H57.8271ZM61.1271 353.98H62.7111V365.032H61.1271V353.98ZM72.2501 362.116V357.964H70.5341V356.632H72.2501V353.98H73.8341V362.116H72.2501ZM70.7381 359.164L70.8581 360.424C69.3581 360.664 68.0141 360.7 65.9261 360.7H65.0141V357.064H68.4221V355.972H65.0021V354.712H69.9821V358.252H66.5861V359.428C68.2781 359.416 69.4181 359.368 70.7381 359.164ZM68.0741 363.58H74.1101V364.84H66.4901V361.468H68.0741V363.58ZM82.1492 355.144L82.1372 356.38H75.6332V355.144H78.0812V353.968H79.6772V355.144H82.1492ZM77.6852 358.9C77.6852 359.512 78.1772 359.836 78.8852 359.836C79.5812 359.836 80.0852 359.512 80.0852 358.9C80.0852 358.3 79.5812 357.976 78.8852 357.976C78.1772 357.976 77.6852 358.3 77.6852 358.9ZM81.5972 358.9C81.5972 360.172 80.4692 361.036 78.8852 361.036C77.3012 361.036 76.1732 360.172 76.1732 358.9C76.1732 357.652 77.3012 356.776 78.8852 356.776C80.4692 356.776 81.5972 357.652 81.5972 358.9ZM78.7892 361.636V363.58H84.7292V364.84H77.2052V361.636H78.7892ZM84.3332 357.352H85.7972V358.66H84.3332V362.248H82.7492V353.98H84.3332V357.352ZM95.6749 358.972L94.9549 360.196C93.7069 359.872 92.8549 359.188 92.3509 358.3C91.8709 359.272 90.9949 360.028 89.7109 360.388L88.9789 359.164C90.7069 358.684 91.4989 357.52 91.5349 356.32H89.3749V355.072H91.5349V353.944H93.1189V355.072H95.3029V356.32H93.1189C93.1669 357.412 93.9349 358.516 95.6749 358.972ZM92.1349 362.152V363.664H96.2149V362.152H92.1349ZM90.5749 364.9V360.916H97.7629V364.9H90.5749ZM99.2269 356.572V357.868H97.7629V360.448H96.1789V353.98H97.7629V356.572H99.2269ZM108.082 353.968H109.582V365.02H108.082V359.548H107.194V364.528H105.718V361.264L104.806 362.488C103.87 361.96 103.258 361.072 102.898 359.992C102.514 361.204 101.866 362.212 100.882 362.812L99.8979 361.648C101.554 360.664 102.142 358.672 102.142 356.8V354.94H103.678V356.68C103.678 358.588 104.194 360.388 105.718 361.24V354.16H107.194V358.276H108.082V353.968Z" fill="#7ED287"/>
<path d="M51.436 378.296H53.284V391.232H51.436V378.296ZM46.354 379.206C48.3 379.206 49.742 380.97 49.742 383.798C49.742 386.64 48.3 388.418 46.354 388.418C44.408 388.418 42.966 386.64 42.966 383.798C42.966 380.97 44.408 379.206 46.354 379.206ZM46.354 380.872C45.402 380.872 44.744 381.894 44.744 383.798C44.744 385.716 45.402 386.738 46.354 386.738C47.306 386.738 47.964 385.716 47.964 383.798C47.964 381.894 47.306 380.872 46.354 380.872ZM63.1949 384.428L62.2429 385.87C60.8429 385.408 59.8909 384.484 59.3309 383.322C58.7569 384.61 57.7349 385.618 56.2649 386.108L55.2849 384.666C57.4549 383.966 58.3649 382.244 58.3649 380.48V379.094H60.2409V380.494C60.2409 382.132 61.1089 383.756 63.1949 384.428ZM59.1769 386.85V389.51H66.0789V390.98H57.3289V386.85H59.1769ZM65.6309 382.048H67.3389V383.574H65.6309V387.746H63.7829V378.31H65.6309V382.048ZM76.0458 379.724V381.18H68.4578V379.724H71.3418V378.366H73.1898V379.724H76.0458ZM70.8658 384.106C70.8658 384.792 71.4258 385.156 72.2658 385.156C73.1058 385.156 73.6658 384.792 73.6658 384.106C73.6658 383.448 73.1058 383.084 72.2658 383.084C71.4258 383.084 70.8658 383.448 70.8658 384.106ZM73.1898 386.444V387.466C74.1838 387.41 75.1778 387.34 76.1018 387.2L76.2418 388.53C73.5258 389.062 70.6278 389.062 68.4438 389.062L68.2198 387.564C69.1438 387.564 70.2078 387.564 71.3418 387.536V386.444C69.9978 386.164 69.1158 385.296 69.1158 384.106C69.1158 382.664 70.4178 381.684 72.2658 381.684C74.1138 381.684 75.4158 382.664 75.4158 384.106C75.4158 385.296 74.5338 386.164 73.1898 386.444ZM80.2178 383.56V385.086H78.6078V391.204H76.7598V378.31H78.6078V383.56H80.2178ZM88.4487 384.344L88.6447 385.772C86.9367 386.094 85.3687 386.136 82.7927 386.136H81.7147V379.29H87.7627V380.76H83.5487V381.978H87.4967V383.406H83.5487V384.68C85.6207 384.666 86.9647 384.61 88.4487 384.344ZM84.9207 386.99V389.51H91.8507V390.98H83.0727V386.99H84.9207ZM91.3887 382.132H93.0967V383.644H91.3887V387.872H89.5407V378.31H91.3887V382.132ZM105.402 384.19L104.646 385.716C102.378 385.31 100.726 384.106 99.8856 382.51C99.0456 384.092 97.4076 385.31 95.1536 385.716L94.3976 384.19C97.3096 383.714 98.9056 381.74 98.9056 379.948V379.024H100.88V379.948C100.88 381.782 102.462 383.714 105.402 384.19ZM100.824 388.194H105.794V389.678H94.1176V388.194H98.9756V385.31H100.824V388.194ZM120.695 382.328V383.798H111.693V378.884H113.541V382.328H120.695ZM121.913 385.254V386.752H116.943V391.218H115.095V386.752H110.237V385.254H121.913ZM124.096 383.462L123.592 382.104C126.182 381.992 127.442 381.376 127.792 380.648H124.236V379.318H128.002V378.296H129.85V379.318H133.644V380.648H130.06C130.424 381.376 131.684 381.992 134.274 382.104L133.756 383.462C131.362 383.336 129.738 382.748 128.926 381.796C128.128 382.748 126.504 383.336 124.096 383.462ZM134.75 385.142H129.864V385.912H133.35V389.104H126.294V389.776H133.686V391.106H124.46V387.858H131.53V387.242H124.446V385.912H128.016V385.142H123.144V383.784H134.75V385.142ZM143.981 379.304V381.18C143.981 383.504 144.891 385.842 146.963 386.864L145.843 388.32C144.499 387.634 143.589 386.388 143.057 384.848C142.497 386.486 141.531 387.844 140.075 388.558L138.969 387.06C141.139 386.038 142.119 383.574 142.119 381.18V379.304H143.981ZM151.205 383.266V384.806H149.329V391.204H147.481V378.31H149.329V383.266H151.205ZM162.152 386.822L160.304 386.612C160.794 384.176 160.822 382.384 160.822 380.886H153.304V379.416H162.67V380.648C162.67 382.258 162.67 384.078 162.152 386.822ZM158.092 388.166H163.79V389.65H152.128V388.166H156.244V383.728H158.092V388.166ZM166.474 390.129C166.146 390.129 165.864 390.013 165.629 389.781C165.397 389.546 165.281 389.264 165.281 388.936C165.281 388.611 165.397 388.333 165.629 388.101C165.864 387.869 166.146 387.753 166.474 387.753C166.792 387.753 167.07 387.869 167.309 388.101C167.548 388.333 167.667 388.611 167.667 388.936C167.667 389.155 167.611 389.355 167.498 389.538C167.388 389.717 167.244 389.861 167.065 389.97C166.886 390.076 166.689 390.129 166.474 390.129ZM170.644 390.129C170.316 390.129 170.034 390.013 169.798 389.781C169.566 389.546 169.45 389.264 169.45 388.936C169.45 388.611 169.566 388.333 169.798 388.101C170.034 387.869 170.316 387.753 170.644 387.753C170.962 387.753 171.24 387.869 171.479 388.101C171.718 388.333 171.837 388.611 171.837 388.936C171.837 389.155 171.78 389.355 171.668 389.538C171.558 389.717 171.414 389.861 171.235 389.97C171.056 390.076 170.859 390.129 170.644 390.129ZM174.814 390.129C174.485 390.129 174.204 390.013 173.968 389.781C173.736 389.546 173.62 389.264 173.62 388.936C173.62 388.611 173.736 388.333 173.968 388.101C174.204 387.869 174.485 387.753 174.814 387.753C175.132 387.753 175.41 387.869 175.649 388.101C175.887 388.333 176.007 388.611 176.007 388.936C176.007 389.155 175.95 389.355 175.838 389.538C175.728 389.717 175.584 389.861 175.405 389.97C175.226 390.076 175.029 390.129 174.814 390.129ZM178.089 386.947V386.778C178.092 386.198 178.143 385.736 178.243 385.391C178.345 385.047 178.495 384.768 178.69 384.556C178.886 384.344 179.121 384.152 179.396 383.979C179.602 383.847 179.786 383.709 179.948 383.567C180.11 383.424 180.24 383.267 180.336 383.094C180.432 382.919 180.48 382.723 180.48 382.508C180.48 382.279 180.425 382.079 180.316 381.906C180.206 381.734 180.059 381.601 179.873 381.509C179.691 381.416 179.489 381.369 179.267 381.369C179.051 381.369 178.848 381.417 178.655 381.513C178.463 381.606 178.306 381.746 178.183 381.931C178.06 382.113 177.994 382.34 177.984 382.612H175.956C175.972 381.949 176.131 381.402 176.433 380.972C176.735 380.537 177.134 380.214 177.631 380.002C178.128 379.787 178.677 379.679 179.277 379.679C179.936 379.679 180.52 379.788 181.027 380.007C181.534 380.223 181.932 380.536 182.22 380.947C182.508 381.358 182.653 381.853 182.653 382.433C182.653 382.821 182.588 383.166 182.459 383.467C182.333 383.766 182.155 384.031 181.927 384.263C181.698 384.491 181.428 384.699 181.116 384.884C180.854 385.04 180.639 385.202 180.47 385.371C180.304 385.54 180.18 385.736 180.097 385.958C180.018 386.18 179.976 386.454 179.973 386.778V386.947H178.089ZM179.073 390.129C178.742 390.129 178.458 390.013 178.223 389.781C177.991 389.546 177.876 389.264 177.88 388.936C177.876 388.611 177.991 388.333 178.223 388.101C178.458 387.869 178.742 387.753 179.073 387.753C179.388 387.753 179.665 387.869 179.903 388.101C180.142 388.333 180.263 388.611 180.266 388.936C180.263 389.155 180.205 389.355 180.092 389.538C179.983 389.717 179.839 389.861 179.66 389.97C179.481 390.076 179.285 390.129 179.073 390.129ZM185.964 386.947V386.778C185.967 386.198 186.018 385.736 186.118 385.391C186.22 385.047 186.37 384.768 186.565 384.556C186.761 384.344 186.996 384.152 187.271 383.979C187.477 383.847 187.661 383.709 187.823 383.567C187.985 383.424 188.115 383.267 188.211 383.094C188.307 382.919 188.355 382.723 188.355 382.508C188.355 382.279 188.3 382.079 188.191 381.906C188.081 381.734 187.934 381.601 187.748 381.509C187.566 381.416 187.364 381.369 187.142 381.369C186.926 381.369 186.723 381.417 186.53 381.513C186.338 381.606 186.181 381.746 186.058 381.931C185.935 382.113 185.869 382.34 185.859 382.612H183.831C183.847 381.949 184.006 381.402 184.308 380.972C184.61 380.537 185.009 380.214 185.506 380.002C186.003 379.787 186.552 379.679 187.152 379.679C187.811 379.679 188.395 379.788 188.902 380.007C189.409 380.223 189.807 380.536 190.095 380.947C190.383 381.358 190.528 381.853 190.528 382.433C190.528 382.821 190.463 383.166 190.334 383.467C190.208 383.766 190.03 384.031 189.802 384.263C189.573 384.491 189.303 384.699 188.991 384.884C188.729 385.04 188.514 385.202 188.345 385.371C188.179 385.54 188.055 385.736 187.972 385.958C187.893 386.18 187.851 386.454 187.848 386.778V386.947H185.964ZM186.948 390.129C186.617 390.129 186.333 390.013 186.098 389.781C185.866 389.546 185.751 389.264 185.755 388.936C185.751 388.611 185.866 388.333 186.098 388.101C186.333 387.869 186.617 387.753 186.948 387.753C187.263 387.753 187.54 387.869 187.778 388.101C188.017 388.333 188.138 388.611 188.141 388.936C188.138 389.155 188.08 389.355 187.967 389.538C187.858 389.717 187.714 389.861 187.535 389.97C187.356 390.076 187.16 390.129 186.948 390.129Z" fill="black"/>
<path d="M46.466 400.668V403.02C46.466 405.036 47.404 407.164 49.056 408.172L48.398 409.068C47.208 408.34 46.368 407.01 45.92 405.484C45.472 407.15 44.562 408.564 43.316 409.334L42.602 408.48C44.324 407.472 45.36 405.218 45.36 403.062V400.668H46.466ZM49.77 403.986V399.758H50.848V411.42H49.77V404.938H47.698V403.986H49.77ZM52.318 399.478H53.41V412.036H52.318V399.478ZM62.8729 405.386L62.2709 406.282C60.9129 405.778 59.8349 404.742 59.2749 403.454C58.7569 404.924 57.6369 406.072 56.1669 406.632L55.5649 405.722C57.4689 405.036 58.6869 403.328 58.6869 401.41V400.122H59.8349V401.508C59.8349 403.202 61.0669 404.77 62.8729 405.386ZM61.3749 411.126C63.2229 411.126 64.3569 410.608 64.3569 409.74C64.3569 408.858 63.2229 408.34 61.3749 408.34C59.5129 408.34 58.3789 408.858 58.3789 409.74C58.3789 410.608 59.5129 411.126 61.3749 411.126ZM61.3749 407.444C63.9229 407.444 65.5049 408.27 65.5049 409.74C65.5049 411.196 63.9229 412.022 61.3749 412.022C58.8129 412.022 57.2309 411.196 57.2309 409.74C57.2309 408.27 58.8129 407.444 61.3749 407.444ZM65.3649 402.726H67.2269V403.678H65.3649V407.094H64.2169V399.492H65.3649V402.726ZM71.3418 408.214C72.3218 408.214 72.9658 406.94 72.9658 404.882C72.9658 402.866 72.3218 401.592 71.3418 401.592C70.3338 401.592 69.7038 402.866 69.7038 404.882C69.7038 406.94 70.3338 408.214 71.3418 408.214ZM75.5838 404.364V399.758H76.6758V411.42H75.5838V405.302H74.0018C73.9038 407.766 72.8818 409.278 71.3418 409.278C69.7038 409.278 68.6538 407.598 68.6538 404.882C68.6538 402.208 69.7038 400.528 71.3418 400.528C72.8538 400.528 73.8618 401.998 74.0018 404.364H75.5838ZM78.0758 399.478H79.1678V412.036H78.0758V399.478ZM83.0167 400.696V407.892C84.8227 407.892 86.6847 407.738 88.7147 407.332L88.8547 408.284C86.7127 408.718 84.7947 408.858 82.8767 408.858H81.8827V400.696H83.0167ZM93.0547 404.49V405.442H91.0387V412.036H89.8907V399.478H91.0387V404.49H93.0547ZM99.5867 401.662V407.92H103.101V401.662H99.5867ZM98.4667 408.844V400.738H104.221V408.844H98.4667ZM109.695 404.49V405.456H107.623V412.036H106.475V399.492H107.623V404.49H109.695ZM118.094 405.386L117.492 406.282C116.134 405.778 115.056 404.742 114.496 403.454C113.978 404.924 112.858 406.072 111.388 406.632L110.786 405.722C112.69 405.036 113.908 403.328 113.908 401.41V400.122H115.056V401.508C115.056 403.202 116.288 404.77 118.094 405.386ZM116.596 411.126C118.444 411.126 119.578 410.608 119.578 409.74C119.578 408.858 118.444 408.34 116.596 408.34C114.734 408.34 113.6 408.858 113.6 409.74C113.6 410.608 114.734 411.126 116.596 411.126ZM116.596 407.444C119.144 407.444 120.726 408.27 120.726 409.74C120.726 411.196 119.144 412.022 116.596 412.022C114.034 412.022 112.452 411.196 112.452 409.74C112.452 408.27 114.034 407.444 116.596 407.444ZM120.586 402.726H122.448V403.678H120.586V407.094H119.438V399.492H120.586V402.726ZM126.563 408.214C127.543 408.214 128.187 406.94 128.187 404.882C128.187 402.866 127.543 401.592 126.563 401.592C125.555 401.592 124.925 402.866 124.925 404.882C124.925 406.94 125.555 408.214 126.563 408.214ZM130.805 404.364V399.758H131.897V411.42H130.805V405.302H129.223C129.125 407.766 128.103 409.278 126.563 409.278C124.925 409.278 123.875 407.598 123.875 404.882C123.875 402.208 124.925 400.528 126.563 400.528C128.075 400.528 129.083 401.998 129.223 404.364H130.805ZM133.297 399.478H134.389V412.036H133.297V399.478ZM138.237 400.696V407.892C140.043 407.892 141.905 407.738 143.935 407.332L144.075 408.284C141.933 408.718 140.015 408.858 138.097 408.858H137.103V400.696H138.237ZM148.275 404.49V405.442H146.259V412.036H145.111V399.478H146.259V404.49H148.275Z" fill="#B5B5B5"/>
<line x1="40" y1="444.5" x2="390" y2="444.5" stroke="#7ED287"/>
<path d="M43.584 479.752V478.492H51.24V482.068H49.656V479.752H43.584ZM48.324 476.32H52.512V477.58H42.504V476.32H46.74V475.132C45.912 475.252 45.108 475.264 44.088 475.264H43.416V471.4H47.208V472.648H45V474.004C45.816 473.992 46.524 473.932 47.292 473.788L47.4 474.76H47.832V471.4H51.588V472.648H49.404V474.004H51.624V475.264H48.324V476.32ZM54.6231 479.752V478.492H62.2791V482.068H60.6951V479.752H54.6231ZM59.3631 476.32H63.5511V477.58H53.5431V476.32H57.7791V475.132C56.9511 475.252 56.1471 475.264 55.1271 475.264H54.4551V471.4H58.2471V472.648H56.0391V474.004C56.8551 473.992 57.5631 473.932 58.3311 473.788L58.4391 474.76H58.8711V471.4H62.6271V472.648H60.4431V474.004H62.6631V475.264H59.3631V476.32ZM71.1101 472.144L71.0981 473.38H64.5941V472.144H67.0421V470.968H68.6381V472.144H71.1101ZM66.6461 475.9C66.6461 476.512 67.1381 476.836 67.8461 476.836C68.5421 476.836 69.0461 476.512 69.0461 475.9C69.0461 475.3 68.5421 474.976 67.8461 474.976C67.1381 474.976 66.6461 475.3 66.6461 475.9ZM70.5581 475.9C70.5581 477.172 69.4301 478.036 67.8461 478.036C66.2621 478.036 65.1341 477.172 65.1341 475.9C65.1341 474.652 66.2621 473.776 67.8461 473.776C69.4301 473.776 70.5581 474.652 70.5581 475.9ZM67.7501 478.636V480.58H73.6901V481.84H66.1661V478.636H67.7501ZM73.2941 474.352H74.7581V475.66H73.2941V479.248H71.7101V470.98H73.2941V474.352ZM85.0798 474.892V477.28H83.6038V471.184H85.0798V473.608H85.9438V470.98H87.4438V477.628H85.9438V474.892H85.0798ZM79.4878 474.436C79.4878 475.288 79.9438 475.792 80.5918 475.792C81.2398 475.792 81.6958 475.288 81.6958 474.436C81.6958 473.572 81.2398 473.08 80.5918 473.08C79.9438 473.08 79.4878 473.572 79.4878 474.436ZM83.1118 474.436C83.1118 476.008 82.0558 477.1 80.5918 477.1C79.1278 477.1 78.0598 476.008 78.0598 474.436C78.0598 472.864 79.1278 471.772 80.5918 471.772C82.0558 471.772 83.1118 472.864 83.1118 474.436ZM83.6998 480.832C85.1398 480.832 85.9078 480.544 85.9078 479.932C85.9078 479.32 85.1398 479.032 83.6998 479.032C82.2358 479.032 81.4678 479.32 81.4678 479.932C81.4678 480.544 82.2358 480.832 83.6998 480.832ZM83.6998 477.82C86.0398 477.82 87.4918 478.588 87.4918 479.932C87.4918 481.276 86.0398 482.044 83.6998 482.044C81.3358 482.044 79.8838 481.276 79.8838 479.932C79.8838 478.588 81.3358 477.82 83.6998 477.82ZM96.3229 474.736V472.768H91.7749V474.736H96.3229ZM97.8709 471.52V475.984H90.2149V471.52H97.8709ZM99.0709 477.16V478.42H94.8229V482.032H93.2389V478.42H89.0629V477.16H99.0709ZM108.082 470.968H109.582V482.02H108.082V476.548H107.194V481.528H105.718V478.264L104.806 479.488C103.87 478.96 103.258 478.072 102.898 476.992C102.514 478.204 101.866 479.212 100.882 479.812L99.8979 478.648C101.554 477.664 102.142 475.672 102.142 473.8V471.94H103.678V473.68C103.678 475.588 104.194 477.388 105.718 478.24V471.16H107.194V475.276H108.082V470.968Z" fill="#7ED287"/>
<path d="M53.662 496.206V497.592H43.148V496.206H47.502V495.184H49.35V496.206H53.662ZM50.764 499.762C50.764 499.342 50.036 499.174 48.426 499.174C46.83 499.174 46.102 499.342 46.102 499.762C46.102 500.168 46.83 500.35 48.426 500.35C50.036 500.35 50.764 500.168 50.764 499.762ZM44.114 499.762C44.114 498.544 45.668 497.928 48.426 497.928C51.198 497.928 52.752 498.544 52.752 499.762C52.752 500.966 51.198 501.582 48.426 501.582C45.668 501.582 44.114 500.966 44.114 499.762ZM49.798 504.284V503.514H47.04V504.284C47.46 504.242 47.908 504.214 48.398 504.214C48.902 504.214 49.378 504.242 49.798 504.284ZM48.398 506.902C50.19 506.902 50.988 506.692 50.988 506.216C50.988 505.74 50.19 505.53 48.398 505.53C46.606 505.53 45.808 505.74 45.808 506.216C45.808 506.692 46.606 506.902 48.398 506.902ZM54.25 503.514H51.646V504.676C52.444 505.026 52.878 505.544 52.878 506.216C52.878 507.532 51.24 508.218 48.398 508.218C45.57 508.218 43.932 507.532 43.932 506.216C43.932 505.53 44.366 505.012 45.192 504.676V503.514H42.602V502.072H54.25V503.514ZM56.1949 496.64H62.3829C62.3829 500.588 61.0529 503.808 56.4749 506.02L55.5089 504.564C58.7989 502.982 60.2269 500.966 60.4929 498.11H56.1949V496.64ZM64.3569 495.296H66.2189V508.19H64.3569V495.296ZM78.908 500.448L79.132 501.932C77.018 502.366 75.044 502.492 73.224 502.492H72.118V496.164H73.966V500.952C75.506 500.924 77.172 500.798 78.908 500.448ZM75.296 503.724V506.51H82.17V507.98H73.448V503.724H75.296ZM81.75 498.922H83.458V500.476H81.75V504.578H79.902V495.31H81.75V498.922ZM90.275 506.818C91.997 506.818 92.879 506.524 92.879 505.852C92.879 505.18 91.997 504.872 90.275 504.872C88.553 504.872 87.671 505.18 87.671 505.852C87.671 506.524 88.553 506.818 90.275 506.818ZM90.275 503.472C93.061 503.472 94.755 504.326 94.755 505.852C94.755 507.364 93.061 508.218 90.275 508.218C87.489 508.218 85.809 507.364 85.809 505.852C85.809 504.326 87.489 503.472 90.275 503.472ZM91.241 501.372H96.155V502.842H84.493V501.372H89.393V500.308H85.907V495.856H94.755V497.326H87.741V498.838H94.825V500.308H91.241V501.372Z" fill="black"/>
<path d="M53.046 516.492V525.676H51.898V516.492H53.046ZM50.414 522.974L49.854 523.884C48.412 523.38 47.264 522.344 46.69 521.028C46.158 522.456 44.996 523.59 43.512 524.122L42.91 523.226C44.814 522.568 46.088 520.93 46.088 519.138V518.452H43.218V517.528H50.106V518.452H47.264V519.138C47.264 520.832 48.566 522.358 50.414 522.974ZM46.116 527.818H53.424V528.756H44.968V524.808H46.116V527.818ZM61.9769 518.69V520.216C61.9769 522.078 62.3969 524.43 63.9229 525.578L63.1949 526.404C62.2709 525.69 61.7389 524.528 61.4309 523.24C61.1509 524.542 60.6329 525.774 59.6809 526.516C58.7289 525.76 58.2109 524.528 57.9309 523.226C57.6089 524.5 57.0769 525.676 56.1809 526.404L55.4529 525.578C56.9649 524.402 57.3849 521.994 57.3849 520.216V518.69H55.8449V517.752H59.4009V518.69H58.4769V520.216C58.4769 521.602 58.6589 523.618 59.6809 524.976C60.6889 523.646 60.8849 521.658 60.8849 520.216V518.69H59.9469V517.752H63.4189V518.69H61.9769ZM67.3109 521.462V522.428H65.5749V529.036H64.4269V516.492H65.5749V521.462H67.3109ZM80.9969 521.154V518.102H74.7669V521.154H80.9969ZM82.1309 517.178V522.064H73.6469V517.178H82.1309ZM83.5869 523.772V524.696H78.4349V529.022H77.2869V524.696H72.1909V523.772H83.5869ZM89.4798 517.556V519.81C89.4798 522.092 90.9078 524.374 92.7278 525.242L92.0558 526.152C90.6278 525.438 89.4798 523.94 88.9058 522.176C88.3598 524.038 87.1978 525.62 85.7838 526.376L85.0838 525.466C86.9038 524.556 88.3318 522.134 88.3318 519.81V517.556H89.4798ZM94.2818 516.478H95.4298V529.05H94.2818V521.672H91.3698V520.734H94.2818V516.478ZM104.557 522.834H107.091V516.492H108.239V524.444H107.091V523.674H104.557V522.834ZM101.981 517.626C100.763 517.626 99.9647 518.046 99.9647 518.746C99.9647 519.446 100.763 519.88 101.981 519.88C103.213 519.88 103.997 519.446 103.997 518.746C103.997 518.046 103.213 517.626 101.981 517.626ZM101.981 520.706C100.119 520.706 98.8867 519.964 98.8867 518.746C98.8867 517.542 100.119 516.786 101.981 516.786C103.843 516.786 105.075 517.542 105.075 518.746C105.075 519.964 103.843 520.706 101.981 520.706ZM101.337 524.374V522.358C100.147 522.414 99.0267 522.428 98.0327 522.428L97.8927 521.504C100.189 521.49 103.325 521.462 105.985 521.084L106.069 521.896C104.893 522.092 103.675 522.218 102.485 522.288V524.374H101.337ZM106.853 524.878V525.116C106.853 526.348 107.791 527.566 109.387 528.042L108.841 528.896C107.609 528.49 106.727 527.664 106.293 526.67C105.915 527.664 105.145 528.546 103.955 528.994C102.765 528.56 102.009 527.678 101.631 526.684C101.183 527.678 100.315 528.49 99.0827 528.896L98.5647 528.042C100.133 527.552 101.085 526.32 101.085 525.116V524.878H102.191V525.116C102.191 526.138 102.779 527.272 103.941 527.916C105.131 527.258 105.733 526.124 105.733 525.116V524.878H106.853ZM112.522 518.634V524.948C114.748 524.948 116.358 524.85 118.178 524.528L118.304 525.48C116.386 525.844 114.734 525.928 112.368 525.928H111.374V517.682H117.212V518.634H112.522ZM122.574 521.434V522.386H120.502V529.064H119.354V516.478H120.502V521.434H122.574ZM124.957 528.094C124.685 528.094 124.452 527.998 124.256 527.806C124.061 527.611 123.963 527.375 123.963 527.1C123.963 526.828 124.061 526.596 124.256 526.404C124.452 526.209 124.685 526.111 124.957 526.111C125.229 526.111 125.463 526.209 125.658 526.404C125.854 526.596 125.952 526.828 125.952 527.1C125.952 527.282 125.905 527.45 125.812 527.602C125.723 527.751 125.604 527.871 125.454 527.96C125.305 528.05 125.14 528.094 124.957 528.094ZM128.922 528.094C128.65 528.094 128.417 527.998 128.221 527.806C128.026 527.611 127.928 527.375 127.928 527.1C127.928 526.828 128.026 526.596 128.221 526.404C128.417 526.209 128.65 526.111 128.922 526.111C129.194 526.111 129.427 526.209 129.623 526.404C129.819 526.596 129.916 526.828 129.916 527.1C129.916 527.282 129.87 527.45 129.777 527.602C129.688 527.751 129.568 527.871 129.419 527.96C129.27 528.05 129.104 528.094 128.922 528.094ZM132.887 528.094C132.615 528.094 132.381 527.998 132.186 527.806C131.99 527.611 131.893 527.375 131.893 527.1C131.893 526.828 131.99 526.596 132.186 526.404C132.381 526.209 132.615 526.111 132.887 526.111C133.159 526.111 133.392 526.209 133.588 526.404C133.783 526.596 133.881 526.828 133.881 527.1C133.881 527.282 133.835 527.45 133.742 527.602C133.653 527.751 133.533 527.871 133.384 527.96C133.235 528.05 133.069 528.094 132.887 528.094ZM146.492 521.784L146.618 522.736C144.518 523.156 142.628 523.296 140.752 523.296H139.772V517.402H140.906V522.33C142.684 522.316 144.49 522.19 146.492 521.784ZM142.278 524.682V527.818H149.348V528.756H141.13V524.682H142.278ZM148.9 520.216H150.748V521.182H148.9V525.564H147.752V516.492H148.9V520.216ZM153.911 522.12V525.06C155.969 525.06 157.817 524.962 160.015 524.612L160.127 525.55C157.859 525.928 155.955 526.012 153.799 526.012H152.763V521.196H157.383V518.578H152.721V517.64H158.545V522.12H153.911ZM161.191 516.464H162.339V529.05H161.191V516.464ZM171.172 526.502H176.31V527.454H164.9V526.502H170.01V523.282H166.356V517.486H174.868V518.424H167.504V522.358H174.994V523.282H171.172V526.502ZM184.844 525.186C186.048 525.186 186.902 523.87 186.902 521.826C186.902 519.796 186.048 518.48 184.844 518.48C183.626 518.48 182.772 519.796 182.772 521.826C182.772 523.87 183.626 525.186 184.844 525.186ZM184.844 517.444C186.692 517.444 187.994 519.152 187.994 521.826C187.994 524.5 186.692 526.208 184.844 526.208C182.996 526.208 181.68 524.5 181.68 521.826C181.68 519.152 182.996 517.444 184.844 517.444ZM193.23 521.49V522.456H191.158V529.036H190.01V516.492H191.158V521.49H193.23ZM196.309 517.696V524.808C198.199 524.808 200.145 524.64 202.231 524.22L202.357 525.2C200.173 525.648 198.199 525.788 196.197 525.788H195.161V517.696H196.309ZM203.519 516.478H204.667V529.022H203.519V516.478ZM210.672 518.144C209.468 518.144 208.572 518.97 208.572 520.118C208.572 521.28 209.468 522.12 210.672 522.12C211.904 522.12 212.8 521.28 212.8 520.118C212.8 518.97 211.904 518.144 210.672 518.144ZM216.44 520.566H213.864C213.654 522.064 212.38 523.072 210.672 523.072C208.824 523.072 207.466 521.868 207.466 520.118C207.466 518.396 208.824 517.192 210.672 517.192C212.352 517.192 213.626 518.172 213.85 519.628H216.44V516.492H217.602V523.632H216.44V520.566ZM216.23 524.122V524.864C216.23 526.166 217.154 527.482 218.764 528.028L218.19 528.882C216.972 528.42 216.076 527.566 215.656 526.502C215.264 527.524 214.508 528.49 213.346 528.994C212.142 528.518 211.386 527.594 211.008 526.544C210.56 527.552 209.706 528.42 208.53 528.882L207.956 528.028C209.538 527.44 210.476 526.082 210.476 524.864V524.122H211.582V524.864C211.582 525.984 212.156 527.188 213.332 527.874C214.522 527.118 215.11 525.844 215.11 524.864V524.122H216.23ZM225.805 516.758C228.521 516.758 230.215 517.64 230.215 519.138C230.215 520.622 228.521 521.504 225.805 521.504C223.089 521.504 221.395 520.622 221.395 519.138C221.395 517.64 223.089 516.758 225.805 516.758ZM225.805 517.668C223.817 517.668 222.571 518.214 222.571 519.138C222.571 520.062 223.817 520.608 225.805 520.608C227.793 520.608 229.039 520.062 229.039 519.138C229.039 518.214 227.793 517.668 225.805 517.668ZM221.535 524.738H230.103V528.868H221.535V524.738ZM228.983 525.648H222.655V527.944H228.983V525.648ZM220.135 522.582H231.489V523.506H220.135V522.582ZM234.25 528.094C233.978 528.094 233.745 527.998 233.549 527.806C233.354 527.611 233.256 527.375 233.256 527.1C233.256 526.828 233.354 526.596 233.549 526.404C233.745 526.209 233.978 526.111 234.25 526.111C234.522 526.111 234.756 526.209 234.951 526.404C235.147 526.596 235.244 526.828 235.244 527.1C235.244 527.282 235.198 527.45 235.105 527.602C235.016 527.751 234.896 527.871 234.747 527.96C234.598 528.05 234.432 528.094 234.25 528.094Z" fill="#B5B5B5"/>
<line x1="40" y1="561.5" x2="390" y2="561.5" stroke="#7ED287"/>
<path d="M47.496 589.612C46.044 589.612 45.12 590.044 45.12 590.824C45.12 591.616 46.044 592.036 47.496 592.036C48.936 592.036 49.86 591.616 49.86 590.824C49.86 590.044 48.936 589.612 47.496 589.612ZM47.496 593.296C45.132 593.296 43.5 592.336 43.5 590.824C43.5 589.324 45.132 588.352 47.496 588.352C49.848 588.352 51.492 589.324 51.492 590.824C51.492 592.336 49.848 593.296 47.496 593.296ZM52.524 594.124V595.408H50.208V599.02H48.6V595.408H46.38V599.02H44.784V595.408H42.516V594.124H52.524ZM57.6711 592.612V590.032H55.5711V592.612H57.6711ZM61.2111 590.836H59.2191V591.784H61.2111V590.836ZM59.2191 593.044V593.86H54.0111V588.772H59.2191V589.576H61.2111V587.98H62.7951V594.46H61.2111V593.044H59.2191ZM59.0511 597.82C60.5031 597.82 61.2591 597.52 61.2591 596.884C61.2591 596.248 60.5031 595.948 59.0511 595.948C57.6111 595.948 56.8551 596.248 56.8551 596.884C56.8551 597.52 57.6111 597.82 59.0511 597.82ZM59.0511 594.736C61.4031 594.736 62.8431 595.528 62.8431 596.884C62.8431 598.24 61.4031 599.032 59.0511 599.032C56.7111 599.032 55.2711 598.24 55.2711 596.884C55.2711 595.528 56.7111 594.736 59.0511 594.736ZM71.1101 589.144L71.0981 590.38H64.5941V589.144H67.0421V587.968H68.6381V589.144H71.1101ZM66.6461 592.9C66.6461 593.512 67.1381 593.836 67.8461 593.836C68.5421 593.836 69.0461 593.512 69.0461 592.9C69.0461 592.3 68.5421 591.976 67.8461 591.976C67.1381 591.976 66.6461 592.3 66.6461 592.9ZM70.5581 592.9C70.5581 594.172 69.4301 595.036 67.8461 595.036C66.2621 595.036 65.1341 594.172 65.1341 592.9C65.1341 591.652 66.2621 590.776 67.8461 590.776C69.4301 590.776 70.5581 591.652 70.5581 592.9ZM67.7501 595.636V597.58H73.6901V598.84H66.1661V595.636H67.7501ZM73.2941 591.352H74.7581V592.66H73.2941V596.248H71.7101V587.98H73.2941V591.352ZM85.5958 587.968H87.1798V599.056H85.5958V587.968ZM78.5638 588.856H80.1358V591.532H82.4398V588.856H84.0118V596.476H78.5638V588.856ZM80.1358 592.768V595.216H82.4398V592.768H80.1358ZM93.2149 595.192V592.744H91.0429V595.192H93.2149ZM96.7549 587.968H98.3389V599.056H96.7549V593.128H94.7749V596.452H89.4709V588.844H91.0429V591.508H93.2149V588.844H94.7749V591.856H96.7549V587.968Z" fill="#7ED287"/>
<path d="M43.316 613.64H49.504C49.504 617.588 48.174 620.808 43.596 623.02L42.63 621.564C45.92 619.982 47.348 617.966 47.614 615.11H43.316V613.64ZM51.478 612.296H53.34V625.19H51.478V612.296ZM66.5269 613.654V615.096H56.0409V613.654H60.3809V612.296H62.2289V613.654H66.5269ZM63.8109 617.826C63.8109 617.224 62.9849 616.972 61.3049 616.972C59.6249 616.972 58.8129 617.224 58.8129 617.826C58.8129 618.4 59.6249 618.666 61.3049 618.666C62.9849 618.666 63.8109 618.4 63.8109 617.826ZM56.8949 617.826C56.8949 616.398 58.5469 615.6 61.3049 615.6C64.0629 615.6 65.7289 616.398 65.7289 617.826C65.7289 619.24 64.0629 620.038 61.3049 620.038C58.5469 620.038 56.8949 619.24 56.8949 617.826ZM67.1569 620.654V622.138H62.2289V625.218H60.3809V622.138H55.4809V620.654H67.1569ZM74.1558 623.818C75.8778 623.818 76.7598 623.524 76.7598 622.852C76.7598 622.18 75.8778 621.872 74.1558 621.872C72.4338 621.872 71.5518 622.18 71.5518 622.852C71.5518 623.524 72.4338 623.818 74.1558 623.818ZM74.1558 620.472C76.9418 620.472 78.6358 621.326 78.6358 622.852C78.6358 624.364 76.9418 625.218 74.1558 625.218C71.3698 625.218 69.6898 624.364 69.6898 622.852C69.6898 621.326 71.3698 620.472 74.1558 620.472ZM75.1218 618.372H80.0358V619.842H68.3738V618.372H73.2738V617.308H69.7878V612.856H78.6358V614.326H71.6218V615.838H78.7058V617.308H75.1218V618.372ZM89.5267 616.986V619.968H87.8047V612.548H89.5267V615.488H90.4787V612.31H92.2287V620.374H90.4787V616.986H89.5267ZM87.4407 613.626V615.054H81.1687V613.626H83.3947V612.45H85.2147V613.626H87.4407ZM83.1847 617.714C83.1847 618.316 83.6467 618.652 84.3327 618.652C85.0187 618.652 85.4667 618.316 85.4667 617.714C85.4667 617.112 85.0187 616.79 84.3327 616.79C83.6467 616.79 83.1847 617.112 83.1847 617.714ZM87.1047 617.714C87.1047 619.044 85.9567 619.968 84.3327 619.968C82.6947 619.968 81.5467 619.044 81.5467 617.714C81.5467 616.384 82.6947 615.474 84.3327 615.474C85.9567 615.474 87.1047 616.384 87.1047 617.714ZM87.8607 623.832C89.5827 623.832 90.4507 623.538 90.4507 622.866C90.4507 622.194 89.5827 621.9 87.8607 621.9C86.1387 621.9 85.2707 622.194 85.2707 622.866C85.2707 623.538 86.1387 623.832 87.8607 623.832ZM87.8607 620.514C90.6327 620.514 92.2987 621.368 92.2987 622.866C92.2987 624.364 90.6327 625.204 87.8607 625.204C85.0887 625.204 83.4227 624.364 83.4227 622.866C83.4227 621.368 85.0887 620.514 87.8607 620.514ZM94.8596 613.542H100.782C100.782 617.518 99.8436 620.836 95.0416 623.286L94.0616 621.858C96.1756 620.808 97.4216 619.604 98.1496 618.19L94.4116 618.554L94.1736 616.986L98.6816 616.72C98.8076 616.188 98.9056 615.628 98.9476 615.012H94.8596V613.542ZM106.018 617.224V618.75H104.212V625.176H102.364V612.296H104.212V617.224H106.018ZM117.427 618.26V619.73H108.355V613.374H117.329V614.872H110.203V618.26H117.427ZM106.997 622.152H118.673V623.664H106.997V622.152ZM134.848 618.582L133.896 619.94C132.706 619.436 131.95 618.54 131.502 617.434C131.054 618.61 130.242 619.618 128.94 620.136C127.638 619.618 126.826 618.61 126.378 617.42C125.93 618.526 125.174 619.436 123.998 619.94L123.046 618.582C124.782 617.812 125.468 616.202 125.468 614.69V613.234H127.302V614.69C127.302 615.95 127.75 617.336 128.94 618.232C130.13 617.336 130.564 615.964 130.564 614.69V613.234H132.426V614.69C132.426 616.258 133.098 617.826 134.848 618.582ZM123.116 623.622V622.124H134.778V623.622H123.116ZM140.993 613.304V615.18C140.993 617.574 142.015 619.926 144.199 620.864L143.149 622.362C141.665 621.69 140.671 620.416 140.097 618.834C139.523 620.556 138.473 621.942 136.933 622.67L135.827 621.144C138.081 620.178 139.145 617.686 139.145 615.18V613.304H140.993ZM144.829 612.296H146.677V625.232H144.829V612.296ZM159.261 615.796V617.266H150.315V612.772H152.163V615.796H159.261ZM152.051 621.088V623.454H159.331V624.924H150.189V621.088H152.051ZM148.873 618.582H160.549V620.066H148.873V618.582ZM173.337 616.58V615.418H168.311V616.58H173.337ZM175.171 612.716V618.022H166.477V612.716H168.311V614.032H173.337V612.716H175.171ZM168.185 621.438V623.51H175.381V624.98H166.337V621.438H168.185ZM164.979 618.918H176.669V620.374H171.909V622.404H170.061V620.374H164.979V618.918ZM191.822 612.31V619.604H189.96V612.31H191.822ZM184.794 614.508C183.814 614.508 183.1 615.096 183.1 616.062C183.1 617.028 183.814 617.616 184.794 617.616C185.774 617.616 186.502 617.028 186.502 616.062C186.502 615.096 185.774 614.508 184.794 614.508ZM184.794 619.156C182.806 619.156 181.294 617.868 181.294 616.062C181.294 614.256 182.806 612.968 184.794 612.968C186.81 612.968 188.308 614.256 188.308 616.062C188.308 617.868 186.81 619.156 184.794 619.156ZM190.52 620.136V620.57C190.52 621.9 191.22 623.146 192.928 623.664L192.032 625.008C190.814 624.602 190.016 623.832 189.582 622.852C189.162 623.832 188.42 624.686 187.244 625.148C186.068 624.714 185.326 623.874 184.906 622.894C184.458 623.832 183.674 624.588 182.512 625.008L181.602 623.664C183.31 623.09 184.01 621.816 184.01 620.57V620.136H185.802V620.57C185.802 621.592 186.208 622.656 187.23 623.37C188.266 622.6 188.7 621.522 188.7 620.57V620.136H190.52ZM196.231 613.528V620.5C197.855 620.458 199.605 620.318 201.411 619.968L201.593 621.48C199.451 621.928 197.379 622.04 195.503 622.04H194.383V613.528H196.231ZM205.891 617.168V618.694H204.085V625.176H202.237V612.296H204.085V617.168H205.891ZM211.28 619.744V622.208H214.122V619.744C213.674 619.828 213.198 619.87 212.694 619.87C212.19 619.87 211.728 619.828 211.28 619.744ZM212.694 614.396C210.902 614.396 209.712 615.124 209.712 616.412C209.712 617.686 210.902 618.428 212.694 618.428C214.486 618.428 215.69 617.686 215.69 616.412C215.69 615.124 214.486 614.396 212.694 614.396ZM215.956 622.208H218.546V623.706H206.87V622.208H209.446V619.058C208.466 618.456 207.878 617.532 207.892 616.412C207.892 614.298 209.922 612.94 212.694 612.94C215.48 612.94 217.51 614.298 217.51 616.412C217.51 617.532 216.922 618.456 215.956 619.058V622.208ZM221.811 620.947V620.778C221.815 620.198 221.866 619.736 221.965 619.391C222.068 619.047 222.217 618.768 222.413 618.556C222.608 618.344 222.844 618.152 223.119 617.979C223.324 617.847 223.508 617.709 223.671 617.567C223.833 617.424 223.962 617.267 224.058 617.094C224.155 616.919 224.203 616.723 224.203 616.508C224.203 616.279 224.148 616.079 224.039 615.906C223.929 615.734 223.782 615.601 223.596 615.509C223.414 615.416 223.212 615.369 222.99 615.369C222.774 615.369 222.57 615.417 222.378 615.513C222.186 615.606 222.028 615.746 221.906 615.931C221.783 616.113 221.717 616.34 221.707 616.612H219.678C219.695 615.949 219.854 615.402 220.156 614.972C220.457 614.537 220.857 614.214 221.354 614.002C221.851 613.787 222.4 613.679 222.999 613.679C223.659 613.679 224.242 613.788 224.749 614.007C225.257 614.223 225.654 614.536 225.943 614.947C226.231 615.358 226.375 615.853 226.375 616.433C226.375 616.821 226.311 617.166 226.181 617.467C226.055 617.766 225.878 618.031 225.649 618.263C225.421 618.491 225.151 618.699 224.839 618.884C224.577 619.04 224.362 619.202 224.193 619.371C224.027 619.54 223.903 619.736 223.82 619.958C223.74 620.18 223.699 620.454 223.695 620.778V620.947H221.811ZM222.796 624.129C222.464 624.129 222.181 624.013 221.945 623.781C221.713 623.546 221.599 623.264 221.602 622.936C221.599 622.611 221.713 622.333 221.945 622.101C222.181 621.869 222.464 621.753 222.796 621.753C223.11 621.753 223.387 621.869 223.626 622.101C223.865 622.333 223.985 622.611 223.989 622.936C223.985 623.155 223.927 623.355 223.815 623.538C223.705 623.717 223.561 623.861 223.382 623.97C223.203 624.076 223.008 624.129 222.796 624.129Z" fill="black"/>
<path d="M45.346 642.144V644.818H52.906V645.756H44.198V642.144H45.346ZM49 640.086H54.11V641.01H42.742V640.086H47.852V638.448H44.17V634.122H52.696V635.046H45.318V637.51H52.808V638.448H49V640.086ZM56.2089 634.234H61.9629C61.9629 637.398 59.7649 639.526 56.0829 640.436L55.6489 639.498C58.7289 638.742 60.5209 637.174 60.7169 635.172H56.2089V634.234ZM60.2269 644.972V643.334H58.0709V644.972H60.2269ZM60.2269 642.452V640.94H61.2909V645.854H56.9929V640.94H58.0709V642.452H60.2269ZM64.6509 640.814V641.836C64.6509 643.068 65.3509 644.482 66.8069 645.126L66.1909 645.98C65.1549 645.504 64.4689 644.664 64.0909 643.67C63.7269 644.65 63.0269 645.504 61.9909 645.98L61.3749 645.126C62.8169 644.468 63.5449 643.068 63.5449 641.864V640.814H64.6509ZM65.3649 636.376H67.2269V637.328H65.3649V640.31H64.2169V633.478H65.3649V636.376ZM75.8869 642.284C77.0349 642.284 77.8609 641.472 77.8609 640.352C77.8609 639.218 77.0349 638.406 75.8869 638.406C74.7529 638.406 73.9269 639.218 73.9269 640.352C73.9269 641.472 74.7529 642.284 75.8869 642.284ZM75.8869 637.454C77.6789 637.454 78.9529 638.658 78.9529 640.352C78.9529 642.06 77.6789 643.236 75.8869 643.236C74.1229 643.236 72.8489 642.06 72.8489 640.352C72.8489 638.658 74.1229 637.454 75.8869 637.454ZM76.4469 633.632V635.494H79.5409V636.418H72.1349V635.494H75.2989V633.632H76.4469ZM83.9369 638.644V639.61H81.8789V646.036H80.7309V633.492H81.8789V638.644H83.9369ZM86.7218 634.696V641.892C88.5278 641.892 90.3898 641.738 92.4198 641.332L92.5598 642.284C90.4178 642.718 88.4998 642.858 86.5818 642.858H85.5878V634.696H86.7218ZM96.7598 638.49V639.442H94.7438V646.036H93.5958V633.478H94.7438V638.49H96.7598ZM101.897 640.52V643.474H105.397V640.52C104.865 640.646 104.263 640.716 103.633 640.716C103.017 640.716 102.415 640.646 101.897 640.52ZM103.633 635.172C101.617 635.172 100.175 636.096 100.175 637.496C100.175 638.896 101.617 639.82 103.633 639.82C105.649 639.82 107.105 638.896 107.105 637.496C107.105 636.096 105.649 635.172 103.633 635.172ZM106.545 643.474H109.359V644.426H97.9487V643.474H100.749V640.086C99.6987 639.54 99.0687 638.63 99.0687 637.496C99.0687 635.536 100.973 634.276 103.633 634.276C106.307 634.276 108.197 635.536 108.197 637.496C108.197 638.63 107.581 639.526 106.545 640.072V643.474ZM112.725 642.072V641.977C112.731 641.361 112.793 640.87 112.909 640.506C113.028 640.141 113.197 639.846 113.416 639.621C113.634 639.395 113.898 639.19 114.206 639.004C114.405 638.878 114.584 638.737 114.743 638.582C114.902 638.426 115.028 638.247 115.121 638.045C115.214 637.843 115.26 637.619 115.26 637.374C115.26 637.079 115.191 636.823 115.051 636.608C114.912 636.393 114.727 636.227 114.494 636.111C114.266 635.991 114.011 635.932 113.729 635.932C113.474 635.932 113.23 635.985 112.998 636.091C112.766 636.197 112.574 636.363 112.421 636.588C112.269 636.81 112.181 637.097 112.158 637.448H110.646C110.67 636.852 110.82 636.348 111.099 635.937C111.377 635.522 111.745 635.209 112.203 634.997C112.663 634.785 113.172 634.679 113.729 634.679C114.339 634.679 114.872 634.793 115.33 635.022C115.787 635.247 116.142 635.564 116.394 635.972C116.649 636.376 116.776 636.848 116.776 637.388C116.776 637.76 116.718 638.094 116.602 638.393C116.486 638.688 116.321 638.951 116.105 639.183C115.893 639.415 115.638 639.621 115.34 639.8C115.058 639.975 114.829 640.158 114.654 640.347C114.481 640.536 114.355 640.759 114.276 641.018C114.196 641.276 114.153 641.596 114.146 641.977V642.072H112.725ZM113.475 645.094C113.204 645.094 112.97 644.998 112.774 644.806C112.579 644.611 112.481 644.375 112.481 644.1C112.481 643.828 112.579 643.596 112.774 643.404C112.97 643.209 113.204 643.111 113.475 643.111C113.744 643.111 113.976 643.209 114.171 643.404C114.37 643.596 114.47 643.828 114.47 644.1C114.47 644.282 114.423 644.45 114.33 644.602C114.241 644.751 114.122 644.871 113.972 644.96C113.823 645.05 113.658 645.094 113.475 645.094ZM129.182 638.63L128.594 639.526C127.208 639.05 126.13 638.07 125.57 636.824C125.052 638.266 123.904 639.372 122.392 639.904L121.832 638.994C123.722 638.35 124.968 636.754 124.968 634.892V633.912H126.116V634.878C126.116 636.572 127.348 638.042 129.182 638.63ZM124.828 643.614V644.986H132.108V645.896H123.708V642.76H130.512V641.514H123.666V640.604H131.646V643.614H124.828ZM131.646 636.222H133.508V637.174H131.646V640.044H130.498V633.492H131.646V636.222ZM135.145 634.836H138.547C138.547 637.86 137.917 640.8 135.635 643.208L134.739 642.564C136.601 640.632 137.329 638.308 137.455 635.788H135.145V634.836ZM138.967 634.836H141.977C141.977 637.86 141.543 641.318 139.233 644.048L138.309 643.418C140.241 641.192 140.801 638.448 140.899 635.788H138.967V634.836ZM146.513 638.658V639.61H144.651V646.036H143.503V633.478H144.651V638.658H146.513ZM156.531 638.308V635.102H153.003V638.308H156.531ZM157.651 634.192V639.218H151.883V634.192H157.651ZM154.291 643.544V644.944H161.571V645.868H153.171V642.69H159.975V641.374H153.129V640.464H161.109V643.544H154.291ZM161.109 636.18H162.971V637.132H161.109V639.876H159.961V633.492H161.109V636.18ZM164.608 634.836H168.01C168.01 637.86 167.38 640.8 165.098 643.208L164.202 642.564C166.064 640.632 166.792 638.308 166.918 635.788H164.608V634.836ZM168.43 634.836H171.44C171.44 637.86 171.006 641.318 168.696 644.048L167.772 643.418C169.704 641.192 170.264 638.448 170.362 635.788H168.43V634.836ZM175.976 638.658V639.61H174.114V646.036H172.966V633.478H174.114V638.658H175.976ZM189.69 635.984V635.676H182.032V634.738H190.838V635.984C190.838 637.538 190.838 639.26 190.362 641.794L189.214 641.668C189.69 639.26 189.69 637.496 189.69 635.984ZM186.4 643.334H192.196V644.272H180.842V643.334H185.252V638.84H186.4V643.334ZM204.011 633.492V642.508H202.863V633.492H204.011ZM199.111 639.484V635.494H195.485V639.484H199.111ZM200.231 634.57V640.408H194.365V634.57H200.231ZM197.081 644.692H204.389V645.616H195.933V641.654H197.081V644.692ZM207.636 638.602L207.23 637.692C209.428 637.44 211.43 636.362 211.528 634.976H207.636V634.052H216.918V634.976H213.012C213.11 636.362 215.112 637.44 217.31 637.692L216.904 638.602C214.846 638.35 212.97 637.426 212.27 636.04C211.584 637.426 209.694 638.35 207.636 638.602ZM215.392 643.81C215.392 642.97 214.216 642.494 212.256 642.494C210.282 642.494 209.12 642.97 209.12 643.81C209.12 644.65 210.282 645.14 212.256 645.14C214.216 645.14 215.392 644.65 215.392 643.81ZM217.94 640.282H212.844V641.626C215.182 641.738 216.554 642.508 216.554 643.81C216.554 645.238 214.944 646.022 212.27 646.022C209.582 646.022 207.958 645.238 207.958 643.81C207.958 642.508 209.344 641.738 211.682 641.626V640.282H206.586V639.358H217.94V640.282ZM229.769 633.492V642.662H228.621V633.492H229.769ZM220.879 637.44C220.879 638.686 221.803 639.554 223.021 639.554C224.267 639.554 225.191 638.686 225.191 637.44C225.191 636.222 224.267 635.354 223.021 635.354C221.803 635.354 220.879 636.222 220.879 637.44ZM226.311 637.44C226.311 639.26 224.897 640.548 223.021 640.548C221.159 640.548 219.759 639.26 219.759 637.44C219.759 635.634 221.159 634.36 223.021 634.36C224.897 634.36 226.311 635.634 226.311 637.44ZM222.839 644.818H230.147V645.756H221.691V641.724H222.839V644.818ZM233.94 635.942V642.06C235.718 642.046 236.838 641.99 238.154 641.71L238.266 642.648C236.838 642.956 235.62 643.012 233.618 643.012H232.806V635.018H237.524V635.942H233.94ZM239.386 638.266V633.786H240.464V645.406H239.386V639.218H236.684V638.266H239.386ZM241.906 633.478H242.998V646.036H241.906V633.478ZM246.459 645.094C246.187 645.094 245.954 644.998 245.758 644.806C245.563 644.611 245.465 644.375 245.465 644.1C245.465 643.828 245.563 643.596 245.758 643.404C245.954 643.209 246.187 643.111 246.459 643.111C246.731 643.111 246.965 643.209 247.16 643.404C247.356 643.596 247.453 643.828 247.453 644.1C247.453 644.282 247.407 644.45 247.314 644.602C247.225 644.751 247.105 644.871 246.956 644.96C246.807 645.05 246.641 645.094 246.459 645.094Z" fill="#B5B5B5"/>
<line x1="40" y1="678.5" x2="390" y2="678.5" stroke="#7ED287"/>
<path d="M370.58 94.5735L373.221 93.8512L389.126 78.5953C389.251 78.4735 389.321 78.3097 389.32 78.1395C389.32 77.9692 389.248 77.8061 389.121 77.6854L388.169 76.7726C388.107 76.7126 388.034 76.6649 387.953 76.6322C387.871 76.5995 387.784 76.5824 387.696 76.582C387.608 76.5816 387.52 76.5979 387.439 76.6299C387.357 76.6618 387.283 76.7089 387.221 76.7683L371.358 91.9844L370.58 94.5735ZM390.054 74.964L391.007 75.8783C392.321 77.1394 392.333 79.174 391.031 80.4223L374.642 96.1446L368.996 97.6858C368.651 97.7773 368.282 97.7354 367.97 97.5693C367.658 97.4033 367.428 97.1266 367.331 96.8001C367.259 96.5653 367.258 96.3159 367.328 96.0806L368.97 90.6209L385.316 74.9399C385.627 74.6432 385.997 74.4082 386.404 74.2485C386.812 74.0888 387.249 74.0077 387.69 74.0098C388.131 74.0119 388.568 74.0973 388.973 74.2609C389.379 74.4244 389.747 74.6644 390.054 74.964ZM372.776 76.6034C373.52 76.6034 374.123 77.182 374.123 77.8958C374.124 78.0645 374.09 78.2318 374.023 78.3881C373.956 78.5444 373.857 78.6866 373.732 78.8066C373.607 78.9267 373.458 79.0222 373.294 79.0876C373.13 79.1531 372.954 79.1873 372.776 79.1882H367.388C365.9 79.1882 364.694 80.3456 364.694 81.7716V97.2778C364.694 98.7053 365.9 99.8626 367.388 99.8626H383.552C385.04 99.8626 386.247 98.7053 386.247 97.2778V92.1095C386.247 91.3958 386.85 90.8171 387.594 90.8171C388.338 90.8171 388.941 91.3958 388.941 92.111V97.2778C388.941 100.133 386.528 102.447 383.552 102.447H367.388C364.412 102.447 362 100.133 362 97.2778V81.7716C362 78.9181 364.412 76.6034 367.388 76.6034H372.776Z" fill="white"/>
<path d="M388.634 285.818V296H387.401V287.111H387.341L384.855 288.761V287.509L387.401 285.818H388.634Z" fill="black"/>
<path d="M368.753 283.859C366.816 284.099 365.333 285.695 365.035 287.855C364.988 288.21 364.988 288.999 365.035 289.331C365.255 290.829 366.048 292.167 367.706 293.847C368.367 294.517 368.931 295.036 371.038 296.911C372.875 298.549 372.875 298.549 373.119 298.477C373.21 298.455 373.655 298.075 374.962 296.911C377.069 295.036 377.633 294.517 378.294 293.847C379.952 292.167 380.745 290.829 380.965 289.331C381.012 288.999 381.012 288.21 380.965 287.855C380.742 286.244 379.818 284.866 378.539 284.245C377.937 283.953 377.445 283.842 376.73 283.842C376.028 283.846 375.526 283.976 374.918 284.31C374.282 284.668 373.583 285.396 373.163 286.136C373.088 286.276 373.013 286.39 373 286.39C372.987 286.39 372.912 286.276 372.837 286.136C372.31 285.201 371.495 284.447 370.618 284.089C370.104 283.878 369.345 283.784 368.753 283.859ZM369.825 284.85C370.944 285.087 371.887 286.039 372.448 287.485C372.633 287.966 372.636 287.972 372.781 288.047C372.937 288.128 373.063 288.128 373.219 288.047C373.364 287.972 373.367 287.966 373.552 287.485C374.119 286.026 375.062 285.084 376.2 284.843C376.542 284.772 377.235 284.795 377.561 284.889C378.175 285.067 378.564 285.301 379.006 285.756C379.698 286.468 380.084 287.485 380.084 288.603C380.084 289.753 379.658 290.79 378.661 292.044C378.351 292.437 377.188 293.633 376.542 294.227C375.777 294.929 373.025 297.373 373 297.373C372.975 297.373 370.223 294.929 369.458 294.227C368.812 293.633 367.649 292.437 367.339 292.044C366.342 290.79 365.916 289.753 365.916 288.603C365.916 286.942 366.797 285.496 368.116 284.996C368.298 284.924 368.602 284.843 368.753 284.821C369 284.785 369.602 284.801 369.825 284.85Z" fill="#B2B2B2" stroke="#B2B2B2"/>
<path d="M388.634 405.818V416H387.401V407.111H387.341L384.855 408.761V407.509L387.401 405.818H388.634Z" fill="black"/>
<path d="M368.753 403.859C366.816 404.099 365.333 405.695 365.035 407.855C364.988 408.21 364.988 408.999 365.035 409.331C365.255 410.829 366.048 412.167 367.706 413.847C368.367 414.517 368.931 415.036 371.038 416.911C372.875 418.549 372.875 418.549 373.119 418.477C373.21 418.455 373.655 418.075 374.962 416.911C377.069 415.036 377.633 414.517 378.294 413.847C379.952 412.167 380.745 410.829 380.965 409.331C381.012 408.999 381.012 408.21 380.965 407.855C380.742 406.244 379.818 404.866 378.539 404.245C377.937 403.953 377.445 403.842 376.73 403.842C376.028 403.846 375.526 403.976 374.918 404.31C374.282 404.668 373.583 405.396 373.163 406.136C373.088 406.276 373.013 406.39 373 406.39C372.987 406.39 372.912 406.276 372.837 406.136C372.31 405.201 371.495 404.447 370.618 404.089C370.104 403.878 369.345 403.784 368.753 403.859ZM369.825 404.85C370.944 405.087 371.887 406.039 372.448 407.485C372.633 407.966 372.636 407.972 372.781 408.047C372.937 408.128 373.063 408.128 373.219 408.047C373.364 407.972 373.367 407.966 373.552 407.485C374.119 406.026 375.062 405.084 376.2 404.843C376.542 404.772 377.235 404.795 377.561 404.889C378.175 405.067 378.564 405.301 379.006 405.756C379.698 406.468 380.084 407.485 380.084 408.603C380.084 409.753 379.658 410.79 378.661 412.044C378.351 412.437 377.188 413.633 376.542 414.227C375.777 414.929 373.025 417.373 373 417.373C372.975 417.373 370.223 414.929 369.458 414.227C368.812 413.633 367.649 412.437 367.339 412.044C366.342 410.79 365.916 409.753 365.916 408.603C365.916 406.942 366.797 405.496 368.116 404.996C368.298 404.924 368.602 404.843 368.753 404.821C369 404.785 369.602 404.801 369.825 404.85Z" fill="#B2B2B2" stroke="#B2B2B2"/>
<path d="M388.634 522.818V533H387.401V524.111H387.341L384.855 525.761V524.509L387.401 522.818H388.634Z" fill="black"/>
<path d="M368.753 520.859C366.816 521.099 365.333 522.695 365.035 524.855C364.988 525.21 364.988 525.999 365.035 526.331C365.255 527.829 366.048 529.167 367.706 530.847C368.367 531.517 368.931 532.036 371.038 533.911C372.875 535.549 372.875 535.549 373.119 535.477C373.21 535.455 373.655 535.075 374.962 533.911C377.069 532.036 377.633 531.517 378.294 530.847C379.952 529.167 380.745 527.829 380.965 526.331C381.012 525.999 381.012 525.21 380.965 524.855C380.742 523.244 379.818 521.866 378.539 521.245C377.937 520.953 377.445 520.842 376.73 520.842C376.028 520.846 375.526 520.976 374.918 521.31C374.282 521.668 373.583 522.396 373.163 523.136C373.088 523.276 373.013 523.39 373 523.39C372.987 523.39 372.912 523.276 372.837 523.136C372.31 522.201 371.495 521.447 370.618 521.089C370.104 520.878 369.345 520.784 368.753 520.859ZM369.825 521.85C370.944 522.087 371.887 523.039 372.448 524.485C372.633 524.966 372.636 524.972 372.781 525.047C372.937 525.128 373.063 525.128 373.219 525.047C373.364 524.972 373.367 524.966 373.552 524.485C374.119 523.026 375.062 522.084 376.2 521.843C376.542 521.772 377.235 521.795 377.561 521.889C378.175 522.067 378.564 522.301 379.006 522.756C379.698 523.468 380.084 524.485 380.084 525.603C380.084 526.753 379.658 527.79 378.661 529.044C378.351 529.437 377.188 530.633 376.542 531.227C375.777 531.929 373.025 534.373 373 534.373C372.975 534.373 370.223 531.929 369.458 531.227C368.812 530.633 367.649 529.437 367.339 529.044C366.342 527.79 365.916 526.753 365.916 525.603C365.916 523.942 366.797 522.496 368.116 521.996C368.298 521.924 368.602 521.843 368.753 521.821C369 521.785 369.602 521.801 369.825 521.85Z" fill="#B2B2B2" stroke="#B2B2B2"/>
<path d="M388.634 637.818V648H387.401V639.111H387.341L384.855 640.761V639.509L387.401 637.818H388.634Z" fill="black"/>
<path d="M368.753 635.859C366.816 636.099 365.333 637.695 365.035 639.855C364.988 640.21 364.988 640.999 365.035 641.331C365.255 642.829 366.048 644.167 367.706 645.847C368.367 646.517 368.931 647.036 371.038 648.911C372.875 650.549 372.875 650.549 373.119 650.477C373.21 650.455 373.655 650.075 374.962 648.911C377.069 647.036 377.633 646.517 378.294 645.847C379.952 644.167 380.745 642.829 380.965 641.331C381.012 640.999 381.012 640.21 380.965 639.855C380.742 638.244 379.818 636.866 378.539 636.245C377.937 635.953 377.445 635.842 376.73 635.842C376.028 635.846 375.526 635.976 374.918 636.31C374.282 636.668 373.583 637.396 373.163 638.136C373.088 638.276 373.013 638.39 373 638.39C372.987 638.39 372.912 638.276 372.837 638.136C372.31 637.201 371.495 636.447 370.618 636.089C370.104 635.878 369.345 635.784 368.753 635.859ZM369.825 636.85C370.944 637.087 371.887 638.039 372.448 639.485C372.633 639.966 372.636 639.972 372.781 640.047C372.937 640.128 373.063 640.128 373.219 640.047C373.364 639.972 373.367 639.966 373.552 639.485C374.119 638.026 375.062 637.084 376.2 636.843C376.542 636.772 377.235 636.795 377.561 636.889C378.175 637.067 378.564 637.301 379.006 637.756C379.698 638.468 380.084 639.485 380.084 640.603C380.084 641.753 379.658 642.79 378.661 644.044C378.351 644.437 377.188 645.633 376.542 646.227C375.777 646.929 373.025 649.373 373 649.373C372.975 649.373 370.223 646.929 369.458 646.227C368.812 645.633 367.649 644.437 367.339 644.044C366.342 642.79 365.916 641.753 365.916 640.603C365.916 638.942 366.797 637.496 368.116 636.996C368.298 636.924 368.602 636.843 368.753 636.821C369 636.785 369.602 636.801 369.825 636.85Z" fill="#B2B2B2" stroke="#B2B2B2"/>
<rect x="27" y="22" width="380" height="40" fill="#7ED287"/>
<path d="M53.5169 868.057C53.0566 868.013 52.5963 867.969 52.136 867.914H52.1027C51.194 867.804 50.2948 867.672 49.4075 867.519C43.9958 866.598 38.8362 864.922 34.0488 862.6C33.7099 862.435 33.3804 862.271 33.0414 862.107C32.1862 861.658 31.343 861.209 30.5104 860.726C30.1274 860.507 29.7551 860.289 29.3816 860.058C27.4976 858.918 25.6791 857.669 23.9485 856.322C23.6309 856.08 23.324 855.84 23.0172 855.588C22.0966 854.843 21.1986 854.076 20.3327 853.288C20.0473 853.025 19.763 852.762 19.4894 852.489C19.1612 852.182 18.8436 851.875 18.526 851.557C18.2191 851.24 17.9016 850.922 17.5947 850.604C17.3866 850.396 17.1891 850.188 16.9917 849.969C16.7396 849.696 16.4874 849.421 16.2471 849.147C14.7794 847.504 13.4092 845.784 12.1389 843.988C11.9094 843.67 11.6894 843.342 11.4705 843.023C10.7807 842.016 10.1336 840.986 9.5211 839.934C9.29036 839.562 9.0715 839.179 8.86335 838.795C7.27432 835.946 5.92792 832.956 4.84319 829.855C4.68975 829.428 4.54705 829.012 4.41622 828.585C3.72637 826.438 3.15664 824.247 2.71775 822.013C2.62973 821.563 2.54171 821.115 2.46559 820.665C1.92917 817.51 1.64371 814.267 1.64371 810.958V64.4909C1.64371 33.7616 25.9419 8.59757 56.331 7.18457C28.9546 8.59757 7.12089 31.3079 7.12089 59.0125V816.434C7.12208 843.199 27.4762 865.296 53.5169 868.057Z" fill="url(#paint0_linear_113_502)"/>
<path d="M432.179 64.4907V810.958C432.179 817.104 431.204 823.031 429.408 828.585C429.277 829.012 429.134 829.44 428.981 829.855C428.838 830.282 428.685 830.699 428.52 831.115C428.411 831.432 428.291 831.75 428.159 832.057C427.787 832.988 427.392 833.909 426.975 834.818C426.79 835.223 426.603 835.629 426.406 836.022C426.132 836.581 425.857 837.129 425.562 837.677C425.376 838.049 425.179 838.411 424.971 838.772C424.763 839.155 424.544 839.539 424.313 839.922C423.7 840.974 423.043 842.015 422.352 843.034C422.133 843.351 421.913 843.68 421.684 843.998C421.432 844.36 421.169 844.711 420.906 845.061C420.654 845.422 420.38 845.773 420.117 846.112C419.844 846.463 419.569 846.802 419.295 847.142C419.022 847.482 418.736 847.821 418.441 848.161C417.872 848.83 417.291 849.488 416.688 850.123C415.768 851.109 414.815 852.061 413.818 852.993C413.522 853.255 413.227 853.529 412.92 853.804C412.23 854.418 411.529 855.009 410.817 855.6C410.511 855.841 410.193 856.082 409.875 856.334C408.835 857.145 407.761 857.911 406.665 858.645C406.304 858.886 405.931 859.126 405.559 859.368C404.815 859.85 404.058 860.299 403.291 860.737C402.919 860.956 402.536 861.175 402.151 861.372C400.913 862.051 399.654 862.686 398.361 863.256C398.021 863.42 397.682 863.563 397.342 863.706C396.936 863.892 396.53 864.056 396.114 864.221C395.698 864.385 395.282 864.549 394.865 864.702C393.934 865.053 392.992 865.381 392.039 865.678C391.7 865.787 391.371 865.886 391.032 865.984C389.783 866.357 388.501 866.686 387.209 866.97C386.759 867.069 386.311 867.168 385.851 867.255C385.38 867.353 384.898 867.441 384.405 867.518C383.507 867.671 382.609 867.802 381.709 867.912H381.676C381.216 867.967 380.755 868.011 380.295 868.055C406.336 865.295 426.701 843.198 426.701 816.435V59.0136C426.701 31.7788 405.613 9.3765 378.904 7.27246C408.636 9.3765 432.179 34.2337 432.179 64.4907Z" fill="url(#paint1_linear_113_502)"/>
<path d="M432.179 810.959V816.436C432.179 848.074 406.445 873.808 374.807 873.808H59.0273C27.3893 873.808 1.64487 848.074 1.64487 816.436V810.959C1.64487 814.268 1.93033 817.51 2.46675 820.666C2.54287 821.115 2.63089 821.564 2.71891 822.013C3.15661 824.248 3.7263 826.439 4.41734 828.586C4.54937 829.013 4.69091 829.429 4.84435 829.856C5.92908 832.957 7.27667 835.947 8.86451 838.796C9.07266 839.179 9.29151 839.563 9.52226 839.935C10.136 840.986 10.7818 842.017 11.4717 843.024C11.6905 843.342 11.9094 843.671 12.1401 843.989C13.4104 845.785 14.7806 847.506 16.2483 849.148C16.4897 849.422 16.7419 849.696 16.9928 849.97C17.1903 850.189 17.3877 850.397 17.5959 850.605C17.9027 850.923 18.2203 851.24 18.5272 851.558C18.8447 851.875 19.1623 852.182 19.4906 852.489C19.7641 852.763 20.0496 853.026 20.3339 853.288C21.1997 854.077 22.0977 854.844 23.0183 855.589C23.3252 855.841 23.6321 856.082 23.9496 856.323C25.6802 857.67 27.4988 858.919 29.3828 860.058C29.7551 860.288 30.1274 860.508 30.5115 860.727C31.3441 861.209 32.1874 861.658 33.0426 862.108C33.3815 862.272 33.711 862.436 34.05 862.6C38.8373 864.923 43.9969 866.599 49.4087 867.52C50.296 867.673 51.1939 867.804 52.1038 867.914H52.1371C53.0577 868.024 53.9771 868.112 54.9084 868.177C55.3794 868.211 55.8611 868.243 56.3321 868.265C57.2194 868.309 58.1174 868.331 59.0273 868.331H374.807C375.705 868.331 376.593 868.309 377.48 868.265C377.951 868.244 378.433 868.211 378.904 868.177C379.659 868.123 380.405 868.057 381.149 867.969C381.324 867.958 381.5 867.936 381.675 867.914H381.708C382.618 867.805 383.516 867.673 384.403 867.52C384.896 867.443 385.379 867.355 385.85 867.257C386.31 867.169 386.758 867.07 387.208 866.972C388.501 866.687 389.782 866.359 391.031 865.986C391.371 865.888 391.71 865.789 392.038 865.68C392.991 865.383 393.934 865.055 394.864 864.704C395.28 864.551 395.697 864.387 396.113 864.223C396.529 864.058 396.935 863.894 397.34 863.708C397.681 863.565 398.02 863.422 398.36 863.258C399.653 862.688 400.912 862.053 402.15 861.374C402.533 861.177 402.907 860.968 403.29 860.739C404.057 860.301 404.812 859.852 405.558 859.37C405.93 859.139 406.302 858.899 406.664 858.647C407.759 857.913 408.834 857.146 409.874 856.336C410.192 856.094 410.509 855.842 410.816 855.602C411.529 855.011 412.229 854.418 412.919 853.806C413.226 853.543 413.522 853.269 413.817 852.995C414.814 852.063 415.766 851.111 416.687 850.125C417.29 849.489 417.881 848.832 418.44 848.163C418.736 847.823 419.021 847.484 419.294 847.144C419.58 846.804 419.853 846.465 420.116 846.114C420.39 845.763 420.653 845.412 420.905 845.063C421.178 844.712 421.43 844.362 421.683 844C421.912 843.683 422.132 843.355 422.351 843.036C423.041 842.017 423.699 840.976 424.312 839.924C424.542 839.541 424.762 839.157 424.97 838.774C425.178 838.413 425.376 838.051 425.561 837.679C425.857 837.13 426.131 836.583 426.404 836.024C426.602 835.629 426.799 835.225 426.974 834.82C427.39 833.91 427.785 832.99 428.158 832.059C428.288 831.752 428.41 831.435 428.519 831.117C428.683 830.701 428.837 830.284 428.979 829.857C429.133 829.441 429.276 829.014 429.406 828.587C431.204 823.031 432.179 817.105 432.179 810.959Z" fill="url(#paint2_linear_113_502)"/>
<path d="M432.179 59.0145V64.4917C432.179 34.7044 409.37 10.1541 380.295 7.39352C379.835 7.34951 379.364 7.30551 378.904 7.27339C378.433 7.24009 377.951 7.20797 377.48 7.18537H377.469C376.582 7.14136 375.705 7.11996 374.807 7.11996H59.0273C58.1294 7.11996 57.2421 7.14136 56.3655 7.18537H56.3322C25.9431 8.59837 1.64493 33.7624 1.64493 64.4917V59.0145C1.64493 58.4448 1.65565 57.8858 1.67825 57.3279C1.67825 56.901 1.69964 56.4847 1.72224 56.0684C1.76625 55.1478 1.83169 54.2391 1.93041 53.3292C1.97442 52.8582 2.02913 52.3872 2.08384 51.9269C2.11714 51.6747 2.14923 51.4345 2.18253 51.1823C2.21583 50.8862 2.25987 50.5912 2.31458 50.2843C2.38 49.8133 2.4573 49.3423 2.54413 48.8713C2.68685 48.0495 2.851 47.2395 3.03774 46.439C3.12575 46.0334 3.22446 45.6398 3.32318 45.2449C3.60863 44.0507 3.93692 42.8899 4.3092 41.7278C4.42933 41.3662 4.55063 40.994 4.67076 40.6324C4.82419 40.1828 4.97762 39.7344 5.14176 39.2955C5.27259 38.9232 5.41532 38.5616 5.55805 38.2001C5.67818 37.8932 5.78759 37.597 5.91961 37.3021C6.06234 36.9405 6.2158 36.5789 6.36923 36.2281C6.49055 35.9545 6.59995 35.6916 6.73079 35.4288C6.90563 35.0351 7.08165 34.6509 7.2779 34.256C7.59547 33.5769 7.93567 32.8977 8.29724 32.2293C8.47208 31.8891 8.65882 31.5502 8.85626 31.21C9.0644 30.8151 9.29394 30.4214 9.52468 30.0372C11.1137 27.3314 12.9204 24.7682 14.9257 22.3573C15.2112 22.0171 15.4955 21.6782 15.7916 21.338C16.1199 20.9657 16.4493 20.5827 16.799 20.2093C17.3687 19.5955 17.9385 18.9937 18.5296 18.4133C19.1648 17.7781 19.8118 17.1644 20.4683 16.5614C21.1368 15.9703 21.8052 15.3779 22.495 14.8082C22.834 14.5239 23.1849 14.2492 23.5358 13.9649C24.2375 13.4166 24.9488 12.8802 25.6826 12.3545C26.4058 11.8395 27.1397 11.3352 27.8961 10.8428C28.6514 10.3611 29.4078 9.89007 30.1857 9.44048C30.5699 9.21093 30.9635 8.99088 31.3584 8.77203C31.7533 8.55318 32.147 8.34504 32.5419 8.13689C32.9475 7.92875 33.3412 7.7206 33.7468 7.52316C34.1523 7.32572 34.5579 7.12828 34.9742 6.93203C35.7854 6.55975 36.6179 6.19818 37.4612 5.85801C37.8549 5.69387 38.2605 5.52974 38.6661 5.37631C38.6994 5.3549 38.7422 5.343 38.7755 5.33229C39.1811 5.17886 39.5974 5.03615 40.003 4.88271C40.4085 4.75069 40.8141 4.60915 41.2185 4.46642C41.6788 4.32369 42.1391 4.17027 42.6101 4.03943C43.0478 3.90741 43.4867 3.78728 43.9244 3.66715C44.374 3.54702 44.8117 3.4257 45.2613 3.31628C45.7109 3.20685 46.1593 3.09743 46.6089 2.99871C47.5176 2.79057 48.4274 2.61572 49.348 2.46229C49.7976 2.38617 50.2567 2.30885 50.717 2.24343C51.703 2.1007 52.6998 1.98058 53.6965 1.89256C54.485 1.81644 55.2855 1.76054 56.0848 1.71772C56.5665 1.69631 57.0601 1.67372 57.5525 1.66302C58.0449 1.65231 58.5385 1.6416 59.0309 1.6416H374.811C375.303 1.6416 375.797 1.65231 376.289 1.66302C376.695 1.67372 377.111 1.68441 377.517 1.70701C378.448 1.75102 379.369 1.81643 380.288 1.90445H380.321C380.792 1.94846 381.253 2.00319 381.713 2.0579C382.184 2.11261 382.644 2.17802 383.105 2.24463C383.565 2.31005 384.025 2.38735 384.485 2.46347C384.946 2.53959 385.395 2.62761 385.844 2.71563C385.854 2.70492 385.865 2.70492 385.865 2.71563C386.315 2.80364 386.763 2.90236 387.213 2.99989C387.629 3.08791 388.035 3.18662 388.44 3.27345C388.539 3.29486 388.627 3.31746 388.703 3.33887C389.086 3.43759 389.47 3.53631 389.853 3.64573C390.39 3.78846 390.927 3.9419 391.453 4.10604C391.814 4.21546 392.176 4.32487 392.527 4.445C393.326 4.70786 394.116 4.98143 394.905 5.27759C395.441 5.46433 395.967 5.67127 396.482 5.89131C396.865 6.04474 397.238 6.20888 397.621 6.37302C398.037 6.54786 398.443 6.73459 398.859 6.93203C399.265 7.11758 399.67 7.31503 400.075 7.51247C402.967 8.92547 405.705 10.5799 408.291 12.4532C408.609 12.6721 408.926 12.9028 409.233 13.1431C410.373 13.997 411.468 14.8843 412.53 15.8156C413.001 16.2212 413.462 16.6375 413.911 17.0645C415.763 18.7844 417.494 20.6244 419.081 22.5643C419.378 22.9151 419.651 23.2541 419.925 23.605C420.505 24.3389 421.053 25.0727 421.579 25.8185C421.853 26.1907 422.116 26.5737 422.368 26.9579C422.817 27.6049 423.244 28.2722 423.661 28.9406C423.869 29.2808 424.066 29.6198 424.274 29.9599C424.647 30.607 425.019 31.2528 425.37 31.9212C425.545 32.2388 425.721 32.5564 425.874 32.8858C426.454 33.992 426.98 35.11 427.484 36.2602C427.605 36.5563 427.737 36.8513 427.857 37.1582C428.328 38.2976 428.767 39.4585 429.16 40.6312C429.314 41.0689 429.456 41.4971 429.587 41.9348C430.376 44.4539 430.99 47.0397 431.427 49.6801C431.471 49.9537 431.515 50.2391 431.559 50.5341C431.625 50.9944 431.69 51.4547 431.746 51.915C431.801 52.386 431.856 52.8463 431.9 53.3173C431.954 53.7883 431.988 54.2593 432.03 54.7303C432.085 55.5962 432.129 56.4609 432.151 57.3375C432.167 57.8977 432.179 58.4555 432.179 59.0145Z" fill="url(#paint3_linear_113_502)"/>
<path d="M377.48 7.18652H377.469C376.593 7.14251 375.705 7.12109 374.807 7.12109H59.0274C58.1294 7.12109 57.2421 7.14251 56.3655 7.18652H56.3322C28.9559 8.59952 7.12215 31.3099 7.12215 59.0145V816.436C7.12215 843.671 28.1994 866.073 54.9085 868.177C55.3795 868.211 55.8612 868.243 56.3322 868.266C57.2195 868.31 58.1175 868.331 59.0274 868.331H374.807C375.705 868.331 376.593 868.31 377.48 868.266C377.951 868.244 378.433 868.211 378.904 868.177C405.612 866.075 426.701 843.671 426.701 816.436V59.0145C426.701 31.298 404.856 8.58882 377.48 7.18652ZM422.319 816.436C422.319 841.063 403.092 861.878 378.597 863.806C378.159 863.84 377.709 863.872 377.26 863.884C376.449 863.928 375.628 863.949 374.806 863.949H59.0274C58.1948 863.949 57.3622 863.928 56.5403 863.884C56.1026 863.873 55.6531 863.84 55.2475 863.806C30.7198 861.878 11.5039 841.064 11.5039 816.436V59.0145C11.5039 33.7517 31.2336 12.9265 56.4524 11.5682H56.4737L56.5832 11.5576C57.3825 11.5243 58.2043 11.5028 59.0262 11.5028H374.806C375.628 11.5028 376.45 11.5243 377.249 11.5576L377.325 11.5682C402.565 12.8944 422.318 33.7303 422.318 59.0145L422.319 816.436Z" fill="black"/>
<path d="M422.308 59.3218V816.744C422.308 821.432 421.608 825.99 420.315 830.294C419.274 833.734 417.861 837.02 416.097 840.099C415.736 840.734 415.353 841.358 414.968 841.972C414.377 842.893 413.764 843.791 413.128 844.667C411.31 847.143 409.262 849.433 407.016 851.525C411.168 844.272 413.546 835.86 413.546 826.964V818.233C413.567 817.718 413.579 817.192 413.579 816.666V59.2445C413.579 58.7081 413.568 58.1705 413.546 57.6448V49.1002C413.546 40.0952 411.168 31.6375 407.005 24.375C416.436 33.0731 422.308 45.5403 422.308 59.3218Z" fill="url(#paint4_linear_113_502)"/>
<path d="M377.097 15.9435L376.895 15.9268C376.208 15.9007 375.508 15.8828 374.807 15.8828H59.0273C58.3089 15.8828 57.5917 15.9007 56.8912 15.9292L56.6759 15.9494H56.5736C33.7479 17.2375 15.8855 36.1323 15.8855 59.0139V816.437C15.8855 838.8 33.3257 857.688 55.6054 859.438C55.9325 859.466 56.2941 859.493 56.6474 859.501L56.7734 859.507C57.518 859.547 58.2721 859.567 59.0262 859.567H374.806C375.548 859.567 376.29 859.547 377.024 859.507L377.156 859.501C377.529 859.493 377.902 859.464 378.253 859.437C400.505 857.686 417.936 838.796 417.936 816.437V59.0139C417.937 36.0657 399.997 17.1459 377.097 15.9435ZM406.433 816.437C406.433 832.836 393.659 846.687 377.353 847.97C377.202 847.982 377.043 847.997 376.89 848.002L376.791 848.005L376.692 848.008L376.56 848.014L376.483 848.018L376.405 848.021C375.875 848.05 375.338 848.064 374.807 848.064H59.0273C58.4826 848.064 57.9295 848.05 57.3848 848.02L57.3229 848.017L57.2611 848.014L57.135 848.008L57.0434 848.005L56.9411 848.002C56.8055 847.997 56.6688 847.984 56.5094 847.971C40.1814 846.688 27.3906 832.836 27.3906 816.437V59.0139C27.3906 42.3493 40.3383 28.5428 56.9257 27.4521H57.2075L57.6357 27.4128C58.1436 27.395 58.6015 27.3867 59.0285 27.3867H374.809C375.236 27.3867 375.703 27.3962 376.23 27.414L376.342 27.4223L376.494 27.4307C393.283 28.312 406.435 42.1851 406.435 59.0139L406.433 816.437Z" fill="black"/>
<path d="M324.271 27.3867V31.5163C324.271 45.418 312.998 56.6911 299.096 56.6911H134.726C120.825 56.6911 109.552 45.418 109.552 31.5163V27.3867H324.271Z" fill="black"/>
<path d="M324.271 27.3945V31.5241C324.271 45.4258 312.998 56.6989 299.096 56.6989H134.727C120.825 56.6989 109.552 45.4258 109.552 31.5241V27.3945H324.271Z" fill="black"/>
<path d="M413.544 818.235V826.966C413.544 835.862 411.166 844.275 407.014 851.527C399.422 858.56 389.54 863.173 378.618 864.037C378.18 864.071 377.731 864.103 377.281 864.113C376.47 864.157 375.649 864.179 374.827 864.179H59.0487C58.2161 864.179 57.3835 864.157 56.5617 864.113C56.124 864.103 55.6744 864.069 55.2688 864.037C54.6658 863.993 54.0639 863.928 53.4609 863.851C43.2511 862.656 34.0381 858.176 26.8732 851.537C22.6889 844.262 20.2887 835.816 20.2887 826.888V816.666C20.2887 828.333 25.5803 838.96 33.9275 846.102C39.9529 851.273 47.577 854.636 55.9575 855.294C56.231 855.315 56.5058 855.349 56.7794 855.349L56.8995 855.359H57.0196C57.688 855.393 58.3672 855.414 59.0463 855.414H374.826C375.484 855.414 376.151 855.393 376.809 855.359H376.94L377.06 855.349C377.367 855.349 377.663 855.315 377.958 855.294C397.396 853.773 412.755 837.636 413.544 818.235Z" fill="url(#paint5_linear_113_502)"/>
<path d="M422.308 58.3221L422.342 58.246C422.342 32.9618 402.589 12.1248 377.349 10.7998L377.272 10.7891C376.472 10.7558 375.651 10.7344 374.829 10.7344H59.0488C58.2269 10.7344 57.405 10.7558 56.6058 10.7891L56.4963 10.7998H56.4749C55.4449 10.8545 54.4375 10.9425 53.43 11.0626C43.187 12.2675 33.9846 16.7039 26.8316 23.2992C22.6687 30.5628 20.2911 39.0194 20.2911 48.0243V58.2448C20.2911 46.4793 25.5494 35.8853 33.8978 28.7537C40.0981 23.4621 47.9969 20.0771 56.7283 19.5621H56.9364L57.2207 19.5288C57.8891 19.5074 58.4909 19.4955 59.05 19.4955H374.83C375.334 19.4955 375.881 19.5062 376.484 19.5288H376.495L376.89 19.5502C396.927 20.6016 412.735 36.75 413.546 56.6439V48.0993C413.546 39.0943 411.168 30.6365 407.005 23.3741C416.436 32.0733 422.308 44.5406 422.308 58.3221Z" fill="url(#paint6_linear_113_502)"/>
<path d="M26.8518 851.308C17.408 842.566 11.5038 830.088 11.5038 816.438V59.0152C11.5038 45.2337 17.3759 32.7664 26.8078 24.0684C22.6449 31.332 20.2673 39.7886 20.2673 48.7935V826.658C20.2685 835.586 22.6675 844.033 26.8518 851.308Z" fill="url(#paint7_linear_113_502)"/>
<path d="M422.308 59.3226V816.744C422.308 821.433 421.608 825.991 420.315 830.295C419.274 833.735 417.861 837.021 416.097 840.099C415.736 840.734 415.353 841.359 414.968 841.973C414.399 842.893 413.785 843.791 413.128 844.668C411.31 847.176 409.239 849.51 406.96 851.614C406.982 851.581 406.993 851.559 407.015 851.526C411.167 844.273 413.545 835.86 413.545 826.965V49.1021C413.545 40.0972 411.167 31.6394 407.004 24.377C416.436 33.0738 422.308 45.5411 422.308 59.3226Z" fill="url(#paint8_linear_113_502)"/>
<path d="M238.676 36.0842H192.495C191.332 36.0842 190.389 35.1411 190.389 33.9778V32.8955C190.389 31.7322 191.332 30.7891 192.495 30.7891H238.676C239.839 30.7891 240.783 31.7322 240.783 32.8955V33.9778C240.783 35.1411 239.839 36.0842 238.676 36.0842Z" fill="url(#paint9_linear_113_502)"/>
<defs>
<linearGradient id="paint0_linear_113_502" x1="1.6443" y1="437.621" x2="8.00174" y2="437.621" gradientUnits="userSpaceOnUse">
<stop stop-color="#666666"/>
<stop offset="1"/>
</linearGradient>
<linearGradient id="paint1_linear_113_502" x1="426.832" y1="437.665" x2="433.135" y2="437.665" gradientUnits="userSpaceOnUse">
<stop/>
<stop offset="1" stop-color="#666666"/>
</linearGradient>
<linearGradient id="paint2_linear_113_502" x1="216.911" y1="873.808" x2="216.911" y2="823.472" gradientUnits="userSpaceOnUse">
<stop stop-color="#959595"/>
<stop offset="1"/>
</linearGradient>
<linearGradient id="paint3_linear_113_502" x1="216.911" y1="49.7028" x2="216.911" y2="-13.1464" gradientUnits="userSpaceOnUse">
<stop/>
<stop offset="1" stop-color="#808080"/>
</linearGradient>
<linearGradient id="paint4_linear_113_502" x1="407.004" y1="437.951" x2="422.308" y2="437.951" gradientUnits="userSpaceOnUse">
<stop stop-color="#F1F1F1"/>
<stop offset="0.0012" stop-color="#F0F0F0"/>
<stop offset="0.1385" stop-color="#B7B7B7"/>
<stop offset="0.2715" stop-color="#888888"/>
<stop offset="0.397" stop-color="#636363"/>
<stop offset="0.5134" stop-color="#494949"/>
<stop offset="0.6172" stop-color="#393939"/>
<stop offset="0.6978" stop-color="#333333"/>
</linearGradient>
<linearGradient id="paint5_linear_113_502" x1="20.2899" y1="840.424" x2="413.544" y2="840.424" gradientUnits="userSpaceOnUse">
<stop stop-color="#1A1A1A"/>
<stop offset="0.1173" stop-color="#454545"/>
<stop offset="0.2314" stop-color="#666666"/>
<stop offset="0.3395" stop-color="#7E7E7E"/>
<stop offset="0.4393" stop-color="#8D8D8D"/>
<stop offset="0.5229" stop-color="#929292"/>
<stop offset="0.5926" stop-color="#8B8B8B"/>
<stop offset="0.6974" stop-color="#767676"/>
<stop offset="0.8246" stop-color="#545454"/>
<stop offset="0.968" stop-color="#252525"/>
<stop offset="1" stop-color="#1A1A1A"/>
</linearGradient>
<linearGradient id="paint6_linear_113_502" x1="20.2899" y1="34.5276" x2="422.341" y2="34.5276" gradientUnits="userSpaceOnUse">
<stop stop-color="#1A1A1A"/>
<stop offset="0.1173" stop-color="#454545"/>
<stop offset="0.2314" stop-color="#666666"/>
<stop offset="0.3395" stop-color="#7E7E7E"/>
<stop offset="0.4393" stop-color="#8D8D8D"/>
<stop offset="0.5229" stop-color="#929292"/>
<stop offset="0.5926" stop-color="#8B8B8B"/>
<stop offset="0.6974" stop-color="#767676"/>
<stop offset="0.8246" stop-color="#545454"/>
<stop offset="0.968" stop-color="#252525"/>
<stop offset="1" stop-color="#1A1A1A"/>
</linearGradient>
<linearGradient id="paint7_linear_113_502" x1="11.5039" y1="437.688" x2="20.5837" y2="437.688" gradientUnits="userSpaceOnUse">
<stop stop-color="#C8C8C8"/>
<stop offset="0.2107" stop-color="#A0A0A0"/>
<stop offset="0.5867" stop-color="#5D5D5D"/>
<stop offset="0.8599" stop-color="#343434"/>
<stop offset="1" stop-color="#242424"/>
</linearGradient>
<linearGradient id="paint8_linear_113_502" x1="406.96" y1="437.995" x2="422.308" y2="437.995" gradientUnits="userSpaceOnUse">
<stop stop-color="#242424"/>
<stop offset="0.1401" stop-color="#343434"/>
<stop offset="0.4133" stop-color="#5D5D5D"/>
<stop offset="0.7893" stop-color="#A0A0A0"/>
<stop offset="1" stop-color="#C8C8C8"/>
</linearGradient>
<linearGradient id="paint9_linear_113_502" x1="190.389" y1="33.437" x2="240.782" y2="33.437" gradientUnits="userSpaceOnUse">
<stop stop-color="#333333"/>
<stop offset="0.0901" stop-color="#2B2B2B"/>
<stop offset="0.2885" stop-color="#1E1E1E"/>
<stop offset="0.4787" stop-color="#1A1A1A"/>
<stop offset="0.7885" stop-color="#1C1C1C"/>
<stop offset="0.8999" stop-color="#232323"/>
<stop offset="0.9792" stop-color="#2E2E2E"/>
<stop offset="1" stop-color="#333333"/>
</linearGradient>
</defs>
</svg>
