<svg width="434" height="876" viewBox="0 0 434 876" fill="none" xmlns="http://www.w3.org/2000/svg">
<path d="M19 72H409V852C409 863.046 400.046 872 389 872H39C27.9543 872 19 863.046 19 852V72Z" fill="white"/>
<rect x="24" y="25" width="385" height="47.348" fill="#7ED287"/>
<rect x="19" y="65.46" width="390" height="58.5394" fill="#7ED287"/>
<path d="M176.276 100.252C175.716 100.252 175.268 100.103 174.932 99.804C174.596 99.5053 174.428 99.0947 174.428 98.572V88.772C174.428 86.0653 175.203 83.9467 176.752 82.416C178.301 80.8853 180.457 80.12 183.22 80.12C185.031 80.12 186.599 80.4653 187.924 81.156C189.249 81.8467 190.257 82.8453 190.948 84.152C191.657 85.4587 192.012 86.9987 192.012 88.772V98.572C192.012 99.0947 191.844 99.5053 191.508 99.804C191.172 100.103 190.724 100.252 190.164 100.252C189.604 100.252 189.147 100.103 188.792 99.804C188.456 99.4867 188.288 99.076 188.288 98.572V94.008H178.152V98.572C178.152 99.076 177.975 99.4867 177.62 99.804C177.284 100.103 176.836 100.252 176.276 100.252ZM188.288 91.124V88.688C188.288 86.8213 187.859 85.4213 187 84.488C186.16 83.536 184.9 83.06 183.22 83.06C179.841 83.06 178.152 84.936 178.152 88.688V91.124H188.288ZM196.729 100.28C196.169 100.28 195.721 100.131 195.385 99.832C195.049 99.5333 194.881 99.1227 194.881 98.6V88.044C194.881 85.5613 195.656 83.62 197.205 82.22C198.754 80.82 200.901 80.12 203.645 80.12C206.389 80.12 208.536 80.82 210.085 82.22C211.634 83.62 212.409 85.5613 212.409 88.044V98.6C212.409 99.1227 212.241 99.5333 211.905 99.832C211.569 100.131 211.121 100.28 210.561 100.28C210.001 100.28 209.544 100.131 209.189 99.832C208.853 99.5147 208.685 99.104 208.685 98.6V87.96C208.685 86.3733 208.256 85.16 207.397 84.32C206.538 83.48 205.288 83.06 203.645 83.06C202.002 83.06 200.752 83.48 199.893 84.32C199.034 85.16 198.605 86.3733 198.605 87.96V98.6C198.605 99.104 198.428 99.5147 198.073 99.832C197.737 100.131 197.289 100.28 196.729 100.28ZM225.115 100.28C223.005 100.28 221.176 99.8787 219.627 99.076C218.077 98.2733 216.892 97.116 216.071 95.604C215.249 94.092 214.839 92.3 214.839 90.228C214.839 88.156 215.249 86.364 216.071 84.852C216.892 83.3213 218.068 82.1547 219.599 81.352C221.148 80.5307 222.968 80.12 225.059 80.12C226.795 80.12 228.4 80.4187 229.875 81.016C231.349 81.6133 232.441 82.4067 233.151 83.396C233.375 83.6947 233.487 84.0027 233.487 84.32C233.487 84.7867 233.235 85.2067 232.731 85.58C232.507 85.748 232.227 85.832 231.891 85.832C231.611 85.832 231.331 85.776 231.051 85.664C230.771 85.5333 230.537 85.356 230.351 85.132C229.716 84.404 228.979 83.8813 228.139 83.564C227.299 83.228 226.272 83.06 225.059 83.06C223.024 83.06 221.437 83.6947 220.299 84.964C219.16 86.2147 218.591 87.9693 218.591 90.228C218.591 92.468 219.16 94.2133 220.299 95.464C221.456 96.7147 223.061 97.34 225.115 97.34C226.813 97.34 228.139 97.0133 229.091 96.36C230.061 95.7067 230.547 94.8013 230.547 93.644V93.028C230.547 92.636 230.453 92.3653 230.267 92.216C230.099 92.0667 229.8 91.992 229.371 91.992H225.703C225.18 91.992 224.769 91.8707 224.471 91.628C224.172 91.3667 224.023 91.012 224.023 90.564C224.023 90.0973 224.163 89.7427 224.443 89.5C224.741 89.2387 225.161 89.108 225.703 89.108H231.135C232.217 89.108 233.011 89.3413 233.515 89.808C234.019 90.256 234.271 90.9747 234.271 91.964V93.056C234.271 94.4747 233.888 95.7347 233.123 96.836C232.357 97.9187 231.275 98.768 229.875 99.384C228.493 99.9813 226.907 100.28 225.115 100.28ZM247.323 100.28C245.139 100.28 243.253 99.86 241.667 99.02C240.099 98.1613 238.904 96.976 238.083 95.464C237.261 93.9333 236.851 92.1787 236.851 90.2C236.851 88.2213 237.261 86.476 238.083 84.964C238.904 83.4333 240.099 82.248 241.667 81.408C243.253 80.5493 245.139 80.12 247.323 80.12C249.507 80.12 251.383 80.5493 252.951 81.408C254.537 82.248 255.741 83.4333 256.563 84.964C257.384 86.476 257.795 88.2213 257.795 90.2C257.795 92.1787 257.384 93.9333 256.563 95.464C255.741 96.976 254.537 98.1613 252.951 99.02C251.383 99.86 249.507 100.28 247.323 100.28ZM247.323 97.34C249.451 97.34 251.103 96.7053 252.279 95.436C253.455 94.148 254.043 92.4027 254.043 90.2C254.043 87.9787 253.427 86.2333 252.195 84.964C250.981 83.6947 249.264 83.06 247.043 83.06C245.008 83.06 243.421 83.7133 242.283 85.02C241.163 86.308 240.603 88.0347 240.603 90.2C240.603 92.4027 241.191 94.148 242.367 95.436C243.543 96.7053 245.195 97.34 247.323 97.34Z" fill="white"/>
<path d="M42.346 225.144V227.818H49.906V228.756H41.198V225.144H42.346ZM46 223.086H51.11V224.01H39.742V223.086H44.852V221.448H41.17V217.122H49.696V218.046H42.318V220.51H49.808V221.448H46V223.086ZM53.2089 217.234H58.9629C58.9629 220.398 56.7649 222.526 53.0829 223.436L52.6489 222.498C55.7289 221.742 57.5209 220.174 57.7169 218.172H53.2089V217.234ZM57.2269 227.972V226.334H55.0709V227.972H57.2269ZM57.2269 225.452V223.94H58.2909V228.854H53.9929V223.94H55.0709V225.452H57.2269ZM61.6509 223.814V224.836C61.6509 226.068 62.3509 227.482 63.8069 228.126L63.1909 228.98C62.1549 228.504 61.4689 227.664 61.0909 226.67C60.7269 227.65 60.0269 228.504 58.9909 228.98L58.3749 228.126C59.8169 227.468 60.5449 226.068 60.5449 224.864V223.814H61.6509ZM62.3649 219.376H64.2269V220.328H62.3649V223.31H61.2169V216.478H62.3649V219.376ZM73.1193 225.284C74.2673 225.284 75.0933 224.472 75.0933 223.352C75.0933 222.218 74.2673 221.406 73.1193 221.406C71.9853 221.406 71.1593 222.218 71.1593 223.352C71.1593 224.472 71.9853 225.284 73.1193 225.284ZM73.1193 220.454C74.9113 220.454 76.1853 221.658 76.1853 223.352C76.1853 225.06 74.9113 226.236 73.1193 226.236C71.3553 226.236 70.0813 225.06 70.0813 223.352C70.0813 221.658 71.3553 220.454 73.1193 220.454ZM73.6793 216.632V218.494H76.7733V219.418H69.3673V218.494H72.5313V216.632H73.6793ZM81.1693 221.644V222.61H79.1113V229.036H77.9633V216.492H79.1113V221.644H81.1693ZM83.9542 217.696V224.892C85.7602 224.892 87.6222 224.738 89.6522 224.332L89.7922 225.284C87.6502 225.718 85.7322 225.858 83.8142 225.858H82.8202V217.696H83.9542ZM93.9922 221.49V222.442H91.9762V229.036H90.8282V216.478H91.9762V221.49H93.9922ZM99.1291 223.52V226.474H102.629V223.52C102.097 223.646 101.495 223.716 100.865 223.716C100.249 223.716 99.6471 223.646 99.1291 223.52ZM100.865 218.172C98.8491 218.172 97.4071 219.096 97.4071 220.496C97.4071 221.896 98.8491 222.82 100.865 222.82C102.881 222.82 104.337 221.896 104.337 220.496C104.337 219.096 102.881 218.172 100.865 218.172ZM103.777 226.474H106.591V227.426H95.1811V226.474H97.9811V223.086C96.9311 222.54 96.3011 221.63 96.3011 220.496C96.3011 218.536 98.2051 217.276 100.865 217.276C103.539 217.276 105.429 218.536 105.429 220.496C105.429 221.63 104.813 222.526 103.777 223.072V226.474ZM109.937 225.136V225.077C109.944 224.444 110.01 223.94 110.136 223.565C110.262 223.191 110.441 222.888 110.673 222.656C110.905 222.424 111.183 222.21 111.508 222.014C111.704 221.895 111.879 221.754 112.035 221.592C112.191 221.426 112.314 221.235 112.403 221.02C112.496 220.804 112.542 220.566 112.542 220.304C112.542 219.979 112.466 219.697 112.314 219.459C112.161 219.22 111.957 219.036 111.702 218.907C111.447 218.778 111.163 218.713 110.852 218.713C110.58 218.713 110.318 218.769 110.066 218.882C109.815 218.995 109.604 219.172 109.435 219.414C109.266 219.656 109.168 219.973 109.142 220.364H107.889C107.915 219.8 108.061 219.318 108.326 218.917C108.595 218.516 108.948 218.209 109.385 217.997C109.826 217.785 110.315 217.679 110.852 217.679C111.435 217.679 111.942 217.795 112.373 218.027C112.807 218.259 113.142 218.577 113.377 218.982C113.616 219.386 113.735 219.847 113.735 220.364C113.735 220.728 113.679 221.058 113.566 221.353C113.457 221.648 113.298 221.911 113.089 222.143C112.884 222.375 112.635 222.581 112.343 222.76C112.052 222.942 111.818 223.134 111.642 223.337C111.467 223.536 111.339 223.772 111.26 224.048C111.18 224.323 111.137 224.666 111.13 225.077V225.136H109.937ZM110.574 228.08C110.328 228.08 110.118 227.992 109.942 227.816C109.766 227.64 109.679 227.43 109.679 227.185C109.679 226.939 109.766 226.729 109.942 226.553C110.118 226.378 110.328 226.29 110.574 226.29C110.819 226.29 111.029 226.378 111.205 226.553C111.381 226.729 111.468 226.939 111.468 227.185C111.468 227.347 111.427 227.496 111.344 227.632C111.265 227.768 111.157 227.877 111.021 227.96C110.888 228.04 110.739 228.08 110.574 228.08ZM126.387 221.63L125.799 222.526C124.413 222.05 123.335 221.07 122.775 219.824C122.257 221.266 121.109 222.372 119.597 222.904L119.037 221.994C120.927 221.35 122.173 219.754 122.173 217.892V216.912H123.321V217.878C123.321 219.572 124.553 221.042 126.387 221.63ZM122.033 226.614V227.986H129.313V228.896H120.913V225.76H127.717V224.514H120.871V223.604H128.851V226.614H122.033ZM128.851 219.222H130.713V220.174H128.851V223.044H127.703V216.492H128.851V219.222ZM132.35 217.836H135.752C135.752 220.86 135.122 223.8 132.84 226.208L131.944 225.564C133.806 223.632 134.534 221.308 134.66 218.788H132.35V217.836ZM136.172 217.836H139.182C139.182 220.86 138.748 224.318 136.438 227.048L135.514 226.418C137.446 224.192 138.006 221.448 138.104 218.788H136.172V217.836ZM143.718 221.658V222.61H141.856V229.036H140.708V216.478H141.856V221.658H143.718ZM153.969 221.308V218.102H150.441V221.308H153.969ZM155.089 217.192V222.218H149.321V217.192H155.089ZM151.729 226.544V227.944H159.009V228.868H150.609V225.69H157.413V224.374H150.567V223.464H158.547V226.544H151.729ZM158.547 219.18H160.409V220.132H158.547V222.876H157.399V216.492H158.547V219.18ZM162.045 217.836H165.447C165.447 220.86 164.817 223.8 162.535 226.208L161.639 225.564C163.501 223.632 164.229 221.308 164.355 218.788H162.045V217.836ZM165.867 217.836H168.877C168.877 220.86 168.443 224.318 166.133 227.048L165.209 226.418C167.141 224.192 167.701 221.448 167.799 218.788H165.867V217.836ZM173.413 221.658V222.61H171.551V229.036H170.403V216.478H171.551V221.658H173.413ZM187.36 218.984V218.676H179.702V217.738H188.508V218.984C188.508 220.538 188.508 222.26 188.032 224.794L186.884 224.668C187.36 222.26 187.36 220.496 187.36 218.984ZM184.07 226.334H189.866V227.272H178.512V226.334H182.922V221.84H184.07V226.334ZM201.681 216.492V225.508H200.533V216.492H201.681ZM196.781 222.484V218.494H193.155V222.484H196.781ZM197.901 217.57V223.408H192.035V217.57H197.901ZM194.751 227.692H202.059V228.616H193.603V224.654H194.751V227.692ZM205.306 221.602L204.9 220.692C207.098 220.44 209.1 219.362 209.198 217.976H205.306V217.052H214.588V217.976H210.682C210.78 219.362 212.782 220.44 214.98 220.692L214.574 221.602C212.516 221.35 210.64 220.426 209.94 219.04C209.254 220.426 207.364 221.35 205.306 221.602ZM213.062 226.81C213.062 225.97 211.886 225.494 209.926 225.494C207.952 225.494 206.79 225.97 206.79 226.81C206.79 227.65 207.952 228.14 209.926 228.14C211.886 228.14 213.062 227.65 213.062 226.81ZM215.61 223.282H210.514V224.626C212.852 224.738 214.224 225.508 214.224 226.81C214.224 228.238 212.614 229.022 209.94 229.022C207.252 229.022 205.628 228.238 205.628 226.81C205.628 225.508 207.014 224.738 209.352 224.626V223.282H204.256V222.358H215.61V223.282ZM227.439 216.492V225.662H226.291V216.492H227.439ZM218.549 220.44C218.549 221.686 219.473 222.554 220.691 222.554C221.937 222.554 222.861 221.686 222.861 220.44C222.861 219.222 221.937 218.354 220.691 218.354C219.473 218.354 218.549 219.222 218.549 220.44ZM223.981 220.44C223.981 222.26 222.567 223.548 220.691 223.548C218.829 223.548 217.429 222.26 217.429 220.44C217.429 218.634 218.829 217.36 220.691 217.36C222.567 217.36 223.981 218.634 223.981 220.44ZM220.509 227.818H227.817V228.756H219.361V224.724H220.509V227.818ZM231.609 218.942V225.06C233.387 225.046 234.507 224.99 235.823 224.71L235.935 225.648C234.507 225.956 233.289 226.012 231.287 226.012H230.475V218.018H235.193V218.942H231.609ZM237.055 221.266V216.786H238.133V228.406H237.055V222.218H234.353V221.266H237.055ZM239.575 216.478H240.667V229.036H239.575V216.478ZM244.079 228.08C243.834 228.08 243.624 227.992 243.448 227.816C243.272 227.64 243.184 227.43 243.184 227.185C243.184 226.939 243.272 226.729 243.448 226.553C243.624 226.378 243.834 226.29 244.079 226.29C244.325 226.29 244.535 226.378 244.711 226.553C244.886 226.729 244.974 226.939 244.974 227.185C244.974 227.347 244.933 227.496 244.85 227.632C244.77 227.768 244.663 227.877 244.527 227.96C244.394 228.04 244.245 228.08 244.079 228.08ZM247.935 228.08C247.69 228.08 247.479 227.992 247.303 227.816C247.128 227.64 247.04 227.43 247.04 227.185C247.04 226.939 247.128 226.729 247.303 226.553C247.479 226.378 247.69 226.29 247.935 226.29C248.18 226.29 248.391 226.378 248.566 226.553C248.742 226.729 248.83 226.939 248.83 227.185C248.83 227.347 248.788 227.496 248.705 227.632C248.626 227.768 248.518 227.877 248.382 227.96C248.25 228.04 248.101 228.08 247.935 228.08ZM251.79 228.08C251.545 228.08 251.335 227.992 251.159 227.816C250.983 227.64 250.895 227.43 250.895 227.185C250.895 226.939 250.983 226.729 251.159 226.553C251.335 226.378 251.545 226.29 251.79 226.29C252.036 226.29 252.246 226.378 252.422 226.553C252.597 226.729 252.685 226.939 252.685 227.185C252.685 227.347 252.644 227.496 252.561 227.632C252.481 227.768 252.374 227.877 252.238 227.96C252.105 228.04 251.956 228.08 251.79 228.08Z" fill="black"/>
<path d="M57 100L45 90L57 80" stroke="white" stroke-width="3.16" stroke-linecap="round"/>
<path d="M40.88 154.2H49.72C49.72 159.84 47.82 164.44 41.28 167.6L39.9 165.52C44.6 163.26 46.64 160.38 47.02 156.3H40.88V154.2ZM52.54 152.28H55.2V170.7H52.54V152.28ZM74.0384 154.22V156.28H59.0584V154.22H65.2584V152.28H67.8984V154.22H74.0384ZM70.1584 160.18C70.1584 159.32 68.9784 158.96 66.5784 158.96C64.1784 158.96 63.0184 159.32 63.0184 160.18C63.0184 161 64.1784 161.38 66.5784 161.38C68.9784 161.38 70.1584 161 70.1584 160.18ZM60.2784 160.18C60.2784 158.14 62.6384 157 66.5784 157C70.5184 157 72.8984 158.14 72.8984 160.18C72.8984 162.2 70.5184 163.34 66.5784 163.34C62.6384 163.34 60.2784 162.2 60.2784 160.18ZM74.9384 164.22V166.34H67.8984V170.74H65.2584V166.34H58.2584V164.22H74.9384ZM84.9369 168.74C87.3969 168.74 88.6569 168.32 88.6569 167.36C88.6569 166.4 87.3969 165.96 84.9369 165.96C82.4769 165.96 81.2169 166.4 81.2169 167.36C81.2169 168.32 82.4769 168.74 84.9369 168.74ZM84.9369 163.96C88.9169 163.96 91.3369 165.18 91.3369 167.36C91.3369 169.52 88.9169 170.74 84.9369 170.74C80.9569 170.74 78.5569 169.52 78.5569 167.36C78.5569 165.18 80.9569 163.96 84.9369 163.96ZM86.3169 160.96H93.3369V163.06H76.6769V160.96H83.6769V159.44H78.6969V153.08H91.3369V155.18H81.3169V157.34H91.4369V159.44H86.3169V160.96ZM106.895 158.98V163.24H104.435V152.64H106.895V156.84H108.255V152.3H110.755V163.82H108.255V158.98H106.895ZM103.915 154.18V156.22H94.9553V154.18H98.1353V152.5H100.735V154.18H103.915ZM97.8353 160.02C97.8353 160.88 98.4953 161.36 99.4753 161.36C100.455 161.36 101.095 160.88 101.095 160.02C101.095 159.16 100.455 158.7 99.4753 158.7C98.4953 158.7 97.8353 159.16 97.8353 160.02ZM103.435 160.02C103.435 161.92 101.795 163.24 99.4753 163.24C97.1353 163.24 95.4953 161.92 95.4953 160.02C95.4953 158.12 97.1353 156.82 99.4753 156.82C101.795 156.82 103.435 158.12 103.435 160.02ZM104.515 168.76C106.975 168.76 108.215 168.34 108.215 167.38C108.215 166.42 106.975 166 104.515 166C102.055 166 100.815 166.42 100.815 167.38C100.815 168.34 102.055 168.76 104.515 168.76ZM104.515 164.02C108.475 164.02 110.855 165.24 110.855 167.38C110.855 169.52 108.475 170.72 104.515 170.72C100.555 170.72 98.1753 169.52 98.1753 167.38C98.1753 165.24 100.555 164.02 104.515 164.02ZM114.514 154.06H122.974C122.974 159.74 121.634 164.48 114.774 167.98L113.374 165.94C116.394 164.44 118.174 162.72 119.214 160.7L113.874 161.22L113.534 158.98L119.974 158.6C120.154 157.84 120.294 157.04 120.354 156.16H114.514V154.06ZM130.454 159.32V161.5H127.874V170.68H125.234V152.28H127.874V159.32H130.454ZM146.752 160.8V162.9H133.792V153.82H146.612V155.96H136.432V160.8H146.752ZM131.852 166.36H148.532V168.52H131.852V166.36ZM171.64 161.26L170.28 163.2C168.58 162.48 167.5 161.2 166.86 159.62C166.22 161.3 165.06 162.74 163.2 163.48C161.34 162.74 160.18 161.3 159.54 159.6C158.9 161.18 157.82 162.48 156.14 163.2L154.78 161.26C157.26 160.16 158.24 157.86 158.24 155.7V153.62H160.86V155.7C160.86 157.5 161.5 159.48 163.2 160.76C164.9 159.48 165.52 157.52 165.52 155.7V153.62H168.18V155.7C168.18 157.94 169.14 160.18 171.64 161.26ZM154.88 168.46V166.32H171.54V168.46H154.88ZM180.418 153.72V156.4C180.418 159.82 181.878 163.18 184.998 164.52L183.498 166.66C181.378 165.7 179.958 163.88 179.138 161.62C178.318 164.08 176.818 166.06 174.618 167.1L173.038 164.92C176.258 163.54 177.778 159.98 177.778 156.4V153.72H180.418ZM185.898 152.28H188.538V170.76H185.898V152.28ZM206.516 157.28V159.38H193.736V152.96H196.376V157.28H206.516ZM196.216 164.84V168.22H206.616V170.32H193.556V164.84H196.216ZM191.676 161.26H208.356V163.38H191.676V161.26ZM226.624 158.4V156.74H219.444V158.4H226.624ZM229.244 152.88V160.46H216.824V152.88H219.444V154.76H226.624V152.88H229.244ZM219.264 165.34V168.3H229.544V170.4H216.624V165.34H219.264ZM214.684 161.74H231.384V163.82H224.584V166.72H221.944V163.82H214.684V161.74ZM253.031 152.3V162.72H250.371V152.3H253.031ZM242.991 155.44C241.591 155.44 240.571 156.28 240.571 157.66C240.571 159.04 241.591 159.88 242.991 159.88C244.391 159.88 245.431 159.04 245.431 157.66C245.431 156.28 244.391 155.44 242.991 155.44ZM242.991 162.08C240.151 162.08 237.991 160.24 237.991 157.66C237.991 155.08 240.151 153.24 242.991 153.24C245.871 153.24 248.011 155.08 248.011 157.66C248.011 160.24 245.871 162.08 242.991 162.08ZM251.171 163.48V164.1C251.171 166 252.171 167.78 254.611 168.52L253.331 170.44C251.591 169.86 250.451 168.76 249.831 167.36C249.231 168.76 248.171 169.98 246.491 170.64C244.811 170.02 243.751 168.82 243.151 167.42C242.511 168.76 241.391 169.84 239.731 170.44L238.431 168.52C240.871 167.7 241.871 165.88 241.871 164.1V163.48H244.431V164.1C244.431 165.56 245.011 167.08 246.471 168.1C247.951 167 248.571 165.46 248.571 164.1V163.48H251.171ZM259.33 154.04V164C261.65 163.94 264.15 163.74 266.73 163.24L266.99 165.4C263.93 166.04 260.97 166.2 258.29 166.2H256.69V154.04H259.33ZM273.13 159.24V161.42H270.55V170.68H267.91V152.28H270.55V159.24H273.13ZM280.828 162.92V166.44H284.888V162.92C284.248 163.04 283.568 163.1 282.848 163.1C282.128 163.1 281.468 163.04 280.828 162.92ZM282.848 155.28C280.288 155.28 278.588 156.32 278.588 158.16C278.588 159.98 280.288 161.04 282.848 161.04C285.408 161.04 287.128 159.98 287.128 158.16C287.128 156.32 285.408 155.28 282.848 155.28ZM287.508 166.44H291.208V168.58H274.528V166.44H278.208V161.94C276.808 161.08 275.968 159.76 275.988 158.16C275.988 155.14 278.888 153.2 282.848 153.2C286.828 153.2 289.728 155.14 289.728 158.16C289.728 159.76 288.888 161.08 287.508 161.94V166.44ZM295.873 164.639V164.398C295.878 163.569 295.951 162.909 296.093 162.416C296.24 161.924 296.453 161.526 296.733 161.223C297.012 160.92 297.348 160.645 297.741 160.399C298.035 160.21 298.297 160.013 298.529 159.81C298.761 159.606 298.946 159.381 299.083 159.135C299.221 158.884 299.289 158.605 299.289 158.297C299.289 157.97 299.211 157.684 299.055 157.438C298.899 157.191 298.688 157.002 298.423 156.869C298.163 156.737 297.874 156.67 297.556 156.67C297.249 156.67 296.958 156.739 296.683 156.876C296.408 157.009 296.183 157.208 296.008 157.473C295.833 157.733 295.738 158.058 295.724 158.446H292.826C292.85 157.499 293.077 156.718 293.508 156.102C293.939 155.482 294.51 155.02 295.22 154.717C295.93 154.41 296.714 154.256 297.571 154.256C298.513 154.256 299.346 154.412 300.071 154.724C300.795 155.032 301.363 155.48 301.775 156.067C302.187 156.654 302.393 157.362 302.393 158.19C302.393 158.744 302.301 159.237 302.116 159.668C301.936 160.094 301.683 160.473 301.356 160.804C301.029 161.131 300.644 161.427 300.199 161.692C299.824 161.914 299.517 162.146 299.275 162.388C299.038 162.629 298.861 162.909 298.743 163.226C298.629 163.543 298.57 163.934 298.565 164.398V164.639H295.873ZM297.279 169.185C296.806 169.185 296.401 169.019 296.065 168.688C295.734 168.351 295.57 167.949 295.575 167.48C295.57 167.016 295.734 166.618 296.065 166.287C296.401 165.955 296.806 165.79 297.279 165.79C297.729 165.79 298.125 165.955 298.466 166.287C298.806 166.618 298.979 167.016 298.984 167.48C298.979 167.793 298.896 168.079 298.735 168.339C298.579 168.595 298.373 168.801 298.118 168.957C297.862 169.109 297.583 169.185 297.279 169.185Z" fill="black"/>
<path d="M364.32 86.232V87.288H354.48V82.408H364.224V83.464H355.792V86.232H364.32ZM359.328 95.144C361.568 95.144 362.912 94.584 362.912 93.576C362.912 92.568 361.584 92.008 359.328 92.008C357.072 92.008 355.744 92.568 355.744 93.576C355.744 94.584 357.072 95.144 359.328 95.144ZM359.328 90.984C362.384 90.984 364.24 91.912 364.24 93.576C364.24 95.24 362.384 96.168 359.328 96.168C356.272 96.168 354.416 95.24 354.416 93.576C354.416 91.912 356.272 90.984 359.328 90.984ZM352.848 88.664H365.84V89.752H352.848V88.664ZM369.007 92.968V91.896H378.991V96.056H377.679V92.968H369.007ZM374.735 89.72H380.575V90.792H367.551V89.72H373.407V88.216H369.231V84.712H377.615V83.224H369.199V82.2H378.911V85.688H370.527V87.192H379.215V88.216H374.735V89.72Z" fill="white"/>
<path d="M352 97.4H381.439V98.2H352V97.4Z" fill="white"/>
<line x1="40" y1="197.5" x2="390" y2="197.5" stroke="#7ED287"/>
<path d="M19 24H409V852C409 863.046 400.046 872 389 872H39C27.9543 872 19 863.046 19 852V24Z" fill="black" fill-opacity="0.3"/>
<rect x="39" y="342" width="350" height="115" rx="10" fill="white"/>
<path d="M90.488 373.376L89.416 375.008C87.816 374.496 86.712 373.456 86.072 372.16C85.416 373.584 84.264 374.72 82.568 375.28L81.464 373.632C83.864 372.848 84.904 371.008 84.952 369.184H82.024V367.504H89.992V369.184H87.112C87.16 370.88 88.168 372.624 90.488 373.376ZM83.448 377.856V376.176H93.288V381.392H91.176V377.856H83.448ZM95.24 370.192V371.936H93.288V375.52H91.176V366.64H93.288V370.192H95.24ZM106.615 375.28V371.04H103.927V369.328H106.615V366.64H108.727V375.28H106.615ZM105.271 373.152L104.167 374.816C102.615 374.288 101.575 373.28 100.951 371.968C100.295 373.472 99.1268 374.656 97.3828 375.248L96.2788 373.552C98.7908 372.752 99.8307 370.752 99.8307 368.72V367.408H101.975V368.624C101.975 370.608 102.935 372.4 105.271 373.152ZM103.751 379.76C105.671 379.76 106.679 379.36 106.679 378.528C106.679 377.68 105.671 377.28 103.751 377.28C101.815 377.28 100.807 377.68 100.807 378.528C100.807 379.36 101.815 379.76 103.751 379.76ZM103.751 375.648C106.871 375.648 108.791 376.704 108.791 378.528C108.791 380.32 106.871 381.376 103.751 381.376C100.615 381.376 98.6948 380.32 98.6948 378.528C98.6948 376.704 100.615 375.648 103.751 375.648ZM117.782 368.4C115.654 368.4 114.646 368.704 114.646 369.36C114.646 370.048 115.654 370.336 117.782 370.336C119.926 370.336 120.934 370.048 120.934 369.36C120.934 368.704 119.926 368.4 117.782 368.4ZM117.782 371.872C114.422 371.872 112.454 370.992 112.454 369.36C112.454 367.744 114.422 366.848 117.782 366.848C121.158 366.848 123.126 367.744 123.126 369.36C123.126 370.992 121.158 371.872 117.782 371.872ZM114.758 378.848V379.68H123.206V381.264H112.662V377.392H120.742V376.608H112.646V375.056H122.822V378.848H114.758ZM111.126 372.576H124.438V374.224H111.126V372.576ZM132.235 370.224C132.235 371.12 132.923 371.632 133.931 371.632C134.939 371.632 135.659 371.12 135.659 370.224C135.659 369.328 134.939 368.816 133.931 368.816C132.923 368.816 132.235 369.328 132.235 370.224ZM138.347 373.872L138.475 375.36C135.499 375.92 132.187 375.968 129.755 375.968L129.499 374.288C130.507 374.288 131.675 374.288 132.891 374.256V373.12C131.323 372.784 130.267 371.68 130.267 370.224C130.267 368.464 131.803 367.232 133.931 367.232C136.075 367.232 137.611 368.464 137.611 370.224C137.611 371.664 136.571 372.768 135.003 373.12V374.176C136.139 374.112 137.291 374.032 138.347 373.872ZM133.531 376.928V379.44H141.723V381.12H131.419V376.928H133.531ZM141.227 371.264H143.083V373.008H141.227V377.888H139.115V366.64H141.227V371.264ZM149.722 375.776V378.032H152.298V375.776H149.722ZM154.378 378.032H157.61V379.76H144.25V378.032H147.642V375.776H145.802V370.832H154.026V369.264H145.786V367.584H156.106V372.48H147.898V374.096H156.442V375.776H154.378V378.032ZM163.241 376.64C164.233 376.64 164.953 375.968 164.953 374.832C164.953 373.728 164.233 373.04 163.241 373.04C162.249 373.04 161.513 373.728 161.513 374.848C161.513 375.968 162.249 376.64 163.241 376.64ZM163.241 371.328C165.369 371.328 166.953 372.784 166.953 374.832C166.953 376.912 165.369 378.368 163.241 378.368C161.097 378.368 159.497 376.912 159.497 374.832C159.497 372.784 161.097 371.328 163.241 371.328ZM164.281 366.896V368.816H167.481V370.496H158.905V368.816H162.169V366.896H164.281ZM172.665 372.4V374.144H170.553V381.376H168.441V366.64H170.553V372.4H172.665ZM185.176 376.368L183.064 376.128C183.624 373.344 183.656 371.296 183.656 369.584H175.064V367.904H185.768V369.312C185.768 371.152 185.768 373.232 185.176 376.368ZM180.536 377.904H187.048V379.6H173.72V377.904H178.424V372.832H180.536V377.904ZM195.742 378.64V379.632H204.238V381.264H193.63V377.088H201.758V376.128H193.614V374.496H203.87V378.64H195.742ZM203.63 371.824H205.47V373.488H192.126V371.824H201.518C201.758 370.64 201.806 369.712 201.822 368.896H193.774V367.216H203.902V368.224C203.902 369.168 203.902 370.368 203.63 371.824ZM213.5 368.4C211.372 368.4 210.364 368.704 210.364 369.36C210.364 370.048 211.372 370.336 213.5 370.336C215.644 370.336 216.652 370.048 216.652 369.36C216.652 368.704 215.644 368.4 213.5 368.4ZM213.5 371.872C210.14 371.872 208.172 370.992 208.172 369.36C208.172 367.744 210.14 366.848 213.5 366.848C216.876 366.848 218.844 367.744 218.844 369.36C218.844 370.992 216.876 371.872 213.5 371.872ZM210.476 378.848V379.68H218.924V381.264H208.38V377.392H216.46V376.608H208.364V375.056H218.54V378.848H210.476ZM206.844 372.576H220.156V374.224H206.844V372.576ZM237.09 370.688V372.352H226.898V367.04H237.01V368.72H228.994V370.688H237.09ZM231.89 379.776C233.858 379.776 234.866 379.44 234.866 378.672C234.866 377.904 233.858 377.552 231.89 377.552C229.922 377.552 228.914 377.904 228.914 378.672C228.914 379.44 229.922 379.776 231.89 379.776ZM231.89 375.952C235.074 375.952 237.01 376.928 237.01 378.672C237.01 380.4 235.074 381.376 231.89 381.376C228.706 381.376 226.786 380.4 226.786 378.672C226.786 376.928 228.706 375.952 231.89 375.952ZM225.282 373.376H238.61V375.104H225.282V373.376ZM241.457 378.704V377.04H251.793V381.328H249.681V378.704H241.457ZM247.713 374.528H253.329V376.208H239.985V374.528H245.601V373.472H241.649V369.424H249.617V368.528H241.617V366.928H251.697V370.912H243.729V371.872H252.001V373.472H247.713V374.528ZM258.96 376.64C259.952 376.64 260.672 375.968 260.672 374.832C260.672 373.728 259.952 373.04 258.96 373.04C257.968 373.04 257.232 373.728 257.232 374.848C257.232 375.968 257.968 376.64 258.96 376.64ZM258.96 371.328C261.088 371.328 262.672 372.784 262.672 374.832C262.672 376.912 261.088 378.368 258.96 378.368C256.816 378.368 255.216 376.912 255.216 374.832C255.216 372.784 256.816 371.328 258.96 371.328ZM260 366.896V368.816H263.2V370.496H254.624V368.816H257.888V366.896H260ZM268.384 372.4V374.144H266.272V381.376H264.16V366.64H266.272V372.4H268.384ZM275.134 367.776V369.92C275.134 372.656 276.302 375.344 278.798 376.416L277.598 378.128C275.902 377.36 274.766 375.904 274.11 374.096C273.454 376.064 272.254 377.648 270.494 378.48L269.23 376.736C271.806 375.632 273.022 372.784 273.022 369.92V367.776H275.134ZM279.518 366.624H281.63V381.408H279.518V366.624ZM296.701 366.64V375.024H294.701V366.64H296.701ZM285.181 375.456L284.141 373.92C286.797 372.864 288.093 371.36 288.381 369.344H284.893V367.648H290.589C290.589 368.688 290.461 369.632 290.205 370.48H291.693V366.912H293.661V374.832H291.693V372.16H289.421C288.557 373.536 287.149 374.624 285.181 375.456ZM294.973 375.488V376.128C294.973 377.664 295.757 379.12 297.725 379.712L296.685 381.264C295.293 380.784 294.397 379.888 293.901 378.752C293.389 379.888 292.541 380.864 291.229 381.392C289.869 380.896 289.037 379.936 288.557 378.8C288.045 379.904 287.165 380.784 285.821 381.264L284.797 379.712C286.733 379.056 287.533 377.584 287.533 376.128V375.488H289.581V376.128C289.581 377.312 290.045 378.544 291.213 379.36C292.397 378.496 292.877 377.216 292.877 376.128V375.488H294.973ZM311.516 370.768L310.764 372.4C308.252 372.096 306.46 371.056 305.516 369.648C304.588 371.056 302.764 372.08 300.252 372.4L299.516 370.768C302.828 370.384 304.428 368.752 304.428 367.248V366.8H306.604V367.248C306.604 368.736 308.204 370.4 311.516 370.768ZM308.412 379.568V378.288H302.508V379.568H308.412ZM308.412 376.704V375.472H310.492V381.2H300.412V375.472H302.508V376.704H308.412ZM298.86 373.072H312.172V374.736H298.86V373.072ZM316.443 368.032V375.936C318.379 375.888 320.475 375.728 322.635 375.296L322.859 377.056C320.347 377.584 317.899 377.744 315.659 377.744H314.347V368.032H316.443ZM323.771 366.624H325.883V381.36H323.771V366.624ZM328.649 368.144H332.633C332.633 372.208 332.265 375.376 329.641 378.288L327.993 377.088C329.945 374.928 330.521 372.8 330.633 369.84H328.649V368.144ZM333.145 368.144H336.697C336.697 372.4 336.361 376.032 333.785 379.216L332.121 378.048C334.073 375.584 334.601 373.12 334.713 369.84H333.145V368.144ZM341.913 372.4V374.144H340.009V381.36H337.881V366.624H340.009V372.4H341.913ZM345.374 376.511V376.318C345.377 375.655 345.436 375.127 345.55 374.733C345.667 374.339 345.838 374.021 346.061 373.778C346.285 373.536 346.554 373.316 346.868 373.119C347.103 372.968 347.313 372.811 347.499 372.648C347.684 372.485 347.832 372.305 347.942 372.108C348.052 371.907 348.107 371.684 348.107 371.438C348.107 371.176 348.044 370.947 347.919 370.75C347.794 370.553 347.625 370.402 347.413 370.295C347.205 370.189 346.974 370.136 346.72 370.136C346.474 370.136 346.241 370.191 346.021 370.301C345.802 370.407 345.622 370.566 345.482 370.778C345.341 370.987 345.266 371.246 345.254 371.557H342.936C342.955 370.799 343.137 370.174 343.482 369.682C343.826 369.186 344.283 368.816 344.851 368.574C345.419 368.328 346.046 368.205 346.732 368.205C347.485 368.205 348.152 368.33 348.732 368.58C349.311 368.826 349.766 369.184 350.095 369.653C350.425 370.123 350.589 370.689 350.589 371.352C350.589 371.795 350.516 372.189 350.368 372.534C350.224 372.875 350.021 373.178 349.76 373.443C349.499 373.705 349.19 373.941 348.834 374.153C348.535 374.331 348.288 374.517 348.095 374.71C347.906 374.903 347.764 375.127 347.669 375.381C347.578 375.634 347.531 375.947 347.527 376.318V376.511H345.374ZM346.499 380.148C346.12 380.148 345.796 380.015 345.527 379.75C345.262 379.481 345.131 379.159 345.135 378.784C345.131 378.413 345.262 378.095 345.527 377.83C345.796 377.564 346.12 377.432 346.499 377.432C346.858 377.432 347.175 377.564 347.447 377.83C347.72 378.095 347.858 378.413 347.862 378.784C347.858 379.034 347.792 379.263 347.663 379.472C347.538 379.676 347.374 379.841 347.169 379.966C346.964 380.087 346.741 380.148 346.499 380.148Z" fill="black"/>
<rect x="59" y="407.5" width="310" height="37" rx="10" fill="#7ED287"/>
<path d="M123.022 421.602H124.948V421.8C124.948 424.266 123.472 426.282 120.268 426.93L119.314 425.076C121.888 424.608 123.022 423.24 123.022 421.8V421.602ZM123.508 421.602H125.434V421.8C125.434 423.15 126.55 424.392 129.07 424.842L128.134 426.678C124.984 426.084 123.508 424.158 123.508 421.8V421.602ZM119.764 420.09H128.674V421.926H119.764V420.09ZM123.022 418.47H125.434V421.404H123.022V418.47ZM123.004 427.902H125.398V434.598H123.004V427.902ZM130.294 418.434H132.67V435.102H130.294V418.434ZM119.062 429.576L118.774 427.632C121.798 427.632 125.848 427.614 129.34 427.146L129.502 428.874C125.902 429.522 122.032 429.576 119.062 429.576ZM135.297 431.196H150.381V433.158H135.297V431.196ZM141.561 427.488H143.937V431.718H141.561V427.488ZM141.471 419.352H143.559V420.558C143.559 424.104 140.985 427.236 136.629 428.028L135.639 426.03C139.437 425.418 141.471 422.862 141.471 420.558V419.352ZM141.939 419.352H144.027V420.558C144.027 422.916 146.061 425.418 149.877 426.03L148.887 428.028C144.513 427.218 141.939 424.158 141.939 420.558V419.352Z" fill="white"/>
<path d="M276.738 426.048H291.822V427.992H276.738V426.048ZM278.556 423.006H290.112V424.896H278.556V423.006ZM278.556 418.884H290.022V420.792H280.932V423.942H278.556V418.884ZM284.226 428.982C287.826 428.982 290.004 430.08 290.004 432.042C290.004 434.004 287.826 435.102 284.226 435.102C280.626 435.102 278.43 434.004 278.43 432.042C278.43 430.08 280.626 428.982 284.226 428.982ZM284.226 430.782C281.994 430.782 280.86 431.196 280.86 432.042C280.86 432.906 281.994 433.284 284.226 433.284C286.458 433.284 287.592 432.906 287.592 432.042C287.592 431.196 286.458 430.782 284.226 430.782ZM293.279 427.362H308.381V429.27H293.279V427.362ZM295.133 418.758H306.545V423.276H297.527V425.076H295.151V421.584H304.187V420.576H295.133V418.758ZM295.151 424.356H306.869V426.174H295.151V424.356ZM299.633 425.238H302.027V428.406H299.633V425.238ZM294.953 430.206H306.653V435.048H304.259V432.096H294.953V430.206Z" fill="white"/>
<path d="M214 400V445" stroke="white" stroke-width="2"/>
<path d="M53.5169 868.057C53.0566 868.012 52.5963 867.968 52.136 867.914H52.1027C51.194 867.804 50.2948 867.672 49.4075 867.519C43.9958 866.598 38.8362 864.922 34.0489 862.6C33.7099 862.435 33.3804 862.271 33.0414 862.107C32.1863 861.658 31.343 861.209 30.5104 860.726C30.1274 860.507 29.7551 860.289 29.3817 860.058C27.4977 858.918 25.6791 857.669 23.9485 856.322C23.6309 856.08 23.3241 855.84 23.0172 855.588C22.0966 854.843 21.1986 854.076 20.3327 853.288C20.0473 853.025 19.763 852.762 19.4895 852.489C19.1612 852.182 18.8436 851.875 18.526 851.557C18.2192 851.24 17.9016 850.922 17.5947 850.604C17.3866 850.396 17.1892 850.188 16.9917 849.969C16.7396 849.696 16.4874 849.421 16.2472 849.147C14.7794 847.504 13.4093 845.784 12.139 843.988C11.9094 843.67 11.6894 843.342 11.4706 843.023C10.7807 842.016 10.1337 840.986 9.52113 839.934C9.29039 839.562 9.07153 839.179 8.86338 838.795C7.27435 835.946 5.92795 832.956 4.84322 829.855C4.68978 829.428 4.54708 829.012 4.41625 828.585C3.7264 826.438 3.15667 824.247 2.71778 822.013C2.62977 821.563 2.54174 821.115 2.46562 820.665C1.9292 817.51 1.64374 814.267 1.64374 810.958V64.4909C1.64374 33.7616 25.9419 8.59757 56.331 7.18457C28.9547 8.59757 7.12092 31.3079 7.12092 59.0125V816.434C7.12211 843.199 27.4762 865.296 53.5169 868.057Z" fill="url(#paint0_linear_114_70)"/>
<path d="M432.179 64.4907V810.958C432.179 817.104 431.204 823.031 429.408 828.585C429.277 829.012 429.134 829.44 428.981 829.855C428.838 830.282 428.685 830.699 428.52 831.115C428.411 831.432 428.291 831.75 428.159 832.057C427.787 832.988 427.392 833.909 426.975 834.818C426.79 835.223 426.603 835.629 426.406 836.022C426.132 836.581 425.857 837.129 425.562 837.677C425.376 838.049 425.179 838.411 424.971 838.772C424.763 839.155 424.544 839.539 424.313 839.922C423.7 840.974 423.043 842.015 422.352 843.034C422.133 843.351 421.913 843.68 421.684 843.999C421.432 844.36 421.169 844.711 420.906 845.061C420.654 845.422 420.38 845.773 420.117 846.112C419.844 846.463 419.569 846.802 419.295 847.142C419.022 847.482 418.736 847.821 418.441 848.161C417.872 848.83 417.291 849.488 416.688 850.123C415.768 851.109 414.815 852.061 413.818 852.993C413.522 853.256 413.227 853.529 412.92 853.804C412.23 854.418 411.529 855.009 410.817 855.6C410.511 855.841 410.193 856.082 409.875 856.334C408.835 857.145 407.761 857.911 406.665 858.645C406.304 858.886 405.931 859.126 405.559 859.368C404.815 859.85 404.058 860.299 403.291 860.737C402.919 860.956 402.536 861.175 402.151 861.372C400.913 862.051 399.654 862.686 398.361 863.256C398.021 863.42 397.682 863.563 397.342 863.706C396.936 863.892 396.53 864.056 396.114 864.221C395.698 864.385 395.282 864.549 394.865 864.702C393.934 865.053 392.992 865.381 392.039 865.678C391.7 865.787 391.371 865.886 391.032 865.984C389.783 866.357 388.501 866.686 387.209 866.97C386.759 867.069 386.311 867.168 385.851 867.255C385.38 867.353 384.898 867.441 384.405 867.518C383.507 867.671 382.609 867.802 381.709 867.912H381.676C381.216 867.967 380.755 868.011 380.295 868.055C406.336 865.295 426.701 843.198 426.701 816.435V59.0136C426.701 31.7788 405.613 9.3765 378.904 7.27246C408.636 9.3765 432.179 34.2337 432.179 64.4907Z" fill="url(#paint1_linear_114_70)"/>
<path d="M432.179 810.959V816.436C432.179 848.074 406.445 873.808 374.807 873.808H59.0273C27.3894 873.808 1.6449 848.074 1.6449 816.436V810.959C1.6449 814.268 1.93036 817.51 2.46678 820.666C2.5429 821.115 2.63092 821.564 2.71894 822.013C3.15664 824.248 3.72633 826.439 4.41737 828.586C4.5494 829.013 4.69094 829.429 4.84438 829.856C5.92911 832.957 7.2767 835.947 8.86454 838.796C9.07269 839.179 9.29155 839.563 9.52229 839.935C10.136 840.986 10.7818 842.017 11.4717 843.024C11.6905 843.342 11.9094 843.671 12.1401 843.989C13.4104 845.785 14.7806 847.506 16.2483 849.148C16.4898 849.422 16.7419 849.696 16.9929 849.97C17.1903 850.189 17.3878 850.397 17.5959 850.605C17.9028 850.923 18.2203 851.24 18.5272 851.558C18.8448 851.875 19.1623 852.182 19.4906 852.489C19.7642 852.763 20.0496 853.026 20.3339 853.288C21.1998 854.077 22.0978 854.844 23.0183 855.589C23.3252 855.841 23.6321 856.082 23.9497 856.323C25.6802 857.67 27.4988 858.919 29.3828 860.058C29.7551 860.288 30.1274 860.508 30.5116 860.727C31.3441 861.209 32.1874 861.658 33.0426 862.108C33.3816 862.272 33.711 862.436 34.05 862.6C38.8373 864.923 43.9969 866.599 49.4087 867.52C50.296 867.673 51.194 867.804 52.1039 867.914H52.1371C53.0577 868.024 53.9772 868.112 54.9085 868.177C55.3795 868.211 55.8612 868.243 56.3322 868.265C57.2194 868.309 58.1174 868.331 59.0273 868.331H374.807C375.705 868.331 376.593 868.309 377.48 868.265C377.951 868.244 378.433 868.211 378.904 868.177C379.659 868.123 380.405 868.057 381.149 867.969C381.324 867.958 381.5 867.936 381.675 867.914H381.708C382.618 867.805 383.516 867.673 384.403 867.52C384.896 867.443 385.379 867.355 385.85 867.257C386.31 867.169 386.758 867.07 387.208 866.972C388.501 866.687 389.782 866.359 391.031 865.986C391.371 865.888 391.71 865.789 392.038 865.68C392.991 865.383 393.934 865.055 394.864 864.704C395.28 864.551 395.697 864.387 396.113 864.223C396.529 864.058 396.935 863.894 397.34 863.708C397.681 863.565 398.02 863.422 398.36 863.258C399.653 862.688 400.912 862.053 402.15 861.374C402.533 861.177 402.907 860.968 403.29 860.739C404.057 860.301 404.812 859.852 405.558 859.37C405.93 859.139 406.302 858.899 406.664 858.647C407.759 857.913 408.834 857.146 409.874 856.336C410.192 856.094 410.509 855.842 410.816 855.602C411.529 855.011 412.229 854.418 412.919 853.806C413.226 853.543 413.522 853.269 413.817 852.995C414.814 852.063 415.767 851.111 416.687 850.125C417.29 849.489 417.881 848.832 418.44 848.163C418.736 847.823 419.021 847.484 419.294 847.144C419.58 846.804 419.853 846.465 420.116 846.114C420.39 845.763 420.653 845.412 420.905 845.063C421.178 844.712 421.43 844.362 421.683 844C421.912 843.683 422.132 843.355 422.351 843.036C423.041 842.017 423.699 840.976 424.312 839.924C424.542 839.541 424.762 839.157 424.97 838.774C425.178 838.413 425.376 838.051 425.561 837.679C425.857 837.13 426.131 836.583 426.404 836.024C426.602 835.629 426.799 835.225 426.974 834.82C427.39 833.91 427.785 832.99 428.158 832.059C428.288 831.752 428.41 831.435 428.519 831.117C428.683 830.701 428.837 830.284 428.98 829.857C429.133 829.441 429.276 829.014 429.407 828.587C431.204 823.031 432.179 817.105 432.179 810.959Z" fill="url(#paint2_linear_114_70)"/>
<path d="M432.179 59.0145V64.4917C432.179 34.7044 409.37 10.1541 380.295 7.39352C379.835 7.34951 379.364 7.30551 378.904 7.27339C378.433 7.24009 377.951 7.20797 377.48 7.18537H377.469C376.582 7.14136 375.705 7.11996 374.807 7.11996H59.0273C58.1293 7.11996 57.2421 7.14136 56.3655 7.18537H56.3322C25.9431 8.59837 1.6449 33.7624 1.6449 64.4917V59.0145C1.6449 58.4448 1.65562 57.8858 1.67822 57.3279C1.67822 56.901 1.69961 56.4847 1.72221 56.0684C1.76622 55.1478 1.83166 54.2391 1.93038 53.3292C1.97438 52.8582 2.02909 52.3872 2.08381 51.9269C2.11711 51.6747 2.1492 51.4345 2.1825 51.1823C2.2158 50.8862 2.25984 50.5912 2.31455 50.2843C2.37997 49.8133 2.45727 49.3423 2.5441 48.8713C2.68682 48.0495 2.85097 47.2395 3.0377 46.439C3.12572 46.0334 3.22443 45.6398 3.32315 45.2449C3.6086 44.0507 3.93689 42.8899 4.30917 41.7278C4.4293 41.3663 4.5506 40.994 4.67073 40.6324C4.82416 40.1828 4.97759 39.7344 5.14173 39.2955C5.27256 38.9232 5.41529 38.5617 5.55802 38.2001C5.67815 37.8932 5.78756 37.597 5.91958 37.3021C6.06231 36.9405 6.21577 36.5789 6.3692 36.228C6.49052 35.9545 6.59992 35.6916 6.73076 35.4288C6.9056 35.0351 7.08162 34.6509 7.27787 34.256C7.59544 33.5769 7.93564 32.8977 8.29721 32.2293C8.47205 31.8891 8.65879 31.5502 8.85623 31.21C9.06437 30.8151 9.2939 30.4214 9.52465 30.0372C11.1137 27.3314 12.9204 24.7682 14.9257 22.3573C15.2112 22.0171 15.4954 21.6782 15.7916 21.338C16.1199 20.9657 16.4493 20.5827 16.799 20.2093C17.3687 19.5955 17.9385 18.9937 18.5296 18.4133C19.1647 17.7781 19.8118 17.1644 20.4683 16.5614C21.1367 15.9703 21.8052 15.3779 22.495 14.8082C22.834 14.5239 23.1849 14.2492 23.5357 13.9649C24.2375 13.4166 24.9487 12.8802 25.6826 12.3545C26.4057 11.8395 27.1396 11.3352 27.8961 10.8428C28.6513 10.3611 29.4078 9.89007 30.1857 9.44048C30.5698 9.21093 30.9635 8.99088 31.3584 8.77203C31.7533 8.55318 32.147 8.34504 32.5419 8.13689C32.9475 7.92875 33.3411 7.7206 33.7467 7.52316C34.1523 7.32572 34.5579 7.12828 34.9742 6.93203C35.7853 6.55975 36.6179 6.19818 37.4612 5.85801C37.8549 5.69387 38.2605 5.52974 38.6661 5.37631C38.6994 5.3549 38.7422 5.343 38.7755 5.33229C39.1811 5.17886 39.5973 5.03615 40.0029 4.88271C40.4085 4.75069 40.8141 4.60915 41.2185 4.46642C41.6788 4.32369 42.1391 4.17027 42.6101 4.03943C43.0478 3.90741 43.4867 3.78728 43.9244 3.66715C44.374 3.54702 44.8117 3.4257 45.2613 3.31628C45.7109 3.20685 46.1593 3.09743 46.6089 2.99871C47.5176 2.79057 48.4274 2.61572 49.348 2.46229C49.7976 2.38617 50.2567 2.30885 50.717 2.24343C51.703 2.1007 52.6997 1.98058 53.6964 1.89256C54.485 1.81644 55.2855 1.76054 56.0847 1.71772C56.5665 1.69631 57.0601 1.67372 57.5525 1.66302C58.0449 1.65231 58.5385 1.6416 59.0309 1.6416H374.811C375.303 1.6416 375.797 1.65231 376.289 1.66302C376.695 1.67372 377.111 1.68441 377.517 1.70701C378.448 1.75102 379.369 1.81643 380.288 1.90445H380.321C380.792 1.94846 381.253 2.00319 381.713 2.0579C382.184 2.11261 382.644 2.17802 383.105 2.24463C383.565 2.31005 384.025 2.38735 384.485 2.46347C384.946 2.53959 385.395 2.62761 385.844 2.71563C385.854 2.70492 385.865 2.70492 385.865 2.71563C386.315 2.80364 386.763 2.90236 387.213 2.99989C387.629 3.08791 388.035 3.18662 388.44 3.27345C388.539 3.29486 388.627 3.31746 388.703 3.33887C389.086 3.43759 389.47 3.53631 389.853 3.64573C390.39 3.78846 390.927 3.9419 391.453 4.10604C391.814 4.21546 392.176 4.32487 392.527 4.445C393.326 4.70786 394.116 4.98143 394.905 5.27759C395.441 5.46433 395.967 5.67127 396.482 5.89131C396.865 6.04474 397.238 6.20888 397.621 6.37302C398.037 6.54786 398.443 6.73459 398.859 6.93203C399.265 7.11758 399.67 7.31503 400.075 7.51247C402.967 8.92547 405.705 10.5799 408.291 12.4532C408.609 12.6721 408.926 12.9028 409.233 13.1431C410.373 13.997 411.468 14.8843 412.53 15.8156C413.001 16.2212 413.461 16.6375 413.911 17.0645C415.763 18.7844 417.494 20.6244 419.081 22.5643C419.378 22.9151 419.651 23.2541 419.925 23.605C420.505 24.3389 421.053 25.0727 421.579 25.8185C421.853 26.1907 422.116 26.5737 422.368 26.9579C422.817 27.6049 423.244 28.2722 423.661 28.9406C423.869 29.2808 424.066 29.6198 424.274 29.9599C424.647 30.607 425.019 31.2528 425.37 31.9212C425.545 32.2388 425.721 32.5564 425.874 32.8858C426.454 33.992 426.98 35.11 427.484 36.2602C427.605 36.5563 427.737 36.8513 427.857 37.1582C428.328 38.2976 428.767 39.4585 429.16 40.6312C429.314 41.0689 429.456 41.4971 429.587 41.9348C430.376 44.4539 430.99 47.0397 431.427 49.6801C431.471 49.9537 431.515 50.2391 431.559 50.5341C431.625 50.9944 431.69 51.4547 431.746 51.915C431.801 52.386 431.856 52.8463 431.9 53.3173C431.954 53.7883 431.988 54.2593 432.03 54.7303C432.085 55.5962 432.129 56.4609 432.15 57.3375C432.167 57.8977 432.179 58.4555 432.179 59.0145Z" fill="url(#paint3_linear_114_70)"/>
<path d="M377.48 7.18652H377.469C376.593 7.14251 375.705 7.12109 374.807 7.12109H59.0274C58.1294 7.12109 57.2421 7.14251 56.3655 7.18652H56.3322C28.9559 8.59952 7.12213 31.3099 7.12213 59.0145V816.436C7.12213 843.671 28.1994 866.073 54.9085 868.178C55.3795 868.211 55.8612 868.243 56.3322 868.265C57.2195 868.309 58.1175 868.331 59.0274 868.331H374.807C375.705 868.331 376.593 868.309 377.48 868.265C377.951 868.244 378.433 868.211 378.904 868.178C405.612 866.075 426.701 843.671 426.701 816.436V59.0145C426.701 31.298 404.856 8.58882 377.48 7.18652ZM422.319 816.436C422.319 841.063 403.092 861.878 378.597 863.806C378.159 863.84 377.709 863.872 377.26 863.884C376.449 863.928 375.628 863.949 374.806 863.949H59.0274C58.1948 863.949 57.3622 863.928 56.5403 863.884C56.1026 863.873 55.6531 863.84 55.2475 863.806C30.7198 861.878 11.5039 841.064 11.5039 816.436V59.0145C11.5039 33.7517 31.2336 12.9265 56.4523 11.5682H56.4737L56.5832 11.5576C57.3824 11.5243 58.2043 11.5028 59.0262 11.5028H374.806C375.628 11.5028 376.45 11.5243 377.249 11.5576L377.325 11.5682C402.565 12.8944 422.318 33.7303 422.318 59.0145L422.319 816.436Z" fill="black"/>
<path d="M422.308 59.3218V816.744C422.308 821.432 421.608 825.99 420.315 830.294C419.274 833.734 417.861 837.02 416.097 840.099C415.736 840.734 415.353 841.358 414.968 841.972C414.377 842.893 413.764 843.791 413.128 844.667C411.31 847.143 409.262 849.433 407.016 851.525C411.168 844.272 413.546 835.86 413.546 826.964V818.233C413.567 817.718 413.579 817.192 413.579 816.666V59.2445C413.579 58.7081 413.568 58.1705 413.546 57.6448V49.1002C413.546 40.0952 411.168 31.6375 407.005 24.375C416.436 33.0731 422.308 45.5403 422.308 59.3218Z" fill="url(#paint4_linear_114_70)"/>
<path d="M377.097 15.9435L376.895 15.9268C376.208 15.9007 375.508 15.8828 374.807 15.8828H59.0273C58.3089 15.8828 57.5917 15.9007 56.8911 15.9292L56.6759 15.9494H56.5736C33.7479 17.2375 15.8855 36.1323 15.8855 59.0139V816.437C15.8855 838.8 33.3256 857.688 55.6054 859.438C55.9325 859.466 56.2941 859.493 56.6473 859.501L56.7734 859.507C57.518 859.547 58.272 859.567 59.0261 859.567H374.806C375.548 859.567 376.29 859.547 377.024 859.507L377.156 859.501C377.529 859.493 377.902 859.464 378.253 859.437C400.505 857.686 417.936 838.796 417.936 816.437V59.0139C417.937 36.0657 399.997 17.1459 377.097 15.9435ZM406.433 816.437C406.433 832.836 393.659 846.687 377.353 847.97C377.202 847.982 377.043 847.998 376.89 848.002L376.791 848.005L376.692 848.008L376.56 848.014L376.483 848.018L376.405 848.021C375.875 848.05 375.338 848.064 374.807 848.064H59.0273C58.4825 848.064 57.9295 848.05 57.3847 848.02L57.3229 848.017L57.261 848.014L57.1349 848.008L57.0434 848.005L56.9411 848.002C56.8055 847.998 56.6687 847.984 56.5094 847.971C40.1813 846.688 27.3905 832.836 27.3905 816.437V59.0139C27.3905 42.3493 40.3383 28.5428 56.9256 27.4521H57.2075L57.6357 27.4128C58.1436 27.395 58.6015 27.3866 59.0285 27.3866H374.808C375.235 27.3866 375.703 27.3962 376.23 27.414L376.342 27.4223L376.494 27.4307C393.283 28.312 406.434 42.1851 406.434 59.0139L406.433 816.437Z" fill="black"/>
<path d="M324.271 27.3867V31.5163C324.271 45.418 312.998 56.6911 299.096 56.6911H134.726C120.825 56.6911 109.552 45.418 109.552 31.5163V27.3867H324.271Z" fill="black"/>
<path d="M324.271 27.3945V31.5241C324.271 45.4258 312.998 56.6989 299.096 56.6989H134.727C120.825 56.6989 109.552 45.4258 109.552 31.5241V27.3945H324.271Z" fill="black"/>
<path d="M413.544 818.235V826.966C413.544 835.862 411.166 844.275 407.014 851.527C399.422 858.56 389.54 863.173 378.618 864.037C378.18 864.071 377.731 864.103 377.281 864.113C376.47 864.157 375.649 864.179 374.828 864.179H59.0487C58.2161 864.179 57.3836 864.157 56.5617 864.113C56.124 864.103 55.6744 864.069 55.2688 864.037C54.6658 863.993 54.064 863.928 53.4609 863.851C43.2512 862.656 34.0381 858.176 26.8732 851.537C22.6889 844.262 20.2887 835.816 20.2887 826.888V816.666C20.2887 828.333 25.5803 838.96 33.9275 846.102C39.953 851.273 47.577 854.636 55.9575 855.294C56.231 855.315 56.5058 855.349 56.7794 855.349L56.8995 855.359H57.0196C57.6881 855.393 58.3672 855.414 59.0464 855.414H374.826C375.484 855.414 376.151 855.393 376.809 855.359H376.94L377.06 855.349C377.367 855.349 377.663 855.315 377.958 855.294C397.396 853.773 412.755 837.636 413.544 818.235Z" fill="url(#paint5_linear_114_70)"/>
<path d="M422.308 58.3221L422.342 58.246C422.342 32.9618 402.589 12.1248 377.349 10.7998L377.272 10.7891C376.472 10.7558 375.651 10.7344 374.829 10.7344H59.0487C58.2269 10.7344 57.405 10.7558 56.6057 10.7891L56.4963 10.7998H56.4749C55.4449 10.8545 54.4375 10.9425 53.43 11.0626C43.187 12.2675 33.9846 16.7039 26.8316 23.2992C22.6687 30.5628 20.2911 39.0194 20.2911 48.0243V58.2448C20.2911 46.4793 25.5494 35.8853 33.8978 28.7537C40.0981 23.4621 47.9969 20.0771 56.7282 19.5621H56.9364L57.2207 19.5288C57.8891 19.5074 58.4909 19.4955 59.0499 19.4955H374.83C375.334 19.4955 375.881 19.5062 376.484 19.5288H376.495L376.89 19.5502C396.927 20.6016 412.735 36.75 413.546 56.6439V48.0993C413.546 39.0943 411.168 30.6365 407.005 23.3741C416.436 32.0733 422.308 44.5406 422.308 58.3221Z" fill="url(#paint6_linear_114_70)"/>
<path d="M26.8518 851.308C17.408 842.566 11.5038 830.088 11.5038 816.438V59.0152C11.5038 45.2337 17.3759 32.7664 26.8078 24.0684C22.6449 31.332 20.2673 39.7886 20.2673 48.7935V826.658C20.2685 835.586 22.6675 844.033 26.8518 851.308Z" fill="url(#paint7_linear_114_70)"/>
<path d="M422.308 59.3226V816.744C422.308 821.433 421.608 825.991 420.315 830.295C419.274 833.735 417.861 837.021 416.097 840.099C415.736 840.735 415.353 841.359 414.968 841.973C414.399 842.893 413.785 843.791 413.128 844.668C411.31 847.176 409.239 849.51 406.96 851.614C406.982 851.581 406.993 851.559 407.015 851.526C411.167 844.273 413.545 835.86 413.545 826.965V49.1021C413.545 40.0972 411.167 31.6394 407.004 24.377C416.436 33.0738 422.308 45.5411 422.308 59.3226Z" fill="url(#paint8_linear_114_70)"/>
<path d="M238.676 36.0842H192.495C191.332 36.0842 190.389 35.1411 190.389 33.9778V32.8955C190.389 31.7322 191.332 30.7891 192.495 30.7891H238.676C239.839 30.7891 240.783 31.7322 240.783 32.8955V33.9778C240.783 35.1411 239.839 36.0842 238.676 36.0842Z" fill="url(#paint9_linear_114_70)"/>
<defs>
<linearGradient id="paint0_linear_114_70" x1="1.64433" y1="437.621" x2="8.00178" y2="437.621" gradientUnits="userSpaceOnUse">
<stop stop-color="#666666"/>
<stop offset="1"/>
</linearGradient>
<linearGradient id="paint1_linear_114_70" x1="426.832" y1="437.665" x2="433.135" y2="437.665" gradientUnits="userSpaceOnUse">
<stop/>
<stop offset="1" stop-color="#666666"/>
</linearGradient>
<linearGradient id="paint2_linear_114_70" x1="216.911" y1="873.808" x2="216.911" y2="823.472" gradientUnits="userSpaceOnUse">
<stop stop-color="#959595"/>
<stop offset="1"/>
</linearGradient>
<linearGradient id="paint3_linear_114_70" x1="216.911" y1="49.7028" x2="216.911" y2="-13.1464" gradientUnits="userSpaceOnUse">
<stop/>
<stop offset="1" stop-color="#808080"/>
</linearGradient>
<linearGradient id="paint4_linear_114_70" x1="407.004" y1="437.951" x2="422.308" y2="437.951" gradientUnits="userSpaceOnUse">
<stop stop-color="#F1F1F1"/>
<stop offset="0.0012" stop-color="#F0F0F0"/>
<stop offset="0.1385" stop-color="#B7B7B7"/>
<stop offset="0.2715" stop-color="#888888"/>
<stop offset="0.397" stop-color="#636363"/>
<stop offset="0.5134" stop-color="#494949"/>
<stop offset="0.6172" stop-color="#393939"/>
<stop offset="0.6978" stop-color="#333333"/>
</linearGradient>
<linearGradient id="paint5_linear_114_70" x1="20.2899" y1="840.424" x2="413.544" y2="840.424" gradientUnits="userSpaceOnUse">
<stop stop-color="#1A1A1A"/>
<stop offset="0.1173" stop-color="#454545"/>
<stop offset="0.2314" stop-color="#666666"/>
<stop offset="0.3395" stop-color="#7E7E7E"/>
<stop offset="0.4393" stop-color="#8D8D8D"/>
<stop offset="0.5229" stop-color="#929292"/>
<stop offset="0.5926" stop-color="#8B8B8B"/>
<stop offset="0.6974" stop-color="#767676"/>
<stop offset="0.8246" stop-color="#545454"/>
<stop offset="0.968" stop-color="#252525"/>
<stop offset="1" stop-color="#1A1A1A"/>
</linearGradient>
<linearGradient id="paint6_linear_114_70" x1="20.2899" y1="34.5276" x2="422.341" y2="34.5276" gradientUnits="userSpaceOnUse">
<stop stop-color="#1A1A1A"/>
<stop offset="0.1173" stop-color="#454545"/>
<stop offset="0.2314" stop-color="#666666"/>
<stop offset="0.3395" stop-color="#7E7E7E"/>
<stop offset="0.4393" stop-color="#8D8D8D"/>
<stop offset="0.5229" stop-color="#929292"/>
<stop offset="0.5926" stop-color="#8B8B8B"/>
<stop offset="0.6974" stop-color="#767676"/>
<stop offset="0.8246" stop-color="#545454"/>
<stop offset="0.968" stop-color="#252525"/>
<stop offset="1" stop-color="#1A1A1A"/>
</linearGradient>
<linearGradient id="paint7_linear_114_70" x1="11.504" y1="437.688" x2="20.5837" y2="437.688" gradientUnits="userSpaceOnUse">
<stop stop-color="#C8C8C8"/>
<stop offset="0.2107" stop-color="#A0A0A0"/>
<stop offset="0.5867" stop-color="#5D5D5D"/>
<stop offset="0.8599" stop-color="#343434"/>
<stop offset="1" stop-color="#242424"/>
</linearGradient>
<linearGradient id="paint8_linear_114_70" x1="406.96" y1="437.995" x2="422.308" y2="437.995" gradientUnits="userSpaceOnUse">
<stop stop-color="#242424"/>
<stop offset="0.1401" stop-color="#343434"/>
<stop offset="0.4133" stop-color="#5D5D5D"/>
<stop offset="0.7893" stop-color="#A0A0A0"/>
<stop offset="1" stop-color="#C8C8C8"/>
</linearGradient>
<linearGradient id="paint9_linear_114_70" x1="190.389" y1="33.437" x2="240.782" y2="33.437" gradientUnits="userSpaceOnUse">
<stop stop-color="#333333"/>
<stop offset="0.0901" stop-color="#2B2B2B"/>
<stop offset="0.2885" stop-color="#1E1E1E"/>
<stop offset="0.4787" stop-color="#1A1A1A"/>
<stop offset="0.7885" stop-color="#1C1C1C"/>
<stop offset="0.8999" stop-color="#232323"/>
<stop offset="0.9792" stop-color="#2E2E2E"/>
<stop offset="1" stop-color="#333333"/>
</linearGradient>
</defs>
</svg>
