<svg width="40" height="61" viewBox="0 0 40 61" fill="none" xmlns="http://www.w3.org/2000/svg">
<path d="M15.4359 1.06657C8.99999 1.94393 3.83073 6.33075 1.82236 12.6108C0.943698 15.3237 1.00075 14.1924 1.00075 30.5044C1.00075 46.8165 0.943698 45.6851 1.82236 48.398C2.6782 51.0878 3.95625 53.2004 5.95321 55.2207C8.30391 57.5873 10.86 58.9841 14.2149 59.7345C15.3104 59.9885 15.6413 60 19.7151 60C23.7661 60 24.1312 59.9769 25.2039 59.7345C28.6044 58.9841 31.3431 57.5295 33.7166 55.2207C36.3298 52.6925 37.9388 49.7949 38.7375 46.1931L39 44.9925V30.5044V16.0164L38.7375 14.8158C37.9616 11.3294 36.5238 8.66269 34.0361 6.1345C31.5257 3.56013 28.844 2.08247 25.2609 1.28591C24.2796 1.06657 23.7318 1.03194 20.1715 1.00885C17.9806 0.985761 15.8467 1.00885 15.4359 1.06657ZM18.8593 5.61501V7.97004L18.5626 8.0393C18.3914 8.08548 17.9578 8.42026 17.604 8.78968C16.5998 9.80557 16.577 9.90947 16.577 14.5734C16.577 18.8447 16.6227 19.2026 17.2617 20.0915C17.4557 20.357 17.8779 20.738 18.2316 20.9342L18.8478 21.2806L18.8821 24.4668L18.9163 27.6414L19.2358 27.9185C19.5782 28.2187 20.183 28.2879 20.5938 28.0686C21.073 27.8031 21.1415 27.3413 21.1415 24.2243V21.2921L21.7691 20.9342C22.1229 20.738 22.5451 20.357 22.7391 20.0915C23.3781 19.2026 23.4237 18.8447 23.4237 14.5734C23.4237 9.90947 23.4009 9.80557 22.3967 8.78968C22.043 8.42026 21.6094 8.08548 21.4382 8.0393L21.1415 7.97004V5.61501V3.25998H22.2027C28.3648 3.25998 34.1274 7.57753 36.0901 13.6614C36.8547 16.0395 36.8319 15.3814 36.8319 30.5044C36.8319 42.9491 36.8091 44.2767 36.6379 45.2349C35.976 48.7443 34.1959 51.9075 31.6398 54.1009C30.0536 55.4631 28.5017 56.352 26.5846 56.9985C24.679 57.645 23.7204 57.7489 19.6466 57.7489C15.6527 57.7489 14.7969 57.6565 12.9939 57.0447C7.49372 55.186 3.76226 50.1989 3.22593 44.0112C3.07759 42.2449 3.07759 18.7639 3.22593 16.9976C3.76226 10.7984 7.49372 5.8228 13.0053 3.95263C14.466 3.46778 15.6071 3.28307 17.353 3.27152L18.8593 3.25998V5.61501ZM20.8448 10.3712L21.1415 10.6829V14.5964V18.5099L20.8562 18.787C20.6394 19.0179 20.4682 19.0756 20.0004 19.0756C19.5325 19.0756 19.3613 19.0179 19.1445 18.787L18.8593 18.5099V14.5964V10.6829L19.1559 10.3712C19.3956 10.1288 19.5668 10.0711 20.0004 10.0711C20.434 10.0711 20.6052 10.1288 20.8448 10.3712Z" fill="white" stroke="white" stroke-width="0.5"/>
</svg>
